<svg xmlns="http://www.w3.org/2000/svg" width="205" height="87" viewBox="0 0 205 87" version="1.1"><path fill="#D52B1E" d="M46.68 69.29L48.21 69.29 47.16 71.05C47.14 71.08 47.12 71.11 47.1 71.13 47.07 71.16 47.04 71.16 47.01 71.17L47.01 71.22 48.06 71.22 48.06 71.17C48.03 71.16 48 71.16 47.98 71.15 47.96 71.14 47.94 71.12 47.94 71.08 47.94 71.07 47.96 71.04 47.97 71 48 70.97 48.02 70.93 48.04 70.9L48.95 69.22 48.95 68.62 48.9 68.62C48.9 68.66 48.89 68.69 48.87 68.7 48.85 68.72 48.83 68.72 48.81 68.72L46.68 68.72C46.66 68.72 46.65 68.72 46.62 68.7 46.61 68.69 46.59 68.66 46.59 68.61L46.54 68.61 46.54 69.39 46.59 69.39C46.59 69.35 46.61 69.32 46.62 69.31 46.65 69.29 46.66 69.29 46.68 69.29ZM44.87 69.33C44.97 69.33 45.06 69.36 45.14 69.4 45.21 69.44 45.26 69.49 45.32 69.56 45.36 69.63 45.4 69.71 45.43 69.79 45.44 69.88 45.45 69.96 45.45 70.05 45.45 70.14 45.44 70.23 45.43 70.31 45.4 70.4 45.36 70.48 45.32 70.54 45.26 70.61 45.21 70.67 45.14 70.71 45.06 70.75 44.97 70.77 44.87 70.77 44.76 70.77 44.67 70.75 44.6 70.71 44.52 70.67 44.46 70.61 44.42 70.54 44.37 70.48 44.33 70.4 44.31 70.31 44.29 70.23 44.28 70.14 44.28 70.05 44.28 69.96 44.29 69.88 44.31 69.79 44.33 69.71 44.37 69.63 44.42 69.56 44.46 69.49 44.52 69.44 44.6 69.4 44.67 69.36 44.76 69.33 44.87 69.33ZM44.87 68.78C44.69 68.78 44.52 68.81 44.37 68.87 44.21 68.94 44.08 69.03 43.96 69.14 43.84 69.26 43.75 69.39 43.68 69.55 43.61 69.7 43.57 69.87 43.57 70.05 43.57 70.24 43.61 70.4 43.68 70.57 43.75 70.71 43.84 70.85 43.96 70.97 44.08 71.08 44.21 71.17 44.37 71.23 44.52 71.29 44.69 71.32 44.87 71.32 45.04 71.32 45.21 71.29 45.36 71.23 45.52 71.17 45.66 71.08 45.78 70.97 45.89 70.85 45.99 70.71 46.06 70.57 46.12 70.4 46.16 70.24 46.16 70.05 46.16 69.87 46.12 69.7 46.06 69.55 45.99 69.39 45.89 69.26 45.78 69.14 45.66 69.03 45.52 68.94 45.36 68.87 45.21 68.81 45.04 68.78 44.87 68.78ZM41.76 69.18C41.8 69.18 41.86 69.18 41.92 69.19 41.98 69.2 42.03 69.22 42.09 69.26 42.14 69.28 42.19 69.31 42.22 69.36 42.26 69.4 42.29 69.46 42.29 69.53 42.29 69.6 42.26 69.66 42.22 69.7 42.19 69.75 42.14 69.79 42.09 69.81 42.03 69.83 41.98 69.85 41.92 69.86 41.86 69.88 41.8 69.88 41.76 69.88 41.72 69.88 41.67 69.88 41.61 69.86 41.55 69.85 41.49 69.83 41.44 69.81 41.38 69.79 41.34 69.75 41.3 69.7 41.26 69.66 41.24 69.6 41.24 69.53 41.24 69.46 41.26 69.4 41.3 69.36 41.34 69.31 41.38 69.28 41.44 69.26 41.49 69.22 41.55 69.2 41.61 69.19 41.67 69.18 41.72 69.18 41.76 69.18ZM40.97 70.48L40.59 71.12 40.65 71.15C40.68 71.11 40.72 71.09 40.76 71.09 40.77 71.09 40.79 71.1 40.84 71.12 40.88 71.13 40.94 71.15 41.02 71.17 41.1 71.19 41.18 71.2 41.29 71.21 41.39 71.23 41.5 71.24 41.63 71.24 41.81 71.24 42 71.21 42.18 71.16 42.36 71.1 42.51 71.02 42.64 70.9 42.78 70.8 42.89 70.66 42.96 70.49 43.04 70.33 43.08 70.14 43.08 69.93 43.08 69.72 43.05 69.54 42.98 69.39 42.92 69.23 42.83 69.11 42.71 69 42.6 68.9 42.46 68.82 42.3 68.77 42.14 68.72 41.96 68.69 41.76 68.69 41.63 68.69 41.5 68.71 41.37 68.74 41.23 68.77 41.12 68.82 41 68.89 40.89 68.95 40.8 69.04 40.73 69.14 40.66 69.25 40.62 69.38 40.62 69.53 40.62 69.66 40.65 69.78 40.7 69.88 40.75 69.98 40.82 70.07 40.9 70.14 40.99 70.22 41.09 70.27 41.2 70.31 41.31 70.35 41.43 70.37 41.55 70.37 41.71 70.37 41.85 70.35 41.99 70.31 42.13 70.26 42.28 70.2 42.44 70.12 42.43 70.24 42.4 70.33 42.36 70.41 42.31 70.5 42.24 70.57 42.17 70.62 42.09 70.68 42.01 70.71 41.92 70.75 41.82 70.77 41.72 70.79 41.63 70.79 41.55 70.79 41.48 70.78 41.4 70.77 41.33 70.76 41.26 70.75 41.2 70.73 41.15 70.71 41.1 70.69 41.07 70.66 41.03 70.63 41.01 70.59 41.01 70.55L41.01 70.5 40.97 70.48ZM38.69 69.78L38.75 69.78C38.75 69.75 38.75 69.73 38.76 69.71 38.77 69.69 38.78 69.67 38.8 69.66 38.83 69.64 38.87 69.63 38.92 69.62 38.97 69.61 39.03 69.59 39.11 69.57L39.11 71.08C39.11 71.12 39.1 71.14 39.07 71.15 39.05 71.16 39.02 71.16 38.99 71.17L38.99 71.22 39.94 71.22 39.94 71.17C39.91 71.16 39.88 71.16 39.86 71.15 39.84 71.14 39.82 71.12 39.82 71.08L39.82 68.87C39.82 68.83 39.84 68.81 39.86 68.8 39.88 68.79 39.91 68.78 39.94 68.78L39.94 68.72 39.01 68.72 39.01 68.78C39.03 68.78 39.06 68.79 39.07 68.8 39.1 68.81 39.11 68.83 39.11 68.87L39.11 69.02C39.1 69.02 39.08 69.03 39.05 69.04 39.02 69.05 38.98 69.07 38.95 69.08 38.92 69.09 38.88 69.11 38.85 69.12 38.82 69.13 38.8 69.13 38.8 69.13 38.78 69.13 38.76 69.12 38.76 69.09 38.75 69.06 38.75 69.03 38.75 69.02L38.69 69.02 38.69 69.78ZM50.43 22.79C49.74 21.14 50.55 18.86 50.55 18.86 46.95 19.71 46.25 21.88 45.18 22.09 44.34 22.26 44.58 20.23 44.58 20.23 44.58 20.23 39.48 22.83 37.71 26.95 36.2 30.51 37.59 32.49 37.59 32.49L39.46 32.49C39.28 26.56 43.42 24.29 46.2 22.77 46.83 22.43 47.41 22.11 47.86 21.8L48.84 21.12 48.65 22.29C48.64 22.3 48.42 23.74 48.71 25.1 48.79 25.5 48.93 25.85 49.07 26.19 49.4 27.02 49.73 27.87 49.35 29.31 49.01 30.52 48 31.73 47.25 32.49L48.6 32.49C48.6 32.49 50.01 31.91 51.12 29.42 52.23 26.23 51.12 24.92 50.43 22.79ZM48.37 29.04C48.47 28.68 48.51 28.38 48.51 28.1 48.51 27.52 48.33 27.07 48.13 26.56 47.99 26.18 47.83 25.79 47.73 25.31 47.59 24.69 47.55 24.07 47.55 23.54 47.55 23.41 47.55 23.29 47.56 23.17 47.28 23.32 46.98 23.49 46.68 23.65 44.03 25.1 40.46 27.05 40.46 32.11 40.46 32.24 40.47 32.36 40.47 32.49L45.78 32.49C46.04 32.27 47.96 30.59 48.37 29.04ZM46.14 44.22L46.63 38.57C45.91 38.9 45.06 39.13 44.11 39.2L43.6 48.53C43.6 48.6 43.53 48.65 43.46 48.65L43.46 48.65C43.39 48.65 43.33 48.6 43.33 48.53L42.82 39.2C41.86 39.13 41.02 38.91 40.29 38.59L40.79 44.22 22.88 36.78C23.42 38.2 29.96 55.49 30.06 55.76L41.44 60.81 41.69 56.36C41.69 56.32 41.73 56.28 41.77 56.28 41.81 56.28 41.85 56.32 41.85 56.36L42.27 61.18 42.28 61.18 42.68 65.78C42.7 66.2 43.05 66.53 43.46 66.53 43.89 66.53 44.22 66.2 44.24 65.79L44.65 61.18 45.08 56.36C45.08 56.32 45.11 56.28 45.15 56.28 45.2 56.28 45.23 56.32 45.23 56.36L45.49 60.81 56.87 55.76C56.96 55.49 63.5 38.2 64.04 36.78L46.14 44.22ZM32.22 34.71C34.1 35.93 37.29 38.68 38.98 40.42 34.9 33.3 31.84 31.74 31.01 31.51L32.22 34.71ZM39.45 42.42C32.79 35.77 28.45 33.73 26.39 33.35L27.96 37.49 39.45 42.42ZM49.93 33.27L36.99 33.27C36.7 33.27 36.46 33.51 36.46 33.8 36.46 34.09 36.7 34.34 36.99 34.34L49.93 34.34C50.23 34.34 50.46 34.09 50.46 33.8 50.46 33.51 50.23 33.27 49.93 33.27ZM37.66 35.12C38.26 36.55 40.25 38.45 43.46 38.45 46.68 38.45 48.58 36.55 49.31 35.12L37.66 35.12ZM55.91 31.51C55.08 31.74 52.02 33.3 47.94 40.42 49.63 38.68 52.82 35.93 54.72 34.71L55.91 31.51ZM58.97 37.49L60.54 33.35C58.47 33.73 54.14 35.77 47.48 42.42L58.97 37.49ZM73.99 43.88L73.99 43.17 69 43.17C68.93 36.72 67.34 30.72 64.64 25.73L68.32 25.73 67.8 25.02 64.24 25.02C61.91 20.95 58.83 17.59 55.27 15.26 55.27 15.26 55.03 15.16 54.89 15.1 54.74 15.03 53.75 14.66 53.75 14.66 52.78 14.3 51.04 13.83 51.04 13.83 56.05 15.85 60.36 19.82 63.43 25.02L54.6 25.02C54.18 23.64 53.71 22.33 53.19 21.1 51.63 17.4 49.76 14.72 47.7 13.17 47.7 13.17 47.37 13.12 47.15 13.09 46.94 13.07 46.08 12.98 46.08 12.98 49.25 14.55 52.01 18.94 53.87 25.02L52.56 25.02C52.56 25.02 52.66 25.3 52.73 25.73L54.08 25.73C54.51 27.21 54.89 28.78 55.21 30.43 55.21 30.43 55.55 30.29 55.74 30.24L55.88 30.19C55.57 28.64 55.22 27.15 54.81 25.73L63.83 25.73C66.58 30.68 68.23 36.69 68.29 43.17L62.95 43.17 62.68 43.88 68.29 43.88C68.24 50.35 66.6 56.36 63.87 61.32L54.82 61.32C55.17 60.13 55.47 58.89 55.74 57.61L54.95 57.96C54.7 59.12 54.41 60.25 54.1 61.32L47.37 61.32 45.78 62.03 53.89 62.03C52.07 68.01 49.38 72.36 46.28 74.03 46.28 74.03 47.04 73.94 47.25 73.92 47.47 73.9 47.83 73.84 47.83 73.84 49.84 72.28 51.67 69.63 53.19 66.01 53.72 64.76 54.19 63.43 54.62 62.03L63.46 62.03C60.5 67.08 56.38 70.97 51.58 73.06 51.58 73.06 52.89 72.69 53.71 72.38 53.71 72.38 55 71.9 55.31 71.75L55.58 71.65C59.03 69.31 62.01 66.01 64.28 62.03L67.78 62.03C67.9 61.89 68.3 61.32 68.3 61.32L64.67 61.32C67.36 56.33 68.95 50.33 69 43.88L73.99 43.88ZM73.99 43.88ZM39.54 61.32L32.84 61.32C32.53 60.25 32.25 59.13 32 57.98L31.21 57.63C31.47 58.9 31.78 60.13 32.12 61.32L23.08 61.32C20.33 56.36 18.71 50.35 18.65 43.88L24.23 43.88 23.96 43.17 18.66 43.17C18.72 36.69 20.36 30.68 23.11 25.73L32.14 25.73C31.73 27.16 31.37 28.65 31.06 30.22 31.06 30.22 31.31 30.28 31.46 30.34L31.73 30.46C32.05 28.79 32.43 27.21 32.86 25.73L36.88 25.73C37.03 25.45 37.29 25.02 37.29 25.02L33.07 25.02C34.93 18.94 37.69 14.55 40.87 12.98 40.87 12.98 40.57 13 40.34 13.02 40.1 13.04 39.28 13.15 39.28 13.15 37.2 14.69 35.31 17.39 33.75 21.1 33.23 22.33 32.76 23.64 32.34 25.02L23.51 25.02C26.61 19.77 30.98 15.77 36.05 13.77L35.83 13.81C35.54 13.89 34.71 14.12 34.71 14.12 33.59 14.41 31.87 15.13 31.87 15.13 28.22 17.46 25.08 20.86 22.71 25 22.7 25.01 22.7 25.01 22.7 25.02L19.03 25.02 18.5 25.73 22.31 25.73C19.61 30.72 18.01 36.72 17.95 43.17L12.83 43.17 12.83 43.88 17.95 43.88C18 50.33 19.59 56.33 22.28 61.32L18.52 61.32C18.52 61.32 19.01 62 19.04 62.03L22.66 62.03C24.97 66.08 28.01 69.43 31.54 71.76 31.54 71.76 32.83 72.29 33.37 72.47 33.37 72.47 34.45 72.85 35.07 73.01 35.32 73.06 35.55 73.13 35.55 73.13 30.67 71.06 26.47 67.14 23.48 62.03L32.32 62.03C32.75 63.44 33.22 64.77 33.75 66.01 35.28 69.64 37.11 72.3 39.14 73.86 39.14 73.86 39.77 73.94 40.28 74L40.7 74.04C37.58 72.39 34.88 68.03 33.05 62.03L41.14 62.03 39.54 61.32ZM37.88 51.3C37.91 51.13 38.05 50.59 38.07 50.46 38.17 50.68 38.51 51.44 38.6 51.65L37.88 51.3ZM39.71 53.06C39.52 52.67 38.18 49.87 37.88 49.27L37.85 49.26C37.63 49.89 37.12 51.59 37.01 51.88L37.59 52.53C37.64 52.35 37.77 51.81 37.79 51.76L38.87 52.27C38.92 52.38 39.19 53.02 39.29 53.26L39.71 53.06ZM33.06 49.42C33.09 49.27 33.18 48.76 33.19 48.64 33.3 48.84 33.69 49.53 33.79 49.73L33.06 49.42ZM34.97 50.99C34.75 50.64 33.25 48.09 32.91 47.54L32.89 47.53C32.71 48.13 32.35 49.72 32.26 49.99L32.87 50.58C32.9 50.41 33 49.9 33.01 49.85L34.1 50.29C34.15 50.39 34.45 50.97 34.57 51.19L34.97 50.99ZM32.04 49.92C31.9 49.69 30.32 46.58 30.06 46.11L30.04 46.1C30.01 46.46 29.93 47.67 29.91 47.89 29.69 47.54 28.66 45.83 28.43 45.46L28.41 45.45C28.42 45.99 28.55 48.12 28.56 48.46L29.18 49.02C29.15 48.66 29.03 47.19 29.03 47.08 29.15 47.27 30.03 48.69 30.38 49.22L30.4 49.23C30.44 48.75 30.49 47.88 30.49 47.7L30.5 47.7C30.64 47.96 31.51 49.76 31.62 50L32.04 49.92ZM50.28 50.73C50.37 50.52 50.73 49.77 50.83 49.57 50.85 49.69 50.98 50.23 51.01 50.4L50.28 50.73ZM49.55 52.3C49.67 52.08 49.95 51.45 50 51.34L51.09 50.84C51.12 50.9 51.24 51.43 51.29 51.61L51.88 50.98C51.77 50.69 51.29 49.01 51.07 48.38L51.05 48.39C50.73 48.97 49.33 51.73 49.14 52.11L49.55 52.3ZM57.2 47.92C57.33 47.7 57.79 46.9 57.92 46.68 57.92 46.82 57.94 47.39 57.94 47.58L57.2 47.92ZM56.25 49.59C56.39 49.36 56.77 48.69 56.83 48.57L57.93 48.07C57.94 48.12 57.96 48.71 57.97 48.9L58.64 48.23C58.59 47.91 58.46 46.09 58.37 45.41L58.34 45.42C57.94 46.04 56.15 48.97 55.9 49.38L56.25 49.59ZM52.56 51.14C52.67 50.91 53.44 49.14 53.56 48.89L53.57 48.89C53.58 49.06 53.69 49.91 53.77 50.37L53.79 50.36C54.11 49.85 54.91 48.46 55.03 48.27 55.04 48.38 55.01 49.81 55.01 50.15L55.61 49.61C55.6 49.28 55.57 47.19 55.54 46.68L55.52 46.68C55.31 47.04 54.37 48.73 54.17 49.06 54.14 48.85 53.98 47.62 53.93 47.27L53.9 47.28C53.68 47.74 52.25 50.84 52.14 51.07L52.56 51.14ZM48.84 51.99C48.55 52.13 48.16 52.28 48.08 52.32L48.23 51.27C48.31 50.69 48.46 49.74 48.48 49.63L47.89 49.87C47.88 49.95 47.72 51.1 47.71 51.18L47.63 51.8C47.61 51.91 47.46 52.91 47.41 53.16 47.61 53.08 48.67 52.7 48.75 52.67L48.84 51.99ZM45.18 52.3C45.25 52.12 45.5 51.46 45.57 51.28 45.62 51.42 45.9 52.05 45.97 52.25L45.18 52.3ZM44.68 53.69C44.75 53.49 44.95 52.93 44.98 52.84L46.17 52.77C46.21 52.84 46.4 53.36 46.49 53.57L47.05 53.13C46.86 52.78 45.99 50.87 45.6 50.1L45.57 50.1C45.33 50.6 44.29 52.97 44.14 53.29L44.68 53.69ZM40.46 53.54C40.51 53.33 40.9 51.92 40.96 51.7L40.97 51.7C41.04 51.89 41.46 52.83 41.71 53.36L41.73 53.36C41.96 52.95 42.51 51.82 42.59 51.67 42.63 51.79 43.07 53.29 43.18 53.66L43.75 53.34C43.64 52.98 42.92 50.81 42.72 50.25L42.69 50.25C42.55 50.54 41.93 51.88 41.78 52.15 41.68 51.91 41.07 50.59 40.89 50.19L40.86 50.19C40.73 50.59 40.01 52.99 39.94 53.18L40.46 53.54ZM36.62 51.39C36.3 51.27 36.07 51.15 35.98 51.11L35.78 50.02C35.67 49.44 35.51 48.52 35.5 48.41L34.81 48.12C34.83 48.22 35.06 49.36 35.07 49.43L35.19 50.05C35.21 50.16 35.4 51.2 35.43 51.44 35.65 51.53 36.67 52.03 36.75 52.06L36.62 51.39ZM32.14 46.89L33.61 47.51 33.46 46.88 32 46.27 32.14 46.89ZM78.67 50.9C78.69 50.78 78.73 50.68 78.8 50.59 78.86 50.49 78.94 50.41 79.03 50.35 79.13 50.28 79.24 50.25 79.36 50.23 79.48 50.21 79.63 50.21 79.76 50.24 79.91 50.27 80.04 50.32 80.14 50.39 80.25 50.45 80.33 50.53 80.39 50.63 80.46 50.72 80.51 50.82 80.53 50.93 80.55 51.04 80.55 51.16 80.53 51.28 80.51 51.39 80.46 51.5 80.39 51.59 80.33 51.69 80.25 51.77 80.15 51.83 80.06 51.89 79.95 51.93 79.82 51.95 79.7 51.97 79.57 51.97 79.43 51.94 79.28 51.91 79.15 51.86 79.05 51.79 78.95 51.73 78.86 51.65 78.8 51.55 78.73 51.46 78.69 51.35 78.67 51.25 78.64 51.13 78.64 51.02 78.67 50.9ZM77.84 50.74C77.8 50.93 77.8 51.13 77.82 51.35 77.85 51.55 77.92 51.75 78.03 51.94 78.14 52.13 78.3 52.3 78.5 52.44 78.7 52.58 78.96 52.69 79.26 52.75 79.57 52.81 79.85 52.82 80.09 52.76 80.32 52.7 80.54 52.61 80.71 52.48 80.88 52.35 81.01 52.19 81.12 52.01 81.22 51.82 81.28 51.63 81.33 51.43 81.36 51.24 81.37 51.04 81.35 50.83 81.33 50.62 81.26 50.43 81.15 50.24 81.05 50.05 80.89 49.89 80.69 49.74 80.5 49.59 80.24 49.49 79.93 49.43 79.63 49.37 79.35 49.37 79.1 49.42 78.86 49.48 78.66 49.57 78.48 49.7 78.31 49.83 78.16 49.99 78.06 50.17 77.95 50.36 77.88 50.54 77.84 50.74ZM36.16 78.85C36.27 78.87 36.38 78.92 36.47 78.98 36.56 79.05 36.64 79.13 36.7 79.23 36.76 79.33 36.8 79.43 36.82 79.56 36.84 79.68 36.83 79.81 36.8 79.96 36.78 80.1 36.73 80.23 36.66 80.33 36.6 80.44 36.51 80.52 36.42 80.59 36.32 80.65 36.22 80.69 36.11 80.71 36 80.74 35.89 80.74 35.76 80.71 35.65 80.69 35.55 80.65 35.46 80.58 35.36 80.52 35.28 80.44 35.22 80.34 35.16 80.24 35.12 80.13 35.1 80.01 35.07 79.89 35.09 79.75 35.12 79.61 35.15 79.47 35.19 79.34 35.26 79.23 35.33 79.12 35.41 79.04 35.5 78.98 35.6 78.91 35.7 78.87 35.81 78.85 35.92 78.82 36.04 78.83 36.16 78.85ZM36.32 78.03C36.14 77.99 35.93 77.99 35.72 78 35.51 78.03 35.31 78.1 35.12 78.21 34.93 78.32 34.76 78.48 34.62 78.67 34.47 78.88 34.37 79.13 34.31 79.44 34.24 79.75 34.24 80.03 34.29 80.27 34.34 80.5 34.44 80.71 34.56 80.88 34.69 81.05 34.86 81.19 35.04 81.3 35.22 81.4 35.41 81.47 35.6 81.51 35.79 81.55 36 81.56 36.21 81.54 36.41 81.52 36.61 81.46 36.8 81.35 36.98 81.24 37.16 81.09 37.3 80.89 37.44 80.69 37.55 80.44 37.61 80.12 37.68 79.82 37.68 79.55 37.63 79.31 37.57 79.06 37.48 78.85 37.35 78.67 37.23 78.5 37.07 78.36 36.89 78.25 36.7 78.14 36.51 78.07 36.32 78.03ZM30.76 78.8L29.78 78.43 30.75 77.31 30.76 78.8ZM30.62 80.1L31.6 80.43 31.63 80.34C31.61 80.33 31.59 80.31 31.57 80.3 31.55 80.28 31.54 80.25 31.54 80.21 31.55 80.07 31.53 77.27 31.53 77.14 31.53 77.01 31.54 76.93 31.55 76.92 31.56 76.87 31.6 76.86 31.65 76.87L31.69 76.78 30.44 76.32 30.41 76.41C30.46 76.43 30.48 76.47 30.46 76.51 30.45 76.54 30.38 76.63 30.25 76.78 30.12 76.94 28.61 78.73 28.37 79.03 28.34 79.05 28.32 79.06 28.3 79.07 28.27 79.07 28.25 79.07 28.22 79.06L28.19 79.15 29.06 79.51 29.09 79.42C29.07 79.42 29.07 79.41 29.05 79.4 29.03 79.38 29.02 79.36 29.04 79.33 29.05 79.31 29.07 79.28 29.1 79.24 29.13 79.21 29.36 78.93 29.39 78.89L30.76 79.41C30.76 79.45 30.76 79.82 30.76 79.87 30.76 79.91 30.76 79.95 30.75 79.97 30.74 80 30.72 80.02 30.7 80.02 30.67 80.02 30.66 80.01 30.65 80.01L30.62 80.1ZM7.97 55.51L7.64 54.51 9.12 54.57 7.97 55.51ZM6.86 56.2L7.21 57.18 7.3 57.15C7.29 57.12 7.29 57.1 7.3 57.07 7.3 57.04 7.32 57.02 7.34 57.01 7.45 56.92 9.64 55.16 9.74 55.08 9.84 55 9.9 54.96 9.92 54.95 9.96 54.94 9.99 54.96 10.01 55L10.11 54.98 9.7 53.72 9.61 53.74C9.63 53.8 9.61 53.84 9.57 53.85 9.54 53.86 9.42 53.86 9.22 53.86 9.02 53.85 6.68 53.78 6.29 53.78 6.26 53.78 6.24 53.76 6.22 53.74 6.2 53.72 6.18 53.7 6.18 53.68L6.09 53.71 6.35 54.61 6.45 54.58C6.44 54.57 6.43 54.55 6.43 54.53 6.43 54.51 6.45 54.49 6.48 54.48 6.5 54.48 6.54 54.47 6.58 54.48 6.63 54.48 6.99 54.49 7.04 54.49L7.49 55.89C7.46 55.91 7.17 56.14 7.13 56.17 7.1 56.2 7.07 56.22 7.04 56.23 7.01 56.24 6.99 56.23 6.97 56.21 6.96 56.2 6.95 56.18 6.95 56.17L6.86 56.2ZM12.51 64.64L11.92 63.77 13.37 63.43 12.51 64.64ZM11.64 65.6L12.24 66.46 12.32 66.4C12.31 66.38 12.29 66.35 12.29 66.32 12.29 66.3 12.3 66.27 12.31 66.25 12.4 66.14 14.03 63.86 14.11 63.75 14.19 63.64 14.23 63.58 14.25 63.58 14.29 63.55 14.32 63.56 14.36 63.6L14.43 63.55 13.7 62.45 13.62 62.5C13.65 62.55 13.64 62.59 13.6 62.62 13.58 62.62 13.47 62.66 13.27 62.71 13.08 62.76 10.81 63.33 10.44 63.43 10.41 63.44 10.38 63.44 10.36 63.42 10.33 63.41 10.31 63.39 10.3 63.37L10.22 63.42 10.72 64.22 10.79 64.17C10.79 64.16 10.78 64.14 10.77 64.12 10.76 64.1 10.78 64.08 10.81 64.06 10.83 64.05 10.86 64.04 10.9 64.03 10.95 64.02 11.3 63.93 11.34 63.92L12.16 65.14C12.14 65.17 11.92 65.47 11.89 65.51 11.86 65.55 11.84 65.58 11.82 65.58 11.79 65.6 11.77 65.6 11.76 65.59 11.73 65.58 11.72 65.56 11.72 65.55L11.64 65.6ZM46.5 80.87L45.45 80.94 45.88 79.53 46.5 80.87ZM46.89 82.11L47.93 82.01 47.93 81.91C47.9 81.92 47.87 81.91 47.85 81.9 47.82 81.89 47.8 81.87 47.79 81.85 47.73 81.71 46.57 79.16 46.52 79.04 46.46 78.91 46.44 78.85 46.44 78.83 46.43 78.79 46.46 78.76 46.51 78.75L46.51 78.65 45.19 78.74 45.19 78.84C45.25 78.84 45.28 78.87 45.28 78.91 45.29 78.94 45.26 79.05 45.2 79.25 45.15 79.45 44.51 81.69 44.41 82.07 44.41 82.1 44.39 82.12 44.36 82.14 44.34 82.15 44.32 82.16 44.29 82.16L44.3 82.25 45.24 82.23 45.23 82.13C45.22 82.13 45.2 82.13 45.18 82.13 45.16 82.12 45.14 82.1 45.14 82.07 45.14 82.05 45.15 82.01 45.16 81.96 45.18 81.92 45.27 81.57 45.29 81.52L46.74 81.42C46.77 81.46 46.92 81.8 46.94 81.85 46.95 81.88 46.96 81.92 46.96 81.94 46.97 81.98 46.96 82 46.94 82.01 46.92 82.01 46.9 82.02 46.89 82.02L46.89 82.11ZM18.33 73.01L19.31 73.83 19.37 73.76C19.35 73.74 19.34 73.71 19.33 73.68 19.33 73.66 19.33 73.62 19.34 73.57L19.82 71.45C19.93 71.44 20.62 71.33 20.79 71.31 20.96 71.28 21.12 71.27 21.26 71.26 21.4 71.25 21.5 71.26 21.55 71.29L21.62 71.22 20.65 70.42 20.59 70.49C20.61 70.52 20.63 70.55 20.65 70.59 20.66 70.62 20.65 70.66 20.62 70.71 20.6 70.71 20.56 70.73 20.49 70.75 20.42 70.76 20.33 70.78 20.21 70.79 20.11 70.81 18.8 70.96 18.7 70.97L19.66 69.87C19.69 69.82 19.73 69.81 19.77 69.82 19.81 69.83 19.85 69.85 19.89 69.88L19.94 69.8 19.08 69 19.02 69.08C19.04 69.1 19.07 69.13 19.08 69.16 19.09 69.2 19.08 69.25 19.04 69.29L17.06 71.55C17.03 71.6 16.99 71.62 16.94 71.62 16.91 71.61 16.87 71.59 16.85 71.56L16.79 71.63 17.67 72.43 17.73 72.36C17.7 72.34 17.68 72.3 17.66 72.26 17.64 72.22 17.65 72.18 17.69 72.14L18.11 71.65 18.96 71.51C18.95 71.55 18.67 72.78 18.65 72.84 18.64 72.9 18.62 72.94 18.61 72.95 18.57 73 18.53 73.01 18.49 73 18.44 72.98 18.41 72.96 18.39 72.94L18.33 73.01ZM42.56 82.25L43.84 82.27 43.84 82.18C43.81 82.17 43.78 82.16 43.75 82.14 43.73 82.12 43.72 82.09 43.7 82.05L42.72 80.1C42.8 80.03 43.26 79.5 43.39 79.37 43.51 79.24 43.62 79.13 43.72 79.04 43.83 78.94 43.91 78.89 43.97 78.88L43.98 78.78 42.72 78.78 42.72 78.87C42.75 78.88 42.78 78.89 42.82 78.9 42.85 78.92 42.88 78.96 42.87 79.02 42.87 79.03 42.85 79.07 42.8 79.12 42.76 79.18 42.69 79.25 42.61 79.34 42.54 79.43 41.62 80.37 41.56 80.44L41.6 78.98C41.6 78.91 41.62 78.88 41.66 78.87 41.7 78.86 41.74 78.84 41.78 78.84L41.78 78.75 40.6 78.67 40.6 78.77C40.64 78.77 40.68 78.78 40.71 78.8 40.74 78.82 40.76 78.86 40.76 78.91L40.66 81.93C40.65 81.99 40.63 82.03 40.6 82.05 40.57 82.07 40.53 82.07 40.49 82.07L40.49 82.16 41.68 82.23 41.68 82.13C41.64 82.13 41.6 82.12 41.56 82.09 41.52 82.08 41.5 82.05 41.51 81.98L41.53 81.34 42.1 80.69C42.11 80.73 42.67 81.86 42.7 81.91 42.73 81.98 42.74 82.02 42.74 82.03 42.74 82.09 42.71 82.13 42.67 82.14 42.63 82.16 42.59 82.16 42.56 82.16L42.56 82.25ZM27.65 78.15L26.05 77.34 26.4 76.64 27.46 77.19C27.49 77.19 27.51 77.22 27.51 77.25 27.53 77.28 27.51 77.33 27.48 77.4L27.55 77.44 28.02 76.51 27.95 76.48C27.91 76.54 27.88 76.58 27.85 76.59 27.81 76.6 27.79 76.6 27.76 76.59L26.71 76.05 26.99 75.48 28.64 76.31C28.66 76.33 28.68 76.36 28.69 76.39 28.7 76.42 28.69 76.47 28.65 76.54L28.72 76.57 29.2 75.62 29.13 75.6C29.1 75.66 29.07 75.69 29.04 75.7 29 75.71 28.98 75.7 28.95 75.69L26.39 74.39 26.35 74.48C26.39 74.5 26.42 74.54 26.44 74.56 26.47 74.6 26.47 74.64 26.44 74.69L25.08 77.37C25.06 77.43 25.03 77.45 24.99 77.45 24.95 77.45 24.91 77.44 24.87 77.42L24.82 77.5 27.34 78.78C27.38 78.8 27.41 78.82 27.43 78.84 27.44 78.86 27.44 78.91 27.43 78.99L27.48 79.01 27.96 78.09 27.89 78.05C27.81 78.16 27.73 78.2 27.65 78.15ZM22.54 75.33L21.09 74.28 21.54 73.65 22.5 74.34C22.52 74.36 22.54 74.38 22.54 74.41 22.55 74.45 22.53 74.49 22.49 74.56L22.55 74.6 23.15 73.76 23.09 73.72C23.05 73.78 23.01 73.81 22.97 73.81 22.94 73.82 22.92 73.81 22.89 73.8L21.93 73.11 22.3 72.59 23.8 73.66C23.82 73.68 23.84 73.7 23.84 73.74 23.85 73.77 23.82 73.82 23.78 73.88L23.84 73.93 24.46 73.07 24.39 73.02C24.35 73.08 24.32 73.11 24.28 73.11 24.25 73.12 24.22 73.11 24.2 73.09L21.87 71.42 21.82 71.5C21.85 71.53 21.88 71.56 21.9 71.59 21.91 71.63 21.91 71.67 21.88 71.71L20.13 74.17C20.1 74.21 20.06 74.23 20.01 74.22 19.98 74.21 19.94 74.2 19.9 74.18L19.85 74.26 22.13 75.9C22.18 75.93 22.2 75.96 22.21 75.98 22.23 76 22.22 76.05 22.19 76.12L22.24 76.16 22.85 75.31 22.79 75.26C22.7 75.36 22.61 75.38 22.54 75.33ZM8.47 49.42L6.73 49.8C6.53 49.85 6.34 49.91 6.17 49.99 5.99 50.08 5.85 50.2 5.74 50.34 5.62 50.48 5.55 50.65 5.51 50.85 5.48 51.05 5.49 51.29 5.54 51.57 5.6 51.84 5.69 52.06 5.8 52.23 5.91 52.4 6.05 52.53 6.21 52.62 6.38 52.7 6.55 52.74 6.74 52.76 6.94 52.77 7.14 52.75 7.35 52.71L9.09 52.34C9.15 52.32 9.18 52.33 9.21 52.37 9.23 52.4 9.25 52.44 9.26 52.49L9.36 52.47 9.08 51.36 9 51.38C8.99 51.4 8.99 51.42 8.98 51.45 8.96 51.48 8.93 51.5 8.87 51.51L6.99 51.91C6.79 51.95 6.64 51.92 6.54 51.83 6.42 51.73 6.35 51.59 6.31 51.41 6.27 51.22 6.28 51.06 6.34 50.93 6.4 50.79 6.54 50.71 6.73 50.67L8.61 50.27C8.67 50.26 8.71 50.27 8.73 50.28 8.75 50.31 8.76 50.33 8.77 50.35L8.87 50.33 8.67 49.2 8.58 49.22C8.58 49.27 8.58 49.31 8.57 49.35 8.57 49.39 8.53 49.41 8.47 49.42ZM15.08 64.83L13.7 65.97C13.53 66.1 13.39 66.25 13.29 66.41 13.17 66.56 13.1 66.73 13.06 66.91 13.03 67.09 13.04 67.27 13.1 67.47 13.16 67.67 13.28 67.87 13.46 68.08 13.64 68.3 13.81 68.46 13.99 68.56 14.17 68.65 14.36 68.7 14.54 68.7 14.72 68.7 14.9 68.66 15.07 68.59 15.25 68.51 15.42 68.4 15.58 68.27L16.95 67.13C17.01 67.1 17.04 67.09 17.08 67.1 17.11 67.12 17.15 67.14 17.18 67.18L17.26 67.12 16.5 66.26 16.43 66.32C16.44 66.34 16.45 66.37 16.45 66.4 16.46 66.43 16.44 66.47 16.39 66.5L14.9 67.73C14.74 67.85 14.6 67.9 14.46 67.86 14.32 67.83 14.19 67.74 14.07 67.59 13.95 67.44 13.88 67.29 13.88 67.15 13.87 67.01 13.94 66.87 14.1 66.75L15.59 65.52C15.64 65.48 15.68 65.46 15.7 65.47 15.73 65.48 15.75 65.49 15.77 65.51L15.85 65.45 15.15 64.54 15.07 64.6C15.1 64.64 15.12 64.68 15.13 64.72 15.14 64.76 15.12 64.79 15.08 64.83ZM8.79 60.28L10.82 59.23 10.83 59.24 9.22 61.11 11.68 60.9 11.68 60.91 9.65 61.96C9.61 61.98 9.57 61.98 9.54 61.96 9.51 61.94 9.48 61.91 9.46 61.87L9.37 61.92 9.88 62.84 9.97 62.8C9.96 62.77 9.95 62.73 9.95 62.7 9.96 62.67 9.98 62.64 10.03 62.62L12.7 61.24C12.76 61.21 12.79 61.21 12.82 61.23 12.85 61.25 12.87 61.27 12.89 61.28L12.97 61.25 12.29 60.02 12.2 60.06C12.22 60.1 12.22 60.12 12.23 60.15 12.23 60.16 12.22 60.19 12.2 60.2 12.18 60.21 12.12 60.22 12.01 60.24 11.9 60.25 10.91 60.32 10.77 60.33 10.8 60.3 11.47 59.54 11.56 59.45 11.66 59.34 11.72 59.28 11.73 59.27 11.76 59.26 11.77 59.26 11.79 59.28 11.81 59.3 11.82 59.33 11.85 59.35L11.92 59.31 11.33 58.05 11.25 58.09C11.26 58.12 11.26 58.15 11.26 58.2 11.26 58.23 11.24 58.26 11.19 58.28L8.52 59.66C8.47 59.69 8.43 59.69 8.4 59.67 8.37 59.65 8.35 59.62 8.32 59.6L8.24 59.64 8.66 60.55 8.75 60.5C8.73 60.46 8.71 60.41 8.71 60.37 8.71 60.33 8.74 60.3 8.79 60.28ZM76.34 58.11C76.4 58 76.47 57.9 76.54 57.83 76.63 57.75 76.73 57.69 76.83 57.65 76.93 57.61 77.05 57.59 77.18 57.59 77.3 57.6 77.43 57.64 77.56 57.69 77.7 57.75 77.81 57.83 77.9 57.92 77.99 58 78.06 58.09 78.1 58.2 78.15 58.31 78.16 58.42 78.16 58.53 78.16 58.64 78.14 58.75 78.09 58.87 78.05 58.97 77.98 59.07 77.9 59.15 77.81 59.23 77.72 59.28 77.61 59.33 77.5 59.36 77.39 59.39 77.27 59.38 77.14 59.37 77.02 59.34 76.88 59.28 76.74 59.22 76.63 59.15 76.54 59.07 76.45 58.97 76.38 58.89 76.34 58.78 76.3 58.67 76.28 58.56 76.28 58.44 76.28 58.33 76.3 58.22 76.34 58.11ZM75.58 57.77C75.5 57.96 75.46 58.15 75.44 58.36 75.42 58.58 75.45 58.79 75.51 58.99 75.58 59.2 75.7 59.39 75.87 59.57 76.04 59.76 76.26 59.92 76.55 60.04 76.84 60.16 77.1 60.23 77.36 60.22 77.6 60.22 77.82 60.17 78.01 60.08 78.21 59.99 78.38 59.86 78.51 59.7 78.65 59.54 78.76 59.37 78.84 59.19 78.92 59.01 78.97 58.82 78.99 58.61 79.01 58.4 78.99 58.19 78.92 57.99 78.85 57.78 78.74 57.58 78.58 57.4 78.41 57.22 78.18 57.07 77.89 56.94 77.61 56.82 77.35 56.75 77.09 56.76 76.85 56.76 76.62 56.8 76.42 56.89 76.22 56.99 76.06 57.11 75.92 57.27 75.77 57.42 75.66 57.59 75.58 57.77ZM75.24 62.05L74.43 61.57 74.77 61.01C74.85 60.87 74.94 60.79 75.04 60.77 75.14 60.75 75.25 60.78 75.4 60.87 75.54 60.95 75.63 61.05 75.65 61.15 75.67 61.25 75.64 61.38 75.55 61.53L75.24 62.05ZM73.63 62.07L76.21 63.62C76.27 63.65 76.29 63.68 76.29 63.71 76.29 63.75 76.29 63.77 76.29 63.78L76.37 63.83 76.93 62.89 76.85 62.84C76.82 62.86 76.8 62.89 76.77 62.91 76.74 62.93 76.7 62.92 76.65 62.89L75.81 62.39 76.18 61.78C76.26 61.64 76.32 61.5 76.37 61.36 76.41 61.22 76.43 61.08 76.41 60.94 76.39 60.81 76.34 60.67 76.25 60.53 76.15 60.4 76.01 60.28 75.82 60.15 75.62 60.04 75.44 59.97 75.28 59.96 75.12 59.94 74.98 59.96 74.85 60.01 74.72 60.06 74.6 60.14 74.5 60.25 74.4 60.35 74.31 60.48 74.23 60.62L73.38 62.04 73.46 62.09C73.47 62.08 73.49 62.07 73.51 62.05 73.54 62.04 73.58 62.04 73.63 62.07ZM80.46 53.85L77.6 52.93C77.54 52.91 77.51 52.88 77.51 52.84 77.5 52.81 77.5 52.77 77.51 52.72L77.43 52.69 77.12 53.75 77.21 53.78C77.23 53.73 77.25 53.7 77.28 53.67 77.3 53.64 77.35 53.64 77.4 53.66L78.88 54.14C78.67 54.21 77.35 54.66 77.23 54.7 77.12 54.74 77.07 54.75 77.05 54.75 76.99 54.74 76.96 54.7 76.96 54.68 76.95 54.64 76.95 54.61 76.95 54.57L76.86 54.55 76.36 55.97 76.45 56C76.48 55.96 76.5 55.92 76.52 55.89 76.54 55.87 76.58 55.87 76.64 55.88L79.5 56.8C79.56 56.82 79.59 56.85 79.59 56.88 79.59 56.92 79.59 56.96 79.59 57L79.68 57.03 80.04 56.01 79.94 55.98C79.93 56.03 79.91 56.06 79.88 56.08 79.86 56.11 79.82 56.11 79.76 56.09L77.8 55.45 77.78 55.44C78.09 55.35 79.18 54.97 79.41 54.88 79.64 54.81 79.83 54.74 79.98 54.69 80.13 54.65 80.23 54.63 80.28 54.65 80.32 54.66 80.34 54.69 80.34 54.74 80.34 54.78 80.32 54.82 80.31 54.85L80.4 54.87 80.73 53.75 80.64 53.72C80.62 53.77 80.59 53.81 80.57 53.83 80.55 53.86 80.51 53.87 80.46 53.85ZM60.82 77.85L59.57 75.12C59.54 75.07 59.54 75.04 59.57 75 59.59 74.98 59.63 74.95 59.67 74.92L59.63 74.84 58.64 75.33 58.68 75.42C58.72 75.4 58.77 75.39 58.8 75.39 58.84 75.39 58.87 75.42 58.89 75.47L59.54 76.89C59.34 76.78 58.12 76.11 58.01 76.05 57.91 75.99 57.87 75.97 57.86 75.95 57.83 75.9 57.83 75.86 57.85 75.83 57.87 75.81 57.89 75.78 57.92 75.77L57.88 75.69 56.49 76.27 56.54 76.37C56.58 76.35 56.62 76.34 56.65 76.34 56.69 76.34 56.73 76.37 56.75 76.43L58 79.15C58.03 79.21 58.03 79.25 58.01 79.27 57.98 79.31 57.95 79.33 57.91 79.35L57.96 79.43 58.95 79.01 58.91 78.93C58.87 78.94 58.83 78.95 58.79 78.95 58.76 78.94 58.72 78.91 58.7 78.87L57.84 76.99 57.85 76.97C58.11 77.13 59.14 77.67 59.35 77.79 59.56 77.9 59.74 78 59.88 78.08 60.02 78.16 60.1 78.22 60.11 78.26 60.13 78.3 60.13 78.34 60.1 78.37 60.05 78.4 60.02 78.42 59.99 78.43L60.03 78.52 61.08 78 61.04 77.91C60.99 77.92 60.95 77.94 60.91 77.94 60.88 77.94 60.85 77.91 60.82 77.85ZM65.54 70.96L64.56 71.72 64.61 71.8C64.67 71.76 64.71 71.74 64.75 71.73 64.79 71.72 64.83 71.74 64.86 71.78L66.72 74.14C66.76 74.19 66.76 74.22 66.75 74.26 66.73 74.29 66.7 74.33 66.65 74.38L66.71 74.45 67.69 73.68 67.64 73.61C67.58 73.64 67.54 73.66 67.51 73.67 67.47 73.68 67.43 73.67 67.39 73.62L65.54 71.27C65.49 71.22 65.48 71.18 65.5 71.15 65.52 71.11 65.56 71.07 65.6 71.03L65.54 70.96ZM55.88 76.52L54.7 76.94 54.73 77.03C54.8 77.01 54.84 77.01 54.88 77.01 54.92 77.01 54.95 77.04 54.97 77.09L55.98 79.92C56 79.98 56 80.02 55.97 80.04 55.94 80.07 55.9 80.1 55.84 80.13L55.87 80.21 57.04 79.79 57.01 79.7C56.95 79.72 56.91 79.72 56.87 79.72 56.82 79.72 56.8 79.69 56.78 79.64L55.77 76.81C55.75 76.76 55.75 76.71 55.78 76.69 55.81 76.66 55.85 76.63 55.91 76.61L55.88 76.52ZM50.66 78.05L50.61 77.82C50.51 77.9 50.41 77.98 50.31 78.07 50.21 78.17 50.13 78.28 50.06 78.4 49.99 78.52 49.95 78.65 49.92 78.79 49.89 78.93 49.89 79.09 49.92 79.26 49.96 79.45 50.03 79.6 50.14 79.73 50.23 79.86 50.37 79.9 50.54 79.87 50.66 79.84 50.76 79.77 50.84 79.66 50.92 79.55 50.93 79.42 50.91 79.25 50.87 79.05 50.79 78.91 50.67 78.85 50.55 78.78 50.42 78.77 50.27 78.79 50.26 78.62 50.3 78.47 50.38 78.35 50.46 78.23 50.56 78.13 50.66 78.05ZM73.13 66.31L72.48 67.14 71.71 65.87 73.13 66.31ZM74.3 66.84L74.92 66.01 74.84 65.95C74.82 65.97 74.8 65.99 74.78 65.99 74.75 66.01 74.72 66.01 74.7 66 74.56 65.95 71.91 65.11 71.78 65.07 71.66 65.03 71.58 65 71.57 64.99 71.53 64.96 71.53 64.92 71.56 64.88L71.48 64.81 70.67 65.85 70.75 65.91C70.78 65.87 70.83 65.86 70.86 65.89 70.88 65.91 70.95 66.01 71.05 66.18 71.17 66.36 72.4 68.33 72.61 68.66 72.63 68.68 72.64 68.71 72.63 68.74 72.63 68.77 72.61 68.79 72.6 68.81L72.67 68.87 73.28 68.15 73.2 68.09C73.19 68.1 73.18 68.11 73.17 68.12 73.15 68.14 73.13 68.13 73.1 68.11 73.08 68.1 73.06 68.07 73.04 68.03 73.01 67.99 72.83 67.69 72.8 67.65L73.7 66.5C73.74 66.51 74.09 66.61 74.13 66.63 74.17 66.65 74.2 66.66 74.22 66.67 74.25 66.7 74.26 66.72 74.25 66.75 74.24 66.76 74.23 66.77 74.22 66.78L74.3 66.84ZM62.98 75.47L62.08 76.01 61.81 74.56 62.98 75.47ZM63.9 76.4L64.77 75.83 64.72 75.75C64.69 75.77 64.67 75.78 64.64 75.78 64.61 75.78 64.59 75.77 64.57 75.75 64.46 75.65 62.27 73.92 62.17 73.83 62.07 73.75 62.01 73.7 62 73.68 61.97 73.64 61.99 73.6 62.03 73.57L61.98 73.49 60.85 74.17 60.89 74.24C60.94 74.22 60.98 74.23 61 74.27 61.01 74.3 61.05 74.42 61.09 74.62 61.13 74.82 61.58 77.1 61.66 77.48 61.67 77.51 61.66 77.54 61.64 77.56 61.64 77.59 61.62 77.61 61.6 77.62L61.64 77.7 62.47 77.25 62.42 77.17C62.41 77.17 62.39 77.18 62.37 77.19 62.35 77.19 62.33 77.18 62.31 77.15 62.3 77.12 62.29 77.09 62.28 77.05 62.27 77 62.21 76.65 62.2 76.6L63.46 75.85C63.49 75.88 63.77 76.1 63.81 76.14 63.85 76.17 63.87 76.19 63.89 76.21 63.9 76.24 63.91 76.26 63.89 76.28 63.87 76.29 63.86 76.3 63.85 76.31L63.9 76.4ZM53.7 79.56L52.69 79.83 52.82 78.36 53.7 79.56ZM54.33 80.69L55.32 80.39 55.31 80.3C55.28 80.31 55.25 80.31 55.22 80.3 55.2 80.3 55.18 80.28 55.17 80.26 55.08 80.14 53.43 77.86 53.36 77.76 53.29 77.65 53.24 77.59 53.24 77.57 53.22 77.53 53.25 77.49 53.3 77.47L53.27 77.38 52 77.73 52.03 77.82C52.08 77.81 52.11 77.83 52.12 77.87 52.13 77.9 52.13 78.01 52.11 78.22 52.1 78.42 51.91 80.75 51.89 81.15 51.89 81.17 51.88 81.2 51.86 81.22 51.84 81.24 51.81 81.25 51.79 81.26L51.81 81.35 52.73 81.14 52.7 81.04C52.69 81.05 52.68 81.05 52.66 81.05 52.64 81.05 52.62 81.03 52.61 80.99 52.61 80.97 52.61 80.94 52.61 80.89 52.62 80.85 52.64 80.48 52.64 80.44L54.06 80.05C54.08 80.08 54.29 80.38 54.32 80.42 54.35 80.46 54.36 80.49 54.37 80.51 54.38 80.55 54.37 80.57 54.36 80.58 54.34 80.6 54.32 80.6 54.31 80.6L54.33 80.69ZM71.52 70.14L72.38 69.19 72.31 69.12C72.3 69.14 72.27 69.15 72.24 69.16 72.21 69.17 72.18 69.16 72.12 69.15L70.03 68.57C70.03 68.46 69.96 67.76 69.94 67.58 69.93 67.41 69.93 67.25 69.92 67.11 69.92 66.97 69.94 66.87 69.98 66.82L69.9 66.75 69.06 67.68 69.13 67.74C69.15 67.73 69.19 67.71 69.22 67.69 69.26 67.68 69.29 67.69 69.34 67.73 69.35 67.74 69.36 67.78 69.38 67.86 69.39 67.93 69.4 68.02 69.41 68.13 69.42 68.25 69.5 69.57 69.51 69.66L68.46 68.64C68.42 68.61 68.4 68.57 68.42 68.53 68.43 68.49 68.45 68.46 68.48 68.42L68.41 68.35 67.57 69.18 67.64 69.25C67.66 69.22 67.69 69.19 67.73 69.18 67.76 69.17 67.8 69.19 67.84 69.23L70 71.32C70.04 71.36 70.05 71.4 70.04 71.44 70.04 71.48 70.02 71.51 70 71.53L70.06 71.6 70.92 70.77 70.85 70.7C70.82 70.73 70.78 70.75 70.74 70.77 70.7 70.79 70.66 70.78 70.62 70.73L70.16 70.29 70.05 69.43C70.09 69.44 71.3 69.78 71.36 69.8 71.43 69.82 71.46 69.84 71.48 69.85 71.52 69.89 71.53 69.93 71.51 69.97 71.49 70.02 71.47 70.05 71.45 70.07L71.52 70.14ZM51.77 76.76L51.92 77.25 53.1 76.9 52.96 76.41 51.77 76.76ZM51.85 77.01L53.03 76.65M81.92 33.6L82.22 33.52C82.11 33.37 81.99 33.23 81.85 33.09 81.7 32.95 81.55 32.83 81.38 32.75 81.21 32.65 81.03 32.6 80.83 32.56 80.64 32.53 80.43 32.55 80.22 32.61 79.97 32.68 79.78 32.79 79.63 32.96 79.48 33.13 79.45 33.33 79.51 33.57 79.57 33.76 79.67 33.9 79.83 34 79.99 34.11 80.18 34.13 80.39 34.07 80.65 34 80.81 33.87 80.88 33.68 80.95 33.49 80.95 33.3 80.89 33.08 81.12 33.06 81.31 33.1 81.49 33.21 81.66 33.32 81.8 33.45 81.92 33.6ZM82.02 36.55L81.65 34.74 81.52 34.77C81.54 34.86 81.54 34.93 81.54 34.99 81.52 35.04 81.48 35.08 81.41 35.09L77.58 35.9C77.5 35.92 77.45 35.9 77.42 35.85 77.4 35.81 77.37 35.74 77.34 35.65L77.22 35.67 77.59 37.49 77.71 37.46C77.7 37.37 77.7 37.29 77.71 37.24 77.72 37.18 77.76 37.14 77.83 37.13L81.66 36.32C81.73 36.3 81.78 36.32 81.81 36.37 81.85 36.42 81.87 36.49 81.9 36.57L82.02 36.55ZM10.43 22.25L9.47 23.82 9.58 23.89C9.63 23.81 9.68 23.76 9.72 23.72 9.76 23.69 9.82 23.69 9.89 23.73L13.23 25.76C13.29 25.8 13.32 25.85 13.31 25.9 13.3 25.96 13.28 26.03 13.23 26.12L13.34 26.18 14.3 24.6 14.2 24.54C14.14 24.61 14.09 24.67 14.05 24.7 14 24.74 13.95 24.73 13.88 24.7L10.54 22.67C10.47 22.63 10.45 22.58 10.46 22.52 10.47 22.47 10.49 22.4 10.54 22.32L10.43 22.25ZM32.15 5.87L30.4 6.44 30.43 6.56C30.52 6.53 30.6 6.52 30.65 6.53 30.7 6.53 30.74 6.57 30.77 6.64L32 10.36C32.02 10.43 32.01 10.48 31.97 10.52 31.92 10.56 31.86 10.59 31.77 10.62L31.81 10.74 33.57 10.17 33.53 10.05C33.43 10.08 33.36 10.09 33.31 10.08 33.24 10.08 33.2 10.05 33.18 9.98L31.96 6.26C31.94 6.19 31.95 6.13 31.99 6.09 32.03 6.06 32.09 6.02 32.19 5.99L32.15 5.87ZM80.67 31.24L80.05 29.5 79.94 29.54C79.96 29.63 79.98 29.7 79.98 29.76 79.97 29.82 79.94 29.86 79.87 29.88L76.19 31.22C76.13 31.24 76.07 31.23 76.04 31.19 76 31.15 75.96 31.08 75.92 31L75.81 31.04 76.42 32.78 76.54 32.74C76.51 32.65 76.5 32.57 76.5 32.52 76.5 32.46 76.54 32.42 76.61 32.39L80.28 31.06C80.35 31.03 80.41 31.04 80.45 31.09 80.49 31.13 80.52 31.2 80.55 31.28L80.67 31.24ZM73.44 18.25L72.39 17.04 72.29 17.11C72.31 17.14 72.32 17.16 72.32 17.2 72.33 17.23 72.31 17.27 72.27 17.31 72.25 17.34 69.9 20.56 69.88 20.58 69.82 20.62 69.69 20.62 69.58 20.5L69.48 20.57 70.72 22.05 70.82 21.98C70.78 21.92 70.76 21.86 70.75 21.82 70.73 21.77 70.74 21.73 70.77 21.71 70.8 21.69 70.88 21.65 70.99 21.61 71.11 21.57 72.85 20.97 72.99 20.92 73.12 20.87 73.2 20.83 73.26 20.81L73.27 20.83C73.24 20.87 73.18 20.95 73.09 21.07 73.01 21.19 71.97 22.71 71.9 22.81 71.83 22.92 71.77 22.99 71.75 23.01 71.69 23.04 71.6 23 71.48 22.87L71.37 22.94 72.5 24.55 72.59 24.48C72.51 24.32 72.55 24.21 72.61 24.16 72.63 24.15 76.16 22.79 76.22 22.77 76.3 22.74 76.36 22.73 76.41 22.72 76.47 22.71 76.53 22.73 76.59 22.79L76.69 22.72 75.86 21.45 75.76 21.53C75.81 21.58 75.83 21.63 75.85 21.69 75.85 21.75 75.83 21.8 75.78 21.85 75.74 21.87 73.39 22.81 73.32 22.84L73.31 22.83C73.34 22.79 74.65 20.84 74.72 20.73 74.79 20.63 74.84 20.57 74.85 20.56 74.91 20.51 74.97 20.5 75.02 20.53 75.07 20.56 75.12 20.6 75.16 20.65L75.25 20.57 74.11 19.08 74.02 19.16C74.06 19.2 74.08 19.26 74.1 19.31 74.11 19.37 74.09 19.42 74.03 19.47 73.99 19.5 73.92 19.53 73.8 19.58 73.68 19.62 71.51 20.35 71.44 20.39L71.43 20.38C71.48 20.32 73.03 18.25 73.05 18.23 73.11 18.19 73.17 18.18 73.21 18.21 73.27 18.24 73.31 18.28 73.35 18.32L73.44 18.25ZM76.17 27.73L75.46 26.36 77.4 26.21 76.17 27.73ZM74.91 28.93L75.55 30.38 75.66 30.33C75.64 30.29 75.64 30.26 75.63 30.22 75.63 30.17 75.64 30.14 75.67 30.11 75.79 29.98 78.26 26.94 78.37 26.81 78.48 26.68 78.54 26.6 78.56 26.59 78.62 26.56 78.67 26.58 78.71 26.65L78.82 26.59 77.94 24.88 77.83 24.93C77.86 25.01 77.85 25.06 77.8 25.09 77.77 25.11 77.62 25.13 77.36 25.15 77.09 25.18 73.88 25.5 73.37 25.55 73.33 25.56 73.3 25.55 73.27 25.53 73.24 25.5 73.2 25.47 73.19 25.44L73.08 25.49 73.79 26.73 73.9 26.67C73.89 26.66 73.88 26.63 73.88 26.6 73.87 26.57 73.88 26.54 73.93 26.52 73.95 26.51 73.99 26.5 74.06 26.49 74.11 26.49 74.62 26.45 74.67 26.44L75.67 28.35C75.63 28.39 75.29 28.81 75.25 28.85 75.21 28.9 75.18 28.93 75.16 28.94 75.11 28.96 75.08 28.96 75.06 28.94 75.04 28.91 75.02 28.89 75.01 28.87L74.91 28.93ZM68.36 17.03L67.2 16.01 68.96 15.18 68.36 17.03ZM67.6 18.61L68.71 19.73 68.8 19.64C68.77 19.62 68.74 19.59 68.73 19.55 68.71 19.51 68.71 19.47 68.72 19.44 68.79 19.26 70.01 15.55 70.07 15.39 70.14 15.23 70.18 15.13 70.19 15.12 70.23 15.07 70.28 15.08 70.35 15.12L70.42 15.03 69 13.74 68.92 13.83C68.97 13.89 68.98 13.94 68.94 13.98 68.92 14.01 68.79 14.08 68.55 14.2 68.3 14.32 65.42 15.76 64.97 15.99 64.93 16.01 64.9 16.01 64.86 16 64.82 15.99 64.79 15.97 64.76 15.94L64.68 16.04 65.77 16.94 65.86 16.85C65.84 16.83 65.82 16.81 65.81 16.79 65.79 16.76 65.79 16.73 65.83 16.7 65.84 16.68 65.89 16.65 65.94 16.63 65.99 16.6 66.45 16.38 66.49 16.35L68.1 17.79C68.08 17.84 67.91 18.35 67.89 18.4 67.87 18.46 67.85 18.5 67.83 18.52 67.8 18.56 67.77 18.57 67.74 18.55 67.72 18.54 67.69 18.52 67.68 18.51L67.6 18.61ZM62.02 11.99L63.76 13.08 62.94 14.4C62.9 14.46 62.85 14.49 62.8 14.48 62.75 14.47 62.68 14.45 62.62 14.41L62.55 14.52 64 15.52 64.06 15.42C64 15.38 63.96 15.33 63.93 15.29 63.9 15.25 63.9 15.19 63.94 15.12L66.02 11.81C66.06 11.74 66.11 11.71 66.16 11.72 66.21 11.73 66.27 11.75 66.34 11.79L66.41 11.68 64.95 10.67 64.89 10.78C64.94 10.82 64.99 10.87 65.01 10.91 65.05 10.95 65.05 11.01 65.01 11.07L64.32 12.19 62.57 11.1 63.27 9.98C63.31 9.91 63.35 9.89 63.4 9.9 63.46 9.9 63.52 9.92 63.59 9.96L63.65 9.86 62.12 8.97 62.05 9.08C62.11 9.12 62.16 9.16 62.19 9.21 62.22 9.25 62.22 9.31 62.18 9.37L60.11 12.7C60.07 12.77 60.03 12.79 59.97 12.78 59.92 12.78 59.86 12.75 59.79 12.72L59.73 12.83 61.25 13.7 61.32 13.59C61.26 13.55 61.21 13.5 61.18 13.46 61.16 13.42 61.16 13.36 61.19 13.3L62.02 11.99ZM54.53 6.16L53.25 9.87C53.22 9.94 53.18 9.98 53.13 9.98 53.08 9.98 53.01 9.97 52.94 9.95L52.9 10.07 54.58 10.59 54.62 10.47C54.55 10.44 54.5 10.41 54.45 10.37 54.42 10.34 54.41 10.28 54.43 10.21L54.89 8.9 56.5 9.45C56.53 9.47 56.56 9.49 56.59 9.53 56.61 9.58 56.6 9.64 56.57 9.74L56.68 9.78 57.13 8.48 57.02 8.44C56.99 8.54 56.95 8.59 56.91 8.6 56.87 8.61 56.82 8.61 56.79 8.6L55.18 8.04 55.5 7.15 57.87 7.98C57.9 7.99 57.93 8.01 57.96 8.06 57.98 8.1 57.98 8.17 57.95 8.26L58.06 8.3 58.51 6.99 58.4 6.95C58.37 7.04 58.33 7.1 58.29 7.11 58.24 7.12 58.2 7.12 58.17 7.11L54.36 5.78 54.32 5.89C54.4 5.93 54.46 5.96 54.5 6 54.55 6.03 54.55 6.09 54.53 6.16ZM50.54 5.94C50.72 5.97 50.88 6.03 51.01 6.11 51.15 6.2 51.27 6.31 51.37 6.43 51.47 6.56 51.53 6.7 51.57 6.86 51.6 7.02 51.6 7.19 51.57 7.38 51.53 7.57 51.47 7.73 51.38 7.87 51.28 8 51.17 8.11 51.03 8.2 50.9 8.28 50.75 8.33 50.59 8.36 50.43 8.39 50.27 8.39 50.09 8.36 49.92 8.32 49.76 8.26 49.62 8.18 49.48 8.09 49.36 7.99 49.27 7.86 49.17 7.74 49.1 7.59 49.07 7.43 49.03 7.27 49.03 7.1 49.07 6.91 49.1 6.72 49.17 6.56 49.26 6.42 49.35 6.29 49.46 6.18 49.6 6.1 49.73 6.02 49.88 5.96 50.04 5.93 50.21 5.9 50.37 5.9 50.54 5.94ZM50.75 4.87C50.46 4.82 50.16 4.81 49.86 4.84 49.55 4.87 49.26 4.96 49 5.1 48.73 5.24 48.49 5.44 48.29 5.7 48.09 5.96 47.96 6.29 47.88 6.69 47.81 7.09 47.81 7.45 47.9 7.76 48 8.07 48.14 8.35 48.34 8.57 48.55 8.8 48.78 8.97 49.05 9.11 49.33 9.24 49.61 9.34 49.89 9.4 50.18 9.45 50.47 9.46 50.78 9.44 51.08 9.41 51.37 9.33 51.63 9.19 51.91 9.05 52.14 8.86 52.35 8.6 52.55 8.34 52.68 8.01 52.75 7.61 52.82 7.22 52.82 6.86 52.73 6.54 52.64 6.22 52.49 5.95 52.29 5.72 52.09 5.5 51.86 5.31 51.59 5.17 51.31 5.03 51.03 4.93 50.75 4.87ZM42.29 8.47L42.22 7.11 43.66 4.47C43.68 4.42 43.72 4.39 43.77 4.37 43.83 4.36 43.87 4.35 43.9 4.35L43.89 4.22 42.08 4.25 42.08 4.37C42.12 4.37 42.15 4.37 42.2 4.38 42.25 4.39 42.29 4.42 42.29 4.47 42.29 4.51 42.25 4.61 42.18 4.74 42.12 4.87 41.57 5.85 41.55 5.9 41.45 5.77 40.75 4.86 40.69 4.77 40.62 4.68 40.59 4.59 40.59 4.55 40.59 4.5 40.61 4.47 40.67 4.46 40.72 4.44 40.76 4.44 40.8 4.43L40.8 4.31 38.84 4.49 38.84 4.61C38.88 4.61 38.93 4.61 38.98 4.62 39.04 4.63 39.09 4.66 39.11 4.69L40.98 7.21 41.05 8.53C41.05 8.6 41.03 8.65 40.99 8.68 40.94 8.7 40.9 8.71 40.86 8.72L40.86 8.84 42.5 8.76 42.49 8.64C42.45 8.64 42.4 8.62 42.36 8.61 42.32 8.59 42.29 8.54 42.29 8.47ZM37.6 4.64L33.77 5.41C33.74 5.42 33.7 5.41 33.66 5.4 33.62 5.38 33.59 5.32 33.57 5.22L33.46 5.24 33.75 6.71 33.87 6.7C33.85 6.6 33.85 6.53 33.88 6.5 33.92 6.47 33.94 6.45 33.98 6.44L35.28 6.18 35.9 9.26C35.92 9.34 35.9 9.39 35.86 9.42 35.82 9.45 35.78 9.47 35.73 9.49L35.75 9.61 37.39 9.28 37.37 9.16C37.32 9.16 37.26 9.15 37.22 9.15 37.17 9.13 37.13 9.09 37.12 9.02L36.51 5.93 37.8 5.67C37.84 5.66 37.88 5.67 37.92 5.69 37.97 5.71 38 5.76 38.01 5.85L38.12 5.84 37.83 4.36 37.72 4.38C37.74 4.48 37.73 4.55 37.7 4.58 37.67 4.61 37.64 4.63 37.6 4.64ZM26.56 11.3L26.77 12.7 26.89 12.69C26.9 12.65 26.91 12.6 26.93 12.56 26.95 12.52 26.98 12.49 27.02 12.47 27.03 12.46 27.11 12.45 27.24 12.43 27.37 12.41 27.53 12.38 27.72 12.34 27.92 12.3 28.13 12.25 28.34 12.18 28.57 12.11 28.78 12.03 28.99 11.94 29.31 11.79 29.57 11.63 29.77 11.46 29.98 11.29 30.13 11.11 30.22 10.91 30.32 10.71 30.36 10.52 30.36 10.32 30.36 10.12 30.32 9.93 30.23 9.75 30.11 9.48 29.94 9.3 29.74 9.21 29.53 9.12 29.31 9.08 29.07 9.09 28.82 9.11 28.57 9.15 28.31 9.23 28.07 9.3 27.82 9.37 27.6 9.44 27.39 9.51 27.19 9.55 27.04 9.57 26.89 9.58 26.78 9.53 26.73 9.42 26.68 9.32 26.68 9.22 26.74 9.13 26.8 9.03 26.88 8.95 26.97 8.87 27.06 8.8 27.17 8.73 27.27 8.68 27.37 8.63 27.46 8.59 27.51 8.57 27.66 8.5 27.8 8.45 27.96 8.41 28.1 8.37 28.24 8.35 28.37 8.34 28.49 8.32 28.6 8.32 28.68 8.33 28.77 8.33 28.82 8.35 28.84 8.37 28.84 8.39 28.85 8.41 28.85 8.43 28.86 8.45 28.86 8.47 28.87 8.48L29.01 8.48 28.98 7.08 28.87 7.09C28.85 7.12 28.84 7.15 28.82 7.19 28.81 7.23 28.78 7.26 28.73 7.28 28.68 7.3 28.6 7.33 28.49 7.35 28.38 7.37 28.24 7.4 28.07 7.44 27.91 7.48 27.73 7.53 27.54 7.59 27.35 7.64 27.14 7.72 26.95 7.82 26.6 7.97 26.33 8.15 26.13 8.35 25.93 8.55 25.79 8.75 25.7 8.96 25.62 9.16 25.58 9.36 25.59 9.56 25.6 9.75 25.64 9.92 25.7 10.07 25.82 10.33 25.98 10.5 26.18 10.58 26.39 10.66 26.61 10.7 26.85 10.68 27.09 10.66 27.34 10.62 27.59 10.54 27.85 10.46 28.08 10.39 28.31 10.32 28.52 10.25 28.71 10.21 28.87 10.2 29.03 10.19 29.14 10.25 29.2 10.38 29.24 10.47 29.24 10.56 29.21 10.64 29.18 10.72 29.12 10.79 29.05 10.86 28.98 10.93 28.9 10.98 28.81 11.03 28.72 11.08 28.66 11.11 28.61 11.13 28.44 11.21 28.25 11.28 28.05 11.34 27.83 11.4 27.64 11.45 27.45 11.48 27.26 11.51 27.1 11.52 26.97 11.51 26.84 11.51 26.75 11.48 26.73 11.41 26.72 11.39 26.71 11.37 26.71 11.35 26.7 11.33 26.69 11.32 26.69 11.31L26.56 11.3ZM21.96 13.08L21.34 12.16 22.38 11.45C22.61 11.3 22.79 11.24 22.94 11.27 23.07 11.3 23.19 11.38 23.27 11.51 23.38 11.67 23.41 11.81 23.37 11.96 23.32 12.09 23.22 12.22 23.05 12.33L21.96 13.08ZM20.04 12.36L22.23 15.6C22.28 15.66 22.28 15.71 22.26 15.76 22.24 15.8 22.21 15.83 22.18 15.86L22.25 15.96 23.55 15.02 23.48 14.92C23.42 14.95 23.36 14.97 23.31 14.98 23.26 14.99 23.22 14.96 23.17 14.9L22.39 13.74 23.14 13.24C23.17 13.26 24.17 13.81 24.3 13.89 24.43 13.96 24.51 14.01 24.52 14.05 24.56 14.09 24.56 14.13 24.52 14.18 24.49 14.22 24.46 14.25 24.41 14.28L24.49 14.38 26.14 13.35 26.06 13.25C26.01 13.28 25.94 13.3 25.87 13.3 25.8 13.3 25.74 13.29 25.68 13.26L24.12 12.54C24.3 12.27 24.41 11.99 24.45 11.71 24.49 11.42 24.41 11.12 24.2 10.82 23.94 10.43 23.63 10.21 23.26 10.17 22.91 10.12 22.53 10.23 22.14 10.49L19.71 12.22 19.78 12.32C19.83 12.3 19.87 12.28 19.91 12.27 19.96 12.27 20 12.29 20.04 12.36ZM20.39 16.29L18.46 18.1 17.78 17.36 19.05 16.16C19.09 16.14 19.12 16.13 19.17 16.12 19.22 16.12 19.28 16.15 19.34 16.22L19.42 16.15 18.51 15.18 18.43 15.25C18.5 15.32 18.53 15.38 18.52 15.43 18.51 15.48 18.5 15.51 18.47 15.54L17.19 16.73 16.63 16.12 18.61 14.27C18.64 14.24 18.68 14.23 18.72 14.23 18.77 14.22 18.84 14.26 18.9 14.33L18.98 14.26 18.05 13.25 17.96 13.33C18.03 13.4 18.06 13.46 18.05 13.5 18.04 13.55 18.02 13.58 17.99 13.61L14.93 16.51 15.01 16.6C15.07 16.56 15.12 16.53 15.17 16.5 15.23 16.48 15.28 16.5 15.33 16.56L17.98 19.41C18.03 19.47 18.04 19.51 18.01 19.56 17.99 19.62 17.96 19.67 17.91 19.72L17.99 19.81 20.99 16.94C21.05 16.89 21.09 16.85 21.12 16.84 21.15 16.83 21.22 16.84 21.3 16.89L21.37 16.83 20.48 15.87 20.4 15.95C20.49 16.1 20.49 16.21 20.39 16.29ZM11.15 21.17L11.25 21.25C11.26 21.23 11.28 21.21 11.3 21.2 11.31 21.18 11.34 21.16 11.39 21.16 11.42 21.15 11.53 21.17 11.73 21.25 11.93 21.32 14.84 22.39 15.03 22.47 15.22 22.54 15.34 22.59 15.35 22.6 15.39 22.63 15.41 22.68 15.41 22.73 15.4 22.78 15.39 22.82 15.35 22.85L15.46 22.93 16.66 21.38 16.57 21.31C16.54 21.35 16.5 21.37 16.45 21.39 16.4 21.4 16.36 21.4 16.31 21.36 16.3 21.35 16.22 21.26 16.12 21.09 16.01 20.93 14.15 17.88 14.1 17.82 14.09 17.8 14.06 17.74 14.07 17.7 14.07 17.66 14.09 17.62 14.11 17.58L14.02 17.5 13.03 18.68 13.13 18.75C13.14 18.73 13.17 18.69 13.21 18.65 13.25 18.62 13.29 18.62 13.34 18.65 13.36 18.66 13.42 18.76 13.52 18.93 13.63 19.11 14.67 20.83 14.79 21.03L14.78 21.04C14.74 21.02 12.52 20.22 12.4 20.17 12.28 20.12 12.22 20.1 12.21 20.09 12.16 20.05 12.16 20.01 12.19 19.96 12.22 19.91 12.25 19.87 12.27 19.84L12.17 19.77 11.15 21.17ZM12.38 27.32L8.8 25.73C8.73 25.7 8.7 25.66 8.7 25.6 8.7 25.55 8.71 25.48 8.73 25.41L8.63 25.36 7.9 26.84 8.01 26.89C8.05 26.82 8.08 26.77 8.12 26.73 8.16 26.7 8.22 26.7 8.28 26.72L10.14 27.55C9.85 27.64 9.57 27.73 9.27 27.81 8.98 27.9 8.71 27.98 8.48 28.05 8.23 28.12 8.04 28.18 7.88 28.21 7.72 28.26 7.67 28.28 7.63 28.27 7.54 28.26 7.5 28.19 7.5 28.14 7.5 28.09 7.5 28.04 7.51 28L7.4 27.95 6.58 30.01 6.69 30.06C6.73 30 6.76 29.95 6.8 29.91 6.84 29.87 6.89 29.87 6.96 29.9L10.54 31.49C10.61 31.53 10.64 31.57 10.64 31.61 10.64 31.67 10.63 31.72 10.61 31.78L10.72 31.83 11.3 30.34 11.19 30.29C11.15 30.35 11.11 30.4 11.08 30.43 11.04 30.46 10.98 30.47 10.92 30.44L8.47 29.35 8.46 29.32C8.87 29.23 9.27 29.11 9.65 28.99 10.04 28.87 10.39 28.77 10.7 28.67 11.01 28.58 11.27 28.5 11.48 28.44 11.69 28.39 11.82 28.37 11.87 28.4 11.92 28.42 11.94 28.47 11.93 28.53 11.92 28.59 11.9 28.65 11.88 28.69L12 28.74 12.76 27.2 12.65 27.16C12.61 27.22 12.58 27.27 12.53 27.31 12.5 27.35 12.44 27.35 12.38 27.32ZM5.17 36.4L7.29 36.92C7.56 36.99 7.81 37.01 8.07 37 8.32 36.99 8.55 36.92 8.77 36.8 8.98 36.68 9.17 36.49 9.34 36.25 9.5 36 9.63 35.68 9.72 35.28 9.82 34.88 9.85 34.54 9.82 34.24 9.79 33.94 9.7 33.69 9.58 33.49 9.44 33.28 9.26 33.11 9.05 32.98 8.83 32.85 8.59 32.76 8.32 32.69L6.2 32.16C6.13 32.15 6.08 32.11 6.07 32.05 6.07 32 6.07 31.93 6.08 31.86L5.97 31.83 5.5 33.45 5.62 33.48C5.63 33.45 5.66 33.42 5.69 33.39 5.72 33.36 5.76 33.35 5.84 33.37L8.26 33.96C8.5 34.02 8.67 34.15 8.73 34.34 8.8 34.53 8.8 34.77 8.74 35.04 8.67 35.31 8.57 35.52 8.42 35.65 8.27 35.8 8.07 35.83 7.81 35.77L5.4 35.18C5.32 35.16 5.27 35.13 5.26 35.09 5.25 35.05 5.25 35.01 5.25 34.98L5.13 34.95 4.8 36.59 4.92 36.62C4.95 36.55 4.97 36.49 5.01 36.45 5.04 36.4 5.09 36.39 5.17 36.4ZM43.41 85.5C66.53 85.5 85.32 66.66 85.32 43.52 85.32 20.36 66.53 1.53 43.41 1.53 20.31 1.53 1.5 20.36 1.5 43.52 1.5 66.66 20.31 85.5 43.41 85.5ZM43.41 0.02C67.35 0.02 86.82 19.53 86.82 43.52 86.82 67.49 67.35 87 43.41 87 19.48 87 0 67.49 0 43.52 0 19.53 19.48 0.02 43.41 0.02ZM75.55 43.52C75.55 61.28 61.17 75.69 43.44 75.69 25.7 75.69 11.32 61.28 11.32 43.52 11.32 25.75 25.7 11.35 43.44 11.35 61.17 11.35 75.55 25.75 75.55 43.52Z"/><path d="M202.44 34.79L202.69 34.79C202.96 34.79 203.21 34.69 203.21 34.42 203.21 34.22 203.08 34.02 202.67 34.02 202.57 34.02 202.5 34.03 202.44 34.04L202.44 34.79ZM202.44 35.88L202.18 35.88 202.18 33.86C202.36 33.84 202.5 33.82 202.7 33.82 202.98 33.82 203.18 33.88 203.3 33.97 203.42 34.06 203.48 34.19 203.48 34.38 203.48 34.65 203.3 34.81 203.09 34.87L203.09 34.89C203.27 34.92 203.39 35.08 203.43 35.38 203.48 35.69 203.53 35.81 203.57 35.88L203.3 35.88C203.25 35.81 203.19 35.63 203.14 35.36 203.09 35.09 202.96 34.99 202.68 34.99L202.44 34.99 202.44 35.88ZM202.79 33.25C201.97 33.25 201.32 33.96 201.32 34.83 201.32 35.71 201.97 36.41 202.81 36.41 203.63 36.42 204.27 35.71 204.27 34.83 204.27 33.96 203.63 33.25 202.8 33.25L202.79 33.25ZM202.8 33.03C203.78 33.03 204.56 33.82 204.56 34.83 204.56 35.85 203.78 36.64 202.79 36.64 201.81 36.64 201.02 35.85 201.02 34.83 201.02 33.82 201.81 33.03 202.79 33.03L202.8 33.03Z"/><rect x="99.48" y="51.1" width="104.2" height="1.07" fill="#D52B1E"/><path d="M71.31 84.88L71.16 83.23C71.15 83.09 71.16 82.86 71.16 82.67L71.14 82.67C71.07 82.86 70.99 83.1 70.91 83.29L70.24 84.85 70.02 84.85 69.35 83.24C69.28 83.09 69.2 82.86 69.15 82.67L69.13 82.67C69.12 82.86 69.13 83.04 69.11 83.23L68.98 84.88 68.72 84.88 68.95 82.45 69.27 82.45 69.95 84.01C70.02 84.17 70.07 84.36 70.14 84.59L70.16 84.59C70.22 84.36 70.28 84.16 70.34 84.01L71.01 82.45 71.34 82.45 71.57 84.88 71.31 84.88ZM68.68 82.45L68.68 82.66 67.76 82.66 67.76 84.88 67.5 84.88 67.5 82.66 66.58 82.66 66.58 82.45 68.68 82.45Z" fill="#D52B1E"/><path d="M100.94 16.93C100.94 14.21 100.94 13.72 100.91 13.16 100.87 12.57 100.73 12.29 100.16 12.17 100.02 12.14 99.72 12.12 99.56 12.12 99.49 12.12 99.42 12.08 99.42 12.01 99.42 11.91 99.51 11.87 99.7 11.87 100.49 11.87 101.55 11.93 101.71 11.93 101.86 11.93 102.91 11.87 103.44 11.87 103.63 11.87 103.71 11.91 103.71 12.01 103.71 12.08 103.64 12.12 103.58 12.12 103.45 12.12 103.35 12.14 103.14 12.17 102.67 12.24 102.53 12.55 102.49 13.16 102.46 13.72 102.46 14.21 102.46 16.93L102.46 19.37C102.46 21.88 103.02 22.96 103.77 23.68 104.62 24.48 105.41 24.64 106.4 24.64 107.46 24.64 108.51 24.13 109.14 23.38 109.94 22.39 110.15 20.91 110.15 19.11L110.15 16.93C110.15 14.21 110.15 13.72 110.11 13.16 110.08 12.57 109.94 12.29 109.36 12.17 109.22 12.14 108.93 12.12 108.77 12.12 108.7 12.12 108.63 12.08 108.63 12.01 108.63 11.91 108.72 11.87 108.91 11.87 109.7 11.87 110.65 11.93 110.76 11.93 110.88 11.93 111.7 11.87 112.22 11.87 112.42 11.87 112.5 11.91 112.5 12.01 112.5 12.08 112.43 12.12 112.36 12.12 112.24 12.12 112.14 12.14 111.93 12.17 111.46 12.28 111.32 12.55 111.28 13.16 111.25 13.72 111.25 14.21 111.25 16.93L111.25 18.8C111.25 20.68 111.04 22.77 109.64 24.01 108.39 25.13 107.08 25.3 106.05 25.3 105.46 25.3 103.7 25.23 102.46 24.06 101.6 23.24 100.94 22.02 100.94 19.48L100.94 16.93Z"/><path d="M115.59 23.03C115.62 24.25 115.76 24.62 116.18 24.73 116.46 24.8 116.81 24.81 116.95 24.81 117.02 24.81 117.07 24.86 117.07 24.94 117.07 25.02 116.97 25.06 116.79 25.06 115.92 25.06 115.31 25 115.17 25 115.03 25 114.38 25.06 113.69 25.06 113.53 25.06 113.44 25.04 113.44 24.94 113.44 24.86 113.5 24.81 113.56 24.81 113.69 24.81 113.97 24.8 114.19 24.73 114.58 24.62 114.63 24.22 114.63 22.88L114.63 14.38C114.63 13.79 114.72 13.63 114.84 13.63 115.01 13.63 115.27 13.93 115.43 14.09 115.68 14.33 117.91 16.7 120.28 19.15 121.8 20.71 123.44 22.48 123.91 22.96L123.75 15.54C123.73 14.58 123.64 14.24 123.17 14.16 122.89 14.11 122.55 14.09 122.42 14.09 122.32 14.09 122.3 14 122.3 13.95 122.3 13.86 122.42 13.84 122.6 13.84 123.3 13.84 124.03 13.88 124.2 13.88 124.38 13.88 124.88 13.84 125.51 13.84 125.67 13.84 125.79 13.86 125.79 13.95 125.79 14 125.72 14.09 125.62 14.09 125.54 14.09 125.42 14.09 125.25 14.12 124.74 14.23 124.71 14.52 124.71 15.41L124.67 24.1C124.67 25.07 124.66 25.16 124.55 25.16 124.39 25.16 124.24 25.04 123.38 24.25 123.23 24.11 121.01 21.94 119.39 20.24 117.61 18.38 115.89 16.57 115.41 16.04L115.59 23.03Z"/><path d="M130.76 20.75C130.76 22.18 130.76 23.35 130.83 23.96 130.88 24.39 130.93 24.67 131.39 24.74 131.61 24.78 131.94 24.81 132.08 24.81 132.17 24.81 132.21 24.88 132.21 24.94 132.21 25 132.14 25.06 131.96 25.06 131.11 25.06 130.11 25 130.04 25 129.96 25 129 25.06 128.53 25.06 128.37 25.06 128.28 25.02 128.28 24.94 128.28 24.88 128.32 24.81 128.4 24.81 128.54 24.81 128.74 24.78 128.88 24.74 129.17 24.67 129.22 24.39 129.28 23.96 129.35 23.35 129.36 22.18 129.36 20.75L129.36 18.13C129.36 15.83 129.36 15.41 129.33 14.94 129.29 14.44 129.17 14.21 128.84 14.14 128.67 14.11 128.48 14.09 128.37 14.09 128.3 14.09 128.25 14.02 128.25 13.97 128.25 13.88 128.32 13.84 128.49 13.84 129 13.84 129.96 13.88 130.04 13.88 130.11 13.88 131.11 13.84 131.58 13.84 131.75 13.84 131.82 13.88 131.82 13.97 131.82 14.02 131.75 14.09 131.7 14.09 131.6 14.09 131.49 14.09 131.32 14.12 130.9 14.21 130.81 14.42 130.78 14.94 130.76 15.41 130.76 15.83 130.76 18.13L130.76 20.75Z"/><path d="M140.09 23.12C140.98 21.13 142.98 16.08 143.31 15.01 143.38 14.79 143.45 14.58 143.45 14.45 143.45 14.33 143.4 14.19 143.25 14.14 143.07 14.09 142.9 14.09 142.72 14.09 142.64 14.09 142.55 14.04 142.55 13.97 142.55 13.88 142.65 13.84 142.9 13.84 143.51 13.84 144.2 13.88 144.39 13.88 144.48 13.88 145.15 13.84 145.6 13.84 145.76 13.84 145.84 13.88 145.84 13.95 145.84 14.02 145.79 14.09 145.67 14.09 145.56 14.09 145.21 14.09 144.94 14.26 144.73 14.4 144.48 14.61 144.08 15.62 143.91 16.04 143.16 17.82 142.37 19.63 141.43 21.8 140.75 23.4 140.4 24.13 139.98 25.02 139.9 25.25 139.74 25.25 139.57 25.25 139.46 25.06 139.17 24.34L135.4 15.26C135.05 14.42 134.84 14.26 134.33 14.14 134.09 14.09 133.83 14.09 133.74 14.09 133.65 14.09 133.62 14 133.62 13.95 133.62 13.86 133.78 13.84 134.02 13.84 134.75 13.84 135.62 13.88 135.82 13.88 135.97 13.88 136.65 13.84 137.25 13.84 137.53 13.84 137.66 13.88 137.66 13.95 137.66 14.02 137.61 14.09 137.51 14.09 137.33 14.09 137.09 14.11 136.95 14.16 136.79 14.23 136.78 14.32 136.78 14.42 136.78 14.61 136.97 15.07 137.19 15.66L140.09 23.12Z"/><path d="M148.49 18.13C148.49 15.83 148.49 15.41 148.46 14.94 148.42 14.44 148.34 14.19 147.83 14.12 147.71 14.11 147.45 14.09 147.31 14.09 147.25 14.09 147.19 14.02 147.19 13.97 147.19 13.88 147.25 13.84 147.43 13.84 148.13 13.84 149.12 13.88 149.21 13.88 149.31 13.88 152.52 13.9 152.87 13.88 153.17 13.86 153.45 13.81 153.57 13.79 153.64 13.77 153.71 13.72 153.78 13.72 153.83 13.72 153.85 13.79 153.85 13.86 153.85 13.97 153.76 14.14 153.72 14.56 153.71 14.7 153.67 15.36 153.64 15.54 153.62 15.61 153.57 15.69 153.5 15.69 153.41 15.69 153.38 15.62 153.38 15.5 153.38 15.4 153.36 15.15 153.29 14.98 153.19 14.73 153.03 14.63 152.19 14.52 151.93 14.49 150.15 14.47 149.98 14.47 149.91 14.47 149.89 14.52 149.89 14.63L149.89 18.66C149.89 18.76 149.89 18.81 149.98 18.81 150.17 18.81 152.19 18.81 152.54 18.78 152.9 18.74 153.13 18.73 153.29 18.57 153.39 18.47 153.46 18.38 153.52 18.38 153.57 18.38 153.6 18.41 153.6 18.5 153.6 18.59 153.52 18.83 153.48 19.32 153.45 19.62 153.41 20.17 153.41 20.28 153.41 20.4 153.38 20.56 153.27 20.56 153.2 20.56 153.17 20.51 153.17 20.42 153.17 20.28 153.17 20.12 153.1 19.93 153.05 19.72 152.9 19.55 152.31 19.48 151.89 19.42 150.25 19.41 149.99 19.41 149.91 19.41 149.89 19.46 149.89 19.51L149.89 20.75C149.89 21.26 149.87 22.98 149.89 23.28 149.93 24.27 150.2 24.46 151.72 24.46 152.12 24.46 152.85 24.46 153.25 24.31 153.66 24.13 153.86 23.87 153.95 23.28 153.99 23.1 154.02 23.05 154.11 23.05 154.2 23.05 154.21 23.17 154.21 23.28 154.21 23.38 154.09 24.39 154.01 24.71 153.9 25.09 153.74 25.09 153.15 25.09 152 25.09 151.11 25.06 150.48 25.04 149.84 25 149.44 25 149.21 25 149.17 25 148.88 25 148.55 25.02 148.25 25.04 147.9 25.06 147.66 25.06 147.5 25.06 147.41 25.02 147.41 24.94 147.41 24.88 147.45 24.81 147.54 24.81 147.68 24.81 147.86 24.76 148.01 24.74 148.3 24.69 148.34 24.39 148.41 23.96 148.49 23.35 148.49 22.18 148.49 20.75L148.49 18.13Z"/><path d="M158.83 19.39C158.83 19.48 158.87 19.53 158.94 19.58 159.17 19.7 159.95 19.81 160.63 19.81 161 19.81 161.41 19.79 161.78 19.55 162.3 19.2 162.7 18.41 162.7 17.28 162.7 15.43 161.69 14.37 160.05 14.37 159.6 14.37 159.11 14.42 158.96 14.45 158.89 14.49 158.83 14.54 158.83 14.63L158.83 19.39ZM157.51 18.13C157.51 15.83 157.51 15.41 157.47 14.94 157.44 14.44 157.35 14.19 156.85 14.12 156.72 14.11 156.46 14.09 156.32 14.09 156.27 14.09 156.2 14.02 156.2 13.97 156.2 13.88 156.27 13.84 156.44 13.84 157.14 13.84 158.17 13.88 158.26 13.88 158.42 13.88 159.7 13.84 160.18 13.84 161.15 13.84 162.23 13.93 163.04 14.49 163.42 14.77 164.1 15.48 164.1 16.51 164.1 17.61 163.65 18.67 162.22 19.9 163.47 21.46 164.54 22.81 165.43 23.73 166.25 24.57 166.75 24.71 167.13 24.76 167.43 24.81 167.59 24.81 167.68 24.81 167.76 24.81 167.81 24.88 167.81 24.94 167.81 25.02 167.73 25.06 167.45 25.06L166.49 25.06C165.62 25.06 165.23 24.97 164.85 24.76 164.19 24.41 163.63 23.7 162.76 22.58 162.11 21.78 161.43 20.82 161.1 20.42 161.03 20.35 161 20.33 160.89 20.33L158.94 20.3C158.87 20.3 158.83 20.33 158.83 20.42L158.83 20.77C158.83 22.2 158.83 23.35 158.9 23.96 158.96 24.39 159.04 24.67 159.51 24.74 159.72 24.78 160.05 24.81 160.19 24.81 160.3 24.81 160.31 24.88 160.31 24.94 160.31 25 160.25 25.06 160.07 25.06 159.23 25.06 158.26 25 158.19 25 158.17 25 157.14 25.06 156.67 25.06 156.52 25.06 156.43 25.02 156.43 24.94 156.43 24.88 156.46 24.81 156.55 24.81 156.69 24.81 156.88 24.78 157.02 24.74 157.32 24.67 157.35 24.39 157.42 23.96 157.51 23.35 157.51 22.18 157.51 20.75L157.51 18.13Z"/><path d="M168.37 24.85C168.16 24.74 168.15 24.69 168.15 24.29 168.15 23.56 168.21 22.96 168.23 22.72 168.23 22.56 168.27 22.48 168.35 22.48 168.44 22.48 168.49 22.53 168.49 22.65 168.49 22.77 168.49 22.98 168.55 23.19 168.79 24.27 169.94 24.66 170.97 24.66 172.49 24.66 173.27 23.8 173.27 22.69 173.27 21.62 172.7 21.12 171.34 20.1L170.64 19.58C168.98 18.34 168.44 17.44 168.44 16.41 168.44 14.66 169.82 13.62 171.84 13.62 172.45 13.62 173.06 13.7 173.43 13.79 173.72 13.86 173.85 13.86 173.97 13.86 174.09 13.86 174.13 13.88 174.13 13.97 174.13 14.04 174.06 14.52 174.06 15.54 174.06 15.76 174.04 15.87 173.93 15.87 173.83 15.87 173.81 15.8 173.79 15.68 173.78 15.5 173.66 15.1 173.57 14.94 173.46 14.77 172.96 14.21 171.58 14.21 170.46 14.21 169.54 14.77 169.54 15.82 169.54 16.76 170.01 17.3 171.53 18.33L171.96 18.62C173.83 19.9 174.48 20.92 174.48 22.2 174.48 23.07 174.14 24.01 173.05 24.73 172.4 25.14 171.44 25.25 170.6 25.25 169.89 25.25 169 25.14 168.37 24.85Z"/><path d="M179.37 20.75C179.37 22.18 179.37 23.35 179.44 23.96 179.5 24.39 179.55 24.67 180 24.74 180.23 24.78 180.56 24.81 180.7 24.81 180.79 24.81 180.82 24.88 180.82 24.94 180.82 25 180.75 25.06 180.58 25.06 179.72 25.06 178.73 25 178.66 25 178.57 25 177.61 25.06 177.14 25.06 176.98 25.06 176.9 25.02 176.9 24.94 176.9 24.88 176.93 24.81 177.02 24.81 177.16 24.81 177.35 24.78 177.49 24.74 177.79 24.67 177.84 24.39 177.89 23.96 177.96 23.35 177.98 22.18 177.98 20.75L177.98 18.13C177.98 15.83 177.98 15.41 177.94 14.94 177.91 14.44 177.79 14.21 177.46 14.14 177.28 14.11 177.09 14.09 176.98 14.09 176.92 14.09 176.86 14.02 176.86 13.97 176.86 13.88 176.93 13.84 177.11 13.84 177.61 13.84 178.57 13.88 178.66 13.88 178.73 13.88 179.72 13.84 180.19 13.84 180.37 13.84 180.44 13.88 180.44 13.97 180.44 14.02 180.37 14.09 180.32 14.09 180.21 14.09 180.11 14.09 179.93 14.12 179.52 14.21 179.43 14.42 179.39 14.94 179.37 15.41 179.37 15.83 179.37 18.13L179.37 20.75Z"/><path d="M188.23 20.75C188.23 22.18 188.23 23.35 188.3 23.96 188.35 24.39 188.43 24.67 188.9 24.74 189.1 24.78 189.45 24.81 189.59 24.81 189.7 24.81 189.72 24.88 189.72 24.94 189.72 25 189.65 25.06 189.47 25.06 188.64 25.06 187.66 25 187.57 25 187.5 25 186.44 25.06 185.98 25.06 185.81 25.06 185.74 25.02 185.74 24.94 185.74 24.88 185.77 24.83 185.86 24.83 186 24.83 186.17 24.8 186.31 24.76 186.63 24.69 186.72 24.39 186.77 23.96 186.84 23.35 186.84 22.18 186.84 20.75L186.84 14.52 184.62 14.56C183.66 14.58 183.3 14.68 183.07 15.03 182.9 15.29 182.88 15.4 182.83 15.5 182.79 15.62 182.74 15.64 182.67 15.64 182.64 15.64 182.57 15.61 182.57 15.52 182.57 15.36 182.88 14.04 182.9 13.91 182.93 13.83 183 13.63 183.05 13.63 183.16 13.63 183.31 13.76 183.73 13.81 184.17 13.86 184.76 13.88 184.94 13.88L190.73 13.88C191.23 13.88 191.58 13.84 191.82 13.81 192.05 13.77 192.19 13.74 192.26 13.74 192.33 13.74 192.33 13.83 192.33 13.91 192.33 14.37 192.28 15.43 192.28 15.61 192.28 15.73 192.21 15.8 192.14 15.8 192.07 15.8 192.03 15.74 192.02 15.54L192 15.38C191.95 14.93 191.62 14.59 190.15 14.56L188.23 14.52 188.23 20.75Z"/><path d="M198.56 21.2C198.56 20.4 198.45 20.1 198.23 19.69 198.1 19.46 196.03 16.16 195.5 15.38 195.14 14.82 194.77 14.49 194.49 14.3 194.27 14.16 193.97 14.09 193.85 14.09 193.76 14.09 193.69 14.02 193.69 13.95 193.69 13.88 193.74 13.84 193.88 13.84 194.18 13.84 195.33 13.88 195.4 13.88 195.5 13.88 196.13 13.84 196.72 13.84 196.9 13.84 196.93 13.88 196.93 13.95 196.93 14 196.83 14.05 196.69 14.11 196.57 14.16 196.5 14.23 196.5 14.35 196.5 14.56 196.6 14.73 196.71 14.93L199.5 19.55C199.81 18.92 201.73 15.74 202.01 15.26 202.2 14.93 202.27 14.68 202.27 14.49 202.27 14.28 202.2 14.16 202.02 14.11 201.89 14.07 201.8 14 201.8 13.93 201.8 13.88 201.89 13.84 202.04 13.84 202.44 13.84 202.98 13.88 203.11 13.88 203.21 13.88 204.31 13.84 204.61 13.84 204.71 13.84 204.8 13.88 204.8 13.93 204.8 14 204.73 14.09 204.61 14.09 204.43 14.09 204.14 14.14 203.89 14.28 203.6 14.45 203.46 14.61 203.13 15.01 202.62 15.61 200.46 19.09 200.14 19.72 199.88 20.24 199.95 20.71 199.95 21.2L199.95 22.48C199.95 22.72 199.95 23.35 200 23.96 200.04 24.39 200.14 24.67 200.6 24.74 200.81 24.78 201.15 24.81 201.29 24.81 201.38 24.81 201.42 24.88 201.42 24.94 201.42 25 201.33 25.06 201.17 25.06 200.32 25.06 199.32 25 199.24 25 199.17 25 198.19 25.06 197.74 25.06 197.56 25.06 197.49 25.02 197.49 24.94 197.49 24.88 197.53 24.81 197.62 24.81 197.75 24.81 197.93 24.78 198.07 24.74 198.38 24.67 198.49 24.39 198.52 23.96 198.56 23.35 198.56 22.72 198.56 22.48L198.56 21.2Z"/><path d="M105.87 41.14C105.87 42.62 106.52 43.75 108.12 43.73 110.46 43.73 111.4 40.39 111.4 38.54 111.4 37.19 110.7 35.94 109.21 35.94 106.78 35.94 105.87 39.2 105.87 41.14ZM104.48 40.86C104.48 37.63 106.61 35.42 109.1 35.42 111.47 35.42 112.8 36.81 112.8 39.01 112.8 41.55 110.99 44.31 107.93 44.26 105.7 44.27 104.48 42.74 104.48 40.86Z"/><path d="M119.98 35.99L119.88 36.6 117.66 36.6 116.89 40.8C116.67 42.06 116.37 43.14 115.83 44.31 114.98 46.17 113.93 47.5 113.83 47.51 113.37 47.25 113.39 47.18 113.62 46.89 114.64 45.77 115.1 44.32 115.34 42.86L116.42 36.6 114.68 36.6 114.78 35.99 116.53 35.99C117.12 32.5 118.85 30.37 120 30.37 120.33 30.37 120.63 30.63 120.61 31.14 120.59 31.8 120.26 32.17 120.05 32.17 119.72 32.17 119.95 31.61 119.34 31.61 118.31 31.61 118.19 33.53 117.77 35.99L119.98 35.99Z"/><path d="M139.79 38.9C139.79 40.57 139.79 41.95 139.88 42.68 139.93 43.19 140.04 43.57 140.56 43.64 140.8 43.68 141.19 43.71 141.34 43.71 141.45 43.71 141.48 43.76 141.48 43.82 141.48 43.9 141.39 43.96 141.2 43.96 140.25 43.96 139.15 43.9 139.06 43.9 138.97 43.9 137.87 43.96 137.35 43.96 137.16 43.96 137.07 43.92 137.07 43.82 137.07 43.76 137.11 43.71 137.21 43.71 137.37 43.71 137.58 43.68 137.73 43.64 138.08 43.57 138.17 43.19 138.24 42.68 138.33 41.95 138.33 40.57 138.33 38.9L138.33 37.07C138.33 37 138.27 36.96 138.22 36.96L130.83 36.96C130.78 36.96 130.73 36.98 130.73 37.07L130.73 38.9C130.73 40.57 130.73 41.95 130.81 42.68 130.86 43.19 130.97 43.57 131.49 43.64 131.74 43.68 132.12 43.71 132.27 43.71 132.38 43.71 132.42 43.76 132.42 43.82 132.42 43.9 132.33 43.96 132.14 43.96 131.18 43.96 130.08 43.9 129.99 43.9 129.9 43.9 128.81 43.96 128.28 43.96 128.09 43.96 128 43.92 128 43.82 128 43.76 128.04 43.71 128.14 43.71 128.3 43.71 128.51 43.68 128.67 43.64 129.01 43.57 129.1 43.19 129.17 42.68 129.26 41.95 129.26 40.57 129.26 38.9L129.26 35.83C129.26 33.11 129.26 32.62 129.22 32.06 129.19 31.47 129.05 31.19 128.48 31.07 128.34 31.03 128.04 31.02 127.88 31.02 127.81 31.02 127.74 30.98 127.74 30.91 127.74 30.81 127.83 30.77 128.02 30.77 128.81 30.77 129.9 30.83 129.99 30.83 130.08 30.83 131.18 30.77 131.7 30.77 131.89 30.77 131.98 30.81 131.98 30.91 131.98 30.98 131.91 31.02 131.84 31.02 131.72 31.02 131.61 31.03 131.4 31.07 130.93 31.16 130.79 31.45 130.76 32.06 130.73 32.62 130.73 33.11 130.73 35.83L130.73 36.2C130.73 36.28 130.78 36.3 130.83 36.3L138.22 36.3C138.27 36.3 138.33 36.28 138.33 36.2L138.33 35.83C138.33 33.11 138.33 32.62 138.29 32.06 138.26 31.47 138.12 31.19 137.54 31.07 137.4 31.03 137.11 31.02 136.95 31.02 136.88 31.02 136.81 30.98 136.81 30.91 136.81 30.81 136.9 30.77 137.09 30.77 137.87 30.77 138.97 30.83 139.06 30.83 139.15 30.83 140.25 30.77 140.77 30.77 140.96 30.77 141.05 30.81 141.05 30.91 141.05 30.98 140.98 31.02 140.91 31.02 140.78 31.02 140.68 31.03 140.47 31.07 140 31.16 139.86 31.45 139.83 32.06 139.79 32.62 139.79 33.11 139.79 35.83L139.79 38.9Z"/><path d="M149.84 39.21C149.9 39.21 149.9 39.18 149.89 39.11L148.37 35.05C148.28 34.82 148.2 34.82 148.11 35.05L146.68 39.11C146.66 39.18 146.68 39.21 146.73 39.21L149.84 39.21ZM148.13 33.04C148.32 32.55 148.39 32.46 148.49 32.46 148.65 32.46 148.7 32.67 148.86 33.01 149.14 33.63 151.6 39.75 152.54 42 153.1 43.33 153.52 43.52 153.85 43.62 154.07 43.69 154.3 43.71 154.46 43.71 154.54 43.71 154.65 43.75 154.65 43.83 154.65 43.92 154.48 43.96 154.3 43.96 154.07 43.96 152.94 43.96 151.88 43.92 151.58 43.9 151.34 43.9 151.34 43.82 151.34 43.75 151.37 43.75 151.44 43.71 151.53 43.68 151.68 43.56 151.58 43.31L150.2 39.91C150.17 39.84 150.15 39.82 150.06 39.82L146.52 39.82C146.45 39.82 146.4 39.86 146.37 39.95L145.5 42.32C145.35 42.68 145.27 43.05 145.27 43.31 145.27 43.61 145.53 43.71 145.79 43.71L145.93 43.71C146.05 43.71 146.09 43.76 146.09 43.83 146.09 43.92 146 43.96 145.86 43.96 145.5 43.96 144.66 43.9 144.48 43.9 144.33 43.9 143.56 43.96 142.93 43.96 142.74 43.96 142.64 43.92 142.64 43.83 142.64 43.76 142.7 43.71 142.77 43.71 142.88 43.71 143.11 43.69 143.23 43.68 143.93 43.59 144.22 43.07 144.52 42.32L148.13 33.04Z"/><path d="M165.93 41.76L166 41.76C166.38 40.54 167.76 36.25 168.3 34.35 168.46 33.79 168.48 33.62 168.48 33.42 168.48 33.16 168.35 32.99 167.66 32.99 167.57 32.99 167.52 32.9 167.52 32.85 167.52 32.78 167.59 32.74 167.78 32.74 168.56 32.74 169.21 32.78 169.35 32.78 169.45 32.78 170.12 32.74 170.59 32.74 170.73 32.74 170.8 32.78 170.8 32.83 170.8 32.9 170.76 32.99 170.66 32.99 170.6 32.99 170.31 33.01 170.13 33.06 169.68 33.21 169.44 33.81 169.14 34.63 168.46 36.51 166.94 41.22 166.33 42.88 165.93 43.97 165.84 44.15 165.67 44.15 165.51 44.15 165.37 43.96 165.16 43.38L162.17 35.27C161.64 36.56 159.57 41.99 159.01 43.36 158.75 43.99 158.64 44.15 158.47 44.15 158.31 44.15 158.19 43.99 157.87 42.98L155.15 34.19C154.91 33.41 154.75 33.21 154.35 33.08 154.14 33.01 153.76 32.99 153.66 32.99 153.58 32.99 153.52 32.94 153.52 32.85 153.52 32.78 153.62 32.74 153.76 32.74 154.56 32.74 155.42 32.78 155.57 32.78 155.71 32.78 156.41 32.74 157.18 32.74 157.39 32.74 157.46 32.78 157.46 32.85 157.46 32.94 157.37 32.99 157.3 32.99 157.18 32.99 156.93 32.99 156.76 33.08 156.65 33.11 156.55 33.2 156.55 33.39 156.55 33.58 156.67 34.1 156.85 34.77 157.09 35.71 158.66 41.15 158.85 41.76L158.89 41.76 162.09 33.48C162.32 32.88 162.43 32.8 162.51 32.8 162.62 32.8 162.74 32.99 162.93 33.49L165.93 41.76Z"/><path d="M176.74 39.21C176.81 39.21 176.81 39.18 176.8 39.11L175.28 35.05C175.19 34.82 175.1 34.82 175.02 35.05L173.59 39.11C173.57 39.18 173.59 39.21 173.64 39.21L176.74 39.21ZM175.03 33.04C175.23 32.55 175.29 32.46 175.4 32.46 175.56 32.46 175.61 32.67 175.77 33.01 176.05 33.63 178.5 39.75 179.45 42 180.01 43.33 180.42 43.52 180.75 43.62 180.98 43.69 181.21 43.71 181.36 43.71 181.45 43.71 181.56 43.75 181.56 43.83 181.56 43.92 181.38 43.96 181.21 43.96 180.98 43.96 179.85 43.96 178.78 43.92 178.49 43.9 178.24 43.9 178.24 43.82 178.24 43.75 178.28 43.75 178.35 43.71 178.44 43.68 178.59 43.56 178.49 43.31L177.11 39.91C177.07 39.84 177.06 39.82 176.97 39.82L173.43 39.82C173.36 39.82 173.31 39.86 173.27 39.95L172.4 42.32C172.26 42.68 172.17 43.05 172.17 43.31 172.17 43.61 172.44 43.71 172.7 43.71L172.84 43.71C172.96 43.71 172.99 43.76 172.99 43.83 172.99 43.92 172.91 43.96 172.77 43.96 172.4 43.96 171.56 43.9 171.39 43.9 171.23 43.9 170.47 43.96 169.84 43.96 169.65 43.96 169.54 43.92 169.54 43.83 169.54 43.76 169.61 43.71 169.68 43.71 169.78 43.71 170.01 43.69 170.13 43.68 170.83 43.59 171.13 43.07 171.42 42.32L175.03 33.04Z"/><path d="M185.48 39.65C185.48 41.08 185.48 42.25 185.55 42.86 185.6 43.29 185.65 43.57 186.11 43.64 186.33 43.68 186.66 43.71 186.8 43.71 186.89 43.71 186.93 43.78 186.93 43.83 186.93 43.9 186.86 43.96 186.68 43.96 185.83 43.96 184.83 43.9 184.76 43.9 184.68 43.9 183.72 43.96 183.25 43.96 183.09 43.96 183 43.92 183 43.83 183 43.78 183.04 43.71 183.12 43.71 183.26 43.71 183.46 43.68 183.6 43.64 183.89 43.57 183.94 43.29 184 42.86 184.07 42.25 184.08 41.08 184.08 39.65L184.08 37.03C184.08 34.73 184.08 34.31 184.05 33.84 184.01 33.34 183.89 33.11 183.56 33.04 183.39 33.01 183.19 32.99 183.09 32.99 183.02 32.99 182.97 32.92 182.97 32.87 182.97 32.78 183.04 32.74 183.21 32.74 183.72 32.74 184.68 32.78 184.76 32.78 184.83 32.78 185.83 32.74 186.3 32.74 186.47 32.74 186.54 32.78 186.54 32.87 186.54 32.92 186.47 32.99 186.42 32.99 186.31 32.99 186.21 32.99 186.04 33.02 185.62 33.11 185.53 33.32 185.5 33.84 185.48 34.31 185.48 34.73 185.48 37.03L185.48 39.65Z"/><path d="M190.94 33.55C191.08 33.7 191.09 33.76 191.09 33.84 191.09 33.9 191.01 33.95 190.94 33.95 190.66 33.95 190 33.74 189.72 33.63 189.51 33.53 189.42 33.44 189.42 33.18 189.42 31.94 190.31 30.48 190.92 29.74 190.99 29.64 191.06 29.61 191.15 29.61 191.18 29.61 191.23 29.64 191.23 29.69 191.23 29.74 191.22 29.8 191.16 29.92 190.9 30.48 190.59 31.42 190.59 32.41 190.59 32.95 190.82 33.41 190.94 33.55Z"/><path d="M196.6 39.65C196.6 41.08 196.6 42.25 196.67 42.86 196.73 43.29 196.78 43.57 197.23 43.64 197.46 43.68 197.79 43.71 197.93 43.71 198.02 43.71 198.05 43.78 198.05 43.83 198.05 43.9 197.98 43.96 197.81 43.96 196.95 43.96 195.96 43.9 195.89 43.9 195.8 43.9 194.84 43.96 194.37 43.96 194.21 43.96 194.13 43.92 194.13 43.83 194.13 43.78 194.16 43.71 194.25 43.71 194.39 43.71 194.58 43.68 194.72 43.64 195.02 43.57 195.07 43.29 195.12 42.86 195.19 42.25 195.21 41.08 195.21 39.65L195.21 37.03C195.21 34.73 195.21 34.31 195.17 33.84 195.14 33.34 195.02 33.11 194.68 33.04 194.51 33.01 194.32 32.99 194.21 32.99 194.14 32.99 194.09 32.92 194.09 32.87 194.09 32.78 194.16 32.74 194.34 32.74 194.84 32.74 195.8 32.78 195.89 32.78 195.96 32.78 196.95 32.74 197.42 32.74 197.6 32.74 197.67 32.78 197.67 32.87 197.67 32.92 197.6 32.99 197.55 32.99 197.44 32.99 197.34 32.99 197.16 33.02 196.74 33.11 196.66 33.32 196.62 33.84 196.6 34.31 196.6 34.73 196.6 37.03L196.6 39.65Z"/><path d="M130.08 67.76C130.18 67.76 130.28 67.7 130.28 67.54L130.28 66.87C130.28 61.99 130.28 61.1 130.21 60.07 130.15 58.98 129.89 58.47 128.83 58.24 128.58 58.18 128.03 58.15 127.58 58.15 127.23 58.15 127.04 58.08 127.04 57.86 127.04 57.64 127.26 57.57 127.71 57.57 129.44 57.57 131.46 57.67 132.33 57.67 133.1 57.67 135.12 57.57 136.37 57.57 136.82 57.57 137.04 57.64 137.04 57.86 137.04 58.08 136.85 58.15 136.46 58.15 136.21 58.15 135.92 58.18 135.53 58.24 134.67 58.4 134.41 58.95 134.35 60.07 134.28 61.1 134.28 61.99 134.28 66.87L134.28 72.51C134.28 75.45 134.28 77.99 134.44 79.36 134.54 80.26 134.73 80.97 135.69 81.1 136.14 81.16 136.85 81.22 137.33 81.22 137.68 81.22 137.84 81.32 137.84 81.48 137.84 81.7 137.59 81.8 137.2 81.8 135.12 81.8 133.1 81.7 132.2 81.7 131.46 81.7 129.44 81.8 128.19 81.8 127.74 81.8 127.52 81.7 127.52 81.48 127.52 81.32 127.65 81.22 128.03 81.22 128.52 81.22 128.9 81.16 129.19 81.1 129.83 80.97 129.99 80.26 130.12 79.33 130.28 77.99 130.28 75.45 130.28 72.51L130.28 69.69C130.28 69.56 130.18 69.49 130.08 69.49L117.84 69.49C117.75 69.49 117.65 69.53 117.65 69.69L117.65 72.51C117.65 75.45 117.65 77.99 117.81 79.36 117.91 80.26 118.1 80.97 119.06 81.1 119.51 81.16 120.21 81.22 120.69 81.22 121.05 81.22 121.21 81.32 121.21 81.48 121.21 81.7 120.95 81.8 120.57 81.8 118.48 81.8 116.46 81.7 115.56 81.7 114.83 81.7 112.81 81.8 111.53 81.8 111.11 81.8 110.89 81.7 110.89 81.48 110.89 81.32 111.02 81.22 111.4 81.22 111.88 81.22 112.27 81.16 112.55 81.1 113.2 80.97 113.35 80.26 113.48 79.33 113.64 77.99 113.64 75.45 113.64 72.51L113.64 66.87C113.64 61.99 113.64 61.1 113.58 60.07 113.52 58.98 113.26 58.47 112.2 58.24 111.94 58.18 111.4 58.15 110.95 58.15 110.6 58.15 110.41 58.08 110.41 57.86 110.41 57.64 110.63 57.57 111.08 57.57 112.81 57.57 114.83 57.67 115.7 57.67 116.46 57.67 118.48 57.57 119.73 57.57 120.18 57.57 120.41 57.64 120.41 57.86 120.41 58.08 120.21 58.15 119.83 58.15 119.57 58.15 119.28 58.18 118.9 58.24 118.03 58.4 117.78 58.95 117.71 60.07 117.65 61.1 117.65 61.99 117.65 66.87L117.65 67.54C117.65 67.7 117.75 67.76 117.84 67.76L130.08 67.76Z"/><path d="M143.13 69.08C143.13 64.94 143.13 64.17 143.1 63.31 143.04 62.38 142.75 62.06 142.14 61.87 141.82 61.77 141.47 61.74 141.11 61.74 140.82 61.74 140.66 61.67 140.66 61.42 140.66 61.26 140.89 61.19 141.34 61.19 142.4 61.19 144.32 61.26 145.12 61.26 145.82 61.26 147.65 61.19 148.74 61.19 149.09 61.19 149.32 61.26 149.32 61.42 149.32 61.67 149.16 61.74 148.87 61.74 148.58 61.74 148.36 61.77 148.04 61.83 147.27 61.96 147.04 62.35 146.98 63.31 146.92 64.17 146.92 64.94 146.92 69.08L146.92 73.88C146.92 76.51 146.92 78.69 147.04 79.85 147.14 80.58 147.33 81 148.17 81.13 148.55 81.19 149.19 81.22 149.61 81.22 149.93 81.22 150.06 81.38 150.06 81.51 150.06 81.7 149.83 81.8 149.51 81.8 147.65 81.8 145.73 81.7 144.96 81.7 144.32 81.7 142.4 81.8 141.27 81.8 140.92 81.8 140.73 81.7 140.73 81.51 140.73 81.38 140.82 81.22 141.18 81.22 141.59 81.22 141.91 81.19 142.17 81.13 142.75 81 142.91 80.62 143 79.81 143.13 78.69 143.13 76.51 143.13 73.88L143.13 69.08Z"/><path d="M159.45 73.88C159.45 77.38 159.45 79.11 160.06 79.62 160.54 80.04 161.63 80.2 163.81 80.2 165.32 80.2 166.4 80.17 167.11 79.43 167.46 79.08 167.75 78.31 167.82 77.8 167.85 77.54 167.91 77.38 168.14 77.38 168.33 77.38 168.39 77.67 168.39 77.99 168.39 78.31 168.2 80.33 167.98 81.13 167.78 81.74 167.65 81.86 166.18 81.86 164.16 81.86 162.53 81.83 161.12 81.77 159.71 81.74 158.52 81.7 157.37 81.7 157.05 81.7 156.44 81.74 155.77 81.74 155.09 81.77 154.39 81.8 153.81 81.8 153.46 81.8 153.26 81.7 153.26 81.51 153.26 81.38 153.36 81.22 153.71 81.22 154.13 81.22 154.45 81.19 154.71 81.13 155.28 81 155.44 80.49 155.54 79.69 155.67 78.53 155.67 76.38 155.67 73.88L155.67 69.08C155.67 64.94 155.67 64.17 155.64 63.31 155.57 62.38 155.31 62.09 154.42 61.83 154.19 61.77 153.84 61.74 153.49 61.74 153.17 61.74 153.01 61.64 153.01 61.45 153.01 61.26 153.2 61.19 153.62 61.19 154.93 61.19 156.72 61.26 157.49 61.26 158.17 61.26 160.48 61.19 161.56 61.19 161.98 61.19 162.17 61.26 162.17 61.45 162.17 61.64 162.01 61.74 161.66 61.74 161.34 61.74 160.89 61.77 160.57 61.83 159.8 61.96 159.58 62.35 159.51 63.31 159.45 64.17 159.45 64.94 159.45 69.08L159.45 73.88Z"/><path d="M188.81 71.99C188.81 65.97 185.19 62.25 180.64 62.25 177.5 62.25 173.81 63.92 173.81 70.65 173.81 76.26 177.02 80.68 182.34 80.68 184.32 80.68 188.81 79.75 188.81 71.99ZM169.64 71.48C169.64 66.83 172.91 60.81 181.47 60.81 188.59 60.81 193.01 64.75 193.01 71 193.01 77.25 188.46 82.15 181.18 82.15 172.98 82.15 169.64 76.32 169.64 71.48Z"/></svg>