<svg xmlns="http://www.w3.org/2000/svg" width="212" height="152" viewBox="0 0 212 152" version="1.1"><path d="M105.8 134.3L107.4 134.3 106.3 136C106.3 136.1 106.3 136.1 106.2 136.1 106.2 136.2 106.2 136.2 106.1 136.2L106.1 136.2 107.2 136.2 107.2 136.2C107.2 136.2 107.1 136.2 107.1 136.2 107.1 136.1 107.1 136.1 107.1 136.1 107.1 136.1 107.1 136 107.1 136 107.1 136 107.2 135.9 107.2 135.9L108.1 134.2 108.1 133.6 108 133.6C108 133.7 108 133.7 108 133.7 108 133.7 108 133.7 107.9 133.7L105.8 133.7C105.8 133.7 105.8 133.7 105.8 133.7 105.7 133.7 105.7 133.7 105.7 133.6L105.7 133.6 105.7 134.4 105.7 134.4C105.7 134.4 105.7 134.3 105.8 134.3 105.8 134.3 105.8 134.3 105.8 134.3ZM104 134.3C104.1 134.3 104.2 134.4 104.3 134.4 104.3 134.4 104.4 134.5 104.5 134.6 104.5 134.6 104.5 134.7 104.6 134.8 104.6 134.9 104.6 135 104.6 135.1 104.6 135.1 104.6 135.2 104.6 135.3 104.5 135.4 104.5 135.5 104.5 135.5 104.4 135.6 104.3 135.7 104.3 135.7 104.2 135.8 104.1 135.8 104 135.8 103.9 135.8 103.8 135.8 103.7 135.7 103.7 135.7 103.6 135.6 103.6 135.5 103.5 135.5 103.5 135.4 103.4 135.3 103.4 135.2 103.4 135.1 103.4 135.1 103.4 135 103.4 134.9 103.4 134.8 103.5 134.7 103.5 134.6 103.6 134.6 103.6 134.5 103.7 134.4 103.7 134.4 103.8 134.4 103.9 134.3 104 134.3ZM104 133.8C103.8 133.8 103.7 133.8 103.5 133.9 103.4 133.9 103.2 134 103.1 134.1 103 134.3 102.9 134.4 102.8 134.5 102.7 134.7 102.7 134.9 102.7 135.1 102.7 135.2 102.7 135.4 102.8 135.6 102.9 135.7 103 135.9 103.1 136 103.2 136.1 103.4 136.2 103.5 136.2 103.7 136.3 103.8 136.3 104 136.3 104.2 136.3 104.3 136.3 104.5 136.2 104.7 136.2 104.8 136.1 104.9 136 105 135.9 105.1 135.7 105.2 135.6 105.3 135.4 105.3 135.2 105.3 135.1 105.3 134.9 105.3 134.7 105.2 134.5 105.1 134.4 105 134.3 104.9 134.1 104.8 134 104.7 133.9 104.5 133.9 104.3 133.8 104.2 133.8 104 133.8ZM100.9 134.2C100.9 134.2 101 134.2 101.1 134.2 101.1 134.2 101.2 134.2 101.2 134.3 101.3 134.3 101.3 134.3 101.4 134.4 101.4 134.4 101.4 134.5 101.4 134.5 101.4 134.6 101.4 134.7 101.4 134.7 101.3 134.8 101.3 134.8 101.2 134.8 101.2 134.8 101.1 134.9 101.1 134.9 101 134.9 100.9 134.9 100.9 134.9 100.9 134.9 100.8 134.9 100.7 134.9 100.7 134.9 100.6 134.8 100.6 134.8 100.5 134.8 100.5 134.8 100.4 134.7 100.4 134.7 100.4 134.6 100.4 134.5 100.4 134.5 100.4 134.4 100.4 134.4 100.5 134.3 100.5 134.3 100.6 134.3 100.6 134.2 100.7 134.2 100.7 134.2 100.8 134.2 100.9 134.2 100.9 134.2ZM100.1 135.5L99.7 136.1 99.8 136.1C99.8 136.1 99.9 136.1 99.9 136.1 99.9 136.1 99.9 136.1 100 136.1 100 136.1 100.1 136.2 100.2 136.2 100.2 136.2 100.3 136.2 100.4 136.2 100.5 136.2 100.6 136.2 100.8 136.2 101 136.2 101.1 136.2 101.3 136.2 101.5 136.1 101.6 136 101.8 135.9 101.9 135.8 102 135.7 102.1 135.5 102.2 135.3 102.2 135.1 102.2 134.9 102.2 134.7 102.2 134.5 102.1 134.4 102.1 134.2 102 134.1 101.9 134 101.7 133.9 101.6 133.8 101.4 133.8 101.3 133.7 101.1 133.7 100.9 133.7 100.8 133.7 100.6 133.7 100.5 133.7 100.4 133.8 100.3 133.8 100.1 133.9 100 134 99.9 134 99.9 134.1 99.8 134.3 99.8 134.4 99.8 134.5 99.8 134.7 99.8 134.8 99.8 134.9 99.9 135 100 135.1 100 135.1 100.1 135.2 100.2 135.3 100.3 135.3 100.4 135.3 100.6 135.4 100.7 135.4 100.9 135.4 101 135.3 101.1 135.3 101.3 135.3 101.4 135.2 101.6 135.1 101.6 135.2 101.5 135.3 101.5 135.4 101.4 135.5 101.4 135.6 101.3 135.6 101.2 135.7 101.1 135.7 101.1 135.7 101 135.8 100.9 135.8 100.8 135.8 100.7 135.8 100.6 135.8 100.5 135.8 100.5 135.8 100.4 135.7 100.3 135.7 100.3 135.7 100.2 135.7 100.2 135.7 100.2 135.6 100.2 135.6 100.2 135.5L100.2 135.5 100.1 135.5ZM97.8 134.8L97.9 134.8C97.9 134.8 97.9 134.7 97.9 134.7 97.9 134.7 97.9 134.7 97.9 134.7 98 134.6 98 134.6 98.1 134.6 98.1 134.6 98.2 134.6 98.2 134.6L98.2 136.1C98.2 136.1 98.2 136.1 98.2 136.1 98.2 136.2 98.2 136.2 98.1 136.2L98.1 136.2 99.1 136.2 99.1 136.2C99 136.2 99 136.2 99 136.1 99 136.1 99 136.1 99 136.1L99 133.9C99 133.8 99 133.8 99 133.8 99 133.8 99 133.8 99.1 133.8L99.1 133.7 98.2 133.7 98.2 133.8C98.2 133.8 98.2 133.8 98.2 133.8 98.2 133.8 98.2 133.8 98.2 133.9L98.2 134C98.2 134 98.2 134 98.2 134 98.2 134.1 98.1 134.1 98.1 134.1 98.1 134.1 98 134.1 98 134.1 98 134.1 97.9 134.1 97.9 134.1 97.9 134.1 97.9 134.1 97.9 134.1 97.9 134.1 97.9 134 97.9 134L97.8 134 97.8 134.8ZM109.6 87.8C108.9 86.1 109.7 83.9 109.7 83.9 106.1 84.7 105.4 86.9 104.3 87.1 103.5 87.3 103.7 85.2 103.7 85.2 103.7 85.2 98.6 87.8 96.9 91.9 95.3 95.5 96.7 97.5 96.7 97.5L98.6 97.5C98.4 91.6 102.6 89.3 105.3 87.8 106 87.4 106.6 87.1 107 86.8L108 86.1 107.8 87.3C107.8 87.3 107.6 88.7 107.8 90.1 107.9 90.5 108.1 90.8 108.2 91.2 108.5 92 108.9 92.9 108.5 94.3 108.2 95.5 107.1 96.7 106.4 97.5L107.7 97.5C107.7 97.5 109.1 96.9 110.3 94.4 111.4 91.2 110.3 89.9 109.6 87.8ZM107.5 94C107.6 93.7 107.7 93.4 107.7 93.1 107.7 92.5 107.5 92.1 107.3 91.6 107.1 91.2 107 90.8 106.9 90.3 106.7 89.7 106.7 89.1 106.7 88.5 106.7 88.4 106.7 88.3 106.7 88.2 106.4 88.3 106.1 88.5 105.8 88.7 103.2 90.1 99.6 92.1 99.6 97.1 99.6 97.2 99.6 97.4 99.6 97.5L104.9 97.5C105.2 97.3 107.1 95.6 107.5 94ZM105.3 109.2L105.8 103.6C105 103.9 104.2 104.1 103.2 104.2L102.7 113.5C102.7 113.6 102.7 113.7 102.6 113.7L102.6 113.7C102.5 113.7 102.5 113.6 102.5 113.5L102 104.2C101 104.1 100.2 103.9 99.4 103.6L99.9 109.2 82 101.8C82.6 103.2 89.1 120.5 89.2 120.8L100.6 125.8 100.8 121.4C100.8 121.3 100.9 121.3 100.9 121.3 100.9 121.3 101 121.3 101 121.4L101.4 126.2 101.4 126.2 101.8 130.8C101.8 131.2 102.2 131.5 102.6 131.5 103 131.5 103.4 131.2 103.4 130.8L103.8 126.2 104.2 121.4C104.2 121.3 104.2 121.3 104.3 121.3 104.3 121.3 104.4 121.3 104.4 121.4L104.6 125.8 116 120.8C116.1 120.5 122.6 103.2 123.2 101.8L105.3 109.2ZM91.4 99.7C93.2 100.9 96.4 103.7 98.1 105.4 94 98.3 91 96.7 90.1 96.5L91.4 99.7ZM98.6 107.4C91.9 100.8 87.6 98.7 85.5 98.3L87.1 102.5 98.6 107.4ZM109.1 98.3L96.1 98.3C95.8 98.3 95.6 98.5 95.6 98.8 95.6 99.1 95.8 99.3 96.1 99.3L109.1 99.3C109.4 99.3 109.6 99.1 109.6 98.8 109.6 98.5 109.4 98.3 109.1 98.3ZM96.8 100.1C97.4 101.5 99.4 103.5 102.6 103.5 105.8 103.5 107.7 101.5 108.4 100.1L96.8 100.1ZM115.1 96.5C114.2 96.7 111.2 98.3 107.1 105.4 108.8 103.7 112 100.9 113.9 99.7L115.1 96.5ZM118.1 102.5L119.7 98.3C117.6 98.7 113.3 100.8 106.6 107.4L118.1 102.5ZM133.1 108.9L133.1 108.2 128.1 108.2C128.1 101.7 126.5 95.7 123.8 90.7L127.5 90.7 126.9 90 123.4 90C121 85.9 118 82.6 114.4 80.3 114.4 80.3 114.2 80.2 114 80.1 113.9 80 112.9 79.7 112.9 79.7 111.9 79.3 110.2 78.8 110.2 78.8 115.2 80.9 119.5 84.8 122.6 90L113.7 90C113.3 88.6 112.9 87.3 112.3 86.1 110.8 82.4 108.9 79.7 106.8 78.2 106.8 78.2 106.5 78.1 106.3 78.1 106.1 78.1 105.2 78 105.2 78 108.4 79.6 111.1 83.9 113 90L111.7 90C111.7 90 111.8 90.3 111.9 90.7L113.2 90.7C113.7 92.2 114 93.8 114.4 95.4 114.4 95.4 114.7 95.3 114.9 95.2L115 95.2C114.7 93.6 114.4 92.2 113.9 90.7L123 90.7C125.7 95.7 127.4 101.7 127.4 108.2L122.1 108.2 121.8 108.9 127.4 108.9C127.4 115.4 125.7 121.4 123 126.3L114 126.3C114.3 125.1 114.6 123.9 114.9 122.6L114.1 123C113.8 124.1 113.5 125.2 113.2 126.3L106.5 126.3 104.9 127 113 127C111.2 133 108.5 137.4 105.4 139 105.4 139 106.2 138.9 106.4 138.9 106.6 138.9 107 138.8 107 138.8 109 137.3 110.8 134.6 112.3 131 112.9 129.8 113.3 128.4 113.8 127L122.6 127C119.6 132.1 115.5 136 110.7 138.1 110.7 138.1 112 137.7 112.9 137.4 112.9 137.4 114.1 136.9 114.4 136.8L114.7 136.6C118.2 134.3 121.1 131 123.4 127L126.9 127C127 126.9 127.4 126.3 127.4 126.3L123.8 126.3C126.5 121.3 128.1 115.3 128.1 108.9L133.1 108.9ZM133.1 108.9ZM98.7 126.3L92 126.3C91.7 125.3 91.4 124.1 91.1 123L90.3 122.6C90.6 123.9 90.9 125.1 91.3 126.3L82.2 126.3C79.5 121.4 77.8 115.4 77.8 108.9L83.4 108.9 83.1 108.2 77.8 108.2C77.9 101.7 79.5 95.7 82.3 90.7L91.3 90.7C90.9 92.2 90.5 93.7 90.2 95.2 90.2 95.2 90.4 95.3 90.6 95.3L90.9 95.5C91.2 93.8 91.6 92.2 92 90.7L96 90.7C96.2 90.5 96.4 90 96.4 90L92.2 90C94.1 83.9 96.8 79.6 100 78 100 78 99.7 78 99.5 78 99.2 78 98.4 78.1 98.4 78.1 96.3 79.7 94.4 82.4 92.9 86.1 92.4 87.3 91.9 88.6 91.5 90L82.7 90C85.7 84.8 90.1 80.8 95.2 78.8L95 78.8C94.7 78.9 93.9 79.1 93.9 79.1 92.7 79.4 91 80.1 91 80.1 87.4 82.5 84.2 85.9 81.8 90 81.8 90 81.8 90 81.8 90L78.2 90 77.6 90.7 81.4 90.7C78.8 95.7 77.1 101.7 77.1 108.2L72 108.2 72 108.9 77.1 108.9C77.1 115.3 78.7 121.3 81.4 126.3L77.7 126.3C77.7 126.3 78.2 127 78.2 127L81.8 127C84.1 131.1 87.2 134.4 90.7 136.8 90.7 136.8 92 137.3 92.5 137.5 92.5 137.5 93.6 137.9 94.2 138 94.5 138.1 94.7 138.1 94.7 138.1 89.8 136.1 85.6 132.1 82.6 127L91.5 127C91.9 128.4 92.4 129.8 92.9 131 94.4 134.6 96.3 137.3 98.3 138.9 98.3 138.9 98.9 138.9 99.4 139L99.8 139C96.7 137.4 94 133 92.2 127L100.3 127 98.7 126.3ZM97 116.3C97.1 116.1 97.2 115.6 97.2 115.5 97.3 115.7 97.6 116.4 97.7 116.7L97 116.3ZM98.8 118.1C98.7 117.7 97.3 114.9 97 114.3L97 114.3C96.8 114.9 96.3 116.6 96.2 116.9L96.7 117.5C96.8 117.4 96.9 116.8 96.9 116.8L98 117.3C98.1 117.4 98.3 118 98.4 118.3L98.8 118.1ZM92.2 114.4C92.2 114.3 92.3 113.8 92.3 113.6 92.4 113.8 92.8 114.5 92.9 114.7L92.2 114.4ZM94.1 116C93.9 115.6 92.4 113.1 92.1 112.5L92 112.5C91.9 113.1 91.5 114.7 91.4 115L92 115.6C92 115.4 92.1 114.9 92.1 114.9L93.2 115.3C93.3 115.4 93.6 116 93.7 116.2L94.1 116ZM91.2 114.9C91 114.7 89.5 111.6 89.2 111.1L89.2 111.1C89.1 111.5 89.1 112.7 89 112.9 88.8 112.5 87.8 110.8 87.6 110.5L87.5 110.5C87.6 111 87.7 113.1 87.7 113.5L88.3 114C88.3 113.7 88.2 112.2 88.2 112.1 88.3 112.3 89.2 113.7 89.5 114.2L89.5 114.2C89.6 113.7 89.6 112.9 89.6 112.7 89.8 113 90.6 114.8 90.8 115L91.2 114.9ZM109.4 115.7C109.5 115.5 109.9 114.8 110 114.6 110 114.7 110.1 115.2 110.2 115.4L109.4 115.7ZM108.7 117.3C108.8 117.1 109.1 116.4 109.1 116.3L110.2 115.8C110.3 115.9 110.4 116.4 110.4 116.6L111 116C110.9 115.7 110.4 114 110.2 113.4L110.2 113.4C109.9 114 108.5 116.7 108.3 117.1L108.7 117.3ZM116.3 112.9C116.5 112.7 116.9 111.9 117.1 111.7 117.1 111.8 117.1 112.4 117.1 112.6L116.3 112.9ZM115.4 114.6C115.5 114.4 115.9 113.7 116 113.6L117.1 113.1C117.1 113.1 117.1 113.7 117.1 113.9L117.8 113.2C117.7 112.9 117.6 111.1 117.5 110.4L117.5 110.4C117.1 111 115.3 114 115 114.4L115.4 114.6ZM111.7 116.1C111.8 115.9 112.6 114.1 112.7 113.9L112.7 113.9C112.7 114.1 112.8 114.9 112.9 115.4L112.9 115.4C113.2 114.8 114.1 113.5 114.2 113.3 114.2 113.4 114.1 114.8 114.1 115.2L114.7 114.6C114.7 114.3 114.7 112.2 114.7 111.7L114.7 111.7C114.5 112 113.5 113.7 113.3 114.1 113.3 113.9 113.1 112.6 113.1 112.3L113 112.3C112.8 112.7 111.4 115.8 111.3 116.1L111.7 116.1ZM108 117C107.7 117.1 107.3 117.3 107.2 117.3L107.4 116.3C107.5 115.7 107.6 114.7 107.6 114.6L107 114.9C107 115 106.9 116.1 106.9 116.2L106.8 116.8C106.7 116.9 106.6 117.9 106.5 118.2 106.7 118.1 107.8 117.7 107.9 117.7L108 117ZM104.3 117.3C104.4 117.1 104.6 116.5 104.7 116.3 104.8 116.4 105 117.1 105.1 117.3L104.3 117.3ZM103.8 118.7C103.9 118.5 104.1 117.9 104.1 117.8L105.3 117.8C105.3 117.8 105.5 118.4 105.6 118.6L106.2 118.1C106 117.8 105.1 115.9 104.7 115.1L104.7 115.1C104.5 115.6 103.4 118 103.3 118.3L103.8 118.7ZM99.6 118.5C99.7 118.3 100 116.9 100.1 116.7L100.1 116.7C100.2 116.9 100.6 117.8 100.9 118.4L100.9 118.4C101.1 117.9 101.6 116.8 101.7 116.7 101.8 116.8 102.2 118.3 102.3 118.7L102.9 118.3C102.8 118 102.1 115.8 101.9 115.2L101.8 115.2C101.7 115.5 101.1 116.9 100.9 117.1 100.8 116.9 100.2 115.6 100 115.2L100 115.2C99.9 115.6 99.1 118 99.1 118.2L99.6 118.5ZM95.8 116.4C95.4 116.3 95.2 116.2 95.1 116.1L94.9 115C94.8 114.4 94.6 113.5 94.6 113.4L94 113.1C94 113.2 94.2 114.4 94.2 114.4L94.3 115C94.3 115.2 94.5 116.2 94.6 116.4 94.8 116.5 95.8 117 95.9 117.1L95.8 116.4ZM91.3 111.9L92.7 112.5 92.6 111.9 91.1 111.3 91.3 111.9ZM137.8 115.9C137.8 115.8 137.9 115.7 137.9 115.6 138 115.5 138.1 115.4 138.2 115.4 138.3 115.3 138.4 115.2 138.5 115.2 138.6 115.2 138.8 115.2 138.9 115.2 139.1 115.3 139.2 115.3 139.3 115.4 139.4 115.4 139.5 115.5 139.5 115.6 139.6 115.7 139.6 115.8 139.7 115.9 139.7 116 139.7 116.2 139.7 116.3 139.6 116.4 139.6 116.5 139.5 116.6 139.5 116.7 139.4 116.8 139.3 116.8 139.2 116.9 139.1 116.9 139 117 138.8 117 138.7 117 138.6 116.9 138.4 116.9 138.3 116.9 138.2 116.8 138.1 116.7 138 116.6 137.9 116.6 137.9 116.5 137.8 116.4 137.8 116.2 137.8 116.1 137.8 116 137.8 115.9ZM137 115.7C136.9 115.9 136.9 116.1 137 116.3 137 116.6 137.1 116.8 137.2 116.9 137.3 117.1 137.4 117.3 137.6 117.4 137.8 117.6 138.1 117.7 138.4 117.7 138.7 117.8 139 117.8 139.2 117.8 139.5 117.7 139.7 117.6 139.8 117.5 140 117.3 140.2 117.2 140.3 117 140.4 116.8 140.4 116.6 140.5 116.4 140.5 116.2 140.5 116 140.5 115.8 140.5 115.6 140.4 115.4 140.3 115.2 140.2 115.1 140 114.9 139.8 114.7 139.6 114.6 139.4 114.5 139.1 114.4 138.8 114.4 138.5 114.4 138.2 114.4 138 114.5 137.8 114.6 137.6 114.7 137.4 114.8 137.3 115 137.2 115.2 137.1 115.4 137 115.5 137 115.7ZM95.3 143.9C95.4 143.9 95.5 143.9 95.6 144 95.7 144.1 95.8 144.1 95.8 144.2 95.9 144.3 95.9 144.4 96 144.6 96 144.7 96 144.8 95.9 145 95.9 145.1 95.9 145.2 95.8 145.3 95.7 145.4 95.7 145.5 95.6 145.6 95.5 145.7 95.4 145.7 95.3 145.7 95.1 145.7 95 145.7 94.9 145.7 94.8 145.7 94.7 145.7 94.6 145.6 94.5 145.5 94.4 145.4 94.4 145.3 94.3 145.2 94.3 145.1 94.2 145 94.2 144.9 94.2 144.8 94.3 144.6 94.3 144.5 94.3 144.3 94.4 144.2 94.5 144.1 94.5 144 94.6 144 94.7 143.9 94.8 143.9 95 143.8 95.1 143.8 95.2 143.8 95.3 143.9ZM95.5 143C95.3 143 95.1 143 94.9 143 94.7 143 94.5 143.1 94.3 143.2 94.1 143.3 93.9 143.5 93.8 143.7 93.6 143.9 93.5 144.1 93.4 144.4 93.4 144.7 93.4 145 93.4 145.3 93.5 145.5 93.6 145.7 93.7 145.9 93.8 146.1 94 146.2 94.2 146.3 94.4 146.4 94.5 146.5 94.7 146.5 94.9 146.6 95.1 146.6 95.3 146.5 95.5 146.5 95.8 146.5 95.9 146.4 96.1 146.2 96.3 146.1 96.4 145.9 96.6 145.7 96.7 145.4 96.8 145.1 96.8 144.8 96.8 144.5 96.8 144.3 96.7 144.1 96.6 143.9 96.5 143.7 96.4 143.5 96.2 143.4 96 143.3 95.8 143.1 95.7 143.1 95.5 143ZM89.9 143.8L88.9 143.4 89.9 142.3 89.9 143.8ZM89.8 145.1L90.7 145.4 90.8 145.3C90.7 145.3 90.7 145.3 90.7 145.3 90.7 145.3 90.7 145.3 90.7 145.2 90.7 145.1 90.7 142.3 90.7 142.1 90.7 142 90.7 141.9 90.7 141.9 90.7 141.9 90.7 141.9 90.8 141.9L90.8 141.8 89.6 141.3 89.5 141.4C89.6 141.4 89.6 141.5 89.6 141.5 89.6 141.5 89.5 141.6 89.4 141.8 89.3 141.9 87.8 143.7 87.5 144 87.5 144.1 87.5 144.1 87.4 144.1 87.4 144.1 87.4 144.1 87.4 144.1L87.3 144.2 88.2 144.5 88.2 144.4C88.2 144.4 88.2 144.4 88.2 144.4 88.2 144.4 88.2 144.4 88.2 144.3 88.2 144.3 88.2 144.3 88.2 144.2 88.3 144.2 88.5 143.9 88.5 143.9L89.9 144.4C89.9 144.4 89.9 144.8 89.9 144.9 89.9 144.9 89.9 145 89.9 145 89.9 145 89.9 145 89.8 145 89.8 145 89.8 145 89.8 145L89.8 145.1ZM67.1 120.5L66.8 119.5 68.3 119.6 67.1 120.5ZM66 121.2L66.3 122.2 66.4 122.1C66.4 122.1 66.4 122.1 66.4 122.1 66.4 122 66.5 122 66.5 122 66.6 121.9 68.8 120.2 68.9 120.1 69 120 69 120 69.1 120 69.1 119.9 69.1 120 69.2 120L69.2 120 68.8 118.7 68.8 118.7C68.8 118.8 68.7 118.8 68.7 118.9 68.7 118.9 68.6 118.9 68.4 118.9 68.2 118.9 65.8 118.8 65.4 118.8 65.4 118.8 65.4 118.8 65.4 118.7 65.3 118.7 65.3 118.7 65.3 118.7L65.2 118.7 65.5 119.6 65.6 119.6C65.6 119.6 65.6 119.6 65.6 119.5 65.6 119.5 65.6 119.5 65.6 119.5 65.6 119.5 65.7 119.5 65.7 119.5 65.8 119.5 66.1 119.5 66.2 119.5L66.6 120.9C66.6 120.9 66.3 121.1 66.3 121.2 66.2 121.2 66.2 121.2 66.2 121.2 66.1 121.2 66.1 121.2 66.1 121.2 66.1 121.2 66.1 121.2 66.1 121.2L66 121.2ZM71.6 129.6L71.1 128.8 72.5 128.4 71.6 129.6ZM70.8 130.6L71.4 131.5 71.5 131.4C71.4 131.4 71.4 131.4 71.4 131.3 71.4 131.3 71.4 131.3 71.5 131.3 71.5 131.1 73.2 128.9 73.2 128.8 73.3 128.6 73.4 128.6 73.4 128.6 73.4 128.6 73.5 128.6 73.5 128.6L73.6 128.6 72.8 127.5 72.8 127.5C72.8 127.5 72.8 127.6 72.7 127.6 72.7 127.6 72.6 127.7 72.4 127.7 72.2 127.8 70 128.3 69.6 128.4 69.5 128.4 69.5 128.4 69.5 128.4 69.5 128.4 69.5 128.4 69.4 128.4L69.4 128.4 69.9 129.2 69.9 129.2C69.9 129.2 69.9 129.1 69.9 129.1 69.9 129.1 69.9 129.1 69.9 129.1 70 129 70 129 70 129 70.1 129 70.4 128.9 70.5 128.9L71.3 130.1C71.3 130.2 71.1 130.5 71 130.5 71 130.6 71 130.6 71 130.6 70.9 130.6 70.9 130.6 70.9 130.6 70.9 130.6 70.9 130.6 70.9 130.6L70.8 130.6ZM105.6 145.9L104.6 145.9 105 144.5 105.6 145.9ZM106 147.1L107.1 147 107.1 146.9C107 146.9 107 146.9 107 146.9 107 146.9 106.9 146.9 106.9 146.8 106.9 146.7 105.7 144.2 105.7 144 105.6 143.9 105.6 143.9 105.6 143.8 105.6 143.8 105.6 143.8 105.7 143.8L105.6 143.7 104.3 143.7 104.3 143.8C104.4 143.8 104.4 143.9 104.4 143.9 104.4 143.9 104.4 144.1 104.3 144.2 104.3 144.4 103.6 146.7 103.6 147.1 103.5 147.1 103.5 147.1 103.5 147.1 103.5 147.2 103.5 147.2 103.4 147.2L103.4 147.3 104.4 147.2 104.4 147.1C104.4 147.1 104.3 147.1 104.3 147.1 104.3 147.1 104.3 147.1 104.3 147.1 104.3 147 104.3 147 104.3 147 104.3 146.9 104.4 146.6 104.4 146.5L105.9 146.4C105.9 146.5 106.1 146.8 106.1 146.8 106.1 146.9 106.1 146.9 106.1 146.9 106.1 147 106.1 147 106.1 147 106.1 147 106 147 106 147L106 147.1ZM77.5 138L78.4 138.8 78.5 138.8C78.5 138.7 78.5 138.7 78.5 138.7 78.5 138.7 78.5 138.6 78.5 138.6L79 136.5C79.1 136.4 79.8 136.3 79.9 136.3 80.1 136.3 80.3 136.3 80.4 136.3 80.5 136.2 80.6 136.3 80.7 136.3L80.8 136.2 79.8 135.4 79.7 135.5C79.7 135.5 79.8 135.6 79.8 135.6 79.8 135.6 79.8 135.7 79.8 135.7 79.7 135.7 79.7 135.7 79.6 135.7 79.6 135.8 79.5 135.8 79.4 135.8 79.2 135.8 77.9 136 77.8 136L78.8 134.9C78.8 134.8 78.9 134.8 78.9 134.8 78.9 134.8 79 134.9 79 134.9L79.1 134.8 78.2 134 78.2 134.1C78.2 134.1 78.2 134.1 78.2 134.2 78.2 134.2 78.2 134.2 78.2 134.3L76.2 136.6C76.2 136.6 76.1 136.6 76.1 136.6 76 136.6 76 136.6 76 136.6L75.9 136.6 76.8 137.4 76.9 137.4C76.8 137.3 76.8 137.3 76.8 137.3 76.8 137.2 76.8 137.2 76.8 137.1L77.3 136.6 78.1 136.5C78.1 136.5 77.8 137.8 77.8 137.8 77.8 137.9 77.8 137.9 77.7 138 77.7 138 77.7 138 77.6 138 77.6 138 77.6 138 77.5 137.9L77.5 138ZM101.7 147.3L103 147.3 103 147.2C102.9 147.2 102.9 147.2 102.9 147.1 102.9 147.1 102.9 147.1 102.8 147L101.9 145.1C101.9 145 102.4 144.5 102.5 144.4 102.6 144.2 102.8 144.1 102.9 144 103 143.9 103 143.9 103.1 143.9L103.1 143.8 101.9 143.8 101.9 143.9C101.9 143.9 101.9 143.9 102 143.9 102 143.9 102 144 102 144 102 144 102 144.1 101.9 144.1 101.9 144.2 101.8 144.3 101.8 144.3 101.7 144.4 100.8 145.4 100.7 145.4L100.7 144C100.7 143.9 100.8 143.9 100.8 143.9 100.8 143.9 100.9 143.8 100.9 143.8L100.9 143.7 99.7 143.7 99.7 143.8C99.8 143.8 99.8 143.8 99.8 143.8 99.9 143.8 99.9 143.9 99.9 143.9L99.8 146.9C99.8 147 99.8 147 99.7 147 99.7 147.1 99.7 147.1 99.6 147.1L99.6 147.2 100.8 147.2 100.8 147.1C100.8 147.1 100.7 147.1 100.7 147.1 100.7 147.1 100.6 147 100.6 147L100.7 146.3 101.2 145.7C101.3 145.7 101.8 146.9 101.8 146.9 101.9 147 101.9 147 101.9 147 101.9 147.1 101.9 147.1 101.8 147.1 101.8 147.2 101.7 147.2 101.7 147.2L101.7 147.3ZM86.8 143.2L85.2 142.3 85.5 141.6 86.6 142.2C86.6 142.2 86.6 142.2 86.7 142.3 86.7 142.3 86.7 142.3 86.6 142.4L86.7 142.4 87.2 141.5 87.1 141.5C87.1 141.5 87 141.6 87 141.6 87 141.6 86.9 141.6 86.9 141.6L85.8 141.1 86.1 140.5 87.8 141.3C87.8 141.3 87.8 141.4 87.8 141.4 87.8 141.4 87.8 141.5 87.8 141.5L87.9 141.6 88.3 140.6 88.3 140.6C88.2 140.7 88.2 140.7 88.2 140.7 88.1 140.7 88.1 140.7 88.1 140.7L85.5 139.4 85.5 139.5C85.5 139.5 85.6 139.5 85.6 139.6 85.6 139.6 85.6 139.6 85.6 139.7L84.2 142.4C84.2 142.4 84.2 142.4 84.1 142.4 84.1 142.4 84 142.4 84 142.4L84 142.5 86.5 143.8C86.5 143.8 86.5 143.8 86.6 143.8 86.6 143.9 86.6 143.9 86.6 144L86.6 144 87.1 143.1 87 143.1C86.9 143.2 86.9 143.2 86.8 143.2ZM81.7 140.3L80.2 139.3 80.7 138.6 81.6 139.3C81.7 139.4 81.7 139.4 81.7 139.4 81.7 139.5 81.7 139.5 81.6 139.6L81.7 139.6 82.3 138.8 82.2 138.7C82.2 138.8 82.1 138.8 82.1 138.8 82.1 138.8 82.1 138.8 82 138.8L81.1 138.1 81.4 137.6 82.9 138.7C83 138.7 83 138.7 83 138.7 83 138.8 83 138.8 82.9 138.9L83 138.9 83.6 138.1 83.5 138C83.5 138.1 83.5 138.1 83.4 138.1 83.4 138.1 83.4 138.1 83.3 138.1L81 136.4 81 136.5C81 136.5 81 136.6 81 136.6 81.1 136.6 81 136.7 81 136.7L79.3 139.2C79.2 139.2 79.2 139.2 79.2 139.2 79.1 139.2 79.1 139.2 79 139.2L79 139.3 81.3 140.9C81.3 140.9 81.3 141 81.4 141 81.4 141 81.4 141 81.3 141.1L81.4 141.2 82 140.3 81.9 140.3C81.8 140.4 81.8 140.4 81.7 140.3ZM67.6 114.4L65.9 114.8C65.7 114.8 65.5 114.9 65.3 115 65.1 115.1 65 115.2 64.9 115.3 64.8 115.5 64.7 115.7 64.7 115.9 64.6 116.1 64.6 116.3 64.7 116.6 64.7 116.8 64.8 117.1 64.9 117.2 65.1 117.4 65.2 117.5 65.3 117.6 65.5 117.7 65.7 117.7 65.9 117.8 66.1 117.8 66.3 117.8 66.5 117.7L68.2 117.3C68.3 117.3 68.3 117.3 68.3 117.4 68.4 117.4 68.4 117.4 68.4 117.5L68.5 117.5 68.2 116.4 68.1 116.4C68.1 116.4 68.1 116.4 68.1 116.5 68.1 116.5 68.1 116.5 68 116.5L66.1 116.9C65.9 117 65.8 116.9 65.7 116.8 65.6 116.7 65.5 116.6 65.4 116.4 65.4 116.2 65.4 116.1 65.5 115.9 65.5 115.8 65.7 115.7 65.9 115.7L67.8 115.3C67.8 115.3 67.8 115.3 67.9 115.3 67.9 115.3 67.9 115.3 67.9 115.4L68 115.3 67.8 114.2 67.7 114.2C67.7 114.3 67.7 114.3 67.7 114.4 67.7 114.4 67.7 114.4 67.6 114.4ZM74.2 129.8L72.8 131C72.7 131.1 72.5 131.2 72.4 131.4 72.3 131.6 72.2 131.7 72.2 131.9 72.2 132.1 72.2 132.3 72.2 132.5 72.3 132.7 72.4 132.9 72.6 133.1 72.8 133.3 72.9 133.5 73.1 133.6 73.3 133.7 73.5 133.7 73.7 133.7 73.9 133.7 74 133.7 74.2 133.6 74.4 133.5 74.6 133.4 74.7 133.3L76.1 132.1C76.1 132.1 76.2 132.1 76.2 132.1 76.3 132.1 76.3 132.1 76.3 132.2L76.4 132.1 75.6 131.3 75.6 131.3C75.6 131.3 75.6 131.4 75.6 131.4 75.6 131.4 75.6 131.5 75.5 131.5L74 132.7C73.9 132.8 73.7 132.9 73.6 132.9 73.5 132.8 73.3 132.7 73.2 132.6 73.1 132.4 73 132.3 73 132.1 73 132 73.1 131.9 73.2 131.7L74.7 130.5C74.8 130.5 74.8 130.5 74.8 130.5 74.9 130.5 74.9 130.5 74.9 130.5L75 130.4 74.3 129.5 74.2 129.6C74.2 129.6 74.3 129.7 74.3 129.7 74.3 129.8 74.3 129.8 74.2 129.8ZM67.9 125.3L70 124.2 70 124.2 68.4 126.1 70.8 125.9 70.8 125.9 68.8 127C68.7 127 68.7 127 68.7 127 68.6 126.9 68.6 126.9 68.6 126.9L68.5 126.9 69 127.8 69.1 127.8C69.1 127.8 69.1 127.7 69.1 127.7 69.1 127.7 69.1 127.6 69.2 127.6L71.8 126.2C71.9 126.2 71.9 126.2 72 126.2 72 126.2 72 126.3 72 126.3L72.1 126.2 71.4 125 71.3 125.1C71.4 125.1 71.4 125.1 71.4 125.1 71.4 125.2 71.4 125.2 71.3 125.2 71.3 125.2 71.3 125.2 71.1 125.2 71 125.2 70 125.3 69.9 125.3 69.9 125.3 70.6 124.5 70.7 124.4 70.8 124.3 70.9 124.3 70.9 124.3 70.9 124.3 70.9 124.3 70.9 124.3 70.9 124.3 71 124.3 71 124.4L71.1 124.3 70.5 123.1 70.4 123.1C70.4 123.1 70.4 123.2 70.4 123.2 70.4 123.2 70.4 123.3 70.3 123.3L67.7 124.7C67.6 124.7 67.6 124.7 67.5 124.7 67.5 124.6 67.5 124.6 67.5 124.6L67.4 124.6 67.8 125.5 67.9 125.5C67.9 125.5 67.9 125.4 67.9 125.4 67.9 125.3 67.9 125.3 67.9 125.3ZM135.5 123.1C135.5 123 135.6 122.9 135.7 122.8 135.8 122.7 135.9 122.7 136 122.6 136.1 122.6 136.2 122.6 136.3 122.6 136.4 122.6 136.6 122.6 136.7 122.7 136.8 122.8 137 122.8 137 122.9 137.1 123 137.2 123.1 137.2 123.2 137.3 123.3 137.3 123.4 137.3 123.5 137.3 123.6 137.3 123.8 137.2 123.9 137.2 124 137.1 124.1 137 124.2 137 124.2 136.9 124.3 136.8 124.3 136.6 124.4 136.5 124.4 136.4 124.4 136.3 124.4 136.2 124.3 136 124.3 135.9 124.2 135.8 124.2 135.7 124.1 135.6 124 135.5 123.9 135.5 123.8 135.4 123.7 135.4 123.6 135.4 123.4 135.4 123.3 135.4 123.2 135.5 123.1ZM134.7 122.8C134.6 123 134.6 123.2 134.6 123.4 134.6 123.6 134.6 123.8 134.7 124 134.7 124.2 134.8 124.4 135 124.6 135.2 124.8 135.4 124.9 135.7 125 136 125.2 136.2 125.2 136.5 125.2 136.7 125.2 137 125.2 137.1 125.1 137.3 125 137.5 124.9 137.7 124.7 137.8 124.5 137.9 124.4 138 124.2 138.1 124 138.1 123.8 138.1 123.6 138.1 123.4 138.1 123.2 138.1 123 138 122.8 137.9 122.6 137.7 122.4 137.5 122.2 137.3 122.1 137 121.9 136.7 121.8 136.5 121.8 136.2 121.8 136 121.8 135.8 121.8 135.6 121.9 135.4 122 135.2 122.1 135.1 122.3 134.9 122.4 134.8 122.6 134.7 122.8ZM134.4 127L133.6 126.6 133.9 126C134 125.9 134.1 125.8 134.2 125.8 134.3 125.8 134.4 125.8 134.5 125.9 134.7 126 134.8 126 134.8 126.2 134.8 126.3 134.8 126.4 134.7 126.5L134.4 127ZM132.8 127.1L135.3 128.6C135.4 128.7 135.4 128.7 135.4 128.7 135.4 128.7 135.4 128.8 135.4 128.8L135.5 128.8 136.1 127.9 136 127.8C136 127.9 135.9 127.9 135.9 127.9 135.9 127.9 135.8 127.9 135.8 127.9L135 127.4 135.3 126.8C135.4 126.6 135.5 126.5 135.5 126.4 135.6 126.2 135.6 126.1 135.6 125.9 135.5 125.8 135.5 125.7 135.4 125.5 135.3 125.4 135.2 125.3 135 125.2 134.8 125 134.6 125 134.4 125 134.3 124.9 134.1 125 134 125 133.9 125.1 133.7 125.1 133.6 125.2 133.5 125.4 133.5 125.5 133.4 125.6L132.5 127 132.6 127.1C132.6 127.1 132.6 127.1 132.7 127.1 132.7 127 132.7 127 132.8 127.1ZM139.6 118.8L136.7 117.9C136.7 117.9 136.7 117.9 136.6 117.8 136.6 117.8 136.6 117.8 136.7 117.7L136.6 117.7 136.3 118.7 136.3 118.8C136.4 118.7 136.4 118.7 136.4 118.7 136.4 118.6 136.5 118.6 136.5 118.7L138 119.1C137.8 119.2 136.5 119.7 136.4 119.7 136.3 119.7 136.2 119.8 136.2 119.7 136.1 119.7 136.1 119.7 136.1 119.7 136.1 119.6 136.1 119.6 136.1 119.6L136 119.5 135.5 121 135.6 121C135.6 121 135.6 120.9 135.7 120.9 135.7 120.9 135.7 120.9 135.8 120.9L138.6 121.8C138.7 121.8 138.7 121.9 138.7 121.9 138.7 121.9 138.7 122 138.7 122L138.8 122 139.2 121 139.1 121C139.1 121 139 121.1 139 121.1 139 121.1 139 121.1 138.9 121.1L136.9 120.5 136.9 120.4C137.2 120.4 138.3 120 138.6 119.9 138.8 119.8 139 119.7 139.1 119.7 139.3 119.6 139.4 119.6 139.4 119.6 139.5 119.7 139.5 119.7 139.5 119.7 139.5 119.8 139.5 119.8 139.5 119.9L139.5 119.9 139.9 118.7 139.8 118.7C139.8 118.8 139.7 118.8 139.7 118.8 139.7 118.9 139.6 118.9 139.6 118.8ZM120 142.9L118.7 140.1C118.7 140.1 118.7 140 118.7 140 118.7 140 118.8 139.9 118.8 139.9L118.8 139.8 117.8 140.3 117.8 140.4C117.9 140.4 117.9 140.4 117.9 140.4 118 140.4 118 140.4 118 140.5L118.7 141.9C118.5 141.8 117.3 141.1 117.2 141.1 117.1 141 117 141 117 141 117 140.9 117 140.9 117 140.8 117 140.8 117 140.8 117.1 140.8L117 140.7 115.6 141.3 115.7 141.4C115.7 141.3 115.8 141.3 115.8 141.3 115.8 141.3 115.9 141.4 115.9 141.4L117.1 144.2C117.2 144.2 117.2 144.2 117.1 144.3 117.1 144.3 117.1 144.3 117.1 144.3L117.1 144.4 118.1 144 118 143.9C118 143.9 118 144 117.9 144 117.9 143.9 117.9 143.9 117.8 143.9L117 142 117 142C117.3 142.1 118.3 142.7 118.5 142.8 118.7 142.9 118.9 143 119 143.1 119.2 143.2 119.2 143.2 119.3 143.3 119.3 143.3 119.3 143.3 119.2 143.4 119.2 143.4 119.2 143.4 119.1 143.4L119.2 143.5 120.2 143 120.2 142.9C120.1 142.9 120.1 142.9 120.1 142.9 120 142.9 120 142.9 120 142.9ZM124.7 136L123.7 136.7 123.8 136.8C123.8 136.8 123.9 136.7 123.9 136.7 123.9 136.7 124 136.7 124 136.8L125.9 139.1C125.9 139.2 125.9 139.2 125.9 139.3 125.9 139.3 125.8 139.3 125.8 139.4L125.8 139.5 126.8 138.7 126.8 138.6C126.7 138.6 126.7 138.7 126.6 138.7 126.6 138.7 126.6 138.7 126.5 138.6L124.7 136.3C124.6 136.2 124.6 136.2 124.6 136.1 124.7 136.1 124.7 136.1 124.7 136L124.7 136ZM115 141.5L113.8 141.9 113.9 142C113.9 142 114 142 114 142 114.1 142 114.1 142 114.1 142.1L115.1 144.9C115.1 145 115.1 145 115.1 145 115.1 145.1 115 145.1 115 145.1L115 145.2 116.2 144.8 116.2 144.7C116.1 144.7 116 144.7 116 144.7 116 144.7 115.9 144.7 115.9 144.6L114.9 141.8C114.9 141.8 114.9 141.7 114.9 141.7 114.9 141.7 115 141.6 115.1 141.6L115 141.5ZM109.8 143.1L109.7 142.8C109.7 142.9 109.5 143 109.5 143.1 109.3 143.2 109.3 143.3 109.2 143.4 109.1 143.5 109.1 143.7 109.1 143.8 109 143.9 109 144.1 109.1 144.3 109.1 144.5 109.2 144.6 109.3 144.7 109.4 144.9 109.5 144.9 109.7 144.9 109.8 144.8 109.9 144.8 110 144.7 110.1 144.6 110.1 144.4 110 144.2 110 144 109.9 143.9 109.8 143.8 109.7 143.8 109.6 143.8 109.4 143.8 109.4 143.6 109.4 143.5 109.5 143.4 109.6 143.2 109.7 143.1 109.8 143.1ZM132.3 131.3L131.6 132.1 130.9 130.9 132.3 131.3ZM133.4 131.8L134.1 131 134 130.9C134 131 133.9 131 133.9 131 133.9 131 133.9 131 133.8 131 133.7 130.9 131 130.1 130.9 130.1 130.8 130 130.7 130 130.7 130 130.7 130 130.7 129.9 130.7 129.9L130.6 129.8 129.8 130.9 129.9 130.9C129.9 130.9 130 130.9 130 130.9 130 130.9 130.1 131 130.2 131.2 130.3 131.4 131.5 133.3 131.8 133.7 131.8 133.7 131.8 133.7 131.8 133.7 131.8 133.8 131.8 133.8 131.7 133.8L131.8 133.9 132.4 133.1 132.3 133.1C132.3 133.1 132.3 133.1 132.3 133.1 132.3 133.1 132.3 133.1 132.2 133.1 132.2 133.1 132.2 133.1 132.2 133 132.2 133 132 132.7 131.9 132.7L132.8 131.5C132.9 131.5 133.2 131.6 133.3 131.6 133.3 131.7 133.3 131.7 133.4 131.7 133.4 131.7 133.4 131.7 133.4 131.7 133.4 131.8 133.4 131.8 133.4 131.8L133.4 131.8ZM122.1 140.5L121.2 141 120.9 139.6 122.1 140.5ZM123 141.4L123.9 140.8 123.9 140.8C123.8 140.8 123.8 140.8 123.8 140.8 123.8 140.8 123.7 140.8 123.7 140.7 123.6 140.7 121.4 138.9 121.3 138.8 121.2 138.7 121.1 138.7 121.1 138.7 121.1 138.6 121.1 138.6 121.2 138.6L121.1 138.5 120 139.2 120 139.2C120.1 139.2 120.1 139.2 120.1 139.3 120.2 139.3 120.2 139.4 120.2 139.6 120.3 139.8 120.7 142.1 120.8 142.5 120.8 142.5 120.8 142.5 120.8 142.6 120.8 142.6 120.8 142.6 120.7 142.6L120.8 142.7 121.6 142.2 121.6 142.2C121.5 142.2 121.5 142.2 121.5 142.2 121.5 142.2 121.5 142.2 121.4 142.2 121.4 142.1 121.4 142.1 121.4 142.1 121.4 142 121.4 141.6 121.3 141.6L122.6 140.9C122.6 140.9 122.9 141.1 123 141.1 123 141.2 123 141.2 123 141.2 123 141.2 123 141.3 123 141.3 123 141.3 123 141.3 123 141.3L123 141.4ZM112.8 144.6L111.8 144.8 112 143.4 112.8 144.6ZM113.5 145.7L114.5 145.4 114.4 145.3C114.4 145.3 114.4 145.3 114.4 145.3 114.3 145.3 114.3 145.3 114.3 145.3 114.2 145.1 112.6 142.9 112.5 142.8 112.4 142.6 112.4 142.6 112.4 142.6 112.4 142.5 112.4 142.5 112.4 142.5L112.4 142.4 111.1 142.7 111.2 142.8C111.2 142.8 111.3 142.8 111.3 142.9 111.3 142.9 111.3 143 111.3 143.2 111.2 143.4 111.1 145.8 111 146.1 111 146.2 111 146.2 111 146.2 111 146.2 111 146.2 110.9 146.3L111 146.4 111.9 146.1 111.8 146C111.8 146 111.8 146 111.8 146.1 111.8 146.1 111.8 146 111.7 146 111.7 146 111.7 145.9 111.7 145.9 111.8 145.8 111.8 145.5 111.8 145.4L113.2 145C113.2 145.1 113.4 145.4 113.5 145.4 113.5 145.5 113.5 145.5 113.5 145.5 113.5 145.6 113.5 145.6 113.5 145.6 113.5 145.6 113.5 145.6 113.5 145.6L113.5 145.7ZM130.7 135.1L131.5 134.2 131.5 134.1C131.4 134.1 131.4 134.2 131.4 134.2 131.4 134.2 131.3 134.2 131.3 134.2L129.2 133.6C129.2 133.5 129.1 132.8 129.1 132.6 129.1 132.4 129.1 132.3 129.1 132.1 129.1 132 129.1 131.9 129.1 131.8L129 131.8 128.2 132.7 128.3 132.7C128.3 132.7 128.3 132.7 128.4 132.7 128.4 132.7 128.4 132.7 128.5 132.7 128.5 132.7 128.5 132.8 128.5 132.9 128.5 132.9 128.5 133 128.6 133.1 128.6 133.3 128.6 134.6 128.6 134.7L127.6 133.6C127.6 133.6 127.5 133.6 127.6 133.5 127.6 133.5 127.6 133.5 127.6 133.4L127.5 133.4 126.7 134.2 126.8 134.3C126.8 134.2 126.8 134.2 126.9 134.2 126.9 134.2 126.9 134.2 127 134.2L129.1 136.3C129.2 136.4 129.2 136.4 129.2 136.4 129.2 136.5 129.2 136.5 129.1 136.5L129.2 136.6 130.1 135.8 130 135.7C130 135.7 129.9 135.8 129.9 135.8 129.8 135.8 129.8 135.8 129.8 135.7L129.3 135.3 129.2 134.4C129.2 134.4 130.4 134.8 130.5 134.8 130.6 134.8 130.6 134.8 130.6 134.9 130.7 134.9 130.7 134.9 130.7 135 130.6 135 130.6 135.1 130.6 135.1L130.7 135.1ZM110.9 141.8L111.1 142.3 112.2 141.9 112.1 141.4 110.9 141.8ZM111 142L112.2 141.7M141.1 98.6L141.4 98.5C141.2 98.4 141.1 98.2 141 98.1 140.8 98 140.7 97.8 140.5 97.7 140.3 97.7 140.2 97.6 140 97.6 139.8 97.5 139.6 97.5 139.4 97.6 139.1 97.7 138.9 97.8 138.8 98 138.6 98.1 138.6 98.3 138.7 98.6 138.7 98.8 138.8 98.9 139 99 139.1 99.1 139.3 99.1 139.5 99.1 139.8 99 140 98.9 140 98.7 140.1 98.5 140.1 98.3 140 98.1 140.3 98.1 140.5 98.1 140.6 98.2 140.8 98.3 140.9 98.5 141.1 98.6ZM141.2 101.5L140.8 99.7 140.7 99.8C140.7 99.9 140.7 99.9 140.7 100 140.7 100 140.6 100.1 140.5 100.1L136.7 100.9C136.6 100.9 136.6 100.9 136.6 100.9 136.5 100.8 136.5 100.7 136.5 100.6L136.4 100.7 136.7 102.5 136.9 102.5C136.8 102.4 136.8 102.3 136.8 102.2 136.9 102.2 136.9 102.1 137 102.1L140.8 101.3C140.9 101.3 140.9 101.3 141 101.4 141 101.4 141 101.5 141 101.6L141.2 101.5ZM69.6 87.3L68.6 88.8 68.7 88.9C68.8 88.8 68.8 88.8 68.9 88.7 68.9 88.7 69 88.7 69 88.7L72.4 90.8C72.4 90.8 72.5 90.8 72.4 90.9 72.4 91 72.4 91 72.4 91.1L72.5 91.2 73.4 89.6 73.3 89.5C73.3 89.6 73.2 89.7 73.2 89.7 73.1 89.7 73.1 89.7 73 89.7L69.7 87.7C69.6 87.6 69.6 87.6 69.6 87.5 69.6 87.5 69.6 87.4 69.7 87.3L69.6 87.3ZM91.3 70.9L89.5 71.4 89.6 71.6C89.7 71.5 89.7 71.5 89.8 71.5 89.8 71.5 89.9 71.6 89.9 71.6L91.1 75.4C91.2 75.4 91.2 75.5 91.1 75.5 91.1 75.6 91 75.6 90.9 75.6L91 75.7 92.7 75.2 92.7 75.1C92.6 75.1 92.5 75.1 92.4 75.1 92.4 75.1 92.3 75 92.3 75L91.1 71.3C91.1 71.2 91.1 71.1 91.1 71.1 91.2 71.1 91.2 71 91.3 71L91.3 70.9ZM139.8 96.2L139.2 94.5 139.1 94.5C139.1 94.6 139.1 94.7 139.1 94.8 139.1 94.8 139.1 94.9 139 94.9L135.3 96.2C135.3 96.2 135.2 96.2 135.2 96.2 135.1 96.1 135.1 96.1 135.1 96L134.9 96 135.6 97.8 135.7 97.7C135.7 97.6 135.6 97.6 135.6 97.5 135.6 97.5 135.7 97.4 135.7 97.4L139.4 96.1C139.5 96 139.6 96 139.6 96.1 139.6 96.1 139.7 96.2 139.7 96.3L139.8 96.2ZM132.6 83.2L131.5 82 131.4 82.1C131.4 82.1 131.5 82.2 131.5 82.2 131.5 82.2 131.4 82.3 131.4 82.3 131.4 82.3 129 85.6 129 85.6 129 85.6 128.8 85.6 128.7 85.5L128.6 85.6 129.9 87.1 130 87C129.9 86.9 129.9 86.9 129.9 86.8 129.9 86.8 129.9 86.7 129.9 86.7 129.9 86.7 130 86.7 130.1 86.6 130.2 86.6 132 86 132.1 85.9 132.3 85.9 132.3 85.8 132.4 85.8L132.4 85.8C132.4 85.9 132.3 86 132.2 86.1 132.2 86.2 131.1 87.7 131 87.8 131 87.9 130.9 88 130.9 88 130.8 88 130.7 88 130.6 87.9L130.5 87.9 131.6 89.6 131.7 89.5C131.6 89.3 131.7 89.2 131.7 89.2 131.8 89.1 135.3 87.8 135.4 87.8 135.4 87.7 135.5 87.7 135.6 87.7 135.6 87.7 135.7 87.7 135.7 87.8L135.8 87.7 135 86.5 134.9 86.5C134.9 86.6 135 86.6 135 86.7 135 86.7 135 86.8 134.9 86.8 134.9 86.9 132.5 87.8 132.5 87.8L132.4 87.8C132.5 87.8 133.8 85.8 133.9 85.7 133.9 85.6 134 85.6 134 85.6 134.1 85.5 134.1 85.5 134.2 85.5 134.2 85.6 134.3 85.6 134.3 85.6L134.4 85.6 133.3 84.1 133.2 84.2C133.2 84.2 133.2 84.3 133.2 84.3 133.2 84.4 133.2 84.4 133.2 84.5 133.1 84.5 133.1 84.5 132.9 84.6 132.8 84.6 130.6 85.4 130.6 85.4L130.6 85.4C130.6 85.3 132.2 83.2 132.2 83.2 132.2 83.2 132.3 83.2 132.4 83.2 132.4 83.2 132.5 83.3 132.5 83.3L132.6 83.2ZM135.3 92.7L134.6 91.4 136.5 91.2 135.3 92.7ZM134.1 93.9L134.7 95.4 134.8 95.3C134.8 95.3 134.8 95.3 134.8 95.2 134.8 95.2 134.8 95.1 134.8 95.1 134.9 95 137.4 91.9 137.5 91.8 137.6 91.7 137.7 91.6 137.7 91.6 137.8 91.6 137.8 91.6 137.9 91.7L138 91.6 137.1 89.9 137 89.9C137 90 137 90.1 136.9 90.1 136.9 90.1 136.8 90.1 136.5 90.2 136.2 90.2 133 90.5 132.5 90.6 132.5 90.6 132.4 90.6 132.4 90.5 132.4 90.5 132.3 90.5 132.3 90.4L132.2 90.5 132.9 91.7 133 91.7C133 91.7 133 91.6 133 91.6 133 91.6 133 91.5 133.1 91.5 133.1 91.5 133.1 91.5 133.2 91.5 133.3 91.5 133.8 91.4 133.8 91.4L134.8 93.4C134.8 93.4 134.4 93.8 134.4 93.9 134.3 93.9 134.3 93.9 134.3 93.9 134.2 94 134.2 94 134.2 93.9 134.2 93.9 134.2 93.9 134.2 93.9L134.1 93.9ZM127.5 82L126.3 81 128.1 80.2 127.5 82ZM126.7 83.6L127.9 84.7 127.9 84.6C127.9 84.6 127.9 84.6 127.9 84.5 127.8 84.5 127.8 84.5 127.9 84.4 127.9 84.3 129.2 80.5 129.2 80.4 129.3 80.2 129.3 80.1 129.3 80.1 129.4 80.1 129.4 80.1 129.5 80.1L129.6 80 128.1 78.7 128.1 78.8C128.1 78.9 128.1 78.9 128.1 79 128.1 79 127.9 79.1 127.7 79.2 127.4 79.3 124.6 80.8 124.1 81 124.1 81 124 81 124 81 124 81 123.9 81 123.9 80.9L123.8 81 124.9 81.9 125 81.8C125 81.8 125 81.8 124.9 81.8 124.9 81.8 124.9 81.7 125 81.7 125 81.7 125 81.7 125.1 81.6 125.1 81.6 125.6 81.4 125.6 81.4L127.2 82.8C127.2 82.8 127.1 83.3 127 83.4 127 83.5 127 83.5 127 83.5 126.9 83.6 126.9 83.6 126.9 83.6 126.9 83.5 126.8 83.5 126.8 83.5L126.7 83.6ZM121.2 77L122.9 78.1 122.1 79.4C122 79.5 122 79.5 121.9 79.5 121.9 79.5 121.8 79.4 121.8 79.4L121.7 79.5 123.1 80.5 123.2 80.4C123.1 80.4 123.1 80.3 123.1 80.3 123 80.2 123 80.2 123.1 80.1L125.2 76.8C125.2 76.7 125.2 76.7 125.3 76.7 125.3 76.7 125.4 76.8 125.5 76.8L125.5 76.7 124.1 75.7 124 75.8C124.1 75.8 124.1 75.9 124.2 75.9 124.2 76 124.2 76 124.1 76.1L123.5 77.2 121.7 76.1 122.4 75C122.4 74.9 122.5 74.9 122.5 74.9 122.6 74.9 122.7 74.9 122.7 75L122.8 74.9 121.3 74 121.2 74.1C121.3 74.1 121.3 74.2 121.3 74.2 121.4 74.3 121.4 74.3 121.3 74.4L119.3 77.7C119.2 77.8 119.2 77.8 119.1 77.8 119.1 77.8 119 77.8 118.9 77.7L118.9 77.8 120.4 78.7 120.5 78.6C120.4 78.5 120.4 78.5 120.3 78.5 120.3 78.4 120.3 78.4 120.3 78.3L121.2 77ZM113.7 71.2L112.4 74.9C112.4 74.9 112.3 75 112.3 75 112.2 75 112.2 75 112.1 75L112 75.1 113.7 75.6 113.8 75.5C113.7 75.4 113.6 75.4 113.6 75.4 113.6 75.3 113.5 75.3 113.6 75.2L114 73.9 115.6 74.5C115.7 74.5 115.7 74.5 115.7 74.5 115.7 74.6 115.7 74.6 115.7 74.7L115.8 74.8 116.3 73.5 116.2 73.4C116.1 73.5 116.1 73.6 116 73.6 116 73.6 116 73.6 115.9 73.6L114.3 73 114.6 72.2 117 73C117 73 117.1 73 117.1 73.1 117.1 73.1 117.1 73.2 117.1 73.3L117.2 73.3 117.6 72 117.5 72C117.5 72 117.5 72.1 117.4 72.1 117.4 72.1 117.3 72.1 117.3 72.1L113.5 70.8 113.5 70.9C113.5 70.9 113.6 71 113.6 71 113.7 71 113.7 71.1 113.7 71.2ZM109.7 70.9C109.9 71 110 71 110.2 71.1 110.3 71.2 110.4 71.3 110.5 71.4 110.6 71.6 110.7 71.7 110.7 71.9 110.7 72 110.7 72.2 110.7 72.4 110.7 72.6 110.6 72.7 110.5 72.9 110.4 73 110.3 73.1 110.2 73.2 110 73.3 109.9 73.3 109.7 73.4 109.6 73.4 109.4 73.4 109.2 73.4 109.1 73.3 108.9 73.3 108.8 73.2 108.6 73.1 108.5 73 108.4 72.9 108.3 72.7 108.2 72.6 108.2 72.4 108.2 72.3 108.2 72.1 108.2 71.9 108.2 71.7 108.3 71.6 108.4 71.4 108.5 71.3 108.6 71.2 108.7 71.1 108.9 71 109 71 109.2 70.9 109.3 70.9 109.5 70.9 109.7 70.9ZM109.9 69.9C109.6 69.8 109.3 69.8 109 69.8 108.7 69.9 108.4 70 108.1 70.1 107.9 70.2 107.6 70.4 107.4 70.7 107.2 71 107.1 71.3 107 71.7 107 72.1 107 72.4 107 72.8 107.1 73.1 107.3 73.3 107.5 73.6 107.7 73.8 107.9 74 108.2 74.1 108.5 74.2 108.7 74.3 109 74.4 109.3 74.5 109.6 74.5 109.9 74.4 110.2 74.4 110.5 74.3 110.8 74.2 111 74.1 111.3 73.9 111.5 73.6 111.7 73.3 111.8 73 111.9 72.6 112 72.2 112 71.9 111.9 71.5 111.8 71.2 111.6 71 111.4 70.7 111.2 70.5 111 70.3 110.7 70.2 110.4 70 110.2 69.9 109.9 69.9ZM101.4 73.5L101.4 72.1 102.8 69.5C102.8 69.4 102.9 69.4 102.9 69.4 103 69.4 103 69.4 103 69.3L103 69.2 101.2 69.2 101.2 69.4C101.3 69.4 101.3 69.4 101.3 69.4 101.4 69.4 101.4 69.4 101.4 69.5 101.4 69.5 101.4 69.6 101.3 69.7 101.3 69.9 100.7 70.8 100.7 70.9 100.6 70.8 99.9 69.9 99.8 69.8 99.8 69.7 99.7 69.6 99.7 69.6 99.7 69.5 99.7 69.5 99.8 69.5 99.9 69.4 99.9 69.4 99.9 69.4L99.9 69.3 98 69.5 98 69.6C98 69.6 98.1 69.6 98.1 69.6 98.2 69.6 98.2 69.7 98.2 69.7L100.1 72.2 100.2 73.5C100.2 73.6 100.2 73.7 100.1 73.7 100.1 73.7 100 73.7 100 73.7L100 73.8 101.6 73.8 101.6 73.6C101.6 73.6 101.5 73.6 101.5 73.6 101.5 73.6 101.4 73.5 101.4 73.5ZM96.7 69.6L92.9 70.4C92.9 70.4 92.8 70.4 92.8 70.4 92.8 70.4 92.7 70.3 92.7 70.2L92.6 70.2 92.9 71.7 93 71.7C93 71.6 93 71.5 93 71.5 93.1 71.5 93.1 71.4 93.1 71.4L94.4 71.2 95 74.3C95.1 74.3 95 74.4 95 74.4 95 74.5 94.9 74.5 94.9 74.5L94.9 74.6 96.5 74.3 96.5 74.2C96.5 74.2 96.4 74.2 96.4 74.1 96.3 74.1 96.3 74.1 96.3 74L95.6 70.9 96.9 70.7C97 70.7 97 70.7 97.1 70.7 97.1 70.7 97.1 70.8 97.2 70.9L97.3 70.8 97 69.4 96.9 69.4C96.9 69.5 96.9 69.5 96.8 69.6 96.8 69.6 96.8 69.6 96.7 69.6ZM85.7 76.3L85.9 77.7 86 77.7C86 77.6 86 77.6 86.1 77.6 86.1 77.5 86.1 77.5 86.2 77.5 86.2 77.5 86.2 77.5 86.4 77.4 86.5 77.4 86.7 77.4 86.9 77.3 87.1 77.3 87.3 77.3 87.5 77.2 87.7 77.1 87.9 77 88.1 76.9 88.4 76.8 88.7 76.6 88.9 76.5 89.1 76.3 89.3 76.1 89.4 75.9 89.5 75.7 89.5 75.5 89.5 75.3 89.5 75.1 89.5 74.9 89.4 74.8 89.3 74.5 89.1 74.3 88.9 74.2 88.7 74.1 88.4 74.1 88.2 74.1 88 74.1 87.7 74.2 87.5 74.2 87.2 74.3 87 74.4 86.7 74.4 86.5 74.5 86.3 74.5 86.2 74.6 86 74.6 85.9 74.5 85.9 74.4 85.8 74.3 85.8 74.2 85.9 74.1 85.9 74 86 74 86.1 73.9 86.2 73.8 86.3 73.7 86.4 73.7 86.5 73.6 86.6 73.6 86.6 73.6 86.8 73.5 86.9 73.5 87.1 73.4 87.2 73.4 87.4 73.4 87.5 73.3 87.6 73.3 87.7 73.3 87.8 73.3 87.9 73.3 88 73.3 88 73.4 88 73.4 88 73.4 88 73.4 88 73.5 88 73.5 88 73.5L88.1 73.5 88.1 72.1 88 72.1C88 72.1 88 72.2 88 72.2 87.9 72.2 87.9 72.3 87.9 72.3 87.8 72.3 87.7 72.3 87.6 72.4 87.5 72.4 87.4 72.4 87.2 72.4 87.1 72.5 86.9 72.5 86.7 72.6 86.5 72.6 86.3 72.7 86.1 72.8 85.7 73 85.5 73.1 85.3 73.4 85.1 73.6 84.9 73.8 84.8 74 84.8 74.2 84.7 74.4 84.7 74.6 84.7 74.8 84.8 74.9 84.8 75.1 85 75.3 85.1 75.5 85.3 75.6 85.5 75.7 85.7 75.7 86 75.7 86.2 75.7 86.5 75.6 86.7 75.5 87 75.5 87.2 75.4 87.4 75.3 87.7 75.3 87.8 75.2 88 75.2 88.2 75.2 88.3 75.3 88.3 75.4 88.4 75.5 88.4 75.6 88.3 75.6 88.3 75.7 88.3 75.8 88.2 75.9 88.1 75.9 88 76 87.9 76 87.9 76.1 87.8 76.1 87.7 76.1 87.6 76.2 87.4 76.3 87.2 76.3 87 76.4 86.8 76.5 86.6 76.5 86.4 76.5 86.2 76.5 86.1 76.5 86 76.5 85.9 76.5 85.9 76.4 85.9 76.4 85.9 76.4 85.8 76.3 85.8 76.3 85.8 76.3 85.8 76.3L85.7 76.3ZM81.1 78.1L80.5 77.2 81.5 76.5C81.8 76.3 81.9 76.2 82.1 76.3 82.2 76.3 82.3 76.4 82.4 76.5 82.5 76.7 82.5 76.8 82.5 77 82.5 77.1 82.4 77.2 82.2 77.3L81.1 78.1ZM79.2 77.4L81.4 80.6C81.4 80.7 81.4 80.7 81.4 80.8 81.4 80.8 81.3 80.8 81.3 80.9L81.4 81 82.7 80 82.6 79.9C82.6 79.9 82.5 80 82.5 80 82.4 80 82.4 80 82.3 79.9L81.5 78.7 82.3 78.2C82.3 78.3 83.3 78.8 83.4 78.9 83.6 79 83.6 79 83.7 79 83.7 79.1 83.7 79.1 83.7 79.2 83.6 79.2 83.6 79.3 83.6 79.3L83.6 79.4 85.3 78.3 85.2 78.2C85.1 78.3 85.1 78.3 85 78.3 84.9 78.3 84.9 78.3 84.8 78.3L83.3 77.5C83.4 77.3 83.5 77 83.6 76.7 83.6 76.4 83.5 76.1 83.3 75.8 83.1 75.4 82.8 75.2 82.4 75.2 82 75.1 81.7 75.2 81.3 75.5L78.8 77.2 78.9 77.3C79 77.3 79 77.3 79.1 77.3 79.1 77.3 79.1 77.3 79.2 77.4ZM79.5 81.3L77.6 83.1 76.9 82.4 78.2 81.2C78.2 81.1 78.3 81.1 78.3 81.1 78.4 81.1 78.4 81.2 78.5 81.2L78.6 81.1 77.7 80.2 77.6 80.3C77.6 80.3 77.7 80.4 77.7 80.4 77.7 80.5 77.6 80.5 77.6 80.5L76.3 81.7 75.8 81.1 77.7 79.3C77.8 79.2 77.8 79.2 77.9 79.2 77.9 79.2 78 79.3 78 79.3L78.1 79.3 77.2 78.3 77.1 78.3C77.2 78.4 77.2 78.5 77.2 78.5 77.2 78.5 77.2 78.6 77.1 78.6L74.1 81.5 74.2 81.6C74.2 81.6 74.3 81.5 74.3 81.5 74.4 81.5 74.4 81.5 74.5 81.6L77.1 84.4C77.2 84.5 77.2 84.5 77.2 84.6 77.1 84.6 77.1 84.7 77.1 84.7L77.1 84.8 80.1 81.9C80.2 81.9 80.2 81.9 80.3 81.8 80.3 81.8 80.4 81.8 80.4 81.9L80.5 81.8 79.6 80.9 79.5 80.9C79.6 81.1 79.6 81.2 79.5 81.3ZM70.3 86.2L70.4 86.3C70.4 86.2 70.4 86.2 70.4 86.2 70.5 86.2 70.5 86.2 70.5 86.2 70.6 86.2 70.7 86.2 70.9 86.2 71.1 86.3 74 87.4 74.2 87.5 74.4 87.5 74.5 87.6 74.5 87.6 74.5 87.6 74.6 87.7 74.5 87.7 74.5 87.8 74.5 87.8 74.5 87.9L74.6 87.9 75.8 86.4 75.7 86.3C75.7 86.3 75.6 86.4 75.6 86.4 75.5 86.4 75.5 86.4 75.5 86.4 75.4 86.3 75.4 86.3 75.3 86.1 75.2 85.9 73.3 82.9 73.2 82.8 73.2 82.8 73.2 82.7 73.2 82.7 73.2 82.7 73.2 82.6 73.3 82.6L73.2 82.5 72.2 83.7 72.3 83.8C72.3 83.7 72.3 83.7 72.4 83.7 72.4 83.6 72.4 83.6 72.5 83.6 72.5 83.7 72.6 83.8 72.7 83.9 72.8 84.1 73.8 85.8 73.9 86L73.9 86C73.9 86 71.7 85.2 71.5 85.2 71.4 85.1 71.4 85.1 71.3 85.1 71.3 85.1 71.3 85 71.3 85 71.4 84.9 71.4 84.9 71.4 84.8L71.3 84.8 70.3 86.2ZM71.5 92.3L67.9 90.7C67.9 90.7 67.8 90.7 67.8 90.6 67.8 90.6 67.9 90.5 67.9 90.4L67.8 90.4 67 91.8 67.1 91.9C67.2 91.8 67.2 91.8 67.3 91.7 67.3 91.7 67.4 91.7 67.4 91.7L69.3 92.6C69 92.6 68.7 92.7 68.4 92.8 68.1 92.9 67.9 93 67.6 93 67.4 93.1 67.2 93.2 67 93.2 66.9 93.3 66.8 93.3 66.8 93.3 66.7 93.3 66.6 93.2 66.6 93.1 66.6 93.1 66.6 93 66.7 93L66.5 93 65.7 95 65.8 95.1C65.9 95 65.9 94.9 65.9 94.9 66 94.9 66 94.9 66.1 94.9L69.7 96.5C69.7 96.5 69.8 96.6 69.8 96.6 69.8 96.7 69.8 96.7 69.7 96.8L69.9 96.8 70.4 95.3 70.3 95.3C70.3 95.4 70.3 95.4 70.2 95.4 70.2 95.5 70.1 95.5 70.1 95.4L67.6 94.4 67.6 94.3C68 94.2 68.4 94.1 68.8 94 69.2 93.9 69.5 93.8 69.8 93.7 70.1 93.6 70.4 93.5 70.6 93.4 70.8 93.4 71 93.4 71 93.4 71.1 93.4 71.1 93.5 71.1 93.5 71.1 93.6 71 93.6 71 93.7L71.1 93.7 71.9 92.2 71.8 92.2C71.8 92.2 71.7 92.3 71.7 92.3 71.6 92.3 71.6 92.3 71.5 92.3ZM64.3 101.4L66.4 101.9C66.7 102 67 102 67.2 102 67.5 102 67.7 101.9 67.9 101.8 68.1 101.7 68.3 101.5 68.5 101.2 68.6 101 68.8 100.7 68.9 100.3 69 99.9 69 99.5 69 99.2 68.9 98.9 68.8 98.7 68.7 98.5 68.6 98.3 68.4 98.1 68.2 98 68 97.9 67.7 97.8 67.5 97.7L65.3 97.2C65.3 97.1 65.2 97.1 65.2 97 65.2 97 65.2 96.9 65.2 96.9L65.1 96.8 64.6 98.4 64.8 98.5C64.8 98.4 64.8 98.4 64.8 98.4 64.9 98.4 64.9 98.3 65 98.4L67.4 99C67.6 99 67.8 99.1 67.9 99.3 67.9 99.5 67.9 99.8 67.9 100 67.8 100.3 67.7 100.5 67.6 100.7 67.4 100.8 67.2 100.8 67 100.8L64.5 100.2C64.5 100.2 64.4 100.1 64.4 100.1 64.4 100 64.4 100 64.4 100L64.3 100 63.9 101.6 64.1 101.6C64.1 101.6 64.1 101.5 64.1 101.4 64.2 101.4 64.2 101.4 64.3 101.4ZM102.6 150.5C125.7 150.5 144.5 131.7 144.5 108.5 144.5 85.4 125.7 66.5 102.6 66.5 79.4 66.5 60.6 85.4 60.6 108.5 60.6 131.7 79.4 150.5 102.6 150.5ZM102.6 65C126.5 65 146 84.5 146 108.5 146 132.5 126.5 152 102.6 152 78.6 152 59.1 132.5 59.1 108.5 59.1 84.5 78.6 65 102.6 65ZM134.7 108.5C134.7 126.3 120.3 140.7 102.6 140.7 84.8 140.7 70.5 126.3 70.5 108.5 70.5 90.8 84.8 76.4 102.6 76.4 120.3 76.4 134.7 90.8 134.7 108.5Z" fill="black"/><rect x="51.8" y="22.4" width="101.7" height="1.1"/><path d="M209.1 6.1L209.3 6.1C209.6 6.1 209.9 6 209.9 5.8 209.9 5.6 209.7 5.4 209.3 5.4 209.2 5.4 209.1 5.4 209.1 5.4L209.1 6.1ZM209.1 7.2L208.8 7.2 208.8 5.2C209 5.2 209.2 5.1 209.4 5.1 209.6 5.1 209.8 5.2 210 5.3 210.1 5.4 210.1 5.5 210.1 5.7 210.1 6 210 6.1 209.7 6.2L209.7 6.2C209.9 6.3 210 6.4 210.1 6.7 210.1 7 210.2 7.1 210.2 7.2L210 7.2C209.9 7.1 209.8 7 209.8 6.7 209.7 6.4 209.6 6.3 209.3 6.3L209.1 6.3 209.1 7.2ZM209.4 4.6C208.6 4.6 208 5.3 208 6.2 208 7 208.6 7.7 209.5 7.7 210.3 7.8 210.9 7 210.9 6.2 210.9 5.3 210.3 4.6 209.5 4.6L209.4 4.6ZM209.5 4.4C210.4 4.4 211.2 5.1 211.2 6.2 211.2 7.2 210.4 8 209.4 8 208.5 8 207.7 7.2 207.7 6.2 207.7 5.1 208.5 4.4 209.4 4.4L209.5 4.4ZM130.3 149.8L130.2 148.1C130.2 148 130.2 147.8 130.2 147.6L130.2 147.6C130.1 147.8 130 148 130 148.2L129.3 149.7 129.1 149.7 128.4 148.1C128.3 148 128.2 147.8 128.2 147.6L128.2 147.6C128.2 147.8 128.2 147.9 128.2 148.1L128 149.8 127.8 149.8 128 147.3 128.3 147.3 129 148.9C129.1 149.1 129.1 149.3 129.2 149.5L129.2 149.5C129.3 149.3 129.3 149.1 129.4 148.9L130.1 147.3 130.4 147.3 130.6 149.8 130.3 149.8ZM127.7 147.3L127.7 147.6 126.8 147.6 126.8 149.8 126.5 149.8 126.5 147.6 125.6 147.6 125.6 147.3 127.7 147.3ZM1.5 7.2C1.5 4.5 1.5 4 1.5 3.4 1.4 2.8 1.3 2.5 0.7 2.4 0.6 2.4 0.3 2.4 0.1 2.4 0.1 2.4 0 2.3 0 2.3 0 2.1 0.1 2.1 0.3 2.1 1.1 2.1 2.1 2.2 2.3 2.2 2.4 2.2 3.5 2.1 4 2.1 4.2 2.1 4.3 2.1 4.3 2.3 4.3 2.3 4.2 2.4 4.2 2.4 4 2.4 3.9 2.4 3.7 2.4 3.2 2.5 3.1 2.8 3.1 3.4 3 4 3 4.5 3 7.2L3 9.6C3 12.1 3.6 13.2 4.3 13.9 5.2 14.7 6 14.9 7 14.9 8 14.9 9.1 14.4 9.7 13.6 10.5 12.6 10.7 11.1 10.7 9.3L10.7 7.2C10.7 4.5 10.7 4 10.7 3.4 10.7 2.8 10.5 2.5 9.9 2.4 9.8 2.4 9.5 2.4 9.3 2.4 9.3 2.4 9.2 2.3 9.2 2.3 9.2 2.1 9.3 2.1 9.5 2.1 10.3 2.1 11.2 2.2 11.3 2.2 11.5 2.2 12.3 2.1 12.8 2.1 13 2.1 13.1 2.1 13.1 2.3 13.1 2.3 13 2.4 12.9 2.4 12.8 2.4 12.7 2.4 12.5 2.4 12 2.5 11.9 2.8 11.9 3.4 11.8 4 11.8 4.5 11.8 7.2L11.8 9C11.8 10.9 11.6 13 10.2 14.3 9 15.4 7.7 15.5 6.6 15.5 6 15.5 4.3 15.5 3 14.3 2.2 13.5 1.5 12.3 1.5 9.7L1.5 7.2ZM16.2 13.3C16.2 14.5 16.3 14.9 16.8 15 17 15 17.4 15.1 17.5 15.1 17.6 15.1 17.6 15.1 17.6 15.2 17.6 15.3 17.5 15.3 17.4 15.3 16.5 15.3 15.9 15.2 15.7 15.2 15.6 15.2 15 15.3 14.3 15.3 14.1 15.3 14 15.3 14 15.2 14 15.1 14.1 15.1 14.1 15.1 14.3 15.1 14.5 15 14.8 15 15.2 14.9 15.2 14.5 15.2 13.1L15.2 4.6C15.2 4 15.3 3.9 15.4 3.9 15.6 3.9 15.9 4.2 16 4.3 16.3 4.6 18.5 6.9 20.9 9.4 22.4 11 24 12.7 24.5 13.2L24.3 5.8C24.3 4.8 24.2 4.5 23.8 4.4 23.5 4.3 23.1 4.3 23 4.3 22.9 4.3 22.9 4.2 22.9 4.2 22.9 4.1 23 4.1 23.2 4.1 23.9 4.1 24.6 4.1 24.8 4.1 25 4.1 25.5 4.1 26.1 4.1 26.2 4.1 26.4 4.1 26.4 4.2 26.4 4.2 26.3 4.3 26.2 4.3 26.1 4.3 26 4.3 25.8 4.4 25.3 4.5 25.3 4.8 25.3 5.7L25.3 14.3C25.3 15.3 25.2 15.4 25.1 15.4 25 15.4 24.8 15.3 24 14.5 23.8 14.4 21.6 12.2 20 10.5 18.2 8.6 16.5 6.8 16 6.3L16.2 13.3ZM31.3 11C31.3 12.4 31.3 13.6 31.4 14.2 31.5 14.6 31.5 14.9 32 15 32.2 15 32.5 15.1 32.7 15.1 32.7 15.1 32.8 15.1 32.8 15.2 32.8 15.2 32.7 15.3 32.5 15.3 31.7 15.3 30.7 15.2 30.6 15.2 30.5 15.2 29.6 15.3 29.1 15.3 28.9 15.3 28.9 15.3 28.9 15.2 28.9 15.1 28.9 15.1 29 15.1 29.1 15.1 29.3 15 29.5 15 29.7 14.9 29.8 14.6 29.9 14.2 29.9 13.6 29.9 12.4 29.9 11L29.9 8.4C29.9 6.1 29.9 5.7 29.9 5.2 29.9 4.7 29.7 4.5 29.4 4.4 29.2 4.3 29.1 4.3 28.9 4.3 28.9 4.3 28.8 4.3 28.8 4.2 28.8 4.1 28.9 4.1 29.1 4.1 29.6 4.1 30.5 4.1 30.6 4.1 30.7 4.1 31.7 4.1 32.2 4.1 32.3 4.1 32.4 4.1 32.4 4.2 32.4 4.3 32.3 4.3 32.3 4.3 32.2 4.3 32.1 4.3 31.9 4.4 31.5 4.5 31.4 4.7 31.4 5.2 31.3 5.7 31.3 6.1 31.3 8.4L31.3 11ZM40.7 13.4C41.6 11.4 43.6 6.3 43.9 5.3 44 5 44 4.8 44 4.7 44 4.6 44 4.4 43.8 4.4 43.6 4.3 43.5 4.3 43.3 4.3 43.2 4.3 43.1 4.3 43.1 4.2 43.1 4.1 43.2 4.1 43.5 4.1 44.1 4.1 44.8 4.1 45 4.1 45.1 4.1 45.7 4.1 46.2 4.1 46.3 4.1 46.4 4.1 46.4 4.2 46.4 4.3 46.4 4.3 46.2 4.3 46.1 4.3 45.8 4.3 45.5 4.5 45.3 4.6 45.1 4.9 44.7 5.9 44.5 6.3 43.7 8.1 43 9.9 42 12 41.3 13.6 41 14.4 40.6 15.3 40.5 15.5 40.3 15.5 40.1 15.5 40 15.3 39.7 14.6L36 5.5C35.6 4.7 35.4 4.5 34.9 4.4 34.7 4.3 34.4 4.3 34.3 4.3 34.2 4.3 34.2 4.2 34.2 4.2 34.2 4.1 34.4 4.1 34.6 4.1 35.3 4.1 36.2 4.1 36.4 4.1 36.5 4.1 37.2 4.1 37.8 4.1 38.1 4.1 38.2 4.1 38.2 4.2 38.2 4.3 38.2 4.3 38.1 4.3 37.9 4.3 37.7 4.3 37.5 4.4 37.4 4.5 37.4 4.6 37.4 4.7 37.4 4.9 37.5 5.3 37.8 5.9L40.7 13.4ZM49.1 8.4C49.1 6.1 49.1 5.7 49 5.2 49 4.7 48.9 4.4 48.4 4.4 48.3 4.3 48 4.3 47.9 4.3 47.8 4.3 47.8 4.3 47.8 4.2 47.8 4.1 47.8 4.1 48 4.1 48.7 4.1 49.7 4.1 49.8 4.1 49.9 4.1 53.1 4.1 53.4 4.1 53.7 4.1 54 4.1 54.1 4 54.2 4 54.3 4 54.4 4 54.4 4 54.4 4 54.4 4.1 54.4 4.2 54.3 4.4 54.3 4.8 54.3 4.9 54.3 5.6 54.2 5.8 54.2 5.8 54.1 5.9 54.1 5.9 54 5.9 54 5.9 54 5.7 54 5.6 53.9 5.4 53.9 5.2 53.8 5 53.6 4.9 52.8 4.8 52.5 4.7 50.7 4.7 50.6 4.7 50.5 4.7 50.5 4.8 50.5 4.9L50.5 8.9C50.5 9 50.5 9.1 50.6 9.1 50.7 9.1 52.8 9.1 53.1 9 53.5 9 53.7 9 53.9 8.8 54 8.7 54 8.6 54.1 8.6 54.1 8.6 54.2 8.7 54.2 8.7 54.2 8.8 54.1 9.1 54.1 9.6 54 9.9 54 10.4 54 10.5 54 10.6 54 10.8 53.8 10.8 53.8 10.8 53.7 10.7 53.7 10.7 53.7 10.5 53.7 10.4 53.7 10.2 53.6 10 53.5 9.8 52.9 9.7 52.5 9.7 50.8 9.6 50.6 9.6 50.5 9.6 50.5 9.7 50.5 9.8L50.5 11C50.5 11.5 50.4 13.2 50.5 13.5 50.5 14.5 50.8 14.7 52.3 14.7 52.7 14.7 53.4 14.7 53.8 14.5 54.2 14.4 54.4 14.1 54.5 13.5 54.6 13.3 54.6 13.3 54.7 13.3 54.8 13.3 54.8 13.4 54.8 13.5 54.8 13.6 54.7 14.6 54.6 15 54.5 15.3 54.3 15.3 53.7 15.3 52.6 15.3 51.7 15.3 51.1 15.3 50.4 15.2 50 15.2 49.8 15.2 49.8 15.2 49.5 15.2 49.1 15.3 48.8 15.3 48.5 15.3 48.2 15.3 48.1 15.3 48 15.3 48 15.2 48 15.1 48 15.1 48.1 15.1 48.3 15.1 48.4 15 48.6 15 48.9 14.9 48.9 14.6 49 14.2 49.1 13.6 49.1 12.4 49.1 11L49.1 8.4ZM59.4 9.6C59.4 9.7 59.4 9.8 59.5 9.8 59.7 9.9 60.5 10.1 61.2 10.1 61.6 10.1 62 10 62.4 9.8 62.9 9.4 63.3 8.7 63.3 7.5 63.3 5.7 62.3 4.6 60.6 4.6 60.2 4.6 59.7 4.7 59.5 4.7 59.5 4.7 59.4 4.8 59.4 4.9L59.4 9.6ZM58.1 8.4C58.1 6.1 58.1 5.7 58.1 5.2 58 4.7 57.9 4.4 57.4 4.4 57.3 4.3 57 4.3 56.9 4.3 56.8 4.3 56.8 4.3 56.8 4.2 56.8 4.1 56.8 4.1 57 4.1 57.7 4.1 58.7 4.1 58.8 4.1 59 4.1 60.3 4.1 60.8 4.1 61.7 4.1 62.8 4.2 63.6 4.7 64 5 64.7 5.7 64.7 6.8 64.7 7.8 64.2 8.9 62.8 10.1 64 11.7 65.1 13 66 14 66.8 14.8 67.3 15 67.7 15 68 15.1 68.2 15.1 68.3 15.1 68.3 15.1 68.4 15.1 68.4 15.2 68.4 15.3 68.3 15.3 68 15.3L67.1 15.3C66.2 15.3 65.8 15.2 65.4 15 64.8 14.7 64.2 13.9 63.3 12.8 62.7 12 62 11.1 61.7 10.7 61.6 10.6 61.6 10.6 61.5 10.6L59.5 10.5C59.4 10.5 59.4 10.6 59.4 10.7L59.4 11C59.4 12.4 59.4 13.6 59.5 14.2 59.5 14.6 59.6 14.9 60.1 15 60.3 15 60.6 15.1 60.8 15.1 60.9 15.1 60.9 15.1 60.9 15.2 60.9 15.2 60.8 15.3 60.7 15.3 59.8 15.3 58.8 15.2 58.8 15.2 58.7 15.2 57.7 15.3 57.2 15.3 57.1 15.3 57 15.3 57 15.2 57 15.1 57 15.1 57.1 15.1 57.3 15.1 57.5 15 57.6 15 57.9 14.9 57.9 14.6 58 14.2 58.1 13.6 58.1 12.4 58.1 11L58.1 8.4ZM69 15.1C68.7 15 68.7 14.9 68.7 14.5 68.7 13.8 68.8 13.2 68.8 13 68.8 12.8 68.8 12.7 68.9 12.7 69 12.7 69.1 12.8 69.1 12.9 69.1 13 69.1 13.2 69.1 13.4 69.4 14.5 70.5 14.9 71.5 14.9 73.1 14.9 73.9 14 73.9 12.9 73.9 11.9 73.3 11.4 71.9 10.3L71.2 9.8C69.6 8.6 69 7.7 69 6.6 69 4.9 70.4 3.9 72.4 3.9 73 3.9 73.6 3.9 74 4 74.3 4.1 74.4 4.1 74.5 4.1 74.7 4.1 74.7 4.1 74.7 4.2 74.7 4.3 74.6 4.8 74.6 5.8 74.6 6 74.6 6.1 74.5 6.1 74.4 6.1 74.4 6 74.4 5.9 74.4 5.7 74.2 5.3 74.1 5.2 74 5 73.5 4.5 72.2 4.5 71 4.5 70.1 5 70.1 6.1 70.1 7 70.6 7.5 72.1 8.6L72.5 8.9C74.4 10.1 75.1 11.2 75.1 12.4 75.1 13.3 74.7 14.3 73.6 15 73 15.4 72 15.5 71.2 15.5 70.5 15.5 69.6 15.4 69 15.1ZM80 11C80 12.4 80 13.6 80 14.2 80.1 14.6 80.1 14.9 80.6 15 80.8 15 81.1 15.1 81.3 15.1 81.4 15.1 81.4 15.1 81.4 15.2 81.4 15.2 81.3 15.3 81.2 15.3 80.3 15.3 79.3 15.2 79.2 15.2 79.2 15.2 78.2 15.3 77.7 15.3 77.6 15.3 77.5 15.3 77.5 15.2 77.5 15.1 77.5 15.1 77.6 15.1 77.7 15.1 77.9 15 78.1 15 78.4 14.9 78.4 14.6 78.5 14.2 78.5 13.6 78.6 12.4 78.6 11L78.6 8.4C78.6 6.1 78.6 5.7 78.5 5.2 78.5 4.7 78.4 4.5 78 4.4 77.9 4.3 77.7 4.3 77.6 4.3 77.5 4.3 77.4 4.3 77.4 4.2 77.4 4.1 77.5 4.1 77.7 4.1 78.2 4.1 79.2 4.1 79.2 4.1 79.3 4.1 80.3 4.1 80.8 4.1 80.9 4.1 81 4.1 81 4.2 81 4.3 80.9 4.3 80.9 4.3 80.8 4.3 80.7 4.3 80.5 4.4 80.1 4.5 80 4.7 80 5.2 80 5.7 80 6.1 80 8.4L80 11ZM88.8 11C88.8 12.4 88.8 13.6 88.9 14.2 88.9 14.6 89 14.9 89.5 15 89.7 15 90 15.1 90.2 15.1 90.3 15.1 90.3 15.1 90.3 15.2 90.3 15.2 90.2 15.3 90.1 15.3 89.2 15.3 88.2 15.2 88.1 15.2 88.1 15.2 87 15.3 86.6 15.3 86.4 15.3 86.3 15.3 86.3 15.2 86.3 15.1 86.4 15.1 86.4 15.1 86.6 15.1 86.8 15 86.9 15 87.2 14.9 87.3 14.6 87.3 14.2 87.4 13.6 87.4 12.4 87.4 11L87.4 4.8 85.2 4.8C84.2 4.8 83.9 4.9 83.7 5.3 83.5 5.5 83.5 5.6 83.4 5.7 83.4 5.9 83.3 5.9 83.3 5.9 83.2 5.9 83.1 5.8 83.1 5.8 83.1 5.6 83.5 4.3 83.5 4.2 83.5 4.1 83.6 3.9 83.6 3.9 83.7 3.9 83.9 4 84.3 4.1 84.8 4.1 85.3 4.1 85.5 4.1L91.3 4.1C91.8 4.1 92.2 4.1 92.4 4.1 92.6 4 92.8 4 92.8 4 92.9 4 92.9 4.1 92.9 4.2 92.9 4.6 92.9 5.7 92.9 5.8 92.9 6 92.8 6 92.7 6 92.6 6 92.6 6 92.6 5.8L92.6 5.6C92.5 5.2 92.2 4.8 90.7 4.8L88.8 4.8 88.8 11ZM99.1 11.4C99.1 10.6 99 10.3 98.8 9.9 98.7 9.7 96.6 6.4 96.1 5.6 95.7 5.1 95.4 4.7 95.1 4.5 94.8 4.4 94.6 4.3 94.4 4.3 94.3 4.3 94.3 4.3 94.3 4.2 94.3 4.1 94.3 4.1 94.5 4.1 94.8 4.1 95.9 4.1 96 4.1 96.1 4.1 96.7 4.1 97.3 4.1 97.5 4.1 97.5 4.1 97.5 4.2 97.5 4.2 97.4 4.3 97.3 4.3 97.1 4.4 97.1 4.5 97.1 4.6 97.1 4.8 97.2 5 97.3 5.2L100.1 9.8C100.4 9.2 102.3 6 102.6 5.5 102.8 5.2 102.9 4.9 102.9 4.7 102.9 4.5 102.8 4.4 102.6 4.3 102.5 4.3 102.4 4.2 102.4 4.2 102.4 4.1 102.5 4.1 102.6 4.1 103 4.1 103.6 4.1 103.7 4.1 103.8 4.1 104.9 4.1 105.2 4.1 105.3 4.1 105.4 4.1 105.4 4.2 105.4 4.2 105.3 4.3 105.2 4.3 105 4.3 104.7 4.4 104.5 4.5 104.2 4.7 104 4.9 103.7 5.3 103.2 5.8 101 9.3 100.7 10 100.5 10.5 100.5 11 100.5 11.4L100.5 12.7C100.5 13 100.5 13.6 100.6 14.2 100.6 14.6 100.7 14.9 101.2 15 101.4 15 101.7 15.1 101.9 15.1 102 15.1 102 15.1 102 15.2 102 15.2 101.9 15.3 101.8 15.3 100.9 15.3 99.9 15.2 99.8 15.2 99.7 15.2 98.8 15.3 98.3 15.3 98.1 15.3 98.1 15.3 98.1 15.2 98.1 15.1 98.1 15.1 98.2 15.1 98.3 15.1 98.5 15 98.6 15 99 14.9 99.1 14.6 99.1 14.2 99.1 13.6 99.1 13 99.1 12.7L99.1 11.4ZM112.5 12.5C112.5 14 113.1 15.1 114.7 15.1 117.1 15.1 118 11.7 118 9.9 118 8.5 117.3 7.3 115.8 7.3 113.4 7.3 112.5 10.5 112.5 12.5ZM111.1 12.2C111.1 9 113.2 6.7 115.7 6.7 118.1 6.7 119.4 8.1 119.4 10.3 119.4 12.9 117.6 15.6 114.5 15.6 112.3 15.6 111.1 14.1 111.1 12.2ZM126.6 7.3L126.5 7.9 124.3 7.9 123.5 12.1C123.3 13.4 123 14.5 122.4 15.6 121.6 17.5 120.5 18.8 120.4 18.9 120 18.6 120 18.5 120.2 18.2 121.2 17.1 121.7 15.7 121.9 14.2L123 7.9 121.3 7.9 121.4 7.3 123.1 7.3C123.7 3.8 125.5 1.7 126.6 1.7 126.9 1.7 127.2 2 127.2 2.5 127.2 3.1 126.9 3.5 126.7 3.5 126.3 3.5 126.5 3 125.9 3 124.9 3 124.8 4.9 124.4 7.3L126.6 7.3ZM146.4 10.2C146.4 11.9 146.4 13.3 146.5 14 146.5 14.5 146.6 14.9 147.2 15 147.4 15 147.8 15.1 147.9 15.1 148.1 15.1 148.1 15.1 148.1 15.2 148.1 15.2 148 15.3 147.8 15.3 146.8 15.3 145.7 15.2 145.7 15.2 145.6 15.2 144.5 15.3 144 15.3 143.8 15.3 143.7 15.3 143.7 15.2 143.7 15.1 143.7 15.1 143.8 15.1 144 15.1 144.2 15 144.3 15 144.7 14.9 144.8 14.5 144.8 14 144.9 13.3 144.9 11.9 144.9 10.2L144.9 8.4C144.9 8.3 144.9 8.3 144.8 8.3L137.4 8.3C137.4 8.3 137.3 8.3 137.3 8.4L137.3 10.2C137.3 11.9 137.3 13.3 137.4 14 137.5 14.5 137.6 14.9 138.1 15 138.3 15 138.7 15.1 138.9 15.1 139 15.1 139 15.1 139 15.2 139 15.2 138.9 15.3 138.7 15.3 137.8 15.3 136.7 15.2 136.6 15.2 136.5 15.2 135.4 15.3 134.9 15.3 134.7 15.3 134.6 15.3 134.6 15.2 134.6 15.1 134.6 15.1 134.7 15.1 134.9 15.1 135.1 15 135.3 15 135.6 14.9 135.7 14.5 135.8 14 135.9 13.3 135.9 11.9 135.9 10.2L135.9 7.2C135.9 4.5 135.9 4 135.8 3.4 135.8 2.8 135.7 2.5 135.1 2.4 134.9 2.4 134.6 2.4 134.5 2.4 134.4 2.4 134.3 2.3 134.3 2.3 134.3 2.1 134.4 2.1 134.6 2.1 135.4 2.1 136.5 2.2 136.6 2.2 136.7 2.2 137.8 2.1 138.3 2.1 138.5 2.1 138.6 2.1 138.6 2.3 138.6 2.3 138.5 2.4 138.4 2.4 138.3 2.4 138.2 2.4 138 2.4 137.5 2.5 137.4 2.8 137.4 3.4 137.3 4 137.3 4.5 137.3 7.2L137.3 7.5C137.3 7.6 137.4 7.6 137.4 7.6L144.8 7.6C144.9 7.6 144.9 7.6 144.9 7.5L144.9 7.2C144.9 4.5 144.9 4 144.9 3.4 144.9 2.8 144.7 2.5 144.1 2.4 144 2.4 143.7 2.4 143.6 2.4 143.5 2.4 143.4 2.3 143.4 2.3 143.4 2.1 143.5 2.1 143.7 2.1 144.5 2.1 145.6 2.2 145.7 2.2 145.7 2.2 146.8 2.1 147.4 2.1 147.6 2.1 147.7 2.1 147.7 2.3 147.7 2.3 147.6 2.4 147.5 2.4 147.4 2.4 147.3 2.4 147.1 2.4 146.6 2.5 146.5 2.8 146.4 3.4 146.4 4 146.4 4.5 146.4 7.2L146.4 10.2ZM156.4 10.6C156.5 10.6 156.5 10.5 156.5 10.5L155 6.4C154.9 6.2 154.8 6.2 154.7 6.4L153.3 10.5C153.3 10.5 153.3 10.6 153.3 10.6L156.4 10.6ZM154.7 4.4C154.9 3.9 155 3.8 155.1 3.8 155.3 3.8 155.3 4 155.5 4.3 155.7 5 158.2 11.1 159.1 13.3 159.7 14.7 160.1 14.9 160.5 15 160.7 15 160.9 15.1 161.1 15.1 161.1 15.1 161.3 15.1 161.3 15.2 161.3 15.3 161.1 15.3 160.9 15.3 160.7 15.3 159.5 15.3 158.5 15.3 158.2 15.2 157.9 15.2 157.9 15.2 157.9 15.1 158 15.1 158 15.1 158.1 15 158.3 14.9 158.2 14.7L156.8 11.3C156.8 11.2 156.8 11.2 156.7 11.2L153.1 11.2C153.1 11.2 153 11.2 153 11.3L152.1 13.7C152 14 151.9 14.4 151.9 14.7 151.9 15 152.1 15.1 152.4 15.1L152.5 15.1C152.7 15.1 152.7 15.1 152.7 15.2 152.7 15.3 152.6 15.3 152.5 15.3 152.1 15.3 151.3 15.2 151.1 15.2 150.9 15.2 150.2 15.3 149.5 15.3 149.3 15.3 149.2 15.3 149.2 15.2 149.2 15.1 149.3 15.1 149.4 15.1 149.5 15.1 149.7 15 149.8 15 150.5 14.9 150.8 14.4 151.1 13.7L154.7 4.4ZM172.5 13.1L172.6 13.1C173 11.9 174.4 7.6 174.9 5.7 175.1 5.1 175.1 5 175.1 4.8 175.1 4.5 175 4.3 174.3 4.3 174.2 4.3 174.1 4.2 174.1 4.2 174.1 4.1 174.2 4.1 174.4 4.1 175.2 4.1 175.8 4.1 176 4.1 176.1 4.1 176.7 4.1 177.2 4.1 177.3 4.1 177.4 4.1 177.4 4.2 177.4 4.2 177.4 4.3 177.3 4.3 177.2 4.3 176.9 4.3 176.7 4.4 176.3 4.6 176 5.1 175.7 6 175.1 7.8 173.5 12.6 172.9 14.2 172.5 15.3 172.4 15.5 172.3 15.5 172.1 15.5 172 15.3 171.8 14.7L168.8 6.6C168.2 7.9 166.2 13.3 165.6 14.7 165.4 15.3 165.2 15.5 165.1 15.5 164.9 15.5 164.8 15.3 164.5 14.3L161.8 5.5C161.5 4.7 161.4 4.6 161 4.4 160.7 4.3 160.4 4.3 160.3 4.3 160.2 4.3 160.1 4.3 160.1 4.2 160.1 4.1 160.2 4.1 160.4 4.1 161.2 4.1 162 4.1 162.2 4.1 162.3 4.1 163 4.1 163.8 4.1 164 4.1 164.1 4.1 164.1 4.2 164.1 4.3 164 4.3 163.9 4.3 163.8 4.3 163.5 4.3 163.4 4.4 163.3 4.5 163.2 4.5 163.2 4.7 163.2 4.9 163.3 5.4 163.4 6.1 163.7 7.1 165.3 12.5 165.5 13.1L165.5 13.1 168.7 4.8C168.9 4.2 169 4.1 169.1 4.1 169.2 4.1 169.3 4.3 169.5 4.8L172.5 13.1ZM183.3 10.6C183.4 10.6 183.4 10.5 183.4 10.5L181.9 6.4C181.8 6.2 181.7 6.2 181.6 6.4L180.2 10.5C180.2 10.5 180.2 10.6 180.2 10.6L183.3 10.6ZM181.6 4.4C181.8 3.9 181.9 3.8 182 3.8 182.2 3.8 182.2 4 182.4 4.3 182.6 5 185.1 11.1 186.1 13.3 186.6 14.7 187 14.9 187.4 15 187.6 15 187.8 15.1 188 15.1 188.1 15.1 188.2 15.1 188.2 15.2 188.2 15.3 188 15.3 187.8 15.3 187.6 15.3 186.5 15.3 185.4 15.3 185.1 15.2 184.8 15.2 184.8 15.2 184.8 15.1 184.9 15.1 185 15.1 185 15 185.2 14.9 185.1 14.7L183.7 11.3C183.7 11.2 183.7 11.2 183.6 11.2L180 11.2C180 11.2 179.9 11.2 179.9 11.3L179 13.7C178.9 14 178.8 14.4 178.8 14.7 178.8 15 179 15.1 179.3 15.1L179.4 15.1C179.6 15.1 179.6 15.1 179.6 15.2 179.6 15.3 179.5 15.3 179.4 15.3 179 15.3 178.2 15.2 178 15.2 177.8 15.2 177.1 15.3 176.4 15.3 176.2 15.3 176.1 15.3 176.1 15.2 176.1 15.1 176.2 15.1 176.3 15.1 176.4 15.1 176.6 15 176.7 15 177.4 14.9 177.7 14.4 178 13.7L181.6 4.4ZM192.1 11C192.1 12.4 192.1 13.6 192.2 14.2 192.2 14.6 192.3 14.9 192.7 15 192.9 15 193.3 15.1 193.4 15.1 193.5 15.1 193.5 15.1 193.5 15.2 193.5 15.2 193.5 15.3 193.3 15.3 192.4 15.3 191.4 15.2 191.4 15.2 191.3 15.2 190.3 15.3 189.9 15.3 189.7 15.3 189.6 15.3 189.6 15.2 189.6 15.1 189.6 15.1 189.7 15.1 189.9 15.1 190.1 15 190.2 15 190.5 14.9 190.5 14.6 190.6 14.2 190.7 13.6 190.7 12.4 190.7 11L190.7 8.4C190.7 6.1 190.7 5.7 190.7 5.2 190.6 4.7 190.5 4.5 190.2 4.4 190 4.3 189.8 4.3 189.7 4.3 189.6 4.3 189.6 4.3 189.6 4.2 189.6 4.1 189.6 4.1 189.8 4.1 190.3 4.1 191.3 4.1 191.4 4.1 191.4 4.1 192.4 4.1 192.9 4.1 193.1 4.1 193.1 4.1 193.1 4.2 193.1 4.3 193.1 4.3 193 4.3 192.9 4.3 192.8 4.3 192.6 4.4 192.2 4.5 192.1 4.7 192.1 5.2 192.1 5.7 192.1 6.1 192.1 8.4L192.1 11ZM197.5 4.9C197.7 5 197.7 5.1 197.7 5.2 197.7 5.2 197.6 5.3 197.5 5.3 197.3 5.3 196.6 5.1 196.3 5 196.1 4.9 196 4.8 196 4.5 196 3.3 196.9 1.8 197.5 1.1 197.6 1 197.7 0.9 197.7 0.9 197.8 0.9 197.8 1 197.8 1 197.8 1.1 197.8 1.1 197.8 1.3 197.5 1.8 197.2 2.8 197.2 3.8 197.2 4.3 197.4 4.7 197.5 4.9ZM203.2 11C203.2 12.4 203.2 13.6 203.3 14.2 203.3 14.6 203.4 14.9 203.8 15 204.1 15 204.4 15.1 204.5 15.1 204.6 15.1 204.7 15.1 204.7 15.2 204.7 15.2 204.6 15.3 204.4 15.3 203.6 15.3 202.6 15.2 202.5 15.2 202.4 15.2 201.4 15.3 201 15.3 200.8 15.3 200.7 15.3 200.7 15.2 200.7 15.1 200.8 15.1 200.9 15.1 201 15.1 201.2 15 201.3 15 201.6 14.9 201.7 14.6 201.7 14.2 201.8 13.6 201.8 12.4 201.8 11L201.8 8.4C201.8 6.1 201.8 5.7 201.8 5.2 201.7 4.7 201.6 4.5 201.3 4.4 201.1 4.3 200.9 4.3 200.8 4.3 200.7 4.3 200.7 4.3 200.7 4.2 200.7 4.1 200.8 4.1 200.9 4.1 201.4 4.1 202.4 4.1 202.5 4.1 202.6 4.1 203.6 4.1 204 4.1 204.2 4.1 204.3 4.1 204.3 4.2 204.3 4.3 204.2 4.3 204.1 4.3 204 4.3 203.9 4.3 203.8 4.4 203.3 4.5 203.3 4.7 203.2 5.2 203.2 5.7 203.2 6.1 203.2 8.4L203.2 11ZM83.3 38.7C83.4 38.7 83.5 38.7 83.5 38.5L83.5 37.8C83.5 33 83.5 32.1 83.4 31 83.3 30 83.1 29.4 82 29.2 81.8 29.2 81.2 29.1 80.8 29.1 80.4 29.1 80.2 29.1 80.2 28.8 80.2 28.6 80.4 28.5 80.9 28.5 82.6 28.5 84.6 28.6 85.5 28.6 86.3 28.6 88.3 28.5 89.5 28.5 90 28.5 90.2 28.6 90.2 28.8 90.2 29.1 90 29.1 89.6 29.1 89.4 29.1 89.1 29.2 88.7 29.2 87.8 29.4 87.6 29.9 87.5 31 87.5 32.1 87.5 33 87.5 37.8L87.5 43.5C87.5 46.4 87.5 49 87.6 50.3 87.7 51.2 87.9 51.9 88.9 52.1 89.3 52.1 90 52.2 90.5 52.2 90.9 52.2 91 52.3 91 52.5 91 52.7 90.8 52.8 90.4 52.8 88.3 52.8 86.3 52.7 85.4 52.7 84.6 52.7 82.6 52.8 81.4 52.8 80.9 52.8 80.7 52.7 80.7 52.5 80.7 52.3 80.8 52.2 81.2 52.2 81.7 52.2 82.1 52.1 82.4 52.1 83 51.9 83.2 51.2 83.3 50.3 83.5 49 83.5 46.4 83.5 43.5L83.5 40.7C83.5 40.5 83.4 40.5 83.3 40.5L71 40.5C70.9 40.5 70.8 40.5 70.8 40.7L70.8 43.5C70.8 46.4 70.8 49 71 50.3 71.1 51.2 71.3 51.9 72.2 52.1 72.7 52.1 73.4 52.2 73.9 52.2 74.2 52.2 74.4 52.3 74.4 52.5 74.4 52.7 74.1 52.8 73.7 52.8 71.7 52.8 69.6 52.7 68.7 52.7 68 52.7 66 52.8 64.7 52.8 64.3 52.8 64.1 52.7 64.1 52.5 64.1 52.3 64.2 52.2 64.6 52.2 65.1 52.2 65.4 52.1 65.7 52.1 66.4 51.9 66.5 51.2 66.7 50.3 66.8 49 66.8 46.4 66.8 43.5L66.8 37.8C66.8 33 66.8 32.1 66.8 31 66.7 30 66.4 29.4 65.4 29.2 65.1 29.2 64.6 29.1 64.1 29.1 63.8 29.1 63.6 29.1 63.6 28.8 63.6 28.6 63.8 28.5 64.3 28.5 66 28.5 68 28.6 68.9 28.6 69.6 28.6 71.7 28.5 72.9 28.5 73.4 28.5 73.6 28.6 73.6 28.8 73.6 29.1 73.4 29.1 73 29.1 72.7 29.1 72.5 29.2 72.1 29.2 71.2 29.4 71 29.9 70.9 31 70.8 32.1 70.8 33 70.8 37.8L70.8 38.5C70.8 38.7 70.9 38.7 71 38.7L83.3 38.7ZM94.3 40.1C94.3 35.9 94.3 35.2 94.2 34.3 94.2 33.4 93.9 33 93.3 32.8 92.9 32.7 92.6 32.7 92.2 32.7 92 32.7 91.8 32.7 91.8 32.4 91.8 32.2 92 32.2 92.5 32.2 93.5 32.2 95.4 32.2 96.2 32.2 97 32.2 98.8 32.2 99.9 32.2 100.2 32.2 100.4 32.2 100.4 32.4 100.4 32.7 100.3 32.7 100 32.7 99.7 32.7 99.5 32.7 99.2 32.8 98.4 32.9 98.2 33.3 98.1 34.3 98 35.2 98 35.9 98 40.1L98 44.9C98 47.5 98 49.7 98.2 50.8 98.3 51.6 98.5 52 99.3 52.1 99.7 52.2 100.3 52.2 100.7 52.2 101.1 52.2 101.2 52.4 101.2 52.5 101.2 52.7 101 52.8 100.6 52.8 98.8 52.8 96.9 52.7 96.1 52.7 95.4 52.7 93.5 52.8 92.4 52.8 92 52.8 91.9 52.7 91.9 52.5 91.9 52.4 92 52.2 92.3 52.2 92.7 52.2 93 52.2 93.3 52.1 93.9 52 94 51.6 94.1 50.8 94.3 49.7 94.3 47.5 94.3 44.9L94.3 40.1ZM109.5 44.9C109.5 48.4 109.5 50.1 110.1 50.6 110.6 51 111.7 51.2 113.8 51.2 115.4 51.2 116.4 51.1 117.1 50.4 117.5 50.1 117.8 49.3 117.9 48.8 117.9 48.5 117.9 48.4 118.2 48.4 118.4 48.4 118.4 48.6 118.4 49 118.4 49.3 118.2 51.3 118 52.1 117.8 52.7 117.7 52.8 116.2 52.8 114.2 52.8 112.6 52.8 111.2 52.7 109.7 52.7 108.6 52.7 107.4 52.7 107.1 52.7 106.5 52.7 105.8 52.7 105.1 52.7 104.4 52.8 103.8 52.8 103.5 52.8 103.3 52.7 103.3 52.5 103.3 52.4 103.4 52.2 103.7 52.2 104.2 52.2 104.5 52.2 104.7 52.1 105.3 52 105.5 51.5 105.6 50.7 105.7 49.5 105.7 47.4 105.7 44.9L105.7 40.1C105.7 35.9 105.7 35.2 105.7 34.3 105.6 33.4 105.4 33.1 104.5 32.8 104.2 32.7 103.9 32.7 103.5 32.7 103.2 32.7 103 32.6 103 32.4 103 32.2 103.2 32.2 103.7 32.2 105 32.2 106.8 32.2 107.5 32.2 108.2 32.2 110.5 32.2 111.6 32.2 112 32.2 112.2 32.2 112.2 32.4 112.2 32.6 112 32.7 111.7 32.7 111.4 32.7 110.9 32.7 110.6 32.8 109.8 32.9 109.6 33.3 109.5 34.3 109.5 35.2 109.5 35.9 109.5 40.1L109.5 44.9ZM137.9 43C137.9 36.9 134.3 33.2 129.8 33.2 126.6 33.2 122.9 34.9 122.9 41.6 122.9 47.2 126.2 51.7 131.5 51.7 133.5 51.7 137.9 50.7 137.9 43ZM118.8 42.5C118.8 37.8 122.1 31.8 130.6 31.8 137.7 31.8 142.1 35.7 142.1 42 142.1 48.2 137.6 53.1 130.3 53.1 122.1 53.1 118.8 47.3 118.8 42.5Z"/></svg>