<svg xmlns="http://www.w3.org/2000/svg" width="205" height="87" viewBox="0 0 205 87" version="1.1"><path fill="#FFFFFF" d="M46.7 69.3L48.2 69.3 47.2 71C47.1 71.1 47.1 71.1 47.1 71.1 47.1 71.2 47 71.2 47 71.2L47 71.2 48.1 71.2 48.1 71.2C48 71.2 48 71.2 48 71.2 48 71.1 47.9 71.1 47.9 71.1 47.9 71.1 48 71 48 71 48 71 48 70.9 48 70.9L49 69.2 49 68.6 48.9 68.6C48.9 68.7 48.9 68.7 48.9 68.7 48.8 68.7 48.8 68.7 48.8 68.7L46.7 68.7C46.7 68.7 46.6 68.7 46.6 68.7 46.6 68.7 46.6 68.7 46.6 68.6L46.5 68.6 46.5 69.4 46.6 69.4C46.6 69.4 46.6 69.3 46.6 69.3 46.6 69.3 46.7 69.3 46.7 69.3ZM44.9 69.3C45 69.3 45.1 69.4 45.1 69.4 45.2 69.4 45.3 69.5 45.3 69.6 45.4 69.6 45.4 69.7 45.4 69.8 45.4 69.9 45.5 70 45.5 70.1 45.5 70.1 45.4 70.2 45.4 70.3 45.4 70.4 45.4 70.5 45.3 70.5 45.3 70.6 45.2 70.7 45.1 70.7 45.1 70.8 45 70.8 44.9 70.8 44.8 70.8 44.7 70.8 44.6 70.7 44.5 70.7 44.5 70.6 44.4 70.5 44.4 70.5 44.3 70.4 44.3 70.3 44.3 70.2 44.3 70.1 44.3 70.1 44.3 70 44.3 69.9 44.3 69.8 44.3 69.7 44.4 69.6 44.4 69.6 44.5 69.5 44.5 69.4 44.6 69.4 44.7 69.4 44.8 69.3 44.9 69.3ZM44.9 68.8C44.7 68.8 44.5 68.8 44.4 68.9 44.2 68.9 44.1 69 44 69.1 43.8 69.3 43.7 69.4 43.7 69.5 43.6 69.7 43.6 69.9 43.6 70.1 43.6 70.2 43.6 70.4 43.7 70.6 43.7 70.7 43.8 70.9 44 71 44.1 71.1 44.2 71.2 44.4 71.2 44.5 71.3 44.7 71.3 44.9 71.3 45 71.3 45.2 71.3 45.4 71.2 45.5 71.2 45.7 71.1 45.8 71 45.9 70.9 46 70.7 46.1 70.6 46.1 70.4 46.2 70.2 46.2 70.1 46.2 69.9 46.1 69.7 46.1 69.5 46 69.4 45.9 69.3 45.8 69.1 45.7 69 45.5 68.9 45.4 68.9 45.2 68.8 45 68.8 44.9 68.8ZM41.8 69.2C41.8 69.2 41.9 69.2 41.9 69.2 42 69.2 42 69.2 42.1 69.3 42.1 69.3 42.2 69.3 42.2 69.4 42.3 69.4 42.3 69.5 42.3 69.5 42.3 69.6 42.3 69.7 42.2 69.7 42.2 69.8 42.1 69.8 42.1 69.8 42 69.8 42 69.9 41.9 69.9 41.9 69.9 41.8 69.9 41.8 69.9 41.7 69.9 41.7 69.9 41.6 69.9 41.6 69.9 41.5 69.8 41.4 69.8 41.4 69.8 41.3 69.8 41.3 69.7 41.3 69.7 41.2 69.6 41.2 69.5 41.2 69.5 41.3 69.4 41.3 69.4 41.3 69.3 41.4 69.3 41.4 69.3 41.5 69.2 41.6 69.2 41.6 69.2 41.7 69.2 41.7 69.2 41.8 69.2ZM41 70.5L40.6 71.1 40.6 71.1C40.7 71.1 40.7 71.1 40.8 71.1 40.8 71.1 40.8 71.1 40.8 71.1 40.9 71.1 40.9 71.2 41 71.2 41.1 71.2 41.2 71.2 41.3 71.2 41.4 71.2 41.5 71.2 41.6 71.2 41.8 71.2 42 71.2 42.2 71.2 42.4 71.1 42.5 71 42.6 70.9 42.8 70.8 42.9 70.7 43 70.5 43 70.3 43.1 70.1 43.1 69.9 43.1 69.7 43 69.5 43 69.4 42.9 69.2 42.8 69.1 42.7 69 42.6 68.9 42.5 68.8 42.3 68.8 42.1 68.7 42 68.7 41.8 68.7 41.6 68.7 41.5 68.7 41.4 68.7 41.2 68.8 41.1 68.8 41 68.9 40.9 69 40.8 69 40.7 69.1 40.7 69.3 40.6 69.4 40.6 69.5 40.6 69.7 40.7 69.8 40.7 69.9 40.8 70 40.8 70.1 40.9 70.1 41 70.2 41.1 70.3 41.2 70.3 41.3 70.3 41.4 70.4 41.6 70.4 41.7 70.4 41.9 70.3 42 70.3 42.1 70.3 42.3 70.2 42.4 70.1 42.4 70.2 42.4 70.3 42.4 70.4 42.3 70.5 42.2 70.6 42.2 70.6 42.1 70.7 42 70.7 41.9 70.7 41.8 70.8 41.7 70.8 41.6 70.8 41.6 70.8 41.5 70.8 41.4 70.8 41.3 70.8 41.3 70.7 41.2 70.7 41.1 70.7 41.1 70.7 41.1 70.7 41 70.6 41 70.6 41 70.5L41 70.5 41 70.5ZM38.7 69.8L38.7 69.8C38.7 69.8 38.8 69.7 38.8 69.7 38.8 69.7 38.8 69.7 38.8 69.7 38.8 69.6 38.9 69.6 38.9 69.6 39 69.6 39 69.6 39.1 69.6L39.1 71.1C39.1 71.1 39.1 71.1 39.1 71.1 39.1 71.2 39 71.2 39 71.2L39 71.2 39.9 71.2 39.9 71.2C39.9 71.2 39.9 71.2 39.9 71.1 39.8 71.1 39.8 71.1 39.8 71.1L39.8 68.9C39.8 68.8 39.8 68.8 39.9 68.8 39.9 68.8 39.9 68.8 39.9 68.8L39.9 68.7 39 68.7 39 68.8C39 68.8 39.1 68.8 39.1 68.8 39.1 68.8 39.1 68.8 39.1 68.9L39.1 69C39.1 69 39.1 69 39.1 69 39 69.1 39 69.1 39 69.1 38.9 69.1 38.9 69.1 38.9 69.1 38.8 69.1 38.8 69.1 38.8 69.1 38.8 69.1 38.8 69.1 38.8 69.1 38.8 69.1 38.7 69 38.7 69L38.7 69 38.7 69.8ZM50.4 22.8C49.7 21.1 50.5 18.9 50.5 18.9 47 19.7 46.2 21.9 45.2 22.1 44.3 22.3 44.6 20.2 44.6 20.2 44.6 20.2 39.5 22.8 37.7 26.9 36.2 30.5 37.6 32.5 37.6 32.5L39.5 32.5C39.3 26.6 43.4 24.3 46.2 22.8 46.8 22.4 47.4 22.1 47.9 21.8L48.8 21.1 48.6 22.3C48.6 22.3 48.4 23.7 48.7 25.1 48.8 25.5 48.9 25.8 49.1 26.2 49.4 27 49.7 27.9 49.3 29.3 49 30.5 48 31.7 47.3 32.5L48.6 32.5C48.6 32.5 50 31.9 51.1 29.4 52.2 26.2 51.1 24.9 50.4 22.8ZM48.4 29C48.5 28.7 48.5 28.4 48.5 28.1 48.5 27.5 48.3 27.1 48.1 26.6 48 26.2 47.8 25.8 47.7 25.3 47.6 24.7 47.6 24.1 47.6 23.5 47.6 23.4 47.6 23.3 47.6 23.2 47.3 23.3 47 23.5 46.7 23.7 44 25.1 40.5 27.1 40.5 32.1 40.5 32.2 40.5 32.4 40.5 32.5L45.8 32.5C46 32.3 48 30.6 48.4 29ZM46.1 44.2L46.6 38.6C45.9 38.9 45.1 39.1 44.1 39.2L43.6 48.5C43.6 48.6 43.5 48.7 43.5 48.7L43.5 48.7C43.4 48.7 43.3 48.6 43.3 48.5L42.8 39.2C41.9 39.1 41 38.9 40.3 38.6L40.8 44.2 22.9 36.8C23.4 38.2 30 55.5 30.1 55.8L41.4 60.8 41.7 56.4C41.7 56.3 41.7 56.3 41.8 56.3 41.8 56.3 41.9 56.3 41.9 56.4L42.3 61.2 42.3 61.2 42.7 65.8C42.7 66.2 43 66.5 43.5 66.5 43.9 66.5 44.2 66.2 44.2 65.8L44.7 61.2 45.1 56.4C45.1 56.3 45.1 56.3 45.2 56.3 45.2 56.3 45.2 56.3 45.2 56.4L45.5 60.8 56.9 55.8C57 55.5 63.5 38.2 64 36.8L46.1 44.2ZM32.2 34.7C34.1 35.9 37.3 38.7 39 40.4 34.9 33.3 31.8 31.7 31 31.5L32.2 34.7ZM39.4 42.4C32.8 35.8 28.5 33.7 26.4 33.3L28 37.5 39.4 42.4ZM49.9 33.3L37 33.3C36.7 33.3 36.5 33.5 36.5 33.8 36.5 34.1 36.7 34.3 37 34.3L49.9 34.3C50.2 34.3 50.5 34.1 50.5 33.8 50.5 33.5 50.2 33.3 49.9 33.3ZM37.7 35.1C38.3 36.6 40.3 38.5 43.5 38.5 46.7 38.5 48.6 36.6 49.3 35.1L37.7 35.1ZM55.9 31.5C55.1 31.7 52 33.3 47.9 40.4 49.6 38.7 52.8 35.9 54.7 34.7L55.9 31.5ZM59 37.5L60.5 33.3C58.5 33.7 54.1 35.8 47.5 42.4L59 37.5ZM74 43.9L74 43.2 69 43.2C68.9 36.7 67.3 30.7 64.6 25.7L68.3 25.7 67.8 25 64.2 25C61.9 20.9 58.8 17.6 55.3 15.3 55.3 15.3 55 15.2 54.9 15.1 54.7 15 53.8 14.7 53.8 14.7 52.8 14.3 51 13.8 51 13.8 56.1 15.9 60.4 19.8 63.4 25L54.6 25C54.2 23.6 53.7 22.3 53.2 21.1 51.6 17.4 49.8 14.7 47.7 13.2 47.7 13.2 47.4 13.1 47.2 13.1 46.9 13.1 46.1 13 46.1 13 49.2 14.6 52 18.9 53.9 25L52.6 25C52.6 25 52.7 25.3 52.7 25.7L54.1 25.7C54.5 27.2 54.9 28.8 55.2 30.4 55.2 30.4 55.6 30.3 55.7 30.2L55.9 30.2C55.6 28.6 55.2 27.2 54.8 25.7L63.8 25.7C66.6 30.7 68.2 36.7 68.3 43.2L63 43.2 62.7 43.9 68.3 43.9C68.2 50.4 66.6 56.4 63.9 61.3L54.8 61.3C55.2 60.1 55.5 58.9 55.7 57.6L55 58C54.7 59.1 54.4 60.2 54.1 61.3L47.4 61.3 45.8 62 53.9 62C52.1 68 49.4 72.4 46.3 74 46.3 74 47 73.9 47.3 73.9 47.5 73.9 47.8 73.8 47.8 73.8 49.8 72.3 51.7 69.6 53.2 66 53.7 64.8 54.2 63.4 54.6 62L63.5 62C60.5 67.1 56.4 71 51.6 73.1 51.6 73.1 52.9 72.7 53.7 72.4 53.7 72.4 55 71.9 55.3 71.8L55.6 71.6C59 69.3 62 66 64.3 62L67.8 62C67.9 61.9 68.3 61.3 68.3 61.3L64.7 61.3C67.4 56.3 68.9 50.3 69 43.9L74 43.9ZM74 43.9ZM39.5 61.3L32.8 61.3C32.5 60.3 32.3 59.1 32 58L31.2 57.6C31.5 58.9 31.8 60.1 32.1 61.3L23.1 61.3C20.3 56.4 18.7 50.4 18.7 43.9L24.2 43.9 24 43.2 18.7 43.2C18.7 36.7 20.4 30.7 23.1 25.7L32.1 25.7C31.7 27.2 31.4 28.7 31.1 30.2 31.1 30.2 31.3 30.3 31.5 30.3L31.7 30.5C32.1 28.8 32.4 27.2 32.9 25.7L36.9 25.7C37 25.5 37.3 25 37.3 25L33.1 25C34.9 18.9 37.7 14.6 40.9 13 40.9 13 40.6 13 40.3 13 40.1 13 39.3 13.1 39.3 13.1 37.2 14.7 35.3 17.4 33.7 21.1 33.2 22.3 32.8 23.6 32.3 25L23.5 25C26.6 19.8 31 15.8 36.1 13.8L35.8 13.8C35.5 13.9 34.7 14.1 34.7 14.1 33.6 14.4 31.9 15.1 31.9 15.1 28.2 17.5 25.1 20.9 22.7 25 22.7 25 22.7 25 22.7 25L19 25 18.5 25.7 22.3 25.7C19.6 30.7 18 36.7 18 43.2L12.8 43.2 12.8 43.9 17.9 43.9C18 50.3 19.6 56.3 22.3 61.3L18.5 61.3C18.5 61.3 19 62 19 62L22.7 62C25 66.1 28 69.4 31.5 71.8 31.5 71.8 32.8 72.3 33.4 72.5 33.4 72.5 34.5 72.9 35.1 73 35.3 73.1 35.6 73.1 35.6 73.1 30.7 71.1 26.5 67.1 23.5 62L32.3 62C32.8 63.4 33.2 64.8 33.7 66 35.3 69.6 37.1 72.3 39.1 73.9 39.1 73.9 39.8 73.9 40.3 74L40.7 74C37.6 72.4 34.9 68 33.1 62L41.1 62 39.5 61.3ZM37.9 51.3C37.9 51.1 38.1 50.6 38.1 50.5 38.2 50.7 38.5 51.4 38.6 51.7L37.9 51.3ZM39.7 53.1C39.5 52.7 38.2 49.9 37.9 49.3L37.9 49.3C37.6 49.9 37.1 51.6 37 51.9L37.6 52.5C37.6 52.4 37.8 51.8 37.8 51.8L38.9 52.3C38.9 52.4 39.2 53 39.3 53.3L39.7 53.1ZM33.1 49.4C33.1 49.3 33.2 48.8 33.2 48.6 33.3 48.8 33.7 49.5 33.8 49.7L33.1 49.4ZM35 51C34.8 50.6 33.3 48.1 32.9 47.5L32.9 47.5C32.7 48.1 32.3 49.7 32.3 50L32.9 50.6C32.9 50.4 33 49.9 33 49.9L34.1 50.3C34.1 50.4 34.5 51 34.6 51.2L35 51ZM32 49.9C31.9 49.7 30.3 46.6 30.1 46.1L30 46.1C30 46.5 29.9 47.7 29.9 47.9 29.7 47.5 28.7 45.8 28.4 45.5L28.4 45.5C28.4 46 28.5 48.1 28.6 48.5L29.2 49C29.2 48.7 29 47.2 29 47.1 29.2 47.3 30 48.7 30.4 49.2L30.4 49.2C30.4 48.7 30.5 47.9 30.5 47.7L30.5 47.7C30.6 48 31.5 49.8 31.6 50L32 49.9ZM50.3 50.7C50.4 50.5 50.7 49.8 50.8 49.6 50.8 49.7 51 50.2 51 50.4L50.3 50.7ZM49.6 52.3C49.7 52.1 50 51.4 50 51.3L51.1 50.8C51.1 50.9 51.2 51.4 51.3 51.6L51.9 51C51.8 50.7 51.3 49 51.1 48.4L51 48.4C50.7 49 49.3 51.7 49.1 52.1L49.6 52.3ZM57.2 47.9C57.3 47.7 57.8 46.9 57.9 46.7 57.9 46.8 57.9 47.4 57.9 47.6L57.2 47.9ZM56.2 49.6C56.4 49.4 56.8 48.7 56.8 48.6L57.9 48.1C57.9 48.1 58 48.7 58 48.9L58.6 48.2C58.6 47.9 58.5 46.1 58.4 45.4L58.3 45.4C57.9 46 56.1 49 55.9 49.4L56.2 49.6ZM52.6 51.1C52.7 50.9 53.4 49.1 53.6 48.9L53.6 48.9C53.6 49.1 53.7 49.9 53.8 50.4L53.8 50.4C54.1 49.8 54.9 48.5 55 48.3 55 48.4 55 49.8 55 50.2L55.6 49.6C55.6 49.3 55.6 47.2 55.5 46.7L55.5 46.7C55.3 47 54.4 48.7 54.2 49.1 54.1 48.9 54 47.6 53.9 47.3L53.9 47.3C53.7 47.7 52.2 50.8 52.1 51.1L52.6 51.1ZM48.8 52C48.6 52.1 48.2 52.3 48.1 52.3L48.2 51.3C48.3 50.7 48.5 49.7 48.5 49.6L47.9 49.9C47.9 50 47.7 51.1 47.7 51.2L47.6 51.8C47.6 51.9 47.5 52.9 47.4 53.2 47.6 53.1 48.7 52.7 48.7 52.7L48.8 52ZM45.2 52.3C45.2 52.1 45.5 51.5 45.6 51.3 45.6 51.4 45.9 52.1 46 52.3L45.2 52.3ZM44.7 53.7C44.8 53.5 45 52.9 45 52.8L46.2 52.8C46.2 52.8 46.4 53.4 46.5 53.6L47.1 53.1C46.9 52.8 46 50.9 45.6 50.1L45.6 50.1C45.3 50.6 44.3 53 44.1 53.3L44.7 53.7ZM40.5 53.5C40.5 53.3 40.9 51.9 41 51.7L41 51.7C41 51.9 41.5 52.8 41.7 53.4L41.7 53.4C42 52.9 42.5 51.8 42.6 51.7 42.6 51.8 43.1 53.3 43.2 53.7L43.8 53.3C43.6 53 42.9 50.8 42.7 50.2L42.7 50.2C42.5 50.5 41.9 51.9 41.8 52.1 41.7 51.9 41.1 50.6 40.9 50.2L40.9 50.2C40.7 50.6 40 53 39.9 53.2L40.5 53.5ZM36.6 51.4C36.3 51.3 36.1 51.2 36 51.1L35.8 50C35.7 49.4 35.5 48.5 35.5 48.4L34.8 48.1C34.8 48.2 35.1 49.4 35.1 49.4L35.2 50C35.2 50.2 35.4 51.2 35.4 51.4 35.7 51.5 36.7 52 36.8 52.1L36.6 51.4ZM32.1 46.9L33.6 47.5 33.5 46.9 32 46.3 32.1 46.9ZM78.7 50.9C78.7 50.8 78.7 50.7 78.8 50.6 78.9 50.5 78.9 50.4 79 50.4 79.1 50.3 79.2 50.2 79.4 50.2 79.5 50.2 79.6 50.2 79.8 50.2 79.9 50.3 80 50.3 80.1 50.4 80.2 50.4 80.3 50.5 80.4 50.6 80.5 50.7 80.5 50.8 80.5 50.9 80.6 51 80.6 51.2 80.5 51.3 80.5 51.4 80.5 51.5 80.4 51.6 80.3 51.7 80.3 51.8 80.2 51.8 80.1 51.9 79.9 51.9 79.8 52 79.7 52 79.6 52 79.4 51.9 79.3 51.9 79.2 51.9 79 51.8 79 51.7 78.9 51.6 78.8 51.6 78.7 51.5 78.7 51.4 78.7 51.2 78.6 51.1 78.6 51 78.7 50.9ZM77.8 50.7C77.8 50.9 77.8 51.1 77.8 51.3 77.9 51.6 77.9 51.8 78 51.9 78.1 52.1 78.3 52.3 78.5 52.4 78.7 52.6 79 52.7 79.3 52.8 79.6 52.8 79.9 52.8 80.1 52.8 80.3 52.7 80.5 52.6 80.7 52.5 80.9 52.3 81 52.2 81.1 52 81.2 51.8 81.3 51.6 81.3 51.4 81.4 51.2 81.4 51 81.4 50.8 81.3 50.6 81.3 50.4 81.2 50.2 81 50.1 80.9 49.9 80.7 49.7 80.5 49.6 80.2 49.5 79.9 49.4 79.6 49.4 79.4 49.4 79.1 49.4 78.9 49.5 78.7 49.6 78.5 49.7 78.3 49.8 78.2 50 78.1 50.2 78 50.4 77.9 50.5 77.8 50.7ZM36.2 78.9C36.3 78.9 36.4 78.9 36.5 79 36.6 79.1 36.6 79.1 36.7 79.2 36.8 79.3 36.8 79.4 36.8 79.6 36.8 79.7 36.8 79.8 36.8 80 36.8 80.1 36.7 80.2 36.7 80.3 36.6 80.4 36.5 80.5 36.4 80.6 36.3 80.7 36.2 80.7 36.1 80.7 36 80.7 35.9 80.7 35.8 80.7 35.6 80.7 35.6 80.7 35.5 80.6 35.4 80.5 35.3 80.4 35.2 80.3 35.2 80.2 35.1 80.1 35.1 80 35.1 79.9 35.1 79.8 35.1 79.6 35.1 79.5 35.2 79.3 35.3 79.2 35.3 79.1 35.4 79 35.5 79 35.6 78.9 35.7 78.9 35.8 78.8 35.9 78.8 36 78.8 36.2 78.9ZM36.3 78C36.1 78 35.9 78 35.7 78 35.5 78 35.3 78.1 35.1 78.2 34.9 78.3 34.8 78.5 34.6 78.7 34.5 78.9 34.4 79.1 34.3 79.4 34.2 79.7 34.2 80 34.3 80.3 34.3 80.5 34.4 80.7 34.6 80.9 34.7 81.1 34.9 81.2 35 81.3 35.2 81.4 35.4 81.5 35.6 81.5 35.8 81.6 36 81.6 36.2 81.5 36.4 81.5 36.6 81.5 36.8 81.4 37 81.2 37.2 81.1 37.3 80.9 37.4 80.7 37.5 80.4 37.6 80.1 37.7 79.8 37.7 79.5 37.6 79.3 37.6 79.1 37.5 78.9 37.4 78.7 37.2 78.5 37.1 78.4 36.9 78.3 36.7 78.1 36.5 78.1 36.3 78ZM30.8 78.8L29.8 78.4 30.8 77.3 30.8 78.8ZM30.6 80.1L31.6 80.4 31.6 80.3C31.6 80.3 31.6 80.3 31.6 80.3 31.6 80.3 31.5 80.3 31.5 80.2 31.5 80.1 31.5 77.3 31.5 77.1 31.5 77 31.5 76.9 31.5 76.9 31.6 76.9 31.6 76.9 31.7 76.9L31.7 76.8 30.4 76.3 30.4 76.4C30.5 76.4 30.5 76.5 30.5 76.5 30.4 76.5 30.4 76.6 30.3 76.8 30.1 76.9 28.6 78.7 28.4 79 28.3 79.1 28.3 79.1 28.3 79.1 28.3 79.1 28.2 79.1 28.2 79.1L28.2 79.2 29.1 79.5 29.1 79.4C29.1 79.4 29.1 79.4 29 79.4 29 79.4 29 79.4 29 79.3 29 79.3 29.1 79.3 29.1 79.2 29.1 79.2 29.4 78.9 29.4 78.9L30.8 79.4C30.8 79.4 30.8 79.8 30.8 79.9 30.8 79.9 30.8 80 30.8 80 30.7 80 30.7 80 30.7 80 30.7 80 30.7 80 30.7 80L30.6 80.1ZM8 55.5L7.6 54.5 9.1 54.6 8 55.5ZM6.9 56.2L7.2 57.2 7.3 57.1C7.3 57.1 7.3 57.1 7.3 57.1 7.3 57 7.3 57 7.3 57 7.5 56.9 9.6 55.2 9.7 55.1 9.8 55 9.9 55 9.9 55 10 54.9 10 55 10 55L10.1 55 9.7 53.7 9.6 53.7C9.6 53.8 9.6 53.8 9.6 53.9 9.5 53.9 9.4 53.9 9.2 53.9 9 53.9 6.7 53.8 6.3 53.8 6.3 53.8 6.2 53.8 6.2 53.7 6.2 53.7 6.2 53.7 6.2 53.7L6.1 53.7 6.4 54.6 6.4 54.6C6.4 54.6 6.4 54.6 6.4 54.5 6.4 54.5 6.5 54.5 6.5 54.5 6.5 54.5 6.5 54.5 6.6 54.5 6.6 54.5 7 54.5 7 54.5L7.5 55.9C7.5 55.9 7.2 56.1 7.1 56.2 7.1 56.2 7.1 56.2 7 56.2 7 56.2 7 56.2 7 56.2 7 56.2 7 56.2 7 56.2L6.9 56.2ZM12.5 64.6L11.9 63.8 13.4 63.4 12.5 64.6ZM11.6 65.6L12.2 66.5 12.3 66.4C12.3 66.4 12.3 66.4 12.3 66.3 12.3 66.3 12.3 66.3 12.3 66.3 12.4 66.1 14 63.9 14.1 63.7 14.2 63.6 14.2 63.6 14.2 63.6 14.3 63.6 14.3 63.6 14.4 63.6L14.4 63.6 13.7 62.5 13.6 62.5C13.6 62.5 13.6 62.6 13.6 62.6 13.6 62.6 13.5 62.7 13.3 62.7 13.1 62.8 10.8 63.3 10.4 63.4 10.4 63.4 10.4 63.4 10.4 63.4 10.3 63.4 10.3 63.4 10.3 63.4L10.2 63.4 10.7 64.2 10.8 64.2C10.8 64.2 10.8 64.1 10.8 64.1 10.8 64.1 10.8 64.1 10.8 64.1 10.8 64 10.9 64 10.9 64 11 64 11.3 63.9 11.3 63.9L12.2 65.1C12.1 65.2 11.9 65.5 11.9 65.5 11.9 65.6 11.8 65.6 11.8 65.6 11.8 65.6 11.8 65.6 11.8 65.6 11.7 65.6 11.7 65.6 11.7 65.6L11.6 65.6ZM46.5 80.9L45.4 80.9 45.9 79.5 46.5 80.9ZM46.9 82.1L47.9 82 47.9 81.9C47.9 81.9 47.9 81.9 47.8 81.9 47.8 81.9 47.8 81.9 47.8 81.8 47.7 81.7 46.6 79.2 46.5 79 46.5 78.9 46.4 78.9 46.4 78.8 46.4 78.8 46.5 78.8 46.5 78.8L46.5 78.7 45.2 78.7 45.2 78.8C45.3 78.8 45.3 78.9 45.3 78.9 45.3 78.9 45.3 79.1 45.2 79.2 45.2 79.4 44.5 81.7 44.4 82.1 44.4 82.1 44.4 82.1 44.4 82.1 44.3 82.2 44.3 82.2 44.3 82.2L44.3 82.3 45.2 82.2 45.2 82.1C45.2 82.1 45.2 82.1 45.2 82.1 45.2 82.1 45.1 82.1 45.1 82.1 45.1 82 45.1 82 45.2 82 45.2 81.9 45.3 81.6 45.3 81.5L46.7 81.4C46.8 81.5 46.9 81.8 46.9 81.8 47 81.9 47 81.9 47 81.9 47 82 47 82 46.9 82 46.9 82 46.9 82 46.9 82L46.9 82.1ZM18.3 73L19.3 73.8 19.4 73.8C19.4 73.7 19.3 73.7 19.3 73.7 19.3 73.7 19.3 73.6 19.3 73.6L19.8 71.5C19.9 71.4 20.6 71.3 20.8 71.3 21 71.3 21.1 71.3 21.3 71.3 21.4 71.3 21.5 71.3 21.6 71.3L21.6 71.2 20.7 70.4 20.6 70.5C20.6 70.5 20.6 70.6 20.7 70.6 20.7 70.6 20.7 70.7 20.6 70.7 20.6 70.7 20.6 70.7 20.5 70.7 20.4 70.8 20.3 70.8 20.2 70.8 20.1 70.8 18.8 71 18.7 71L19.7 69.9C19.7 69.8 19.7 69.8 19.8 69.8 19.8 69.8 19.9 69.9 19.9 69.9L19.9 69.8 19.1 69 19 69.1C19 69.1 19.1 69.1 19.1 69.2 19.1 69.2 19.1 69.2 19 69.3L17.1 71.6C17 71.6 17 71.6 16.9 71.6 16.9 71.6 16.9 71.6 16.9 71.6L16.8 71.6 17.7 72.4 17.7 72.4C17.7 72.3 17.7 72.3 17.7 72.3 17.6 72.2 17.7 72.2 17.7 72.1L18.1 71.6 19 71.5C19 71.5 18.7 72.8 18.7 72.8 18.6 72.9 18.6 72.9 18.6 73 18.6 73 18.5 73 18.5 73 18.4 73 18.4 73 18.4 72.9L18.3 73ZM42.6 82.3L43.8 82.3 43.8 82.2C43.8 82.2 43.8 82.2 43.8 82.1 43.7 82.1 43.7 82.1 43.7 82L42.7 80.1C42.8 80 43.3 79.5 43.4 79.4 43.5 79.2 43.6 79.1 43.7 79 43.8 78.9 43.9 78.9 44 78.9L44 78.8 42.7 78.8 42.7 78.9C42.8 78.9 42.8 78.9 42.8 78.9 42.9 78.9 42.9 79 42.9 79 42.9 79 42.9 79.1 42.8 79.1 42.8 79.2 42.7 79.3 42.6 79.3 42.5 79.4 41.6 80.4 41.6 80.4L41.6 79C41.6 78.9 41.6 78.9 41.7 78.9 41.7 78.9 41.7 78.8 41.8 78.8L41.8 78.7 40.6 78.7 40.6 78.8C40.6 78.8 40.7 78.8 40.7 78.8 40.7 78.8 40.8 78.9 40.8 78.9L40.7 81.9C40.7 82 40.6 82 40.6 82 40.6 82.1 40.5 82.1 40.5 82.1L40.5 82.2 41.7 82.2 41.7 82.1C41.6 82.1 41.6 82.1 41.6 82.1 41.5 82.1 41.5 82 41.5 82L41.5 81.3 42.1 80.7C42.1 80.7 42.7 81.9 42.7 81.9 42.7 82 42.7 82 42.7 82 42.7 82.1 42.7 82.1 42.7 82.1 42.6 82.2 42.6 82.2 42.6 82.2L42.6 82.3ZM27.7 78.2L26 77.3 26.4 76.6 27.5 77.2C27.5 77.2 27.5 77.2 27.5 77.3 27.5 77.3 27.5 77.3 27.5 77.4L27.6 77.4 28 76.5 27.9 76.5C27.9 76.5 27.9 76.6 27.9 76.6 27.8 76.6 27.8 76.6 27.8 76.6L26.7 76.1 27 75.5 28.6 76.3C28.7 76.3 28.7 76.4 28.7 76.4 28.7 76.4 28.7 76.5 28.7 76.5L28.7 76.6 29.2 75.6 29.1 75.6C29.1 75.7 29.1 75.7 29 75.7 29 75.7 29 75.7 29 75.7L26.4 74.4 26.4 74.5C26.4 74.5 26.4 74.5 26.4 74.6 26.5 74.6 26.5 74.6 26.4 74.7L25.1 77.4C25.1 77.4 25 77.4 25 77.4 24.9 77.4 24.9 77.4 24.9 77.4L24.8 77.5 27.3 78.8C27.4 78.8 27.4 78.8 27.4 78.8 27.4 78.9 27.4 78.9 27.4 79L27.5 79 28 78.1 27.9 78.1C27.8 78.2 27.7 78.2 27.7 78.2ZM22.5 75.3L21.1 74.3 21.5 73.6 22.5 74.3C22.5 74.4 22.5 74.4 22.5 74.4 22.6 74.5 22.5 74.5 22.5 74.6L22.6 74.6 23.2 73.8 23.1 73.7C23 73.8 23 73.8 23 73.8 22.9 73.8 22.9 73.8 22.9 73.8L21.9 73.1 22.3 72.6 23.8 73.7C23.8 73.7 23.8 73.7 23.8 73.7 23.8 73.8 23.8 73.8 23.8 73.9L23.8 73.9 24.5 73.1 24.4 73C24.4 73.1 24.3 73.1 24.3 73.1 24.3 73.1 24.2 73.1 24.2 73.1L21.9 71.4 21.8 71.5C21.9 71.5 21.9 71.6 21.9 71.6 21.9 71.6 21.9 71.7 21.9 71.7L20.1 74.2C20.1 74.2 20.1 74.2 20 74.2 20 74.2 19.9 74.2 19.9 74.2L19.8 74.3 22.1 75.9C22.2 75.9 22.2 76 22.2 76 22.2 76 22.2 76 22.2 76.1L22.2 76.2 22.9 75.3 22.8 75.3C22.7 75.4 22.6 75.4 22.5 75.3ZM8.5 49.4L6.7 49.8C6.5 49.8 6.3 49.9 6.2 50 6 50.1 5.9 50.2 5.7 50.3 5.6 50.5 5.6 50.7 5.5 50.9 5.5 51.1 5.5 51.3 5.5 51.6 5.6 51.8 5.7 52.1 5.8 52.2 5.9 52.4 6.1 52.5 6.2 52.6 6.4 52.7 6.6 52.7 6.7 52.8 6.9 52.8 7.1 52.8 7.3 52.7L9.1 52.3C9.1 52.3 9.2 52.3 9.2 52.4 9.2 52.4 9.2 52.4 9.3 52.5L9.4 52.5 9.1 51.4 9 51.4C9 51.4 9 51.4 9 51.5 9 51.5 8.9 51.5 8.9 51.5L7 51.9C6.8 52 6.6 51.9 6.5 51.8 6.4 51.7 6.3 51.6 6.3 51.4 6.3 51.2 6.3 51.1 6.3 50.9 6.4 50.8 6.5 50.7 6.7 50.7L8.6 50.3C8.7 50.3 8.7 50.3 8.7 50.3 8.7 50.3 8.8 50.3 8.8 50.4L8.9 50.3 8.7 49.2 8.6 49.2C8.6 49.3 8.6 49.3 8.6 49.4 8.6 49.4 8.5 49.4 8.5 49.4ZM15.1 64.8L13.7 66C13.5 66.1 13.4 66.2 13.3 66.4 13.2 66.6 13.1 66.7 13.1 66.9 13 67.1 13 67.3 13.1 67.5 13.2 67.7 13.3 67.9 13.5 68.1 13.6 68.3 13.8 68.5 14 68.6 14.2 68.7 14.4 68.7 14.5 68.7 14.7 68.7 14.9 68.7 15.1 68.6 15.3 68.5 15.4 68.4 15.6 68.3L17 67.1C17 67.1 17 67.1 17.1 67.1 17.1 67.1 17.1 67.1 17.2 67.2L17.3 67.1 16.5 66.3 16.4 66.3C16.4 66.3 16.4 66.4 16.5 66.4 16.5 66.4 16.4 66.5 16.4 66.5L14.9 67.7C14.7 67.8 14.6 67.9 14.5 67.9 14.3 67.8 14.2 67.7 14.1 67.6 13.9 67.4 13.9 67.3 13.9 67.1 13.9 67 13.9 66.9 14.1 66.7L15.6 65.5C15.6 65.5 15.7 65.5 15.7 65.5 15.7 65.5 15.8 65.5 15.8 65.5L15.8 65.4 15.1 64.5 15.1 64.6C15.1 64.6 15.1 64.7 15.1 64.7 15.1 64.8 15.1 64.8 15.1 64.8ZM8.8 60.3L10.8 59.2 10.8 59.2 9.2 61.1 11.7 60.9 11.7 60.9 9.7 62C9.6 62 9.6 62 9.5 62 9.5 61.9 9.5 61.9 9.5 61.9L9.4 61.9 9.9 62.8 10 62.8C10 62.8 10 62.7 10 62.7 10 62.7 10 62.6 10 62.6L12.7 61.2C12.8 61.2 12.8 61.2 12.8 61.2 12.8 61.2 12.9 61.3 12.9 61.3L13 61.2 12.3 60 12.2 60.1C12.2 60.1 12.2 60.1 12.2 60.1 12.2 60.2 12.2 60.2 12.2 60.2 12.2 60.2 12.1 60.2 12 60.2 11.9 60.2 10.9 60.3 10.8 60.3 10.8 60.3 11.5 59.5 11.6 59.4 11.7 59.3 11.7 59.3 11.7 59.3 11.8 59.3 11.8 59.3 11.8 59.3 11.8 59.3 11.8 59.3 11.8 59.4L11.9 59.3 11.3 58.1 11.2 58.1C11.3 58.1 11.3 58.2 11.3 58.2 11.3 58.2 11.2 58.3 11.2 58.3L8.5 59.7C8.5 59.7 8.4 59.7 8.4 59.7 8.4 59.6 8.3 59.6 8.3 59.6L8.2 59.6 8.7 60.5 8.7 60.5C8.7 60.5 8.7 60.4 8.7 60.4 8.7 60.3 8.7 60.3 8.8 60.3ZM76.3 58.1C76.4 58 76.5 57.9 76.5 57.8 76.6 57.8 76.7 57.7 76.8 57.6 76.9 57.6 77.1 57.6 77.2 57.6 77.3 57.6 77.4 57.6 77.6 57.7 77.7 57.8 77.8 57.8 77.9 57.9 78 58 78.1 58.1 78.1 58.2 78.1 58.3 78.2 58.4 78.2 58.5 78.2 58.6 78.1 58.8 78.1 58.9 78 59 78 59.1 77.9 59.2 77.8 59.2 77.7 59.3 77.6 59.3 77.5 59.4 77.4 59.4 77.3 59.4 77.1 59.4 77 59.3 76.9 59.3 76.7 59.2 76.6 59.2 76.5 59.1 76.5 59 76.4 58.9 76.3 58.8 76.3 58.7 76.3 58.6 76.3 58.4 76.3 58.3 76.3 58.2 76.3 58.1ZM75.6 57.8C75.5 58 75.5 58.2 75.4 58.4 75.4 58.6 75.4 58.8 75.5 59 75.6 59.2 75.7 59.4 75.9 59.6 76 59.8 76.3 59.9 76.6 60 76.8 60.2 77.1 60.2 77.4 60.2 77.6 60.2 77.8 60.2 78 60.1 78.2 60 78.4 59.9 78.5 59.7 78.7 59.5 78.8 59.4 78.8 59.2 78.9 59 79 58.8 79 58.6 79 58.4 79 58.2 78.9 58 78.9 57.8 78.7 57.6 78.6 57.4 78.4 57.2 78.2 57.1 77.9 56.9 77.6 56.8 77.3 56.8 77.1 56.8 76.9 56.8 76.6 56.8 76.4 56.9 76.2 57 76.1 57.1 75.9 57.3 75.8 57.4 75.7 57.6 75.6 57.8ZM75.2 62L74.4 61.6 74.8 61C74.9 60.9 74.9 60.8 75 60.8 75.1 60.8 75.3 60.8 75.4 60.9 75.5 61 75.6 61 75.7 61.2 75.7 61.3 75.6 61.4 75.6 61.5L75.2 62ZM73.6 62.1L76.2 63.6C76.3 63.7 76.3 63.7 76.3 63.7 76.3 63.7 76.3 63.8 76.3 63.8L76.4 63.8 76.9 62.9 76.9 62.8C76.8 62.9 76.8 62.9 76.8 62.9 76.7 62.9 76.7 62.9 76.6 62.9L75.8 62.4 76.2 61.8C76.3 61.6 76.3 61.5 76.4 61.4 76.4 61.2 76.4 61.1 76.4 60.9 76.4 60.8 76.3 60.7 76.3 60.5 76.2 60.4 76 60.3 75.8 60.2 75.6 60 75.4 60 75.3 60 75.1 59.9 75 60 74.9 60 74.7 60.1 74.6 60.1 74.5 60.2 74.4 60.4 74.3 60.5 74.2 60.6L73.4 62 73.5 62.1C73.5 62.1 73.5 62.1 73.5 62.1 73.5 62 73.6 62 73.6 62.1ZM80.5 53.8L77.6 52.9C77.5 52.9 77.5 52.9 77.5 52.8 77.5 52.8 77.5 52.8 77.5 52.7L77.4 52.7 77.1 53.7 77.2 53.8C77.2 53.7 77.3 53.7 77.3 53.7 77.3 53.6 77.3 53.6 77.4 53.7L78.9 54.1C78.7 54.2 77.4 54.7 77.2 54.7 77.1 54.7 77.1 54.8 77 54.7 77 54.7 77 54.7 77 54.7 77 54.6 77 54.6 77 54.6L76.9 54.5 76.4 56 76.5 56C76.5 56 76.5 55.9 76.5 55.9 76.5 55.9 76.6 55.9 76.6 55.9L79.5 56.8C79.6 56.8 79.6 56.9 79.6 56.9 79.6 56.9 79.6 57 79.6 57L79.7 57 80 56 79.9 56C79.9 56 79.9 56.1 79.9 56.1 79.9 56.1 79.8 56.1 79.8 56.1L77.8 55.5 77.8 55.4C78.1 55.4 79.2 55 79.4 54.9 79.6 54.8 79.8 54.7 80 54.7 80.1 54.6 80.2 54.6 80.3 54.6 80.3 54.7 80.3 54.7 80.3 54.7 80.3 54.8 80.3 54.8 80.3 54.9L80.4 54.9 80.7 53.7 80.6 53.7C80.6 53.8 80.6 53.8 80.6 53.8 80.5 53.9 80.5 53.9 80.5 53.8ZM60.8 77.9L59.6 75.1C59.5 75.1 59.5 75 59.6 75 59.6 75 59.6 74.9 59.7 74.9L59.6 74.8 58.6 75.3 58.7 75.4C58.7 75.4 58.8 75.4 58.8 75.4 58.8 75.4 58.9 75.4 58.9 75.5L59.5 76.9C59.3 76.8 58.1 76.1 58 76.1 57.9 76 57.9 76 57.9 76 57.8 75.9 57.8 75.9 57.9 75.8 57.9 75.8 57.9 75.8 57.9 75.8L57.9 75.7 56.5 76.3 56.5 76.4C56.6 76.3 56.6 76.3 56.7 76.3 56.7 76.3 56.7 76.4 56.8 76.4L58 79.2C58 79.2 58 79.2 58 79.3 58 79.3 58 79.3 57.9 79.3L58 79.4 59 79 58.9 78.9C58.9 78.9 58.8 79 58.8 79 58.8 78.9 58.7 78.9 58.7 78.9L57.8 77 57.9 77C58.1 77.1 59.1 77.7 59.4 77.8 59.6 77.9 59.7 78 59.9 78.1 60 78.2 60.1 78.2 60.1 78.3 60.1 78.3 60.1 78.3 60.1 78.4 60.1 78.4 60 78.4 60 78.4L60 78.5 61.1 78 61 77.9C61 77.9 61 77.9 60.9 77.9 60.9 77.9 60.8 77.9 60.8 77.9ZM65.5 71L64.6 71.7 64.6 71.8C64.7 71.8 64.7 71.7 64.8 71.7 64.8 71.7 64.8 71.7 64.9 71.8L66.7 74.1C66.8 74.2 66.8 74.2 66.7 74.3 66.7 74.3 66.7 74.3 66.6 74.4L66.7 74.5 67.7 73.7 67.6 73.6C67.6 73.6 67.5 73.7 67.5 73.7 67.5 73.7 67.4 73.7 67.4 73.6L65.5 71.3C65.5 71.2 65.5 71.2 65.5 71.1 65.5 71.1 65.6 71.1 65.6 71L65.5 71ZM55.9 76.5L54.7 76.9 54.7 77C54.8 77 54.8 77 54.9 77 54.9 77 55 77 55 77.1L56 79.9C56 80 56 80 56 80 55.9 80.1 55.9 80.1 55.8 80.1L55.9 80.2 57 79.8 57 79.7C57 79.7 56.9 79.7 56.9 79.7 56.8 79.7 56.8 79.7 56.8 79.6L55.8 76.8C55.8 76.8 55.8 76.7 55.8 76.7 55.8 76.7 55.9 76.6 55.9 76.6L55.9 76.5ZM50.7 78.1L50.6 77.8C50.5 77.9 50.4 78 50.3 78.1 50.2 78.2 50.1 78.3 50.1 78.4 50 78.5 50 78.7 49.9 78.8 49.9 78.9 49.9 79.1 49.9 79.3 50 79.5 50 79.6 50.1 79.7 50.2 79.9 50.4 79.9 50.5 79.9 50.7 79.8 50.8 79.8 50.8 79.7 50.9 79.6 50.9 79.4 50.9 79.2 50.9 79 50.8 78.9 50.7 78.8 50.5 78.8 50.4 78.8 50.3 78.8 50.3 78.6 50.3 78.5 50.4 78.4 50.5 78.2 50.6 78.1 50.7 78.1ZM73.1 66.3L72.5 67.1 71.7 65.9 73.1 66.3ZM74.3 66.8L74.9 66 74.8 65.9C74.8 66 74.8 66 74.8 66 74.7 66 74.7 66 74.7 66 74.6 65.9 71.9 65.1 71.8 65.1 71.7 65 71.6 65 71.6 65 71.5 65 71.5 64.9 71.6 64.9L71.5 64.8 70.7 65.9 70.7 65.9C70.8 65.9 70.8 65.9 70.9 65.9 70.9 65.9 70.9 66 71.1 66.2 71.2 66.4 72.4 68.3 72.6 68.7 72.6 68.7 72.6 68.7 72.6 68.7 72.6 68.8 72.6 68.8 72.6 68.8L72.7 68.9 73.3 68.1 73.2 68.1C73.2 68.1 73.2 68.1 73.2 68.1 73.2 68.1 73.1 68.1 73.1 68.1 73.1 68.1 73.1 68.1 73 68 73 68 72.8 67.7 72.8 67.7L73.7 66.5C73.7 66.5 74.1 66.6 74.1 66.6 74.2 66.7 74.2 66.7 74.2 66.7 74.2 66.7 74.3 66.7 74.2 66.7 74.2 66.8 74.2 66.8 74.2 66.8L74.3 66.8ZM63 75.5L62.1 76 61.8 74.6 63 75.5ZM63.9 76.4L64.8 75.8 64.7 75.8C64.7 75.8 64.7 75.8 64.6 75.8 64.6 75.8 64.6 75.8 64.6 75.7 64.5 75.7 62.3 73.9 62.2 73.8 62.1 73.7 62 73.7 62 73.7 62 73.6 62 73.6 62 73.6L62 73.5 60.9 74.2 60.9 74.2C60.9 74.2 61 74.2 61 74.3 61 74.3 61.1 74.4 61.1 74.6 61.1 74.8 61.6 77.1 61.7 77.5 61.7 77.5 61.7 77.5 61.6 77.6 61.6 77.6 61.6 77.6 61.6 77.6L61.6 77.7 62.5 77.3 62.4 77.2C62.4 77.2 62.4 77.2 62.4 77.2 62.4 77.2 62.3 77.2 62.3 77.2 62.3 77.1 62.3 77.1 62.3 77.1 62.3 77 62.2 76.6 62.2 76.6L63.5 75.9C63.5 75.9 63.8 76.1 63.8 76.1 63.8 76.2 63.9 76.2 63.9 76.2 63.9 76.2 63.9 76.3 63.9 76.3 63.9 76.3 63.9 76.3 63.8 76.3L63.9 76.4ZM53.7 79.6L52.7 79.8 52.8 78.4 53.7 79.6ZM54.3 80.7L55.3 80.4 55.3 80.3C55.3 80.3 55.3 80.3 55.2 80.3 55.2 80.3 55.2 80.3 55.2 80.3 55.1 80.1 53.4 77.9 53.4 77.8 53.3 77.6 53.2 77.6 53.2 77.6 53.2 77.5 53.3 77.5 53.3 77.5L53.3 77.4 52 77.7 52 77.8C52.1 77.8 52.1 77.8 52.1 77.9 52.1 77.9 52.1 78 52.1 78.2 52.1 78.4 51.9 80.8 51.9 81.1 51.9 81.2 51.9 81.2 51.9 81.2 51.8 81.2 51.8 81.2 51.8 81.3L51.8 81.4 52.7 81.1 52.7 81C52.7 81 52.7 81 52.7 81.1 52.6 81.1 52.6 81 52.6 81 52.6 81 52.6 80.9 52.6 80.9 52.6 80.9 52.6 80.5 52.6 80.4L54.1 80C54.1 80.1 54.3 80.4 54.3 80.4 54.4 80.5 54.4 80.5 54.4 80.5 54.4 80.6 54.4 80.6 54.4 80.6 54.3 80.6 54.3 80.6 54.3 80.6L54.3 80.7ZM71.5 70.1L72.4 69.2 72.3 69.1C72.3 69.1 72.3 69.2 72.2 69.2 72.2 69.2 72.2 69.2 72.1 69.2L70 68.6C70 68.5 70 67.8 69.9 67.6 69.9 67.4 69.9 67.3 69.9 67.1 69.9 67 69.9 66.9 70 66.8L69.9 66.8 69.1 67.7 69.1 67.7C69.2 67.7 69.2 67.7 69.2 67.7 69.3 67.7 69.3 67.7 69.3 67.7 69.3 67.7 69.4 67.8 69.4 67.9 69.4 67.9 69.4 68 69.4 68.1 69.4 68.3 69.5 69.6 69.5 69.7L68.5 68.6C68.4 68.6 68.4 68.6 68.4 68.5 68.4 68.5 68.5 68.5 68.5 68.4L68.4 68.4 67.6 69.2 67.6 69.3C67.7 69.2 67.7 69.2 67.7 69.2 67.8 69.2 67.8 69.2 67.8 69.2L70 71.3C70 71.4 70.1 71.4 70 71.4 70 71.5 70 71.5 70 71.5L70.1 71.6 70.9 70.8 70.8 70.7C70.8 70.7 70.8 70.8 70.7 70.8 70.7 70.8 70.7 70.8 70.6 70.7L70.2 70.3 70.1 69.4C70.1 69.4 71.3 69.8 71.4 69.8 71.4 69.8 71.5 69.8 71.5 69.9 71.5 69.9 71.5 69.9 71.5 70 71.5 70 71.5 70.1 71.5 70.1L71.5 70.1ZM51.8 76.8L51.9 77.3 53.1 76.9 53 76.4 51.8 76.8ZM51.8 77L53 76.7M81.9 33.6L82.2 33.5C82.1 33.4 82 33.2 81.8 33.1 81.7 33 81.5 32.8 81.4 32.7 81.2 32.7 81 32.6 80.8 32.6 80.6 32.5 80.4 32.5 80.2 32.6 80 32.7 79.8 32.8 79.6 33 79.5 33.1 79.4 33.3 79.5 33.6 79.6 33.8 79.7 33.9 79.8 34 80 34.1 80.2 34.1 80.4 34.1 80.7 34 80.8 33.9 80.9 33.7 80.9 33.5 81 33.3 80.9 33.1 81.1 33.1 81.3 33.1 81.5 33.2 81.7 33.3 81.8 33.5 81.9 33.6ZM82 36.6L81.6 34.7 81.5 34.8C81.5 34.9 81.5 34.9 81.5 35 81.5 35 81.5 35.1 81.4 35.1L77.6 35.9C77.5 35.9 77.5 35.9 77.4 35.9 77.4 35.8 77.4 35.7 77.3 35.6L77.2 35.7 77.6 37.5 77.7 37.5C77.7 37.4 77.7 37.3 77.7 37.2 77.7 37.2 77.8 37.1 77.8 37.1L81.7 36.3C81.7 36.3 81.8 36.3 81.8 36.4 81.8 36.4 81.9 36.5 81.9 36.6L82 36.6ZM10.4 22.3L9.5 23.8 9.6 23.9C9.6 23.8 9.7 23.8 9.7 23.7 9.8 23.7 9.8 23.7 9.9 23.7L13.2 25.8C13.3 25.8 13.3 25.8 13.3 25.9 13.3 26 13.3 26 13.2 26.1L13.3 26.2 14.3 24.6 14.2 24.5C14.1 24.6 14.1 24.7 14 24.7 14 24.7 14 24.7 13.9 24.7L10.5 22.7C10.5 22.6 10.5 22.6 10.5 22.5 10.5 22.5 10.5 22.4 10.5 22.3L10.4 22.3ZM32.1 5.9L30.4 6.4 30.4 6.6C30.5 6.5 30.6 6.5 30.7 6.5 30.7 6.5 30.7 6.6 30.8 6.6L32 10.4C32 10.4 32 10.5 32 10.5 31.9 10.6 31.9 10.6 31.8 10.6L31.8 10.7 33.6 10.2 33.5 10.1C33.4 10.1 33.4 10.1 33.3 10.1 33.2 10.1 33.2 10 33.2 10L32 6.3C31.9 6.2 31.9 6.1 32 6.1 32 6.1 32.1 6 32.2 6L32.1 5.9ZM80.7 31.2L80.1 29.5 79.9 29.5C80 29.6 80 29.7 80 29.8 80 29.8 79.9 29.9 79.9 29.9L76.2 31.2C76.1 31.2 76.1 31.2 76 31.2 76 31.1 76 31.1 75.9 31L75.8 31 76.4 32.8 76.5 32.7C76.5 32.7 76.5 32.6 76.5 32.5 76.5 32.5 76.5 32.4 76.6 32.4L80.3 31.1C80.4 31 80.4 31 80.4 31.1 80.5 31.1 80.5 31.2 80.6 31.3L80.7 31.2ZM73.4 18.2L72.4 17 72.3 17.1C72.3 17.1 72.3 17.2 72.3 17.2 72.3 17.2 72.3 17.3 72.3 17.3 72.2 17.3 69.9 20.6 69.9 20.6 69.8 20.6 69.7 20.6 69.6 20.5L69.5 20.6 70.7 22.1 70.8 22C70.8 21.9 70.8 21.9 70.7 21.8 70.7 21.8 70.7 21.7 70.8 21.7 70.8 21.7 70.9 21.7 71 21.6 71.1 21.6 72.8 21 73 20.9 73.1 20.9 73.2 20.8 73.3 20.8L73.3 20.8C73.2 20.9 73.2 21 73.1 21.1 73 21.2 72 22.7 71.9 22.8 71.8 22.9 71.8 23 71.7 23 71.7 23 71.6 23 71.5 22.9L71.4 22.9 72.5 24.6 72.6 24.5C72.5 24.3 72.5 24.2 72.6 24.2 72.6 24.1 76.2 22.8 76.2 22.8 76.3 22.7 76.4 22.7 76.4 22.7 76.5 22.7 76.5 22.7 76.6 22.8L76.7 22.7 75.9 21.5 75.8 21.5C75.8 21.6 75.8 21.6 75.8 21.7 75.9 21.7 75.8 21.8 75.8 21.8 75.7 21.9 73.4 22.8 73.3 22.8L73.3 22.8C73.3 22.8 74.6 20.8 74.7 20.7 74.8 20.6 74.8 20.6 74.9 20.6 74.9 20.5 75 20.5 75 20.5 75.1 20.6 75.1 20.6 75.2 20.6L75.3 20.6 74.1 19.1 74 19.2C74.1 19.2 74.1 19.3 74.1 19.3 74.1 19.4 74.1 19.4 74 19.5 74 19.5 73.9 19.5 73.8 19.6 73.7 19.6 71.5 20.4 71.4 20.4L71.4 20.4C71.5 20.3 73 18.2 73.1 18.2 73.1 18.2 73.2 18.2 73.2 18.2 73.3 18.2 73.3 18.3 73.4 18.3L73.4 18.2ZM76.2 27.7L75.5 26.4 77.4 26.2 76.2 27.7ZM74.9 28.9L75.6 30.4 75.7 30.3C75.6 30.3 75.6 30.3 75.6 30.2 75.6 30.2 75.6 30.1 75.7 30.1 75.8 30 78.3 26.9 78.4 26.8 78.5 26.7 78.5 26.6 78.6 26.6 78.6 26.6 78.7 26.6 78.7 26.7L78.8 26.6 77.9 24.9 77.8 24.9C77.9 25 77.9 25.1 77.8 25.1 77.8 25.1 77.6 25.1 77.4 25.2 77.1 25.2 73.9 25.5 73.4 25.6 73.3 25.6 73.3 25.6 73.3 25.5 73.2 25.5 73.2 25.5 73.2 25.4L73.1 25.5 73.8 26.7 73.9 26.7C73.9 26.7 73.9 26.6 73.9 26.6 73.9 26.6 73.9 26.5 73.9 26.5 73.9 26.5 74 26.5 74.1 26.5 74.1 26.5 74.6 26.4 74.7 26.4L75.7 28.4C75.6 28.4 75.3 28.8 75.3 28.9 75.2 28.9 75.2 28.9 75.2 28.9 75.1 29 75.1 29 75.1 28.9 75 28.9 75 28.9 75 28.9L74.9 28.9ZM68.4 17L67.2 16 69 15.2 68.4 17ZM67.6 18.6L68.7 19.7 68.8 19.6C68.8 19.6 68.7 19.6 68.7 19.5 68.7 19.5 68.7 19.5 68.7 19.4 68.8 19.3 70 15.6 70.1 15.4 70.1 15.2 70.2 15.1 70.2 15.1 70.2 15.1 70.3 15.1 70.3 15.1L70.4 15 69 13.7 68.9 13.8C69 13.9 69 13.9 68.9 14 68.9 14 68.8 14.1 68.6 14.2 68.3 14.3 65.4 15.8 65 16 64.9 16 64.9 16 64.9 16 64.8 16 64.8 16 64.8 15.9L64.7 16 65.8 16.9 65.9 16.8C65.8 16.8 65.8 16.8 65.8 16.8 65.8 16.8 65.8 16.7 65.8 16.7 65.8 16.7 65.9 16.7 65.9 16.6 66 16.6 66.5 16.4 66.5 16.4L68.1 17.8C68.1 17.8 67.9 18.3 67.9 18.4 67.9 18.5 67.8 18.5 67.8 18.5 67.8 18.6 67.8 18.6 67.7 18.6 67.7 18.5 67.7 18.5 67.7 18.5L67.6 18.6ZM62 12L63.8 13.1 62.9 14.4C62.9 14.5 62.9 14.5 62.8 14.5 62.7 14.5 62.7 14.4 62.6 14.4L62.6 14.5 64 15.5 64.1 15.4C64 15.4 64 15.3 63.9 15.3 63.9 15.2 63.9 15.2 63.9 15.1L66 11.8C66.1 11.7 66.1 11.7 66.2 11.7 66.2 11.7 66.3 11.8 66.3 11.8L66.4 11.7 65 10.7 64.9 10.8C64.9 10.8 65 10.9 65 10.9 65.1 11 65.1 11 65 11.1L64.3 12.2 62.6 11.1 63.3 10C63.3 9.9 63.4 9.9 63.4 9.9 63.5 9.9 63.5 9.9 63.6 10L63.6 9.9 62.1 9 62.1 9.1C62.1 9.1 62.2 9.2 62.2 9.2 62.2 9.3 62.2 9.3 62.2 9.4L60.1 12.7C60.1 12.8 60 12.8 60 12.8 59.9 12.8 59.9 12.8 59.8 12.7L59.7 12.8 61.3 13.7 61.3 13.6C61.3 13.6 61.2 13.5 61.2 13.5 61.2 13.4 61.2 13.4 61.2 13.3L62 12ZM54.5 6.2L53.3 9.9C53.2 9.9 53.2 10 53.1 10 53.1 10 53 10 52.9 10L52.9 10.1 54.6 10.6 54.6 10.5C54.6 10.4 54.5 10.4 54.5 10.4 54.4 10.3 54.4 10.3 54.4 10.2L54.9 8.9 56.5 9.5C56.5 9.5 56.6 9.5 56.6 9.5 56.6 9.6 56.6 9.6 56.6 9.7L56.7 9.8 57.1 8.5 57 8.4C57 8.5 57 8.6 56.9 8.6 56.9 8.6 56.8 8.6 56.8 8.6L55.2 8 55.5 7.2 57.9 8C57.9 8 57.9 8 58 8.1 58 8.1 58 8.2 57.9 8.3L58.1 8.3 58.5 7 58.4 7C58.4 7 58.3 7.1 58.3 7.1 58.2 7.1 58.2 7.1 58.2 7.1L54.4 5.8 54.3 5.9C54.4 5.9 54.5 6 54.5 6 54.5 6 54.6 6.1 54.5 6.2ZM50.5 5.9C50.7 6 50.9 6 51 6.1 51.2 6.2 51.3 6.3 51.4 6.4 51.5 6.6 51.5 6.7 51.6 6.9 51.6 7 51.6 7.2 51.6 7.4 51.5 7.6 51.5 7.7 51.4 7.9 51.3 8 51.2 8.1 51 8.2 50.9 8.3 50.8 8.3 50.6 8.4 50.4 8.4 50.3 8.4 50.1 8.4 49.9 8.3 49.8 8.3 49.6 8.2 49.5 8.1 49.4 8 49.3 7.9 49.2 7.7 49.1 7.6 49.1 7.4 49 7.3 49 7.1 49.1 6.9 49.1 6.7 49.2 6.6 49.3 6.4 49.4 6.3 49.5 6.2 49.6 6.1 49.7 6 49.9 6 50 5.9 50.2 5.9 50.4 5.9 50.5 5.9ZM50.7 4.9C50.5 4.8 50.2 4.8 49.9 4.8 49.6 4.9 49.3 5 49 5.1 48.7 5.2 48.5 5.4 48.3 5.7 48.1 6 48 6.3 47.9 6.7 47.8 7.1 47.8 7.4 47.9 7.8 48 8.1 48.1 8.3 48.3 8.6 48.5 8.8 48.8 9 49 9.1 49.3 9.2 49.6 9.3 49.9 9.4 50.2 9.5 50.5 9.5 50.8 9.4 51.1 9.4 51.4 9.3 51.6 9.2 51.9 9.1 52.1 8.9 52.3 8.6 52.5 8.3 52.7 8 52.8 7.6 52.8 7.2 52.8 6.9 52.7 6.5 52.6 6.2 52.5 6 52.3 5.7 52.1 5.5 51.9 5.3 51.6 5.2 51.3 5 51 4.9 50.7 4.9ZM42.3 8.5L42.2 7.1 43.7 4.5C43.7 4.4 43.7 4.4 43.8 4.4 43.8 4.4 43.9 4.4 43.9 4.4L43.9 4.2 42.1 4.2 42.1 4.4C42.1 4.4 42.2 4.4 42.2 4.4 42.3 4.4 42.3 4.4 42.3 4.5 42.3 4.5 42.2 4.6 42.2 4.7 42.1 4.9 41.6 5.8 41.5 5.9 41.5 5.8 40.8 4.9 40.7 4.8 40.6 4.7 40.6 4.6 40.6 4.6 40.6 4.5 40.6 4.5 40.7 4.5 40.7 4.4 40.8 4.4 40.8 4.4L40.8 4.3 38.8 4.5 38.8 4.6C38.9 4.6 38.9 4.6 39 4.6 39 4.6 39.1 4.7 39.1 4.7L41 7.2 41 8.5C41 8.6 41 8.7 41 8.7 40.9 8.7 40.9 8.7 40.9 8.7L40.9 8.8 42.5 8.8 42.5 8.6C42.4 8.6 42.4 8.6 42.4 8.6 42.3 8.6 42.3 8.5 42.3 8.5ZM37.6 4.6L33.8 5.4C33.7 5.4 33.7 5.4 33.7 5.4 33.6 5.4 33.6 5.3 33.6 5.2L33.5 5.2 33.8 6.7 33.9 6.7C33.8 6.6 33.9 6.5 33.9 6.5 33.9 6.5 33.9 6.4 34 6.4L35.3 6.2 35.9 9.3C35.9 9.3 35.9 9.4 35.9 9.4 35.8 9.5 35.8 9.5 35.7 9.5L35.8 9.6 37.4 9.3 37.4 9.2C37.3 9.2 37.3 9.2 37.2 9.1 37.2 9.1 37.1 9.1 37.1 9L36.5 5.9 37.8 5.7C37.8 5.7 37.9 5.7 37.9 5.7 38 5.7 38 5.8 38 5.9L38.1 5.8 37.8 4.4 37.7 4.4C37.7 4.5 37.7 4.5 37.7 4.6 37.7 4.6 37.6 4.6 37.6 4.6ZM26.6 11.3L26.8 12.7 26.9 12.7C26.9 12.6 26.9 12.6 26.9 12.6 27 12.5 27 12.5 27 12.5 27 12.5 27.1 12.5 27.2 12.4 27.4 12.4 27.5 12.4 27.7 12.3 27.9 12.3 28.1 12.3 28.3 12.2 28.6 12.1 28.8 12 29 11.9 29.3 11.8 29.6 11.6 29.8 11.5 30 11.3 30.1 11.1 30.2 10.9 30.3 10.7 30.4 10.5 30.4 10.3 30.4 10.1 30.3 9.9 30.2 9.8 30.1 9.5 29.9 9.3 29.7 9.2 29.5 9.1 29.3 9.1 29.1 9.1 28.8 9.1 28.6 9.2 28.3 9.2 28.1 9.3 27.8 9.4 27.6 9.4 27.4 9.5 27.2 9.5 27 9.6 26.9 9.6 26.8 9.5 26.7 9.4 26.7 9.3 26.7 9.2 26.7 9.1 26.8 9 26.9 9 27 8.9 27.1 8.8 27.2 8.7 27.3 8.7 27.4 8.6 27.5 8.6 27.5 8.6 27.7 8.5 27.8 8.5 28 8.4 28.1 8.4 28.2 8.4 28.4 8.3 28.5 8.3 28.6 8.3 28.7 8.3 28.8 8.3 28.8 8.3 28.8 8.4 28.8 8.4 28.8 8.4 28.9 8.4 28.9 8.5 28.9 8.5 28.9 8.5L29 8.5 29 7.1 28.9 7.1C28.9 7.1 28.8 7.2 28.8 7.2 28.8 7.2 28.8 7.3 28.7 7.3 28.7 7.3 28.6 7.3 28.5 7.4 28.4 7.4 28.2 7.4 28.1 7.4 27.9 7.5 27.7 7.5 27.5 7.6 27.3 7.6 27.1 7.7 27 7.8 26.6 8 26.3 8.2 26.1 8.4 25.9 8.6 25.8 8.8 25.7 9 25.6 9.2 25.6 9.4 25.6 9.6 25.6 9.8 25.6 9.9 25.7 10.1 25.8 10.3 26 10.5 26.2 10.6 26.4 10.7 26.6 10.7 26.9 10.7 27.1 10.7 27.3 10.6 27.6 10.5 27.9 10.5 28.1 10.4 28.3 10.3 28.5 10.3 28.7 10.2 28.9 10.2 29 10.2 29.1 10.3 29.2 10.4 29.2 10.5 29.2 10.6 29.2 10.6 29.2 10.7 29.1 10.8 29 10.9 29 10.9 28.9 11 28.8 11 28.7 11.1 28.7 11.1 28.6 11.1 28.4 11.2 28.3 11.3 28 11.3 27.8 11.4 27.6 11.4 27.5 11.5 27.3 11.5 27.1 11.5 27 11.5 26.8 11.5 26.8 11.5 26.7 11.4 26.7 11.4 26.7 11.4 26.7 11.3 26.7 11.3 26.7 11.3 26.7 11.3L26.6 11.3ZM22 13.1L21.3 12.2 22.4 11.5C22.6 11.3 22.8 11.2 22.9 11.3 23.1 11.3 23.2 11.4 23.3 11.5 23.4 11.7 23.4 11.8 23.4 12 23.3 12.1 23.2 12.2 23.1 12.3L22 13.1ZM20 12.4L22.2 15.6C22.3 15.7 22.3 15.7 22.3 15.8 22.2 15.8 22.2 15.8 22.2 15.9L22.3 16 23.5 15 23.5 14.9C23.4 15 23.4 15 23.3 15 23.3 15 23.2 15 23.2 14.9L22.4 13.7 23.1 13.2C23.2 13.3 24.2 13.8 24.3 13.9 24.4 14 24.5 14 24.5 14 24.6 14.1 24.6 14.1 24.5 14.2 24.5 14.2 24.5 14.3 24.4 14.3L24.5 14.4 26.1 13.3 26.1 13.2C26 13.3 25.9 13.3 25.9 13.3 25.8 13.3 25.7 13.3 25.7 13.3L24.1 12.5C24.3 12.3 24.4 12 24.5 11.7 24.5 11.4 24.4 11.1 24.2 10.8 23.9 10.4 23.6 10.2 23.3 10.2 22.9 10.1 22.5 10.2 22.1 10.5L19.7 12.2 19.8 12.3C19.8 12.3 19.9 12.3 19.9 12.3 20 12.3 20 12.3 20 12.4ZM20.4 16.3L18.5 18.1 17.8 17.4 19.1 16.2C19.1 16.1 19.1 16.1 19.2 16.1 19.2 16.1 19.3 16.2 19.3 16.2L19.4 16.1 18.5 15.2 18.4 15.3C18.5 15.3 18.5 15.4 18.5 15.4 18.5 15.5 18.5 15.5 18.5 15.5L17.2 16.7 16.6 16.1 18.6 14.3C18.6 14.2 18.7 14.2 18.7 14.2 18.8 14.2 18.8 14.3 18.9 14.3L19 14.3 18 13.3 18 13.3C18 13.4 18.1 13.5 18.1 13.5 18 13.6 18 13.6 18 13.6L14.9 16.5 15 16.6C15.1 16.6 15.1 16.5 15.2 16.5 15.2 16.5 15.3 16.5 15.3 16.6L18 19.4C18 19.5 18 19.5 18 19.6 18 19.6 18 19.7 17.9 19.7L18 19.8 21 16.9C21 16.9 21.1 16.9 21.1 16.8 21.2 16.8 21.2 16.8 21.3 16.9L21.4 16.8 20.5 15.9 20.4 15.9C20.5 16.1 20.5 16.2 20.4 16.3ZM11.2 21.2L11.3 21.3C11.3 21.2 11.3 21.2 11.3 21.2 11.3 21.2 11.3 21.2 11.4 21.2 11.4 21.2 11.5 21.2 11.7 21.2 11.9 21.3 14.8 22.4 15 22.5 15.2 22.5 15.3 22.6 15.3 22.6 15.4 22.6 15.4 22.7 15.4 22.7 15.4 22.8 15.4 22.8 15.4 22.9L15.5 22.9 16.7 21.4 16.6 21.3C16.5 21.3 16.5 21.4 16.5 21.4 16.4 21.4 16.4 21.4 16.3 21.4 16.3 21.4 16.2 21.3 16.1 21.1 16 20.9 14.2 17.9 14.1 17.8 14.1 17.8 14.1 17.7 14.1 17.7 14.1 17.7 14.1 17.6 14.1 17.6L14 17.5 13 18.7 13.1 18.8C13.1 18.7 13.2 18.7 13.2 18.7 13.3 18.6 13.3 18.6 13.3 18.6 13.4 18.7 13.4 18.8 13.5 18.9 13.6 19.1 14.7 20.8 14.8 21L14.8 21C14.7 21 12.5 20.2 12.4 20.2 12.3 20.1 12.2 20.1 12.2 20.1 12.2 20.1 12.2 20 12.2 20 12.2 19.9 12.2 19.9 12.3 19.8L12.2 19.8 11.2 21.2ZM12.4 27.3L8.8 25.7C8.7 25.7 8.7 25.7 8.7 25.6 8.7 25.6 8.7 25.5 8.7 25.4L8.6 25.4 7.9 26.8 8 26.9C8 26.8 8.1 26.8 8.1 26.7 8.2 26.7 8.2 26.7 8.3 26.7L10.1 27.6C9.9 27.6 9.6 27.7 9.3 27.8 9 27.9 8.7 28 8.5 28 8.2 28.1 8 28.2 7.9 28.2 7.7 28.3 7.7 28.3 7.6 28.3 7.5 28.3 7.5 28.2 7.5 28.1 7.5 28.1 7.5 28 7.5 28L7.4 28 6.6 30 6.7 30.1C6.7 30 6.8 29.9 6.8 29.9 6.8 29.9 6.9 29.9 7 29.9L10.5 31.5C10.6 31.5 10.6 31.6 10.6 31.6 10.6 31.7 10.6 31.7 10.6 31.8L10.7 31.8 11.3 30.3 11.2 30.3C11.2 30.4 11.1 30.4 11.1 30.4 11 30.5 11 30.5 10.9 30.4L8.5 29.4 8.5 29.3C8.9 29.2 9.3 29.1 9.7 29 10 28.9 10.4 28.8 10.7 28.7 11 28.6 11.3 28.5 11.5 28.4 11.7 28.4 11.8 28.4 11.9 28.4 11.9 28.4 11.9 28.5 11.9 28.5 11.9 28.6 11.9 28.6 11.9 28.7L12 28.7 12.8 27.2 12.6 27.2C12.6 27.2 12.6 27.3 12.5 27.3 12.5 27.3 12.4 27.4 12.4 27.3ZM5.2 36.4L7.3 36.9C7.6 37 7.8 37 8.1 37 8.3 37 8.6 36.9 8.8 36.8 9 36.7 9.2 36.5 9.3 36.2 9.5 36 9.6 35.7 9.7 35.3 9.8 34.9 9.9 34.5 9.8 34.2 9.8 33.9 9.7 33.7 9.6 33.5 9.4 33.3 9.3 33.1 9.1 33 8.8 32.9 8.6 32.8 8.3 32.7L6.2 32.2C6.1 32.1 6.1 32.1 6.1 32.1 6.1 32 6.1 31.9 6.1 31.9L6 31.8 5.5 33.4 5.6 33.5C5.6 33.4 5.7 33.4 5.7 33.4 5.7 33.4 5.8 33.4 5.8 33.4L8.3 34C8.5 34 8.7 34.1 8.7 34.3 8.8 34.5 8.8 34.8 8.7 35 8.7 35.3 8.6 35.5 8.4 35.7 8.3 35.8 8.1 35.8 7.8 35.8L5.4 35.2C5.3 35.2 5.3 35.1 5.3 35.1 5.3 35.1 5.2 35 5.3 35L5.1 35 4.8 36.6 4.9 36.6C4.9 36.6 5 36.5 5 36.4 5 36.4 5.1 36.4 5.2 36.4ZM43.4 85.5C66.5 85.5 85.3 66.7 85.3 43.5 85.3 20.4 66.5 1.5 43.4 1.5 20.3 1.5 1.5 20.4 1.5 43.5 1.5 66.7 20.3 85.5 43.4 85.5ZM43.4 0C67.4 0 86.8 19.5 86.8 43.5 86.8 67.5 67.4 87 43.4 87 19.5 87 0 67.5 0 43.5 0 19.5 19.5 0 43.4 0ZM75.6 43.5C75.6 61.3 61.2 75.7 43.4 75.7 25.7 75.7 11.3 61.3 11.3 43.5 11.3 25.8 25.7 11.4 43.4 11.4 61.2 11.4 75.6 25.8 75.6 43.5ZM202.4 34.8L202.7 34.8C203 34.8 203.2 34.7 203.2 34.4 203.2 34.2 203.1 34 202.7 34 202.6 34 202.5 34 202.4 34L202.4 34.8ZM202.4 35.9L202.2 35.9 202.2 33.9C202.4 33.8 202.5 33.8 202.7 33.8 203 33.8 203.2 33.9 203.3 34 203.4 34.1 203.5 34.2 203.5 34.4 203.5 34.7 203.3 34.8 203.1 34.9L203.1 34.9C203.3 34.9 203.4 35.1 203.4 35.4 203.5 35.7 203.5 35.8 203.6 35.9L203.3 35.9C203.3 35.8 203.2 35.6 203.1 35.4 203.1 35.1 203 35 202.7 35L202.4 35 202.4 35.9ZM202.8 33.3C202 33.3 201.3 34 201.3 34.8 201.3 35.7 202 36.4 202.8 36.4 203.6 36.4 204.3 35.7 204.3 34.8 204.3 34 203.6 33.3 202.8 33.3L202.8 33.3ZM202.8 33C203.8 33 204.6 33.8 204.6 34.8 204.6 35.9 203.8 36.6 202.8 36.6 201.8 36.6 201 35.9 201 34.8 201 33.8 201.8 33 202.8 33L202.8 33Z"/><rect fill="#FFFFFF" x="99.5" y="51.1" width="104.2" height="1.1"/><path fill="#FFFFFF" d="M71.3 84.9L71.2 83.2C71.1 83.1 71.2 82.9 71.2 82.7L71.1 82.7C71.1 82.9 71 83.1 70.9 83.3L70.2 84.9 70 84.9 69.3 83.2C69.3 83.1 69.2 82.9 69.1 82.7L69.1 82.7C69.1 82.9 69.1 83 69.1 83.2L69 84.9 68.7 84.9 68.9 82.5 69.3 82.5 70 84C70 84.2 70.1 84.4 70.1 84.6L70.2 84.6C70.2 84.4 70.3 84.2 70.3 84L71 82.5 71.3 82.5 71.6 84.9 71.3 84.9ZM68.7 82.5L68.7 82.7 67.8 82.7 67.8 84.9 67.5 84.9 67.5 82.7 66.6 82.7 66.6 82.5 68.7 82.5ZM100.9 16.9C100.9 14.2 100.9 13.7 100.9 13.2 100.9 12.6 100.7 12.3 100.2 12.2 100 12.1 99.7 12.1 99.6 12.1 99.5 12.1 99.4 12.1 99.4 12 99.4 11.9 99.5 11.9 99.7 11.9 100.5 11.9 101.6 11.9 101.7 11.9 101.9 11.9 102.9 11.9 103.4 11.9 103.6 11.9 103.7 11.9 103.7 12 103.7 12.1 103.6 12.1 103.6 12.1 103.5 12.1 103.3 12.1 103.1 12.2 102.7 12.2 102.5 12.6 102.5 13.2 102.5 13.7 102.5 14.2 102.5 16.9L102.5 19.4C102.5 21.9 103 23 103.8 23.7 104.6 24.5 105.4 24.6 106.4 24.6 107.5 24.6 108.5 24.1 109.1 23.4 109.9 22.4 110.2 20.9 110.2 19.1L110.2 16.9C110.2 14.2 110.2 13.7 110.1 13.2 110.1 12.6 109.9 12.3 109.4 12.2 109.2 12.1 108.9 12.1 108.8 12.1 108.7 12.1 108.6 12.1 108.6 12 108.6 11.9 108.7 11.9 108.9 11.9 109.7 11.9 110.7 11.9 110.8 11.9 110.9 11.9 111.7 11.9 112.2 11.9 112.4 11.9 112.5 11.9 112.5 12 112.5 12.1 112.4 12.1 112.4 12.1 112.2 12.1 112.1 12.1 111.9 12.2 111.5 12.3 111.3 12.6 111.3 13.2 111.2 13.7 111.2 14.2 111.2 16.9L111.2 18.8C111.2 20.7 111 22.8 109.6 24 108.4 25.1 107.1 25.3 106.1 25.3 105.5 25.3 103.7 25.2 102.5 24.1 101.6 23.2 100.9 22 100.9 19.5L100.9 16.9ZM115.6 23C115.6 24.3 115.8 24.6 116.2 24.7 116.5 24.8 116.8 24.8 117 24.8 117 24.8 117.1 24.9 117.1 24.9 117.1 25 117 25.1 116.8 25.1 115.9 25.1 115.3 25 115.2 25 115 25 114.4 25.1 113.7 25.1 113.5 25.1 113.4 25 113.4 24.9 113.4 24.9 113.5 24.8 113.6 24.8 113.7 24.8 114 24.8 114.2 24.7 114.6 24.6 114.6 24.2 114.6 22.9L114.6 14.4C114.6 13.8 114.7 13.6 114.8 13.6 115 13.6 115.3 13.9 115.4 14.1 115.7 14.3 117.9 16.7 120.3 19.1 121.8 20.7 123.4 22.5 123.9 23L123.7 15.5C123.7 14.6 123.6 14.2 123.2 14.2 122.9 14.1 122.5 14.1 122.4 14.1 122.3 14.1 122.3 14 122.3 14 122.3 13.9 122.4 13.8 122.6 13.8 123.3 13.8 124 13.9 124.2 13.9 124.4 13.9 124.9 13.8 125.5 13.8 125.7 13.8 125.8 13.9 125.8 14 125.8 14 125.7 14.1 125.6 14.1 125.5 14.1 125.4 14.1 125.3 14.1 124.7 14.2 124.7 14.5 124.7 15.4L124.7 24.1C124.7 25.1 124.7 25.2 124.6 25.2 124.4 25.2 124.2 25 123.4 24.3 123.2 24.1 121 21.9 119.4 20.2 117.6 18.4 115.9 16.6 115.4 16L115.6 23ZM130.8 20.8C130.8 22.2 130.8 23.3 130.8 24 130.9 24.4 130.9 24.7 131.4 24.7 131.6 24.8 131.9 24.8 132.1 24.8 132.2 24.8 132.2 24.9 132.2 24.9 132.2 25 132.1 25.1 132 25.1 131.1 25.1 130.1 25 130 25 130 25 129 25.1 128.5 25.1 128.4 25.1 128.3 25 128.3 24.9 128.3 24.9 128.3 24.8 128.4 24.8 128.5 24.8 128.7 24.8 128.9 24.7 129.2 24.7 129.2 24.4 129.3 24 129.3 23.3 129.4 22.2 129.4 20.8L129.4 18.1C129.4 15.8 129.4 15.4 129.3 14.9 129.3 14.4 129.2 14.2 128.8 14.1 128.7 14.1 128.5 14.1 128.4 14.1 128.3 14.1 128.3 14 128.3 14 128.3 13.9 128.3 13.8 128.5 13.8 129 13.8 130 13.9 130 13.9 130.1 13.9 131.1 13.8 131.6 13.8 131.8 13.8 131.8 13.9 131.8 14 131.8 14 131.8 14.1 131.7 14.1 131.6 14.1 131.5 14.1 131.3 14.1 130.9 14.2 130.8 14.4 130.8 14.9 130.8 15.4 130.8 15.8 130.8 18.1L130.8 20.8ZM140.1 23.1C141 21.1 143 16.1 143.3 15 143.4 14.8 143.5 14.6 143.5 14.5 143.5 14.3 143.4 14.2 143.2 14.1 143.1 14.1 142.9 14.1 142.7 14.1 142.6 14.1 142.5 14 142.5 14 142.5 13.9 142.7 13.8 142.9 13.8 143.5 13.8 144.2 13.9 144.4 13.9 144.5 13.9 145.1 13.8 145.6 13.8 145.8 13.8 145.8 13.9 145.8 14 145.8 14 145.8 14.1 145.7 14.1 145.6 14.1 145.2 14.1 144.9 14.3 144.7 14.4 144.5 14.6 144.1 15.6 143.9 16 143.2 17.8 142.4 19.6 141.4 21.8 140.8 23.4 140.4 24.1 140 25 139.9 25.3 139.7 25.3 139.6 25.3 139.5 25.1 139.2 24.3L135.4 15.3C135.1 14.4 134.8 14.3 134.3 14.1 134.1 14.1 133.8 14.1 133.7 14.1 133.7 14.1 133.6 14 133.6 14 133.6 13.9 133.8 13.8 134 13.8 134.8 13.8 135.6 13.9 135.8 13.9 136 13.9 136.7 13.8 137.2 13.8 137.5 13.8 137.7 13.9 137.7 14 137.7 14 137.6 14.1 137.5 14.1 137.3 14.1 137.1 14.1 137 14.2 136.8 14.2 136.8 14.3 136.8 14.4 136.8 14.6 137 15.1 137.2 15.7L140.1 23.1ZM148.5 18.1C148.5 15.8 148.5 15.4 148.5 14.9 148.4 14.4 148.3 14.2 147.8 14.1 147.7 14.1 147.4 14.1 147.3 14.1 147.3 14.1 147.2 14 147.2 14 147.2 13.9 147.3 13.8 147.4 13.8 148.1 13.8 149.1 13.9 149.2 13.9 149.3 13.9 152.5 13.9 152.9 13.9 153.2 13.9 153.4 13.8 153.6 13.8 153.6 13.8 153.7 13.7 153.8 13.7 153.8 13.7 153.8 13.8 153.8 13.9 153.8 14 153.8 14.1 153.7 14.6 153.7 14.7 153.7 15.4 153.6 15.5 153.6 15.6 153.6 15.7 153.5 15.7 153.4 15.7 153.4 15.6 153.4 15.5 153.4 15.4 153.4 15.2 153.3 15 153.2 14.7 153 14.6 152.2 14.5 151.9 14.5 150.2 14.5 150 14.5 149.9 14.5 149.9 14.5 149.9 14.6L149.9 18.7C149.9 18.8 149.9 18.8 150 18.8 150.2 18.8 152.2 18.8 152.5 18.8 152.9 18.7 153.1 18.7 153.3 18.6 153.4 18.5 153.5 18.4 153.5 18.4 153.6 18.4 153.6 18.4 153.6 18.5 153.6 18.6 153.5 18.8 153.5 19.3 153.4 19.6 153.4 20.2 153.4 20.3 153.4 20.4 153.4 20.6 153.3 20.6 153.2 20.6 153.2 20.5 153.2 20.4 153.2 20.3 153.2 20.1 153.1 19.9 153 19.7 152.9 19.5 152.3 19.5 151.9 19.4 150.3 19.4 150 19.4 149.9 19.4 149.9 19.5 149.9 19.5L149.9 20.8C149.9 21.3 149.9 23 149.9 23.3 149.9 24.3 150.2 24.5 151.7 24.5 152.1 24.5 152.9 24.5 153.3 24.3 153.7 24.1 153.9 23.9 154 23.3 154 23.1 154 23.1 154.1 23.1 154.2 23.1 154.2 23.2 154.2 23.3 154.2 23.4 154.1 24.4 154 24.7 153.9 25.1 153.7 25.1 153.2 25.1 152 25.1 151.1 25.1 150.5 25 149.8 25 149.4 25 149.2 25 149.2 25 148.9 25 148.5 25 148.3 25 147.9 25.1 147.7 25.1 147.5 25.1 147.4 25 147.4 24.9 147.4 24.9 147.4 24.8 147.5 24.8 147.7 24.8 147.9 24.8 148 24.7 148.3 24.7 148.3 24.4 148.4 24 148.5 23.3 148.5 22.2 148.5 20.8L148.5 18.1ZM158.8 19.4C158.8 19.5 158.9 19.5 158.9 19.6 159.2 19.7 160 19.8 160.6 19.8 161 19.8 161.4 19.8 161.8 19.5 162.3 19.2 162.7 18.4 162.7 17.3 162.7 15.4 161.7 14.4 160.1 14.4 159.6 14.4 159.1 14.4 159 14.5 158.9 14.5 158.8 14.5 158.8 14.6L158.8 19.4ZM157.5 18.1C157.5 15.8 157.5 15.4 157.5 14.9 157.4 14.4 157.4 14.2 156.8 14.1 156.7 14.1 156.5 14.1 156.3 14.1 156.3 14.1 156.2 14 156.2 14 156.2 13.9 156.3 13.8 156.4 13.8 157.1 13.8 158.2 13.9 158.3 13.9 158.4 13.9 159.7 13.8 160.2 13.8 161.2 13.8 162.2 13.9 163 14.5 163.4 14.8 164.1 15.5 164.1 16.5 164.1 17.6 163.6 18.7 162.2 19.9 163.5 21.5 164.5 22.8 165.4 23.7 166.2 24.6 166.8 24.7 167.1 24.8 167.4 24.8 167.6 24.8 167.7 24.8 167.8 24.8 167.8 24.9 167.8 24.9 167.8 25 167.7 25.1 167.5 25.1L166.5 25.1C165.6 25.1 165.2 25 164.9 24.8 164.2 24.4 163.6 23.7 162.8 22.6 162.1 21.8 161.4 20.8 161.1 20.4 161 20.3 161 20.3 160.9 20.3L158.9 20.3C158.9 20.3 158.8 20.3 158.8 20.4L158.8 20.8C158.8 22.2 158.8 23.3 158.9 24 159 24.4 159 24.7 159.5 24.7 159.7 24.8 160.1 24.8 160.2 24.8 160.3 24.8 160.3 24.9 160.3 24.9 160.3 25 160.2 25.1 160.1 25.1 159.2 25.1 158.3 25 158.2 25 158.2 25 157.1 25.1 156.7 25.1 156.5 25.1 156.4 25 156.4 24.9 156.4 24.9 156.5 24.8 156.6 24.8 156.7 24.8 156.9 24.8 157 24.7 157.3 24.7 157.4 24.4 157.4 24 157.5 23.3 157.5 22.2 157.5 20.8L157.5 18.1ZM168.4 24.8C168.2 24.7 168.1 24.7 168.1 24.3 168.1 23.6 168.2 23 168.2 22.7 168.2 22.6 168.3 22.5 168.4 22.5 168.4 22.5 168.5 22.5 168.5 22.7 168.5 22.8 168.5 23 168.5 23.2 168.8 24.3 169.9 24.7 171 24.7 172.5 24.7 173.3 23.8 173.3 22.7 173.3 21.6 172.7 21.1 171.3 20.1L170.6 19.6C169 18.3 168.4 17.4 168.4 16.4 168.4 14.7 169.8 13.6 171.8 13.6 172.5 13.6 173.1 13.7 173.4 13.8 173.7 13.9 173.8 13.9 174 13.9 174.1 13.9 174.1 13.9 174.1 14 174.1 14 174.1 14.5 174.1 15.5 174.1 15.8 174 15.9 173.9 15.9 173.8 15.9 173.8 15.8 173.8 15.7 173.8 15.5 173.7 15.1 173.6 14.9 173.5 14.8 173 14.2 171.6 14.2 170.5 14.2 169.5 14.8 169.5 15.8 169.5 16.8 170 17.3 171.5 18.3L172 18.6C173.8 19.9 174.5 20.9 174.5 22.2 174.5 23.1 174.1 24 173 24.7 172.4 25.1 171.4 25.3 170.6 25.3 169.9 25.3 169 25.1 168.4 24.8ZM179.4 20.8C179.4 22.2 179.4 23.3 179.4 24 179.5 24.4 179.6 24.7 180 24.7 180.2 24.8 180.6 24.8 180.7 24.8 180.8 24.8 180.8 24.9 180.8 24.9 180.8 25 180.8 25.1 180.6 25.1 179.7 25.1 178.7 25 178.7 25 178.6 25 177.6 25.1 177.1 25.1 177 25.1 176.9 25 176.9 24.9 176.9 24.9 176.9 24.8 177 24.8 177.2 24.8 177.4 24.8 177.5 24.7 177.8 24.7 177.8 24.4 177.9 24 178 23.3 178 22.2 178 20.8L178 18.1C178 15.8 178 15.4 177.9 14.9 177.9 14.4 177.8 14.2 177.5 14.1 177.3 14.1 177.1 14.1 177 14.1 176.9 14.1 176.9 14 176.9 14 176.9 13.9 176.9 13.8 177.1 13.8 177.6 13.8 178.6 13.9 178.7 13.9 178.7 13.9 179.7 13.8 180.2 13.8 180.4 13.8 180.4 13.9 180.4 14 180.4 14 180.4 14.1 180.3 14.1 180.2 14.1 180.1 14.1 179.9 14.1 179.5 14.2 179.4 14.4 179.4 14.9 179.4 15.4 179.4 15.8 179.4 18.1L179.4 20.8ZM188.2 20.8C188.2 22.2 188.2 23.3 188.3 24 188.4 24.4 188.4 24.7 188.9 24.7 189.1 24.8 189.5 24.8 189.6 24.8 189.7 24.8 189.7 24.9 189.7 24.9 189.7 25 189.6 25.1 189.5 25.1 188.6 25.1 187.7 25 187.6 25 187.5 25 186.4 25.1 186 25.1 185.8 25.1 185.7 25 185.7 24.9 185.7 24.9 185.8 24.8 185.9 24.8 186 24.8 186.2 24.8 186.3 24.8 186.6 24.7 186.7 24.4 186.8 24 186.8 23.3 186.8 22.2 186.8 20.8L186.8 14.5 184.6 14.6C183.7 14.6 183.3 14.7 183.1 15 182.9 15.3 182.9 15.4 182.8 15.5 182.8 15.6 182.7 15.6 182.7 15.6 182.6 15.6 182.6 15.6 182.6 15.5 182.6 15.4 182.9 14 182.9 13.9 182.9 13.8 183 13.6 183.1 13.6 183.2 13.6 183.3 13.8 183.7 13.8 184.2 13.9 184.8 13.9 184.9 13.9L190.7 13.9C191.2 13.9 191.6 13.8 191.8 13.8 192.1 13.8 192.2 13.7 192.3 13.7 192.3 13.7 192.3 13.8 192.3 13.9 192.3 14.4 192.3 15.4 192.3 15.6 192.3 15.7 192.2 15.8 192.1 15.8 192.1 15.8 192 15.7 192 15.5L192 15.4C191.9 14.9 191.6 14.6 190.2 14.6L188.2 14.5 188.2 20.8ZM198.6 21.2C198.6 20.4 198.5 20.1 198.2 19.7 198.1 19.5 196 16.2 195.5 15.4 195.1 14.8 194.8 14.5 194.5 14.3 194.3 14.2 194 14.1 193.9 14.1 193.8 14.1 193.7 14 193.7 14 193.7 13.9 193.7 13.8 193.9 13.8 194.2 13.8 195.3 13.9 195.4 13.9 195.5 13.9 196.1 13.8 196.7 13.8 196.9 13.8 196.9 13.9 196.9 14 196.9 14 196.8 14.1 196.7 14.1 196.6 14.2 196.5 14.2 196.5 14.4 196.5 14.6 196.6 14.7 196.7 14.9L199.5 19.5C199.8 18.9 201.7 15.7 202 15.3 202.2 14.9 202.3 14.7 202.3 14.5 202.3 14.3 202.2 14.2 202 14.1 201.9 14.1 201.8 14 201.8 13.9 201.8 13.9 201.9 13.8 202 13.8 202.4 13.8 203 13.9 203.1 13.9 203.2 13.9 204.3 13.8 204.6 13.8 204.7 13.8 204.8 13.9 204.8 13.9 204.8 14 204.7 14.1 204.6 14.1 204.4 14.1 204.1 14.1 203.9 14.3 203.6 14.5 203.5 14.6 203.1 15 202.6 15.6 200.5 19.1 200.1 19.7 199.9 20.2 200 20.7 200 21.2L200 22.5C200 22.7 200 23.3 200 24 200 24.4 200.1 24.7 200.6 24.7 200.8 24.8 201.2 24.8 201.3 24.8 201.4 24.8 201.4 24.9 201.4 24.9 201.4 25 201.3 25.1 201.2 25.1 200.3 25.1 199.3 25 199.2 25 199.2 25 198.2 25.1 197.7 25.1 197.6 25.1 197.5 25 197.5 24.9 197.5 24.9 197.5 24.8 197.6 24.8 197.8 24.8 197.9 24.8 198.1 24.7 198.4 24.7 198.5 24.4 198.5 24 198.6 23.3 198.6 22.7 198.6 22.5L198.6 21.2ZM105.9 41.1C105.9 42.6 106.5 43.8 108.1 43.7 110.5 43.7 111.4 40.4 111.4 38.5 111.4 37.2 110.7 35.9 109.2 35.9 106.8 35.9 105.9 39.2 105.9 41.1ZM104.5 40.9C104.5 37.6 106.6 35.4 109.1 35.4 111.5 35.4 112.8 36.8 112.8 39 112.8 41.6 111 44.3 107.9 44.3 105.7 44.3 104.5 42.7 104.5 40.9ZM120 36L119.9 36.6 117.7 36.6 116.9 40.8C116.7 42.1 116.4 43.1 115.8 44.3 115 46.2 113.9 47.5 113.8 47.5 113.4 47.3 113.4 47.2 113.6 46.9 114.6 45.8 115.1 44.3 115.3 42.9L116.4 36.6 114.7 36.6 114.8 36 116.5 36C117.1 32.5 118.9 30.4 120 30.4 120.3 30.4 120.6 30.6 120.6 31.1 120.6 31.8 120.3 32.2 120.1 32.2 119.7 32.2 119.9 31.6 119.3 31.6 118.3 31.6 118.2 33.5 117.8 36L120 36ZM139.8 38.9C139.8 40.6 139.8 42 139.9 42.7 139.9 43.2 140 43.6 140.6 43.6 140.8 43.7 141.2 43.7 141.3 43.7 141.5 43.7 141.5 43.8 141.5 43.8 141.5 43.9 141.4 44 141.2 44 140.2 44 139.1 43.9 139.1 43.9 139 43.9 137.9 44 137.4 44 137.2 44 137.1 43.9 137.1 43.8 137.1 43.8 137.1 43.7 137.2 43.7 137.4 43.7 137.6 43.7 137.7 43.6 138.1 43.6 138.2 43.2 138.2 42.7 138.3 42 138.3 40.6 138.3 38.9L138.3 37.1C138.3 37 138.3 37 138.2 37L130.8 37C130.8 37 130.7 37 130.7 37.1L130.7 38.9C130.7 40.6 130.7 42 130.8 42.7 130.9 43.2 131 43.6 131.5 43.6 131.7 43.7 132.1 43.7 132.3 43.7 132.4 43.7 132.4 43.8 132.4 43.8 132.4 43.9 132.3 44 132.1 44 131.2 44 130.1 43.9 130 43.9 129.9 43.9 128.8 44 128.3 44 128.1 44 128 43.9 128 43.8 128 43.8 128 43.7 128.1 43.7 128.3 43.7 128.5 43.7 128.7 43.6 129 43.6 129.1 43.2 129.2 42.7 129.3 42 129.3 40.6 129.3 38.9L129.3 35.8C129.3 33.1 129.3 32.6 129.2 32.1 129.2 31.5 129.1 31.2 128.5 31.1 128.3 31 128 31 127.9 31 127.8 31 127.7 31 127.7 30.9 127.7 30.8 127.8 30.8 128 30.8 128.8 30.8 129.9 30.8 130 30.8 130.1 30.8 131.2 30.8 131.7 30.8 131.9 30.8 132 30.8 132 30.9 132 31 131.9 31 131.8 31 131.7 31 131.6 31 131.4 31.1 130.9 31.2 130.8 31.5 130.8 32.1 130.7 32.6 130.7 33.1 130.7 35.8L130.7 36.2C130.7 36.3 130.8 36.3 130.8 36.3L138.2 36.3C138.3 36.3 138.3 36.3 138.3 36.2L138.3 35.8C138.3 33.1 138.3 32.6 138.3 32.1 138.3 31.5 138.1 31.2 137.5 31.1 137.4 31 137.1 31 137 31 136.9 31 136.8 31 136.8 30.9 136.8 30.8 136.9 30.8 137.1 30.8 137.9 30.8 139 30.8 139.1 30.8 139.1 30.8 140.2 30.8 140.8 30.8 141 30.8 141.1 30.8 141.1 30.9 141.1 31 141 31 140.9 31 140.8 31 140.7 31 140.5 31.1 140 31.2 139.9 31.5 139.8 32.1 139.8 32.6 139.8 33.1 139.8 35.8L139.8 38.9ZM149.8 39.2C149.9 39.2 149.9 39.2 149.9 39.1L148.4 35C148.3 34.8 148.2 34.8 148.1 35L146.7 39.1C146.7 39.2 146.7 39.2 146.7 39.2L149.8 39.2ZM148.1 33C148.3 32.6 148.4 32.5 148.5 32.5 148.7 32.5 148.7 32.7 148.9 33 149.1 33.6 151.6 39.8 152.5 42 153.1 43.3 153.5 43.5 153.8 43.6 154.1 43.7 154.3 43.7 154.5 43.7 154.5 43.7 154.7 43.7 154.7 43.8 154.7 43.9 154.5 44 154.3 44 154.1 44 152.9 44 151.9 43.9 151.6 43.9 151.3 43.9 151.3 43.8 151.3 43.7 151.4 43.7 151.4 43.7 151.5 43.7 151.7 43.6 151.6 43.3L150.2 39.9C150.2 39.8 150.2 39.8 150.1 39.8L146.5 39.8C146.5 39.8 146.4 39.9 146.4 39.9L145.5 42.3C145.4 42.7 145.3 43.1 145.3 43.3 145.3 43.6 145.5 43.7 145.8 43.7L145.9 43.7C146.1 43.7 146.1 43.8 146.1 43.8 146.1 43.9 146 44 145.9 44 145.5 44 144.7 43.9 144.5 43.9 144.3 43.9 143.6 44 142.9 44 142.7 44 142.6 43.9 142.6 43.8 142.6 43.8 142.7 43.7 142.8 43.7 142.9 43.7 143.1 43.7 143.2 43.7 143.9 43.6 144.2 43.1 144.5 42.3L148.1 33ZM165.9 41.8L166 41.8C166.4 40.5 167.8 36.3 168.3 34.3 168.5 33.8 168.5 33.6 168.5 33.4 168.5 33.2 168.4 33 167.7 33 167.6 33 167.5 32.9 167.5 32.8 167.5 32.8 167.6 32.7 167.8 32.7 168.6 32.7 169.2 32.8 169.4 32.8 169.5 32.8 170.1 32.7 170.6 32.7 170.7 32.7 170.8 32.8 170.8 32.8 170.8 32.9 170.8 33 170.7 33 170.6 33 170.3 33 170.1 33.1 169.7 33.2 169.4 33.8 169.1 34.6 168.5 36.5 166.9 41.2 166.3 42.9 165.9 44 165.8 44.2 165.7 44.2 165.5 44.2 165.4 44 165.2 43.4L162.2 35.3C161.6 36.6 159.6 42 159 43.4 158.7 44 158.6 44.2 158.5 44.2 158.3 44.2 158.2 44 157.9 43L155.2 34.2C154.9 33.4 154.8 33.2 154.4 33.1 154.1 33 153.8 33 153.7 33 153.6 33 153.5 32.9 153.5 32.8 153.5 32.8 153.6 32.7 153.8 32.7 154.6 32.7 155.4 32.8 155.6 32.8 155.7 32.8 156.4 32.7 157.2 32.7 157.4 32.7 157.5 32.8 157.5 32.8 157.5 32.9 157.4 33 157.3 33 157.2 33 156.9 33 156.8 33.1 156.7 33.1 156.6 33.2 156.6 33.4 156.6 33.6 156.7 34.1 156.8 34.8 157.1 35.7 158.7 41.2 158.9 41.8L158.9 41.8 162.1 33.5C162.3 32.9 162.4 32.8 162.5 32.8 162.6 32.8 162.7 33 162.9 33.5L165.9 41.8ZM176.7 39.2C176.8 39.2 176.8 39.2 176.8 39.1L175.3 35C175.2 34.8 175.1 34.8 175 35L173.6 39.1C173.6 39.2 173.6 39.2 173.6 39.2L176.7 39.2ZM175 33C175.2 32.6 175.3 32.5 175.4 32.5 175.6 32.5 175.6 32.7 175.8 33 176 33.6 178.5 39.8 179.4 42 180 43.3 180.4 43.5 180.8 43.6 181 43.7 181.2 43.7 181.4 43.7 181.5 43.7 181.6 43.7 181.6 43.8 181.6 43.9 181.4 44 181.2 44 181 44 179.8 44 178.8 43.9 178.5 43.9 178.2 43.9 178.2 43.8 178.2 43.7 178.3 43.7 178.3 43.7 178.4 43.7 178.6 43.6 178.5 43.3L177.1 39.9C177.1 39.8 177.1 39.8 177 39.8L173.4 39.8C173.4 39.8 173.3 39.9 173.3 39.9L172.4 42.3C172.3 42.7 172.2 43.1 172.2 43.3 172.2 43.6 172.4 43.7 172.7 43.7L172.8 43.7C173 43.7 173 43.8 173 43.8 173 43.9 172.9 44 172.8 44 172.4 44 171.6 43.9 171.4 43.9 171.2 43.9 170.5 44 169.8 44 169.6 44 169.5 43.9 169.5 43.8 169.5 43.8 169.6 43.7 169.7 43.7 169.8 43.7 170 43.7 170.1 43.7 170.8 43.6 171.1 43.1 171.4 42.3L175 33ZM185.5 39.7C185.5 41.1 185.5 42.2 185.5 42.9 185.6 43.3 185.7 43.6 186.1 43.6 186.3 43.7 186.7 43.7 186.8 43.7 186.9 43.7 186.9 43.8 186.9 43.8 186.9 43.9 186.9 44 186.7 44 185.8 44 184.8 43.9 184.8 43.9 184.7 43.9 183.7 44 183.2 44 183.1 44 183 43.9 183 43.8 183 43.8 183 43.7 183.1 43.7 183.3 43.7 183.5 43.7 183.6 43.6 183.9 43.6 183.9 43.3 184 42.9 184.1 42.2 184.1 41.1 184.1 39.7L184.1 37C184.1 34.7 184.1 34.3 184.1 33.8 184 33.3 183.9 33.1 183.6 33 183.4 33 183.2 33 183.1 33 183 33 183 32.9 183 32.9 183 32.8 183 32.7 183.2 32.7 183.7 32.7 184.7 32.8 184.8 32.8 184.8 32.8 185.8 32.7 186.3 32.7 186.5 32.7 186.5 32.8 186.5 32.9 186.5 32.9 186.5 33 186.4 33 186.3 33 186.2 33 186 33 185.6 33.1 185.5 33.3 185.5 33.8 185.5 34.3 185.5 34.7 185.5 37L185.5 39.7ZM190.9 33.5C191.1 33.7 191.1 33.8 191.1 33.8 191.1 33.9 191 33.9 190.9 33.9 190.7 33.9 190 33.7 189.7 33.6 189.5 33.5 189.4 33.4 189.4 33.2 189.4 31.9 190.3 30.5 190.9 29.7 191 29.6 191.1 29.6 191.1 29.6 191.2 29.6 191.2 29.6 191.2 29.7 191.2 29.7 191.2 29.8 191.2 29.9 190.9 30.5 190.6 31.4 190.6 32.4 190.6 33 190.8 33.4 190.9 33.5ZM196.6 39.7C196.6 41.1 196.6 42.2 196.7 42.9 196.7 43.3 196.8 43.6 197.2 43.6 197.5 43.7 197.8 43.7 197.9 43.7 198 43.7 198.1 43.8 198.1 43.8 198.1 43.9 198 44 197.8 44 197 44 196 43.9 195.9 43.9 195.8 43.9 194.8 44 194.4 44 194.2 44 194.1 43.9 194.1 43.8 194.1 43.8 194.2 43.7 194.3 43.7 194.4 43.7 194.6 43.7 194.7 43.6 195 43.6 195.1 43.3 195.1 42.9 195.2 42.2 195.2 41.1 195.2 39.7L195.2 37C195.2 34.7 195.2 34.3 195.2 33.8 195.1 33.3 195 33.1 194.7 33 194.5 33 194.3 33 194.2 33 194.1 33 194.1 32.9 194.1 32.9 194.1 32.8 194.2 32.7 194.3 32.7 194.8 32.7 195.8 32.8 195.9 32.8 196 32.8 197 32.7 197.4 32.7 197.6 32.7 197.7 32.8 197.7 32.9 197.7 32.9 197.6 33 197.5 33 197.4 33 197.3 33 197.2 33 196.7 33.1 196.7 33.3 196.6 33.8 196.6 34.3 196.6 34.7 196.6 37L196.6 39.7ZM130.1 67.8C130.2 67.8 130.3 67.7 130.3 67.5L130.3 66.9C130.3 62 130.3 61.1 130.2 60.1 130.2 59 129.9 58.5 128.8 58.2 128.6 58.2 128 58.1 127.6 58.1 127.2 58.1 127 58.1 127 57.9 127 57.6 127.3 57.6 127.7 57.6 129.4 57.6 131.5 57.7 132.3 57.7 133.1 57.7 135.1 57.6 136.4 57.6 136.8 57.6 137 57.6 137 57.9 137 58.1 136.8 58.1 136.5 58.1 136.2 58.1 135.9 58.2 135.5 58.2 134.7 58.4 134.4 59 134.3 60.1 134.3 61.1 134.3 62 134.3 66.9L134.3 72.5C134.3 75.5 134.3 78 134.4 79.4 134.5 80.3 134.7 81 135.7 81.1 136.1 81.2 136.8 81.2 137.3 81.2 137.7 81.2 137.8 81.3 137.8 81.5 137.8 81.7 137.6 81.8 137.2 81.8 135.1 81.8 133.1 81.7 132.2 81.7 131.5 81.7 129.4 81.8 128.2 81.8 127.7 81.8 127.5 81.7 127.5 81.5 127.5 81.3 127.7 81.2 128 81.2 128.5 81.2 128.9 81.2 129.2 81.1 129.8 81 130 80.3 130.1 79.3 130.3 78 130.3 75.5 130.3 72.5L130.3 69.7C130.3 69.6 130.2 69.5 130.1 69.5L117.8 69.5C117.7 69.5 117.7 69.5 117.7 69.7L117.7 72.5C117.7 75.5 117.7 78 117.8 79.4 117.9 80.3 118.1 81 119.1 81.1 119.5 81.2 120.2 81.2 120.7 81.2 121.1 81.2 121.2 81.3 121.2 81.5 121.2 81.7 121 81.8 120.6 81.8 118.5 81.8 116.5 81.7 115.6 81.7 114.8 81.7 112.8 81.8 111.5 81.8 111.1 81.8 110.9 81.7 110.9 81.5 110.9 81.3 111 81.2 111.4 81.2 111.9 81.2 112.3 81.2 112.6 81.1 113.2 81 113.4 80.3 113.5 79.3 113.6 78 113.6 75.5 113.6 72.5L113.6 66.9C113.6 62 113.6 61.1 113.6 60.1 113.5 59 113.3 58.5 112.2 58.2 111.9 58.2 111.4 58.1 111 58.1 110.6 58.1 110.4 58.1 110.4 57.9 110.4 57.6 110.6 57.6 111.1 57.6 112.8 57.6 114.8 57.7 115.7 57.7 116.5 57.7 118.5 57.6 119.7 57.6 120.2 57.6 120.4 57.6 120.4 57.9 120.4 58.1 120.2 58.1 119.8 58.1 119.6 58.1 119.3 58.2 118.9 58.2 118 58.4 117.8 59 117.7 60.1 117.7 61.1 117.7 62 117.7 66.9L117.7 67.5C117.7 67.7 117.7 67.8 117.8 67.8L130.1 67.8ZM143.1 69.1C143.1 64.9 143.1 64.2 143.1 63.3 143 62.4 142.8 62.1 142.1 61.9 141.8 61.8 141.5 61.7 141.1 61.7 140.8 61.7 140.7 61.7 140.7 61.4 140.7 61.3 140.9 61.2 141.3 61.2 142.4 61.2 144.3 61.3 145.1 61.3 145.8 61.3 147.7 61.2 148.7 61.2 149.1 61.2 149.3 61.3 149.3 61.4 149.3 61.7 149.2 61.7 148.9 61.7 148.6 61.7 148.4 61.8 148 61.8 147.3 62 147 62.3 147 63.3 146.9 64.2 146.9 64.9 146.9 69.1L146.9 73.9C146.9 76.5 146.9 78.7 147 79.8 147.1 80.6 147.3 81 148.2 81.1 148.6 81.2 149.2 81.2 149.6 81.2 149.9 81.2 150.1 81.4 150.1 81.5 150.1 81.7 149.8 81.8 149.5 81.8 147.7 81.8 145.7 81.7 145 81.7 144.3 81.7 142.4 81.8 141.3 81.8 140.9 81.8 140.7 81.7 140.7 81.5 140.7 81.4 140.8 81.2 141.2 81.2 141.6 81.2 141.9 81.2 142.2 81.1 142.8 81 142.9 80.6 143 79.8 143.1 78.7 143.1 76.5 143.1 73.9L143.1 69.1ZM159.5 73.9C159.5 77.4 159.5 79.1 160.1 79.6 160.5 80 161.6 80.2 163.8 80.2 165.3 80.2 166.4 80.2 167.1 79.4 167.5 79.1 167.8 78.3 167.8 77.8 167.9 77.5 167.9 77.4 168.1 77.4 168.3 77.4 168.4 77.7 168.4 78 168.4 78.3 168.2 80.3 168 81.1 167.8 81.7 167.7 81.9 166.2 81.9 164.2 81.9 162.5 81.8 161.1 81.8 159.7 81.7 158.5 81.7 157.4 81.7 157 81.7 156.4 81.7 155.8 81.7 155.1 81.8 154.4 81.8 153.8 81.8 153.5 81.8 153.3 81.7 153.3 81.5 153.3 81.4 153.4 81.2 153.7 81.2 154.1 81.2 154.5 81.2 154.7 81.1 155.3 81 155.4 80.5 155.5 79.7 155.7 78.5 155.7 76.4 155.7 73.9L155.7 69.1C155.7 64.9 155.7 64.2 155.6 63.3 155.6 62.4 155.3 62.1 154.4 61.8 154.2 61.8 153.8 61.7 153.5 61.7 153.2 61.7 153 61.6 153 61.5 153 61.3 153.2 61.2 153.6 61.2 154.9 61.2 156.7 61.3 157.5 61.3 158.2 61.3 160.5 61.2 161.6 61.2 162 61.2 162.2 61.3 162.2 61.5 162.2 61.6 162 61.7 161.7 61.7 161.3 61.7 160.9 61.8 160.6 61.8 159.8 62 159.6 62.3 159.5 63.3 159.5 64.2 159.5 64.9 159.5 69.1L159.5 73.9ZM188.8 72C188.8 66 185.2 62.3 180.6 62.3 177.5 62.3 173.8 63.9 173.8 70.6 173.8 76.3 177 80.7 182.3 80.7 184.3 80.7 188.8 79.8 188.8 72ZM169.6 71.5C169.6 66.8 172.9 60.8 181.5 60.8 188.6 60.8 193 64.8 193 71 193 77.3 188.5 82.2 181.2 82.2 173 82.2 169.6 76.3 169.6 71.5Z"/></svg>