<svg xmlns="http://www.w3.org/2000/svg" width="106" height="169" viewBox="0 0 106 169" version="1.1"><path fill="#FFFFFF" d="M55.1 69.8L56.6 69.8 55.6 71.5C55.6 71.6 55.6 71.6 55.5 71.6 55.5 71.6 55.5 71.7 55.4 71.7L55.4 71.7 56.5 71.7 56.5 71.7C56.5 71.7 56.4 71.7 56.4 71.6 56.4 71.6 56.4 71.6 56.4 71.6 56.4 71.6 56.4 71.5 56.4 71.5 56.4 71.5 56.5 71.4 56.5 71.4L57.4 69.7 57.4 69.1 57.3 69.1C57.3 69.2 57.3 69.2 57.3 69.2 57.3 69.2 57.3 69.2 57.2 69.2L55.1 69.2C55.1 69.2 55.1 69.2 55.1 69.2 55 69.2 55 69.2 55 69.1L55 69.1 55 69.9 55 69.9C55 69.8 55 69.8 55.1 69.8 55.1 69.8 55.1 69.8 55.1 69.8ZM53.3 69.8C53.4 69.8 53.5 69.8 53.6 69.9 53.6 69.9 53.7 70 53.7 70.1 53.8 70.1 53.8 70.2 53.9 70.3 53.9 70.4 53.9 70.5 53.9 70.5 53.9 70.6 53.9 70.7 53.9 70.8 53.8 70.9 53.8 71 53.7 71 53.7 71.1 53.6 71.2 53.6 71.2 53.5 71.2 53.4 71.3 53.3 71.3 53.2 71.3 53.1 71.2 53 71.2 53 71.2 52.9 71.1 52.8 71 52.8 71 52.8 70.9 52.7 70.8 52.7 70.7 52.7 70.6 52.7 70.5 52.7 70.5 52.7 70.4 52.7 70.3 52.8 70.2 52.8 70.1 52.8 70.1 52.9 70 53 69.9 53 69.9 53.1 69.8 53.2 69.8 53.3 69.8ZM53.3 69.3C53.1 69.3 53 69.3 52.8 69.4 52.6 69.4 52.5 69.5 52.4 69.6 52.3 69.7 52.2 69.9 52.1 70 52 70.2 52 70.4 52 70.5 52 70.7 52 70.9 52.1 71.1 52.2 71.2 52.3 71.3 52.4 71.5 52.5 71.6 52.6 71.7 52.8 71.7 53 71.8 53.1 71.8 53.3 71.8 53.5 71.8 53.6 71.8 53.8 71.7 54 71.7 54.1 71.6 54.2 71.5 54.3 71.3 54.4 71.2 54.5 71.1 54.6 70.9 54.6 70.7 54.6 70.5 54.6 70.4 54.6 70.2 54.5 70 54.4 69.9 54.3 69.7 54.2 69.6 54.1 69.5 54 69.4 53.8 69.4 53.6 69.3 53.5 69.3 53.3 69.3ZM50.2 69.7C50.2 69.7 50.3 69.7 50.4 69.7 50.4 69.7 50.5 69.7 50.5 69.7 50.6 69.8 50.6 69.8 50.7 69.8 50.7 69.9 50.7 70 50.7 70 50.7 70.1 50.7 70.2 50.7 70.2 50.6 70.2 50.6 70.3 50.5 70.3 50.5 70.3 50.4 70.3 50.4 70.4 50.3 70.4 50.2 70.4 50.2 70.4 50.2 70.4 50.1 70.4 50 70.4 50 70.3 49.9 70.3 49.9 70.3 49.8 70.3 49.8 70.2 49.7 70.2 49.7 70.2 49.7 70.1 49.7 70 49.7 70 49.7 69.9 49.7 69.8 49.8 69.8 49.8 69.8 49.9 69.7 49.9 69.7 50 69.7 50 69.7 50.1 69.7 50.2 69.7 50.2 69.7ZM49.4 71L49 71.6 49.1 71.6C49.1 71.6 49.1 71.6 49.2 71.6 49.2 71.6 49.2 71.6 49.3 71.6 49.3 71.6 49.4 71.6 49.5 71.7 49.5 71.7 49.6 71.7 49.7 71.7 49.8 71.7 49.9 71.7 50.1 71.7 50.2 71.7 50.4 71.7 50.6 71.6 50.8 71.6 50.9 71.5 51.1 71.4 51.2 71.3 51.3 71.1 51.4 71 51.5 70.8 51.5 70.6 51.5 70.4 51.5 70.2 51.5 70 51.4 69.9 51.4 69.7 51.3 69.6 51.1 69.5 51 69.4 50.9 69.3 50.7 69.3 50.6 69.2 50.4 69.2 50.2 69.2 50.1 69.2 49.9 69.2 49.8 69.2 49.7 69.3 49.5 69.3 49.4 69.4 49.3 69.4 49.2 69.5 49.2 69.6 49.1 69.7 49.1 69.9 49.1 70 49.1 70.2 49.1 70.3 49.1 70.4 49.2 70.5 49.2 70.6 49.3 70.6 49.4 70.7 49.5 70.8 49.6 70.8 49.7 70.8 49.9 70.9 50 70.9 50.1 70.9 50.3 70.8 50.4 70.8 50.6 70.8 50.7 70.7 50.9 70.6 50.9 70.7 50.8 70.8 50.8 70.9 50.7 71 50.7 71.1 50.6 71.1 50.5 71.2 50.4 71.2 50.4 71.2 50.3 71.3 50.2 71.3 50.1 71.3 50 71.3 49.9 71.3 49.8 71.3 49.8 71.3 49.7 71.2 49.6 71.2 49.6 71.2 49.5 71.2 49.5 71.1 49.5 71.1 49.4 71.1 49.4 71L49.4 71 49.4 71ZM47.1 70.3L47.2 70.3C47.2 70.2 47.2 70.2 47.2 70.2 47.2 70.2 47.2 70.2 47.2 70.2 47.3 70.1 47.3 70.1 47.4 70.1 47.4 70.1 47.5 70.1 47.5 70.1L47.5 71.6C47.5 71.6 47.5 71.6 47.5 71.6 47.5 71.7 47.5 71.7 47.4 71.7L47.4 71.7 48.4 71.7 48.4 71.7C48.3 71.7 48.3 71.7 48.3 71.6 48.3 71.6 48.3 71.6 48.3 71.6L48.3 69.4C48.3 69.3 48.3 69.3 48.3 69.3 48.3 69.3 48.3 69.3 48.4 69.3L48.4 69.2 47.4 69.2 47.4 69.3C47.5 69.3 47.5 69.3 47.5 69.3 47.5 69.3 47.5 69.3 47.5 69.4L47.5 69.5C47.5 69.5 47.5 69.5 47.5 69.5 47.4 69.5 47.4 69.6 47.4 69.6 47.3 69.6 47.3 69.6 47.3 69.6 47.3 69.6 47.2 69.6 47.2 69.6 47.2 69.6 47.2 69.6 47.2 69.6 47.2 69.6 47.2 69.5 47.2 69.5L47.1 69.5 47.1 70.3ZM58.9 23.3C58.2 21.6 59 19.4 59 19.4 55.4 20.2 54.7 22.4 53.6 22.6 52.8 22.7 53 20.7 53 20.7 53 20.7 47.9 23.3 46.1 27.4 44.6 31 46 33 46 33L47.9 33C47.7 27 51.9 24.8 54.6 23.3 55.3 22.9 55.8 22.6 56.3 22.3L57.3 21.6 57.1 22.8C57.1 22.8 56.8 24.2 57.1 25.6 57.2 26 57.4 26.3 57.5 26.7 57.8 27.5 58.2 28.4 57.8 29.8 57.4 31 56.4 32.2 55.7 33L57 33C57 33 58.4 32.4 59.6 29.9 60.7 26.7 59.6 25.4 58.9 23.3ZM56.8 29.5C56.9 29.2 56.9 28.9 56.9 28.6 56.9 28 56.8 27.6 56.6 27 56.4 26.7 56.3 26.3 56.2 25.8 56 25.2 56 24.6 56 24 56 23.9 56 23.8 56 23.7 55.7 23.8 55.4 24 55.1 24.1 52.5 25.6 48.9 27.5 48.9 32.6 48.9 32.7 48.9 32.9 48.9 33L54.2 33C54.5 32.8 56.4 31.1 56.8 29.5ZM54.6 44.7L55.1 39.1C54.3 39.4 53.5 39.6 52.5 39.7L52 49C52 49.1 52 49.1 51.9 49.1L51.9 49.1C51.8 49.1 51.8 49.1 51.8 49L51.3 39.7C50.3 39.6 49.5 39.4 48.7 39.1L49.2 44.7 31.3 37.3C31.9 38.7 38.4 56 38.5 56.3L49.9 61.3 50.1 56.8C50.1 56.8 50.2 56.8 50.2 56.8 50.2 56.8 50.3 56.8 50.3 56.8L50.7 61.7 50.7 61.7 51.1 66.3C51.1 66.7 51.5 67 51.9 67 52.3 67 52.7 66.7 52.7 66.3L53.1 61.7 53.5 56.8C53.5 56.8 53.5 56.8 53.6 56.8 53.6 56.8 53.7 56.8 53.7 56.8L53.9 61.3 65.3 56.3C65.4 56 71.9 38.7 72.5 37.3L54.6 44.7ZM40.6 35.2C42.5 36.4 45.7 39.2 47.4 40.9 43.3 33.8 40.3 32.2 39.4 32L40.6 35.2ZM47.9 42.9C41.2 36.3 36.9 34.2 34.8 33.8L36.4 38 47.9 42.9ZM58.4 33.8L45.4 33.8C45.1 33.8 44.9 34 44.9 34.3 44.9 34.6 45.1 34.8 45.4 34.8L58.4 34.8C58.7 34.8 58.9 34.6 58.9 34.3 58.9 34 58.7 33.8 58.4 33.8ZM46.1 35.6C46.7 37 48.7 38.9 51.9 38.9 55.1 38.9 57 37 57.7 35.6L46.1 35.6ZM64.3 32C63.5 32.2 60.5 33.8 56.4 40.9 58.1 39.2 61.3 36.4 63.1 35.2L64.3 32ZM67.4 38L69 33.8C66.9 34.2 62.6 36.3 55.9 42.9L67.4 38ZM82.4 44.4L82.4 43.7 77.4 43.7C77.4 37.2 75.8 31.2 73.1 26.2L76.8 26.2 76.2 25.5 72.7 25.5C70.3 21.4 67.3 18.1 63.7 15.7 63.7 15.7 63.5 15.7 63.3 15.6 63.2 15.5 62.2 15.2 62.2 15.2 61.2 14.8 59.5 14.3 59.5 14.3 64.5 16.3 68.8 20.3 71.9 25.5L63 25.5C62.6 24.1 62.1 22.8 61.6 21.6 60.1 17.9 58.2 15.2 56.1 13.7 56.1 13.7 55.8 13.6 55.6 13.6 55.4 13.6 54.5 13.5 54.5 13.5 57.7 15 60.4 19.4 62.3 25.5L61 25.5C61 25.5 61.1 25.8 61.2 26.2L62.5 26.2C62.9 27.7 63.3 29.3 63.6 30.9 63.6 30.9 64 30.8 64.2 30.7L64.3 30.7C64 29.1 63.6 27.6 63.2 26.2L72.3 26.2C75 31.2 76.7 37.2 76.7 43.7L71.4 43.7 71.1 44.4 76.7 44.4C76.7 50.8 75 56.9 72.3 61.8L63.3 61.8C63.6 60.6 63.9 59.4 64.2 58.1L63.4 58.5C63.1 59.6 62.8 60.7 62.5 61.8L55.8 61.8 54.2 62.5 62.3 62.5C60.5 68.5 57.8 72.9 54.7 74.5 54.7 74.5 55.5 74.4 55.7 74.4 55.9 74.4 56.3 74.3 56.3 74.3 58.3 72.8 60.1 70.1 61.6 66.5 62.2 65.3 62.6 63.9 63 62.5L71.9 62.5C68.9 67.6 64.8 71.5 60 73.5 60 73.5 61.3 73.2 62.1 72.9 62.1 72.9 63.4 72.4 63.7 72.2L64 72.1C67.5 69.8 70.4 66.5 72.7 62.5L76.2 62.5C76.3 62.4 76.7 61.8 76.7 61.8L73.1 61.8C75.8 56.8 77.4 50.8 77.4 44.4L82.4 44.4ZM82.4 44.4ZM48 61.8L41.3 61.8C41 60.7 40.7 59.6 40.4 58.5L39.6 58.1C39.9 59.4 40.2 60.6 40.5 61.8L31.5 61.8C28.8 56.9 27.1 50.8 27.1 44.4L32.7 44.4 32.4 43.7 27.1 43.7C27.1 37.2 28.8 31.2 31.5 26.2L40.6 26.2C40.2 27.7 39.8 29.1 39.5 30.7 39.5 30.7 39.7 30.8 39.9 30.8L40.2 30.9C40.5 29.3 40.9 27.7 41.3 26.2L45.3 26.2C45.5 25.9 45.7 25.5 45.7 25.5L41.5 25.5C43.4 19.4 46.1 15 49.3 13.5 49.3 13.5 49 13.5 48.8 13.5 48.5 13.5 47.7 13.6 47.7 13.6 45.6 15.2 43.7 17.9 42.2 21.6 41.7 22.8 41.2 24.1 40.8 25.5L31.9 25.5C35 20.3 39.4 16.3 44.5 14.3L44.3 14.3C44 14.4 43.1 14.6 43.1 14.6 42 14.9 40.3 15.6 40.3 15.6 36.7 18 33.5 21.4 31.1 25.5 31.1 25.5 31.1 25.5 31.1 25.5L27.5 25.5 26.9 26.2 30.7 26.2C28 31.2 26.4 37.2 26.4 43.7L21.3 43.7 21.3 44.4 26.4 44.4C26.4 50.8 28 56.8 30.7 61.8L27 61.8C27 61.8 27.4 62.5 27.5 62.5L31.1 62.5C33.4 66.6 36.4 69.9 40 72.3 40 72.3 41.3 72.8 41.8 73 41.8 73 42.9 73.3 43.5 73.5 43.8 73.6 44 73.6 44 73.6 39.1 71.6 34.9 67.6 31.9 62.5L40.8 62.5C41.2 63.9 41.7 65.3 42.2 66.5 43.7 70.1 45.5 72.8 47.6 74.3 47.6 74.3 48.2 74.4 48.7 74.5L49.1 74.5C46 72.9 43.3 68.5 41.5 62.5L49.6 62.5 48 61.8ZM46.3 51.8C46.3 51.6 46.5 51.1 46.5 51 46.6 51.2 46.9 51.9 47 52.1L46.3 51.8ZM48.1 53.6C47.9 53.2 46.6 50.4 46.3 49.8L46.3 49.8C46.1 50.4 45.6 52.1 45.4 52.4L46 53C46.1 52.8 46.2 52.3 46.2 52.2L47.3 52.8C47.3 52.9 47.6 53.5 47.7 53.8L48.1 53.6ZM41.5 49.9C41.5 49.8 41.6 49.3 41.6 49.1 41.7 49.3 42.1 50 42.2 50.2L41.5 49.9ZM43.4 51.5C43.2 51.1 41.7 48.6 41.3 48L41.3 48C41.1 48.6 40.8 50.2 40.7 50.5L41.3 51.1C41.3 50.9 41.4 50.4 41.4 50.3L42.5 50.8C42.6 50.9 42.9 51.5 43 51.7L43.4 51.5ZM40.5 50.4C40.3 50.2 38.8 47.1 38.5 46.6L38.5 46.6C38.4 46.9 38.4 48.2 38.3 48.4 38.1 48 37.1 46.3 36.9 45.9L36.8 45.9C36.9 46.5 37 48.6 37 49L37.6 49.5C37.6 49.2 37.5 47.7 37.5 47.6 37.6 47.8 38.5 49.2 38.8 49.7L38.8 49.7C38.9 49.2 38.9 48.4 38.9 48.2 39.1 48.4 39.9 50.3 40.1 50.5L40.5 50.4ZM58.7 51.2C58.8 51 59.2 50.3 59.3 50.1 59.3 50.2 59.4 50.7 59.4 50.9L58.7 51.2ZM58 52.8C58.1 52.6 58.4 51.9 58.4 51.8L59.5 51.3C59.5 51.4 59.7 51.9 59.7 52.1L60.3 51.5C60.2 51.2 59.7 49.5 59.5 48.9L59.5 48.9C59.2 49.5 57.8 52.2 57.6 52.6L58 52.8ZM65.6 48.4C65.8 48.2 66.2 47.4 66.4 47.2 66.4 47.3 66.4 47.9 66.4 48.1L65.6 48.4ZM64.7 50.1C64.8 49.9 65.2 49.2 65.3 49.1L66.4 48.6C66.4 48.6 66.4 49.2 66.4 49.4L67.1 48.7C67 48.4 66.9 46.6 66.8 45.9L66.8 45.9C66.4 46.5 64.6 49.5 64.3 49.9L64.7 50.1ZM61 51.6C61.1 51.4 61.9 49.6 62 49.4L62 49.4C62 49.6 62.1 50.4 62.2 50.9L62.2 50.9C62.5 50.3 63.3 48.9 63.5 48.8 63.5 48.9 63.4 50.3 63.4 50.6L64 50.1C64 49.8 64 47.7 64 47.2L64 47.2C63.7 47.5 62.8 49.2 62.6 49.6 62.6 49.3 62.4 48.1 62.4 47.8L62.3 47.8C62.1 48.2 60.7 51.3 60.6 51.6L61 51.6ZM57.3 52.5C57 52.6 56.6 52.8 56.5 52.8L56.7 51.8C56.7 51.2 56.9 50.2 56.9 50.1L56.3 50.4C56.3 50.4 56.1 51.6 56.1 51.7L56.1 52.3C56 52.4 55.9 53.4 55.8 53.7 56 53.6 57.1 53.2 57.2 53.2L57.3 52.5ZM53.6 52.8C53.7 52.6 53.9 51.9 54 51.8 54.1 51.9 54.3 52.5 54.4 52.7L53.6 52.8ZM53.1 54.2C53.2 54 53.4 53.4 53.4 53.3L54.6 53.3C54.6 53.3 54.8 53.8 54.9 54.1L55.5 53.6C55.3 53.3 54.4 51.4 54 50.6L54 50.6C53.8 51.1 52.7 53.5 52.6 53.8L53.1 54.2ZM48.9 54C48.9 53.8 49.3 52.4 49.4 52.2L49.4 52.2C49.5 52.4 49.9 53.3 50.1 53.8L50.2 53.8C50.4 53.4 50.9 52.3 51 52.2 51.1 52.3 51.5 53.8 51.6 54.1L52.2 53.8C52.1 53.5 51.4 51.3 51.1 50.7L51.1 50.7C51 51 50.4 52.4 50.2 52.6 50.1 52.4 49.5 51.1 49.3 50.7L49.3 50.7C49.2 51.1 48.4 53.5 48.4 53.7L48.9 54ZM45 51.9C44.7 51.8 44.5 51.6 44.4 51.6L44.2 50.5C44.1 49.9 43.9 49 43.9 48.9L43.2 48.6C43.3 48.7 43.5 49.9 43.5 49.9L43.6 50.5C43.6 50.6 43.8 51.7 43.9 51.9 44.1 52 45.1 52.5 45.2 52.6L45 51.9ZM40.6 47.4L42 48 41.9 47.4 40.4 46.8 40.6 47.4ZM87.1 51.4C87.1 51.3 87.2 51.2 87.2 51.1 87.3 51 87.4 50.9 87.5 50.8 87.6 50.8 87.7 50.7 87.8 50.7 87.9 50.7 88.1 50.7 88.2 50.7 88.3 50.8 88.5 50.8 88.6 50.9 88.7 50.9 88.8 51 88.8 51.1 88.9 51.2 88.9 51.3 89 51.4 89 51.5 89 51.6 89 51.8 88.9 51.9 88.9 52 88.8 52.1 88.8 52.2 88.7 52.3 88.6 52.3 88.5 52.4 88.4 52.4 88.3 52.4 88.1 52.5 88 52.5 87.9 52.4 87.7 52.4 87.6 52.4 87.5 52.3 87.4 52.2 87.3 52.1 87.2 52 87.2 52 87.1 51.8 87.1 51.7 87.1 51.6 87.1 51.5 87.1 51.4ZM86.3 51.2C86.2 51.4 86.2 51.6 86.3 51.8 86.3 52 86.4 52.2 86.5 52.4 86.6 52.6 86.7 52.8 86.9 52.9 87.1 53.1 87.4 53.2 87.7 53.2 88 53.3 88.3 53.3 88.5 53.3 88.8 53.2 89 53.1 89.1 53 89.3 52.8 89.4 52.7 89.5 52.5 89.6 52.3 89.7 52.1 89.8 51.9 89.8 51.7 89.8 51.5 89.8 51.3 89.8 51.1 89.7 50.9 89.6 50.7 89.5 50.5 89.3 50.4 89.1 50.2 88.9 50.1 88.7 50 88.4 49.9 88.1 49.9 87.8 49.9 87.5 49.9 87.3 50 87.1 50.1 86.9 50.2 86.7 50.3 86.6 50.5 86.5 50.7 86.4 50.8 86.3 51 86.3 51.2ZM44.6 79.3C44.7 79.4 44.8 79.4 44.9 79.5 45 79.5 45.1 79.6 45.1 79.7 45.2 79.8 45.2 79.9 45.3 80.1 45.3 80.2 45.3 80.3 45.2 80.5 45.2 80.6 45.2 80.7 45.1 80.8 45 80.9 44.9 81 44.8 81.1 44.8 81.1 44.7 81.2 44.5 81.2 44.4 81.2 44.3 81.2 44.2 81.2 44.1 81.2 44 81.1 43.9 81.1 43.8 81 43.7 80.9 43.7 80.8 43.6 80.7 43.6 80.6 43.5 80.5 43.5 80.4 43.5 80.2 43.6 80.1 43.6 80 43.6 79.8 43.7 79.7 43.8 79.6 43.8 79.5 43.9 79.5 44 79.4 44.1 79.4 44.2 79.3 44.4 79.3 44.5 79.3 44.6 79.3ZM44.8 78.5C44.6 78.5 44.4 78.5 44.2 78.5 43.9 78.5 43.7 78.6 43.6 78.7 43.4 78.8 43.2 79 43.1 79.2 42.9 79.4 42.8 79.6 42.7 79.9 42.7 80.2 42.7 80.5 42.7 80.8 42.8 81 42.9 81.2 43 81.4 43.1 81.5 43.3 81.7 43.5 81.8 43.7 81.9 43.8 82 44 82 44.2 82 44.4 82.1 44.6 82 44.8 82 45 81.9 45.2 81.8 45.4 81.7 45.6 81.6 45.7 81.4 45.9 81.2 46 80.9 46 80.6 46.1 80.3 46.1 80 46.1 79.8 46 79.6 45.9 79.3 45.8 79.2 45.7 79 45.5 78.8 45.3 78.7 45.1 78.6 44.9 78.6 44.8 78.5ZM39.2 79.3L38.2 78.9 39.2 77.8 39.2 79.3ZM39.1 80.6L40 80.9 40.1 80.8C40 80.8 40 80.8 40 80.8 40 80.8 40 80.7 40 80.7 40 80.6 40 77.8 40 77.6 40 77.5 40 77.4 40 77.4 40 77.4 40 77.4 40.1 77.4L40.1 77.3 38.9 76.8 38.8 76.9C38.9 76.9 38.9 77 38.9 77 38.9 77 38.8 77.1 38.7 77.3 38.6 77.4 37 79.2 36.8 79.5 36.8 79.5 36.8 79.6 36.7 79.6 36.7 79.6 36.7 79.6 36.7 79.6L36.6 79.6 37.5 80 37.5 79.9C37.5 79.9 37.5 79.9 37.5 79.9 37.5 79.9 37.5 79.8 37.5 79.8 37.5 79.8 37.5 79.8 37.5 79.7 37.6 79.7 37.8 79.4 37.8 79.4L39.2 79.9C39.2 79.9 39.2 80.3 39.2 80.4 39.2 80.4 39.2 80.4 39.2 80.5 39.2 80.5 39.2 80.5 39.1 80.5 39.1 80.5 39.1 80.5 39.1 80.5L39.1 80.6ZM16.4 56L16.1 55 17.5 55.1 16.4 56ZM15.3 56.7L15.6 57.7 15.7 57.6C15.7 57.6 15.7 57.6 15.7 57.6 15.7 57.5 15.7 57.5 15.8 57.5 15.9 57.4 18.1 55.7 18.2 55.6 18.3 55.5 18.3 55.4 18.3 55.4 18.4 55.4 18.4 55.4 18.4 55.5L18.5 55.5 18.1 54.2 18 54.2C18.1 54.3 18 54.3 18 54.3 18 54.3 17.9 54.4 17.7 54.3 17.4 54.3 15.1 54.3 14.7 54.3 14.7 54.3 14.7 54.3 14.7 54.2 14.6 54.2 14.6 54.2 14.6 54.2L14.5 54.2 14.8 55.1 14.9 55.1C14.9 55.1 14.9 55 14.9 55 14.9 55 14.9 55 14.9 55 14.9 55 15 55 15 55 15.1 55 15.4 55 15.5 55L15.9 56.4C15.9 56.4 15.6 56.6 15.6 56.7 15.5 56.7 15.5 56.7 15.5 56.7 15.4 56.7 15.4 56.7 15.4 56.7 15.4 56.7 15.4 56.7 15.4 56.7L15.3 56.7ZM20.9 65.1L20.4 64.3 21.8 63.9 20.9 65.1ZM20.1 66.1L20.7 67 20.7 66.9C20.7 66.9 20.7 66.8 20.7 66.8 20.7 66.8 20.7 66.8 20.7 66.7 20.8 66.6 22.5 64.3 22.5 64.2 22.6 64.1 22.7 64.1 22.7 64.1 22.7 64 22.8 64.1 22.8 64.1L22.9 64 22.1 62.9 22.1 63C22.1 63 22.1 63.1 22 63.1 22 63.1 21.9 63.2 21.7 63.2 21.5 63.3 19.2 63.8 18.9 63.9 18.8 63.9 18.8 63.9 18.8 63.9 18.8 63.9 18.7 63.9 18.7 63.9L18.6 63.9 19.2 64.7 19.2 64.7C19.2 64.6 19.2 64.6 19.2 64.6 19.2 64.6 19.2 64.6 19.2 64.6 19.3 64.5 19.3 64.5 19.3 64.5 19.4 64.5 19.7 64.4 19.8 64.4L20.6 65.6C20.6 65.7 20.3 66 20.3 66 20.3 66 20.3 66.1 20.3 66.1 20.2 66.1 20.2 66.1 20.2 66.1 20.2 66.1 20.2 66.1 20.1 66L20.1 66.1ZM54.9 81.4L53.9 81.4 54.3 80 54.9 81.4ZM55.3 82.6L56.4 82.5 56.4 82.4C56.3 82.4 56.3 82.4 56.3 82.4 56.3 82.4 56.2 82.4 56.2 82.3 56.2 82.2 55 79.7 55 79.5 54.9 79.4 54.9 79.3 54.9 79.3 54.9 79.3 54.9 79.3 54.9 79.2L54.9 79.1 53.6 79.2 53.6 79.3C53.7 79.3 53.7 79.4 53.7 79.4 53.7 79.4 53.7 79.5 53.6 79.7 53.6 79.9 52.9 82.2 52.8 82.6 52.8 82.6 52.8 82.6 52.8 82.6 52.8 82.6 52.7 82.7 52.7 82.7L52.7 82.7 53.7 82.7 53.7 82.6C53.7 82.6 53.6 82.6 53.6 82.6 53.6 82.6 53.6 82.6 53.6 82.6 53.6 82.5 53.6 82.5 53.6 82.5 53.6 82.4 53.7 82.1 53.7 82L55.2 81.9C55.2 82 55.4 82.3 55.4 82.3 55.4 82.4 55.4 82.4 55.4 82.4 55.4 82.5 55.4 82.5 55.4 82.5 55.4 82.5 55.3 82.5 55.3 82.5L55.3 82.6ZM26.8 73.5L27.7 74.3 27.8 74.3C27.8 74.2 27.8 74.2 27.8 74.2 27.8 74.1 27.8 74.1 27.8 74.1L28.2 71.9C28.4 71.9 29.1 71.8 29.2 71.8 29.4 71.8 29.6 71.8 29.7 71.8 29.8 71.7 29.9 71.8 30 71.8L30.1 71.7 29.1 70.9 29 71C29 71 29.1 71 29.1 71.1 29.1 71.1 29.1 71.2 29 71.2 29 71.2 29 71.2 28.9 71.2 28.9 71.2 28.8 71.3 28.6 71.3 28.5 71.3 27.2 71.5 27.1 71.5L28.1 70.4C28.1 70.3 28.2 70.3 28.2 70.3 28.2 70.3 28.3 70.3 28.3 70.4L28.4 70.3 27.5 69.5 27.4 69.6C27.5 69.6 27.5 69.6 27.5 69.7 27.5 69.7 27.5 69.7 27.5 69.8L25.5 72C25.5 72.1 25.4 72.1 25.4 72.1 25.3 72.1 25.3 72.1 25.3 72L25.2 72.1 26.1 72.9 26.2 72.9C26.1 72.8 26.1 72.8 26.1 72.7 26.1 72.7 26.1 72.7 26.1 72.6L26.5 72.1 27.4 72C27.4 72 27.1 73.3 27.1 73.3 27.1 73.4 27 73.4 27 73.4 27 73.5 27 73.5 26.9 73.5 26.9 73.5 26.8 73.5 26.8 73.4L26.8 73.5ZM51 82.7L52.3 82.8 52.3 82.7C52.2 82.7 52.2 82.6 52.2 82.6 52.2 82.6 52.1 82.6 52.1 82.5L51.2 80.6C51.2 80.5 51.7 80 51.8 79.9 51.9 79.7 52.1 79.6 52.2 79.5 52.3 79.4 52.3 79.4 52.4 79.4L52.4 79.3 51.2 79.3 51.2 79.4C51.2 79.4 51.2 79.4 51.3 79.4 51.3 79.4 51.3 79.5 51.3 79.5 51.3 79.5 51.3 79.6 51.2 79.6 51.2 79.7 51.1 79.7 51 79.8 51 79.9 50 80.9 50 80.9L50 79.5C50 79.4 50.1 79.4 50.1 79.4 50.1 79.3 50.2 79.3 50.2 79.3L50.2 79.2 49 79.2 49 79.3C49.1 79.3 49.1 79.3 49.1 79.3 49.2 79.3 49.2 79.4 49.2 79.4L49.1 82.4C49.1 82.5 49.1 82.5 49 82.5 49 82.6 49 82.6 48.9 82.6L48.9 82.7 50.1 82.7 50.1 82.6C50.1 82.6 50 82.6 50 82.6 50 82.6 49.9 82.5 49.9 82.5L50 81.8 50.5 81.2C50.5 81.2 51.1 82.3 51.1 82.4 51.2 82.5 51.2 82.5 51.2 82.5 51.2 82.6 51.1 82.6 51.1 82.6 51.1 82.6 51 82.7 51 82.7L51 82.7ZM36.1 78.6L34.5 77.8 34.8 77.1 35.9 77.7C35.9 77.7 35.9 77.7 35.9 77.7 36 77.8 35.9 77.8 35.9 77.9L36 77.9 36.5 77 36.4 77C36.3 77 36.3 77.1 36.3 77.1 36.2 77.1 36.2 77.1 36.2 77.1L35.1 76.5 35.4 76 37.1 76.8C37.1 76.8 37.1 76.8 37.1 76.9 37.1 76.9 37.1 77 37.1 77L37.2 77.1 37.6 76.1 37.6 76.1C37.5 76.2 37.5 76.2 37.5 76.2 37.4 76.2 37.4 76.2 37.4 76.2L34.8 74.9 34.8 75C34.8 75 34.9 75 34.9 75.1 34.9 75.1 34.9 75.1 34.9 75.2L33.5 77.9C33.5 77.9 33.5 77.9 33.4 77.9 33.4 77.9 33.3 77.9 33.3 77.9L33.3 78 35.8 79.3C35.8 79.3 35.8 79.3 35.9 79.3 35.9 79.4 35.9 79.4 35.9 79.5L35.9 79.5 36.4 78.6 36.3 78.5C36.2 78.7 36.2 78.7 36.1 78.6ZM31 75.8L29.5 74.8 30 74.1 30.9 74.8C30.9 74.8 31 74.9 31 74.9 31 74.9 31 75 30.9 75L31 75.1 31.6 74.3 31.5 74.2C31.5 74.3 31.4 74.3 31.4 74.3 31.4 74.3 31.3 74.3 31.3 74.3L30.4 73.6 30.7 73.1 32.2 74.2C32.2 74.2 32.3 74.2 32.3 74.2 32.3 74.3 32.3 74.3 32.2 74.4L32.3 74.4 32.9 73.6 32.8 73.5C32.8 73.6 32.7 73.6 32.7 73.6 32.7 73.6 32.7 73.6 32.6 73.6L30.3 71.9 30.3 72C30.3 72 30.3 72.1 30.3 72.1 30.3 72.1 30.3 72.2 30.3 72.2L28.6 74.7C28.5 74.7 28.5 74.7 28.4 74.7 28.4 74.7 28.4 74.7 28.3 74.7L28.3 74.7 30.6 76.4C30.6 76.4 30.6 76.4 30.6 76.5 30.7 76.5 30.6 76.5 30.6 76.6L30.7 76.7 31.3 75.8 31.2 75.8C31.1 75.9 31 75.9 31 75.8ZM16.9 49.9L15.2 50.3C15 50.3 14.8 50.4 14.6 50.5 14.4 50.6 14.3 50.7 14.2 50.8 14.1 51 14 51.1 13.9 51.3 13.9 51.5 13.9 51.8 14 52.1 14 52.3 14.1 52.6 14.2 52.7 14.3 52.9 14.5 53 14.6 53.1 14.8 53.2 15 53.2 15.2 53.2 15.4 53.3 15.6 53.2 15.8 53.2L17.5 52.8C17.6 52.8 17.6 52.8 17.6 52.9 17.7 52.9 17.7 52.9 17.7 53L17.8 53 17.5 51.9 17.4 51.9C17.4 51.9 17.4 51.9 17.4 51.9 17.4 52 17.4 52 17.3 52L15.4 52.4C15.2 52.4 15.1 52.4 15 52.3 14.9 52.2 14.8 52.1 14.7 51.9 14.7 51.7 14.7 51.6 14.8 51.4 14.8 51.3 15 51.2 15.2 51.2L17 50.8C17.1 50.8 17.1 50.8 17.2 50.8 17.2 50.8 17.2 50.8 17.2 50.8L17.3 50.8 17.1 49.7 17 49.7C17 49.8 17 49.8 17 49.8 17 49.9 17 49.9 16.9 49.9ZM23.5 65.3L22.1 66.5C22 66.6 21.8 66.7 21.7 66.9 21.6 67.1 21.5 67.2 21.5 67.4 21.5 67.6 21.5 67.8 21.5 68 21.6 68.2 21.7 68.4 21.9 68.6 22.1 68.8 22.2 69 22.4 69.1 22.6 69.1 22.8 69.2 23 69.2 23.1 69.2 23.3 69.2 23.5 69.1 23.7 69 23.8 68.9 24 68.8L25.4 67.6C25.4 67.6 25.5 67.6 25.5 67.6 25.5 67.6 25.6 67.6 25.6 67.7L25.7 67.6 24.9 66.8 24.9 66.8C24.9 66.8 24.9 66.9 24.9 66.9 24.9 66.9 24.9 67 24.8 67L23.3 68.2C23.2 68.3 23 68.4 22.9 68.4 22.8 68.3 22.6 68.2 22.5 68.1 22.4 67.9 22.3 67.8 22.3 67.6 22.3 67.5 22.4 67.4 22.5 67.2L24 66C24.1 66 24.1 66 24.1 66 24.2 66 24.2 66 24.2 66L24.3 65.9 23.6 65 23.5 65.1C23.5 65.1 23.6 65.2 23.6 65.2 23.6 65.3 23.6 65.3 23.5 65.3ZM17.2 60.8L19.2 59.7 19.3 59.7 17.6 61.6 20.1 61.4 20.1 61.4 18.1 62.4C18 62.5 18 62.5 18 62.5 17.9 62.4 17.9 62.4 17.9 62.4L17.8 62.4 18.3 63.3 18.4 63.3C18.4 63.3 18.4 63.2 18.4 63.2 18.4 63.2 18.4 63.1 18.5 63.1L21.1 61.7C21.2 61.7 21.2 61.7 21.3 61.7 21.3 61.7 21.3 61.8 21.3 61.8L21.4 61.7 20.7 60.5 20.6 60.6C20.6 60.6 20.7 60.6 20.7 60.6 20.7 60.7 20.7 60.7 20.6 60.7 20.6 60.7 20.5 60.7 20.4 60.7 20.3 60.7 19.3 60.8 19.2 60.8 19.2 60.8 19.9 60 20 59.9 20.1 59.8 20.1 59.8 20.2 59.8 20.2 59.8 20.2 59.8 20.2 59.8 20.2 59.8 20.3 59.8 20.3 59.8L20.4 59.8 19.8 58.5 19.7 58.6C19.7 58.6 19.7 58.6 19.7 58.7 19.7 58.7 19.7 58.8 19.6 58.8L16.9 60.2C16.9 60.2 16.9 60.2 16.8 60.2 16.8 60.1 16.8 60.1 16.8 60.1L16.7 60.1 17.1 61 17.2 61C17.2 60.9 17.1 60.9 17.1 60.9 17.1 60.8 17.2 60.8 17.2 60.8ZM84.8 58.6C84.8 58.5 84.9 58.4 85 58.3 85.1 58.2 85.2 58.2 85.3 58.1 85.4 58.1 85.5 58.1 85.6 58.1 85.7 58.1 85.9 58.1 86 58.2 86.1 58.2 86.2 58.3 86.3 58.4 86.4 58.5 86.5 58.6 86.5 58.7 86.6 58.8 86.6 58.9 86.6 59 86.6 59.1 86.6 59.2 86.5 59.4 86.5 59.5 86.4 59.6 86.3 59.6 86.2 59.7 86.1 59.8 86 59.8 85.9 59.9 85.8 59.9 85.7 59.9 85.6 59.9 85.4 59.8 85.3 59.8 85.2 59.7 85.1 59.6 85 59.6 84.9 59.5 84.8 59.4 84.8 59.3 84.7 59.2 84.7 59.1 84.7 58.9 84.7 58.8 84.7 58.7 84.8 58.6ZM84 58.3C83.9 58.5 83.9 58.6 83.9 58.9 83.9 59.1 83.9 59.3 83.9 59.5 84 59.7 84.1 59.9 84.3 60.1 84.5 60.3 84.7 60.4 85 60.5 85.3 60.7 85.5 60.7 85.8 60.7 86 60.7 86.3 60.7 86.4 60.6 86.6 60.5 86.8 60.4 86.9 60.2 87.1 60 87.2 59.9 87.3 59.7 87.3 59.5 87.4 59.3 87.4 59.1 87.4 58.9 87.4 58.7 87.4 58.5 87.3 58.3 87.2 58.1 87 57.9 86.8 57.7 86.6 57.6 86.3 57.4 86 57.3 85.8 57.2 85.5 57.2 85.3 57.2 85 57.3 84.9 57.4 84.7 57.5 84.5 57.6 84.3 57.8 84.2 57.9 84.1 58.1 84 58.3ZM83.7 62.5L82.9 62.1 83.2 61.5C83.3 61.4 83.4 61.3 83.5 61.3 83.6 61.2 83.7 61.3 83.8 61.4 84 61.4 84.1 61.5 84.1 61.6 84.1 61.7 84.1 61.9 84 62L83.7 62.5ZM82.1 62.6L84.6 64.1C84.7 64.1 84.7 64.2 84.7 64.2 84.7 64.2 84.7 64.3 84.7 64.3L84.8 64.3 85.4 63.4 85.3 63.3C85.3 63.4 85.2 63.4 85.2 63.4 85.2 63.4 85.1 63.4 85.1 63.4L84.2 62.9 84.6 62.3C84.7 62.1 84.7 62 84.8 61.9 84.8 61.7 84.9 61.6 84.8 61.4 84.8 61.3 84.8 61.2 84.7 61 84.6 60.9 84.4 60.8 84.3 60.6 84.1 60.5 83.9 60.5 83.7 60.4 83.5 60.4 83.4 60.4 83.3 60.5 83.2 60.6 83 60.6 82.9 60.7 82.8 60.8 82.7 61 82.7 61.1L81.8 62.5 81.9 62.6C81.9 62.6 81.9 62.6 81.9 62.5 82 62.5 82 62.5 82.1 62.6ZM88.9 54.3L86 53.4C86 53.4 85.9 53.4 85.9 53.3 85.9 53.3 85.9 53.3 85.9 53.2L85.9 53.2 85.6 54.2 85.6 54.3C85.7 54.2 85.7 54.2 85.7 54.2 85.7 54.1 85.8 54.1 85.8 54.1L87.3 54.6C87.1 54.7 85.8 55.2 85.7 55.2 85.5 55.2 85.5 55.2 85.5 55.2 85.4 55.2 85.4 55.2 85.4 55.2 85.4 55.1 85.4 55.1 85.4 55.1L85.3 55 84.8 56.5 84.9 56.5C84.9 56.4 84.9 56.4 85 56.4 85 56.4 85 56.4 85.1 56.4L87.9 57.3C88 57.3 88 57.3 88 57.4 88 57.4 88 57.5 88 57.5L88.1 57.5 88.5 56.5 88.4 56.5C88.4 56.5 88.3 56.6 88.3 56.6 88.3 56.6 88.2 56.6 88.2 56.6L86.2 55.9 86.2 55.9C86.5 55.8 87.6 55.5 87.8 55.4 88.1 55.3 88.3 55.2 88.4 55.2 88.6 55.1 88.7 55.1 88.7 55.1 88.7 55.2 88.8 55.2 88.8 55.2 88.8 55.3 88.8 55.3 88.7 55.3L88.8 55.4 89.2 54.2 89.1 54.2C89.1 54.3 89 54.3 89 54.3 89 54.4 88.9 54.4 88.9 54.3ZM69.3 78.3L68 75.6C68 75.6 68 75.5 68 75.5 68 75.5 68.1 75.4 68.1 75.4L68.1 75.3 67.1 75.8 67.1 75.9C67.2 75.9 67.2 75.9 67.2 75.9 67.3 75.9 67.3 75.9 67.3 76L68 77.4C67.8 77.3 66.6 76.6 66.4 76.5 66.3 76.5 66.3 76.5 66.3 76.4 66.3 76.4 66.3 76.4 66.3 76.3 66.3 76.3 66.3 76.3 66.4 76.3L66.3 76.2 64.9 76.8 65 76.9C65 76.8 65.1 76.8 65.1 76.8 65.1 76.8 65.2 76.9 65.2 76.9L66.4 79.6C66.5 79.7 66.5 79.7 66.4 79.8 66.4 79.8 66.4 79.8 66.3 79.8L66.4 79.9 67.4 79.5 67.3 79.4C67.3 79.4 67.3 79.4 67.2 79.4 67.2 79.4 67.2 79.4 67.1 79.4L66.3 77.5 66.3 77.5C66.5 77.6 67.6 78.2 67.8 78.3 68 78.4 68.2 78.5 68.3 78.6 68.4 78.7 68.5 78.7 68.5 78.8 68.6 78.8 68.6 78.8 68.5 78.9 68.5 78.9 68.5 78.9 68.4 78.9L68.5 79 69.5 78.5 69.5 78.4C69.4 78.4 69.4 78.4 69.3 78.4 69.3 78.4 69.3 78.4 69.3 78.3ZM74 71.4L73 72.2 73 72.3C73.1 72.3 73.1 72.2 73.2 72.2 73.2 72.2 73.3 72.2 73.3 72.3L75.2 74.6C75.2 74.7 75.2 74.7 75.2 74.7 75.2 74.8 75.1 74.8 75.1 74.9L75.1 74.9 76.1 74.2 76.1 74.1C76 74.1 76 74.2 75.9 74.2 75.9 74.2 75.9 74.2 75.8 74.1L74 71.8C73.9 71.7 73.9 71.7 73.9 71.6 74 71.6 74 71.6 74 71.5L74 71.4ZM64.3 77L63.1 77.4 63.2 77.5C63.2 77.5 63.3 77.5 63.3 77.5 63.4 77.5 63.4 77.5 63.4 77.6L64.4 80.4C64.4 80.5 64.4 80.5 64.4 80.5 64.4 80.6 64.3 80.6 64.3 80.6L64.3 80.7 65.5 80.3 65.4 80.2C65.4 80.2 65.3 80.2 65.3 80.2 65.3 80.2 65.2 80.2 65.2 80.1L64.2 77.3C64.2 77.2 64.2 77.2 64.2 77.2 64.2 77.2 64.3 77.1 64.3 77.1L64.3 77ZM59.1 78.5L59 78.3C58.9 78.4 58.8 78.5 58.7 78.6 58.6 78.7 58.6 78.8 58.5 78.9 58.4 79 58.4 79.1 58.4 79.3 58.3 79.4 58.3 79.6 58.4 79.8 58.4 79.9 58.5 80.1 58.6 80.2 58.7 80.3 58.8 80.4 59 80.4 59.1 80.3 59.2 80.3 59.3 80.2 59.3 80 59.4 79.9 59.3 79.7 59.3 79.5 59.2 79.4 59.1 79.3 59 79.3 58.8 79.3 58.7 79.3 58.7 79.1 58.7 79 58.8 78.8 58.9 78.7 59 78.6 59.1 78.5ZM81.6 66.8L80.9 67.6 80.1 66.4 81.6 66.8ZM82.7 67.3L83.3 66.5 83.3 66.4C83.3 66.5 83.2 66.5 83.2 66.5 83.2 66.5 83.2 66.5 83.1 66.5 83 66.4 80.3 65.6 80.2 65.6 80.1 65.5 80 65.5 80 65.5 80 65.5 80 65.4 80 65.4L79.9 65.3 79.1 66.3 79.2 66.4C79.2 66.4 79.3 66.4 79.3 66.4 79.3 66.4 79.4 66.5 79.5 66.7 79.6 66.9 80.8 68.8 81 69.2 81.1 69.2 81.1 69.2 81.1 69.2 81.1 69.3 81 69.3 81 69.3L81.1 69.4 81.7 68.6 81.6 68.6C81.6 68.6 81.6 68.6 81.6 68.6 81.6 68.6 81.6 68.6 81.5 68.6 81.5 68.6 81.5 68.6 81.5 68.5 81.4 68.5 81.3 68.2 81.2 68.1L82.1 67C82.2 67 82.5 67.1 82.6 67.1 82.6 67.1 82.6 67.2 82.6 67.2 82.7 67.2 82.7 67.2 82.7 67.2 82.7 67.3 82.7 67.3 82.7 67.3L82.7 67.3ZM71.4 76L70.5 76.5 70.2 75 71.4 76ZM72.3 76.9L73.2 76.3 73.1 76.2C73.1 76.3 73.1 76.3 73.1 76.3 73 76.3 73 76.3 73 76.2 72.9 76.1 70.7 74.4 70.6 74.3 70.5 74.2 70.4 74.2 70.4 74.2 70.4 74.1 70.4 74.1 70.5 74.1L70.4 74 69.3 74.7 69.3 74.7C69.4 74.7 69.4 74.7 69.4 74.8 69.4 74.8 69.5 74.9 69.5 75.1 69.6 75.3 70 77.6 70.1 78 70.1 78 70.1 78 70.1 78.1 70.1 78.1 70 78.1 70 78.1L70.1 78.2 70.9 77.7 70.8 77.7C70.8 77.7 70.8 77.7 70.8 77.7 70.8 77.7 70.8 77.7 70.7 77.6 70.7 77.6 70.7 77.6 70.7 77.5 70.7 77.5 70.6 77.1 70.6 77.1L71.9 76.3C71.9 76.4 72.2 76.6 72.2 76.6 72.3 76.7 72.3 76.7 72.3 76.7 72.3 76.7 72.3 76.8 72.3 76.8 72.3 76.8 72.3 76.8 72.3 76.8L72.3 76.9ZM62.1 80.1L61.1 80.3 61.3 78.8 62.1 80.1ZM62.8 81.2L63.8 80.9 63.7 80.8C63.7 80.8 63.7 80.8 63.7 80.8 63.6 80.8 63.6 80.8 63.6 80.7 63.5 80.6 61.9 78.4 61.8 78.2 61.7 78.1 61.7 78.1 61.7 78.1 61.7 78 61.7 78 61.7 78L61.7 77.9 60.4 78.2 60.5 78.3C60.5 78.3 60.5 78.3 60.6 78.4 60.6 78.4 60.6 78.5 60.5 78.7 60.5 78.9 60.3 81.2 60.3 81.6 60.3 81.7 60.3 81.7 60.3 81.7 60.3 81.7 60.2 81.7 60.2 81.8L60.2 81.8 61.2 81.6 61.1 81.5C61.1 81.5 61.1 81.5 61.1 81.5 61.1 81.5 61.1 81.5 61 81.5 61 81.5 61 81.4 61 81.4 61 81.3 61.1 81 61.1 80.9L62.5 80.5C62.5 80.6 62.7 80.9 62.8 80.9 62.8 81 62.8 81 62.8 81 62.8 81 62.8 81.1 62.8 81.1 62.8 81.1 62.8 81.1 62.7 81.1L62.8 81.2ZM79.9 70.6L80.8 69.7 80.7 69.6C80.7 69.6 80.7 69.6 80.7 69.7 80.6 69.7 80.6 69.7 80.6 69.6L78.5 69.1C78.5 68.9 78.4 68.2 78.4 68.1 78.4 67.9 78.4 67.7 78.4 67.6 78.4 67.5 78.4 67.4 78.4 67.3L78.3 67.2 77.5 68.2 77.6 68.2C77.6 68.2 77.6 68.2 77.7 68.2 77.7 68.2 77.7 68.2 77.8 68.2 77.8 68.2 77.8 68.3 77.8 68.3 77.8 68.4 77.8 68.5 77.8 68.6 77.9 68.7 77.9 70.1 77.9 70.2L76.9 69.1C76.8 69.1 76.8 69.1 76.8 69 76.9 69 76.9 68.9 76.9 68.9L76.8 68.8 76 69.7 76.1 69.7C76.1 69.7 76.1 69.7 76.2 69.7 76.2 69.7 76.2 69.7 76.3 69.7L78.4 71.8C78.5 71.9 78.5 71.9 78.5 71.9 78.5 72 78.5 72 78.4 72L78.5 72.1 79.3 71.3 79.3 71.2C79.2 71.2 79.2 71.2 79.2 71.3 79.1 71.3 79.1 71.3 79 71.2L78.6 70.8 78.5 69.9C78.5 69.9 79.7 70.3 79.8 70.3 79.9 70.3 79.9 70.3 79.9 70.3 79.9 70.4 80 70.4 79.9 70.5 79.9 70.5 79.9 70.5 79.9 70.6L79.9 70.6ZM60.2 77.3L60.3 77.7 61.5 77.4 61.4 76.9 60.2 77.3ZM60.3 77.5L61.5 77.1M90.4 34.1L90.7 34C90.5 33.9 90.4 33.7 90.3 33.6 90.1 33.4 90 33.3 89.8 33.2 89.6 33.1 89.5 33.1 89.3 33.1 89.1 33 88.9 33 88.6 33.1 88.4 33.2 88.2 33.3 88.1 33.5 87.9 33.6 87.9 33.8 87.9 34.1 88 34.2 88.1 34.4 88.3 34.5 88.4 34.6 88.6 34.6 88.8 34.6 89.1 34.5 89.2 34.4 89.3 34.2 89.4 34 89.4 33.8 89.3 33.6 89.5 33.5 89.7 33.6 89.9 33.7 90.1 33.8 90.2 33.9 90.4 34.1ZM90.4 37L90.1 35.2 90 35.3C90 35.4 90 35.4 90 35.5 90 35.5 89.9 35.6 89.8 35.6L86 36.4C85.9 36.4 85.9 36.4 85.9 36.3 85.8 36.3 85.8 36.2 85.8 36.1L85.7 36.2 86 38 86.1 37.9C86.1 37.9 86.1 37.8 86.1 37.7 86.1 37.7 86.2 37.6 86.3 37.6L90.1 36.8C90.2 36.8 90.2 36.8 90.2 36.9 90.3 36.9 90.3 37 90.3 37.1L90.4 37ZM18.9 22.7L17.9 24.3 18 24.4C18.1 24.3 18.1 24.3 18.2 24.2 18.2 24.2 18.2 24.2 18.3 24.2L21.7 26.3C21.7 26.3 21.8 26.3 21.7 26.4 21.7 26.4 21.7 26.5 21.7 26.6L21.8 26.7 22.7 25.1 22.6 25C22.6 25.1 22.5 25.2 22.5 25.2 22.4 25.2 22.4 25.2 22.3 25.2L19 23.2C18.9 23.1 18.9 23.1 18.9 23 18.9 23 18.9 22.9 19 22.8L18.9 22.7ZM40.6 6.4L38.8 6.9 38.9 7C39 7 39 7 39.1 7 39.1 7 39.2 7.1 39.2 7.1L40.4 10.9C40.5 10.9 40.4 11 40.4 11 40.4 11 40.3 11.1 40.2 11.1L40.2 11.2 42 10.7 42 10.5C41.9 10.6 41.8 10.6 41.7 10.6 41.7 10.6 41.6 10.5 41.6 10.5L40.4 6.7C40.4 6.7 40.4 6.6 40.4 6.6 40.5 6.5 40.5 6.5 40.6 6.5L40.6 6.4ZM89.1 31.7L88.5 30 88.4 30C88.4 30.1 88.4 30.2 88.4 30.3 88.4 30.3 88.4 30.4 88.3 30.4L84.6 31.7C84.6 31.7 84.5 31.7 84.5 31.7 84.4 31.6 84.4 31.6 84.4 31.5L84.2 31.5 84.9 33.3 85 33.2C84.9 33.1 84.9 33.1 84.9 33 84.9 33 85 32.9 85 32.9L88.7 31.6C88.8 31.5 88.8 31.5 88.9 31.6 88.9 31.6 89 31.7 89 31.8L89.1 31.7ZM81.9 18.7L80.8 17.5 80.7 17.6C80.7 17.6 80.7 17.7 80.8 17.7 80.8 17.7 80.7 17.8 80.7 17.8 80.7 17.8 78.3 21.1 78.3 21.1 78.3 21.1 78.1 21.1 78 21L77.9 21.1 79.2 22.5 79.2 22.5C79.2 22.4 79.2 22.4 79.2 22.3 79.2 22.3 79.2 22.2 79.2 22.2 79.2 22.2 79.3 22.1 79.4 22.1 79.5 22.1 81.3 21.5 81.4 21.4 81.5 21.4 81.6 21.3 81.7 21.3L81.7 21.3C81.7 21.4 81.6 21.4 81.5 21.6 81.4 21.7 80.4 23.2 80.3 23.3 80.3 23.4 80.2 23.5 80.2 23.5 80.1 23.5 80 23.5 79.9 23.4L79.8 23.4 80.9 25 81 25C80.9 24.8 81 24.7 81 24.7 81.1 24.6 84.6 23.3 84.7 23.3 84.7 23.2 84.8 23.2 84.8 23.2 84.9 23.2 85 23.2 85 23.3L85.1 23.2 84.3 21.9 84.2 22C84.2 22.1 84.3 22.1 84.3 22.2 84.3 22.2 84.3 22.3 84.2 22.3 84.2 22.4 81.8 23.3 81.8 23.3L81.7 23.3C81.8 23.3 83.1 21.3 83.1 21.2 83.2 21.1 83.3 21.1 83.3 21 83.3 21 83.4 21 83.4 21 83.5 21 83.5 21.1 83.6 21.1L83.7 21.1 82.5 19.6 82.5 19.7C82.5 19.7 82.5 19.7 82.5 19.8 82.5 19.9 82.5 19.9 82.5 20 82.4 20 82.4 20 82.2 20.1 82.1 20.1 79.9 20.8 79.9 20.9L79.9 20.9C79.9 20.8 81.5 18.7 81.5 18.7 81.5 18.7 81.6 18.7 81.6 18.7 81.7 18.7 81.7 18.8 81.8 18.8L81.9 18.7ZM84.6 28.2L83.9 26.9 85.8 26.7 84.6 28.2ZM83.3 29.4L84 30.9 84.1 30.8C84.1 30.8 84.1 30.8 84.1 30.7 84.1 30.7 84.1 30.6 84.1 30.6 84.2 30.5 86.7 27.4 86.8 27.3 86.9 27.2 87 27.1 87 27.1 87 27.1 87.1 27.1 87.1 27.1L87.2 27.1 86.4 25.4 86.3 25.4C86.3 25.5 86.3 25.6 86.2 25.6 86.2 25.6 86.1 25.6 85.8 25.6 85.5 25.7 82.3 26 81.8 26 81.8 26.1 81.7 26 81.7 26 81.7 26 81.6 26 81.6 25.9L81.5 26 82.2 27.2 82.3 27.2C82.3 27.1 82.3 27.1 82.3 27.1 82.3 27.1 82.3 27 82.4 27 82.4 27 82.4 27 82.5 27 82.5 27 83.1 26.9 83.1 26.9L84.1 28.8C84.1 28.9 83.7 29.3 83.7 29.3 83.6 29.4 83.6 29.4 83.6 29.4 83.5 29.5 83.5 29.5 83.5 29.4 83.5 29.4 83.5 29.4 83.4 29.4L83.3 29.4ZM76.8 17.5L75.6 16.5 77.4 15.7 76.8 17.5ZM76 19.1L77.1 20.2 77.2 20.1C77.2 20.1 77.2 20.1 77.2 20 77.1 20 77.1 20 77.2 19.9 77.2 19.8 78.4 16 78.5 15.9 78.6 15.7 78.6 15.6 78.6 15.6 78.7 15.6 78.7 15.6 78.8 15.6L78.9 15.5 77.4 14.2 77.3 14.3C77.4 14.4 77.4 14.4 77.4 14.5 77.3 14.5 77.2 14.6 77 14.7 76.7 14.8 73.8 16.3 73.4 16.5 73.4 16.5 73.3 16.5 73.3 16.5 73.3 16.5 73.2 16.5 73.2 16.4L73.1 16.5 74.2 17.4 74.3 17.3C74.3 17.3 74.3 17.3 74.2 17.3 74.2 17.3 74.2 17.2 74.3 17.2 74.3 17.2 74.3 17.1 74.4 17.1 74.4 17.1 74.9 16.9 74.9 16.8L76.5 18.3C76.5 18.3 76.3 18.8 76.3 18.9 76.3 19 76.3 19 76.3 19 76.2 19 76.2 19.1 76.2 19 76.1 19 76.1 19 76.1 19L76 19.1ZM70.5 12.5L72.2 13.6 71.4 14.9C71.3 15 71.3 15 71.2 15 71.2 15 71.1 14.9 71.1 14.9L71 15 72.4 16 72.5 15.9C72.4 15.9 72.4 15.8 72.4 15.8 72.3 15.7 72.3 15.7 72.4 15.6L74.5 12.3C74.5 12.2 74.5 12.2 74.6 12.2 74.6 12.2 74.7 12.2 74.8 12.3L74.8 12.2 73.4 11.2 73.3 11.3C73.4 11.3 73.4 11.4 73.4 11.4 73.5 11.4 73.5 11.5 73.4 11.6L72.8 12.7 71 11.6 71.7 10.5C71.7 10.4 71.8 10.4 71.8 10.4 71.9 10.4 72 10.4 72 10.4L72.1 10.3 70.6 9.5 70.5 9.6C70.5 9.6 70.6 9.7 70.6 9.7 70.7 9.7 70.6 9.8 70.6 9.9L68.5 13.2C68.5 13.3 68.5 13.3 68.4 13.3 68.4 13.3 68.3 13.2 68.2 13.2L68.2 13.3 69.7 14.2 69.8 14.1C69.7 14 69.6 14 69.6 14 69.6 13.9 69.6 13.9 69.6 13.8L70.5 12.5ZM63 6.6L61.7 10.4C61.7 10.4 61.6 10.5 61.6 10.5 61.5 10.5 61.4 10.5 61.4 10.4L61.3 10.6 63 11.1 63 11C63 10.9 62.9 10.9 62.9 10.9 62.8 10.8 62.8 10.8 62.9 10.7L63.3 9.4 64.9 9.9C65 10 65 10 65 10 65 10.1 65 10.1 65 10.2L65.1 10.3 65.6 9 65.4 8.9C65.4 9 65.4 9.1 65.3 9.1 65.3 9.1 65.3 9.1 65.2 9.1L63.6 8.5 63.9 7.6 66.3 8.5C66.3 8.5 66.4 8.5 66.4 8.6 66.4 8.6 66.4 8.7 66.4 8.8L66.5 8.8 66.9 7.5 66.8 7.4C66.8 7.5 66.8 7.6 66.7 7.6 66.7 7.6 66.6 7.6 66.6 7.6L62.8 6.3 62.8 6.4C62.8 6.4 62.9 6.5 62.9 6.5 63 6.5 63 6.6 63 6.6ZM59 6.4C59.1 6.5 59.3 6.5 59.4 6.6 59.6 6.7 59.7 6.8 59.8 6.9 59.9 7.1 60 7.2 60 7.4 60 7.5 60 7.7 60 7.9 60 8.1 59.9 8.2 59.8 8.4 59.7 8.5 59.6 8.6 59.5 8.7 59.3 8.8 59.2 8.8 59 8.8 58.9 8.9 58.7 8.9 58.5 8.8 58.4 8.8 58.2 8.8 58.1 8.7 57.9 8.6 57.8 8.5 57.7 8.3 57.6 8.2 57.5 8.1 57.5 7.9 57.5 7.8 57.5 7.6 57.5 7.4 57.5 7.2 57.6 7.1 57.7 6.9 57.8 6.8 57.9 6.7 58 6.6 58.2 6.5 58.3 6.5 58.5 6.4 58.6 6.4 58.8 6.4 59 6.4ZM59.2 5.4C58.9 5.3 58.6 5.3 58.3 5.3 58 5.4 57.7 5.5 57.4 5.6 57.2 5.7 56.9 5.9 56.7 6.2 56.5 6.5 56.4 6.8 56.3 7.2 56.2 7.6 56.2 7.9 56.3 8.3 56.4 8.6 56.6 8.8 56.8 9.1 57 9.3 57.2 9.5 57.5 9.6 57.8 9.7 58 9.8 58.3 9.9 58.6 9.9 58.9 10 59.2 9.9 59.5 9.9 59.8 9.8 60.1 9.7 60.3 9.5 60.6 9.3 60.8 9.1 61 8.8 61.1 8.5 61.2 8.1 61.3 7.7 61.3 7.3 61.2 7 61.1 6.7 60.9 6.4 60.7 6.2 60.5 6 60.3 5.8 60 5.7 59.7 5.5 59.5 5.4 59.2 5.4ZM50.7 9L50.6 7.6 52.1 5C52.1 4.9 52.1 4.9 52.2 4.9 52.3 4.8 52.3 4.8 52.3 4.8L52.3 4.7 50.5 4.7 50.5 4.9C50.5 4.9 50.6 4.9 50.6 4.9 50.7 4.9 50.7 4.9 50.7 5 50.7 5 50.7 5.1 50.6 5.2 50.5 5.4 50 6.3 50 6.4 49.9 6.3 49.2 5.3 49.1 5.3 49.1 5.2 49 5.1 49 5 49 5 49 5 49.1 4.9 49.1 4.9 49.2 4.9 49.2 4.9L49.2 4.8 47.3 5 47.3 5.1C47.3 5.1 47.4 5.1 47.4 5.1 47.5 5.1 47.5 5.1 47.5 5.2L49.4 7.7 49.5 9C49.5 9.1 49.5 9.1 49.4 9.2 49.4 9.2 49.3 9.2 49.3 9.2L49.3 9.3 50.9 9.3 50.9 9.1C50.9 9.1 50.8 9.1 50.8 9.1 50.7 9.1 50.7 9 50.7 9ZM46 5.1L42.2 5.9C42.2 5.9 42.1 5.9 42.1 5.9 42 5.9 42 5.8 42 5.7L41.9 5.7 42.2 7.2 42.3 7.2C42.3 7.1 42.3 7 42.3 7 42.3 7 42.4 6.9 42.4 6.9L43.7 6.7 44.3 9.8C44.3 9.8 44.3 9.9 44.3 9.9 44.3 9.9 44.2 10 44.2 10L44.2 10.1 45.8 9.8 45.8 9.6C45.8 9.6 45.7 9.6 45.7 9.6 45.6 9.6 45.6 9.6 45.6 9.5L44.9 6.4 46.2 6.2C46.3 6.2 46.3 6.2 46.4 6.2 46.4 6.2 46.4 6.3 46.4 6.3L46.6 6.3 46.3 4.9 46.2 4.9C46.2 5 46.2 5 46.1 5.1 46.1 5.1 46.1 5.1 46 5.1ZM35 11.8L35.2 13.2 35.3 13.2C35.3 13.1 35.3 13.1 35.4 13.1 35.4 13 35.4 13 35.4 13 35.5 13 35.5 12.9 35.7 12.9 35.8 12.9 36 12.9 36.2 12.8 36.3 12.8 36.6 12.7 36.8 12.7 37 12.6 37.2 12.5 37.4 12.4 37.7 12.3 38 12.1 38.2 12 38.4 11.8 38.6 11.6 38.6 11.4 38.8 11.2 38.8 11 38.8 10.8 38.8 10.6 38.8 10.4 38.7 10.2 38.5 10 38.4 9.8 38.2 9.7 38 9.6 37.7 9.6 37.5 9.6 37.3 9.6 37 9.6 36.7 9.7 36.5 9.8 36.3 9.9 36 9.9 35.8 10 35.6 10 35.5 10.1 35.3 10.1 35.2 10 35.2 9.9 35.1 9.8 35.1 9.7 35.2 9.6 35.2 9.5 35.3 9.4 35.4 9.4 35.5 9.3 35.6 9.2 35.7 9.2 35.8 9.1 35.9 9.1 35.9 9.1 36.1 9 36.2 8.9 36.4 8.9 36.5 8.9 36.7 8.8 36.8 8.8 36.9 8.8 37 8.8 37.1 8.8 37.2 8.8 37.3 8.8 37.3 8.9 37.3 8.9 37.3 8.9 37.3 8.9 37.3 8.9 37.3 9 37.3 9L37.4 9 37.4 7.6 37.3 7.6C37.3 7.6 37.3 7.6 37.3 7.7 37.2 7.7 37.2 7.8 37.2 7.8 37.1 7.8 37 7.8 36.9 7.8 36.8 7.9 36.7 7.9 36.5 7.9 36.3 8 36.2 8 36 8.1 35.8 8.1 35.6 8.2 35.4 8.3 35 8.5 34.8 8.6 34.6 8.8 34.4 9 34.2 9.2 34.1 9.4 34.1 9.6 34 9.9 34 10.1 34 10.2 34.1 10.4 34.1 10.6 34.3 10.8 34.4 11 34.6 11.1 34.8 11.2 35 11.2 35.3 11.2 35.5 11.2 35.8 11.1 36 11 36.3 11 36.5 10.9 36.7 10.8 37 10.7 37.1 10.7 37.3 10.7 37.5 10.7 37.6 10.7 37.6 10.9 37.7 11 37.7 11.1 37.6 11.1 37.6 11.2 37.5 11.3 37.5 11.4 37.4 11.4 37.3 11.5 37.2 11.5 37.2 11.6 37.1 11.6 37 11.6 36.9 11.7 36.7 11.8 36.5 11.8 36.3 11.9 36.1 11.9 35.9 12 35.7 12 35.5 12 35.4 12 35.3 12 35.2 12 35.2 11.9 35.2 11.9 35.1 11.9 35.1 11.8 35.1 11.8 35.1 11.8 35.1 11.8L35 11.8ZM30.4 13.6L29.8 12.7 30.8 11.9C31 11.8 31.2 11.7 31.4 11.8 31.5 11.8 31.6 11.9 31.7 12 31.8 12.2 31.8 12.3 31.8 12.4 31.8 12.6 31.6 12.7 31.5 12.8L30.4 13.6ZM28.5 12.8L30.7 16.1C30.7 16.2 30.7 16.2 30.7 16.2 30.7 16.3 30.6 16.3 30.6 16.3L30.7 16.5 32 15.5 31.9 15.4C31.8 15.4 31.8 15.5 31.7 15.5 31.7 15.5 31.6 15.5 31.6 15.4L30.8 14.2 31.6 13.7C31.6 13.8 32.6 14.3 32.7 14.4 32.9 14.5 32.9 14.5 33 14.5 33 14.6 33 14.6 32.9 14.7 32.9 14.7 32.9 14.7 32.8 14.8L32.9 14.9 34.6 13.8 34.5 13.7C34.4 13.8 34.4 13.8 34.3 13.8 34.2 13.8 34.2 13.8 34.1 13.8L32.5 13C32.7 12.8 32.8 12.5 32.9 12.2 32.9 11.9 32.8 11.6 32.6 11.3 32.4 10.9 32.1 10.7 31.7 10.7 31.3 10.6 31 10.7 30.6 11L28.1 12.7 28.2 12.8C28.3 12.8 28.3 12.8 28.3 12.8 28.4 12.8 28.4 12.8 28.5 12.8ZM28.8 16.8L26.9 18.6 26.2 17.9 27.5 16.7C27.5 16.6 27.5 16.6 27.6 16.6 27.7 16.6 27.7 16.6 27.8 16.7L27.9 16.6 26.9 15.7 26.9 15.7C26.9 15.8 27 15.9 27 15.9 26.9 16 26.9 16 26.9 16L25.6 17.2 25.1 16.6 27 14.8C27.1 14.7 27.1 14.7 27.2 14.7 27.2 14.7 27.3 14.8 27.3 14.8L27.4 14.8 26.5 13.7 26.4 13.8C26.5 13.9 26.5 13.9 26.5 14 26.5 14 26.5 14.1 26.4 14.1L23.4 17 23.4 17.1C23.5 17.1 23.6 17 23.6 17 23.7 17 23.7 17 23.8 17L26.4 19.9C26.5 20 26.5 20 26.4 20.1 26.4 20.1 26.4 20.2 26.3 20.2L26.4 20.3 29.4 17.4C29.5 17.4 29.5 17.3 29.6 17.3 29.6 17.3 29.6 17.3 29.7 17.4L29.8 17.3 28.9 16.4 28.8 16.4C28.9 16.6 28.9 16.7 28.8 16.8ZM19.6 21.7L19.7 21.7C19.7 21.7 19.7 21.7 19.7 21.7 19.7 21.7 19.8 21.7 19.8 21.6 19.9 21.6 20 21.7 20.2 21.7 20.4 21.8 23.3 22.9 23.5 23 23.7 23 23.8 23.1 23.8 23.1 23.8 23.1 23.8 23.2 23.8 23.2 23.8 23.3 23.8 23.3 23.8 23.3L23.9 23.4 25.1 21.9 25 21.8C25 21.8 24.9 21.9 24.9 21.9 24.8 21.9 24.8 21.9 24.7 21.9 24.7 21.8 24.7 21.7 24.6 21.6 24.4 21.4 22.6 18.4 22.5 18.3 22.5 18.3 22.5 18.2 22.5 18.2 22.5 18.2 22.5 18.1 22.5 18.1L22.4 18 21.5 19.2 21.6 19.2C21.6 19.2 21.6 19.2 21.6 19.1 21.7 19.1 21.7 19.1 21.8 19.1 21.8 19.2 21.8 19.3 22 19.4 22.1 19.6 23.1 21.3 23.2 21.5L23.2 21.5C23.2 21.5 20.9 20.7 20.8 20.7 20.7 20.6 20.6 20.6 20.6 20.6 20.6 20.5 20.6 20.5 20.6 20.5 20.7 20.4 20.7 20.4 20.7 20.3L20.6 20.3 19.6 21.7ZM20.8 27.8L17.2 26.2C17.2 26.2 17.1 26.1 17.1 26.1 17.1 26 17.1 26 17.2 25.9L17.1 25.9 16.3 27.3 16.4 27.4C16.5 27.3 16.5 27.3 16.5 27.2 16.6 27.2 16.6 27.2 16.7 27.2L18.6 28C18.3 28.1 18 28.2 17.7 28.3 17.4 28.4 17.1 28.5 16.9 28.5 16.7 28.6 16.5 28.7 16.3 28.7 16.2 28.8 16.1 28.8 16.1 28.8 16 28.8 15.9 28.7 15.9 28.6 15.9 28.6 15.9 28.5 15.9 28.5L15.8 28.4 15 30.5 15.1 30.6C15.2 30.5 15.2 30.4 15.2 30.4 15.3 30.4 15.3 30.4 15.4 30.4L19 32C19 32 19.1 32.1 19.1 32.1 19.1 32.2 19.1 32.2 19 32.3L19.2 32.3 19.7 30.8 19.6 30.8C19.6 30.8 19.5 30.9 19.5 30.9 19.5 31 19.4 31 19.3 30.9L16.9 29.8 16.9 29.8C17.3 29.7 17.7 29.6 18.1 29.5 18.5 29.4 18.8 29.3 19.1 29.2 19.4 29.1 19.7 29 19.9 28.9 20.1 28.9 20.2 28.9 20.3 28.9 20.4 28.9 20.4 29 20.4 29 20.3 29.1 20.3 29.1 20.3 29.2L20.4 29.2 21.2 27.7 21.1 27.6C21 27.7 21 27.8 21 27.8 20.9 27.8 20.9 27.8 20.8 27.8ZM13.6 36.9L15.7 37.4C16 37.5 16.2 37.5 16.5 37.5 16.8 37.5 17 37.4 17.2 37.3 17.4 37.2 17.6 37 17.8 36.7 17.9 36.5 18.1 36.2 18.2 35.8 18.2 35.4 18.3 35 18.3 34.7 18.2 34.4 18.1 34.2 18 34 17.9 33.8 17.7 33.6 17.5 33.5 17.3 33.3 17 33.2 16.8 33.2L14.6 32.7C14.6 32.6 14.5 32.6 14.5 32.5 14.5 32.5 14.5 32.4 14.5 32.4L14.4 32.3 13.9 33.9 14.1 34C14.1 33.9 14.1 33.9 14.1 33.9 14.1 33.9 14.2 33.8 14.3 33.9L16.7 34.4C16.9 34.5 17.1 34.6 17.2 34.8 17.2 35 17.2 35.3 17.2 35.5 17.1 35.8 17 36 16.9 36.1 16.7 36.3 16.5 36.3 16.2 36.3L13.8 35.7C13.8 35.7 13.7 35.6 13.7 35.6 13.7 35.5 13.7 35.5 13.7 35.5L13.6 35.4 13.2 37.1 13.4 37.1C13.4 37 13.4 37 13.4 36.9 13.5 36.9 13.5 36.9 13.6 36.9ZM51.8 86C75 86 93.8 67.2 93.8 44 93.8 20.9 75 2 51.8 2 28.7 2 9.9 20.9 9.9 44 9.9 67.2 28.7 86 51.8 86ZM51.8 0.5C75.8 0.5 95.3 20 95.3 44 95.3 68 75.8 87.5 51.8 87.5 27.9 87.5 8.4 68 8.4 44 8.4 20 27.9 0.5 51.8 0.5ZM84 44C84 61.8 69.6 76.2 51.9 76.2 34.1 76.2 19.8 61.8 19.8 44 19.8 26.2 34.1 11.8 51.9 11.8 69.6 11.8 84 26.2 84 44Z"/><rect fill="#FFFFFF" x="1.3" y="138" width="101.7" height="1.1"/><path fill="#FFFFFF" d="M102.8 121.6L103 121.6C103.3 121.6 103.6 121.5 103.6 121.2 103.6 121 103.4 120.8 103 120.8 102.9 120.8 102.9 120.8 102.8 120.8L102.8 121.6ZM102.8 122.6L102.5 122.6 102.5 120.6C102.7 120.6 102.9 120.6 103.1 120.6 103.3 120.6 103.5 120.6 103.7 120.7 103.8 120.8 103.8 121 103.8 121.1 103.8 121.4 103.7 121.6 103.4 121.6L103.4 121.6C103.6 121.7 103.7 121.8 103.8 122.1 103.8 122.5 103.9 122.6 103.9 122.6L103.7 122.6C103.6 122.6 103.5 122.4 103.5 122.1 103.4 121.9 103.3 121.7 103 121.7L102.8 121.7 102.8 122.6ZM103.1 120C102.3 120 101.7 120.7 101.7 121.6 101.7 122.5 102.3 123.2 103.2 123.2 104 123.2 104.6 122.5 104.6 121.6 104.6 120.7 104 120 103.2 120L103.1 120ZM103.2 119.8C104.1 119.8 104.9 120.6 104.9 121.6 104.9 122.6 104.1 123.4 103.1 123.4 102.2 123.4 101.4 122.6 101.4 121.6 101.4 120.6 102.2 119.8 103.1 119.8L103.2 119.8ZM79.7 85.4L79.5 83.8C79.5 83.6 79.5 83.4 79.5 83.2L79.5 83.2C79.4 83.4 79.4 83.6 79.3 83.8L78.6 85.4 78.4 85.4 77.7 83.8C77.6 83.6 77.6 83.4 77.5 83.2L77.5 83.2C77.5 83.4 77.5 83.6 77.5 83.8L77.3 85.4 77.1 85.4 77.3 83 77.6 83 78.3 84.6C78.4 84.7 78.4 84.9 78.5 85.1L78.5 85.1C78.6 84.9 78.6 84.7 78.7 84.5L79.4 83 79.7 83 79.9 85.4 79.7 85.4ZM77 83L77 83.2 76.1 83.2 76.1 85.4 75.9 85.4 75.9 83.2 74.9 83.2 74.9 83 77 83ZM1.5 103.8C1.5 101.1 1.5 100.6 1.5 100 1.4 99.4 1.3 99.1 0.7 99 0.6 99 0.3 99 0.1 99 0.1 99 0 98.9 0 98.9 0 98.8 0.1 98.7 0.3 98.7 1.1 98.7 2.1 98.8 2.3 98.8 2.4 98.8 3.5 98.7 4 98.7 4.2 98.7 4.3 98.8 4.3 98.9 4.3 98.9 4.2 99 4.2 99 4 99 3.9 99 3.7 99 3.2 99.1 3.1 99.4 3.1 100 3 100.6 3 101.1 3 103.8L3 106.2C3 108.7 3.6 109.8 4.3 110.5 5.2 111.3 6 111.5 7 111.5 8 111.5 9.1 111 9.7 110.2 10.5 109.2 10.7 107.8 10.7 106L10.7 103.8C10.7 101.1 10.7 100.6 10.7 100 10.7 99.4 10.5 99.1 9.9 99 9.8 99 9.5 99 9.3 99 9.3 99 9.2 98.9 9.2 98.9 9.2 98.8 9.3 98.7 9.5 98.7 10.3 98.7 11.2 98.8 11.3 98.8 11.5 98.8 12.3 98.7 12.8 98.7 13 98.7 13.1 98.8 13.1 98.9 13.1 98.9 13 99 12.9 99 12.8 99 12.7 99 12.5 99 12 99.1 11.9 99.4 11.9 100 11.8 100.6 11.8 101.1 11.8 103.8L11.8 105.6C11.8 107.5 11.6 109.6 10.2 110.9 9 112 7.7 112.1 6.6 112.1 6 112.1 4.3 112.1 3 110.9 2.2 110.1 1.5 108.9 1.5 106.3L1.5 103.8ZM16.2 109.9C16.2 111.1 16.3 111.5 16.8 111.6 17 111.6 17.4 111.7 17.5 111.7 17.6 111.7 17.6 111.7 17.6 111.8 17.6 111.9 17.5 111.9 17.4 111.9 16.5 111.9 15.9 111.9 15.7 111.9 15.6 111.9 15 111.9 14.3 111.9 14.1 111.9 14 111.9 14 111.8 14 111.7 14.1 111.7 14.1 111.7 14.3 111.7 14.5 111.6 14.8 111.6 15.2 111.5 15.2 111.1 15.2 109.7L15.2 101.2C15.2 100.6 15.3 100.5 15.4 100.5 15.6 100.5 15.8 100.8 16 100.9 16.3 101.2 18.5 103.6 20.9 106 22.4 107.6 24 109.3 24.5 109.8L24.3 102.4C24.3 101.4 24.2 101.1 23.7 101 23.5 101 23.1 100.9 23 100.9 22.9 100.9 22.9 100.8 22.9 100.8 22.9 100.7 23 100.7 23.2 100.7 23.9 100.7 24.6 100.7 24.8 100.7 25 100.7 25.5 100.7 26.1 100.7 26.2 100.7 26.4 100.7 26.4 100.8 26.4 100.8 26.3 100.9 26.2 100.9 26.1 100.9 26 100.9 25.8 101 25.3 101.1 25.3 101.4 25.3 102.3L25.2 110.9C25.2 111.9 25.2 112 25.1 112 25 112 24.8 111.9 24 111.1 23.8 111 21.6 108.8 20 107.1 18.2 105.2 16.5 103.4 16 102.9L16.2 109.9ZM31.3 107.6C31.3 109 31.3 110.2 31.4 110.8 31.5 111.2 31.5 111.5 32 111.6 32.2 111.6 32.5 111.7 32.7 111.7 32.7 111.7 32.8 111.7 32.8 111.8 32.8 111.9 32.7 111.9 32.5 111.9 31.7 111.9 30.7 111.9 30.6 111.9 30.5 111.9 29.6 111.9 29.1 111.9 28.9 111.9 28.9 111.9 28.9 111.8 28.9 111.7 28.9 111.7 29 111.7 29.1 111.7 29.3 111.6 29.5 111.6 29.7 111.5 29.8 111.2 29.9 110.8 29.9 110.2 29.9 109 29.9 107.6L29.9 105C29.9 102.7 29.9 102.3 29.9 101.8 29.9 101.3 29.7 101.1 29.4 101 29.2 101 29 100.9 28.9 100.9 28.9 100.9 28.8 100.9 28.8 100.8 28.8 100.7 28.9 100.7 29.1 100.7 29.6 100.7 30.5 100.7 30.6 100.7 30.7 100.7 31.7 100.7 32.2 100.7 32.3 100.7 32.4 100.7 32.4 100.8 32.4 100.9 32.3 100.9 32.3 100.9 32.2 100.9 32.1 100.9 31.9 101 31.5 101.1 31.4 101.3 31.4 101.8 31.3 102.3 31.3 102.7 31.3 105L31.3 107.6ZM40.7 110C41.6 108 43.6 102.9 43.9 101.9 44 101.6 44 101.4 44 101.3 44 101.2 44 101 43.8 101 43.6 100.9 43.5 100.9 43.3 100.9 43.2 100.9 43.1 100.9 43.1 100.8 43.1 100.7 43.2 100.7 43.5 100.7 44.1 100.7 44.8 100.7 45 100.7 45.1 100.7 45.7 100.7 46.2 100.7 46.3 100.7 46.4 100.7 46.4 100.8 46.4 100.9 46.4 100.9 46.2 100.9 46.1 100.9 45.8 100.9 45.5 101.1 45.3 101.2 45.1 101.5 44.7 102.5 44.5 102.9 43.7 104.7 42.9 106.5 42 108.6 41.3 110.2 41 111 40.6 111.9 40.5 112.1 40.3 112.1 40.1 112.1 40 111.9 39.7 111.2L36 102.1C35.6 101.3 35.4 101.1 34.9 101 34.7 100.9 34.4 100.9 34.3 100.9 34.2 100.9 34.2 100.8 34.2 100.8 34.2 100.7 34.4 100.7 34.6 100.7 35.3 100.7 36.2 100.7 36.4 100.7 36.5 100.7 37.2 100.7 37.8 100.7 38.1 100.7 38.2 100.7 38.2 100.8 38.2 100.9 38.2 100.9 38.1 100.9 37.9 100.9 37.7 101 37.5 101 37.4 101.1 37.4 101.2 37.4 101.3 37.4 101.5 37.5 101.9 37.8 102.5L40.7 110ZM49.1 105C49.1 102.7 49.1 102.3 49 101.8 49 101.3 48.9 101 48.4 101 48.3 101 48 100.9 47.9 100.9 47.8 100.9 47.8 100.9 47.8 100.8 47.8 100.7 47.8 100.7 48 100.7 48.7 100.7 49.7 100.7 49.8 100.7 49.9 100.7 53.1 100.7 53.4 100.7 53.7 100.7 54 100.7 54.1 100.6 54.2 100.6 54.3 100.6 54.4 100.6 54.4 100.6 54.4 100.6 54.4 100.7 54.4 100.8 54.3 101 54.3 101.4 54.3 101.5 54.2 102.2 54.2 102.4 54.2 102.5 54.1 102.5 54.1 102.5 54 102.5 54 102.5 54 102.4 54 102.2 53.9 102 53.9 101.8 53.8 101.6 53.6 101.5 52.8 101.4 52.5 101.3 50.7 101.3 50.6 101.3 50.5 101.3 50.5 101.4 50.5 101.5L50.5 105.5C50.5 105.6 50.5 105.7 50.6 105.7 50.7 105.7 52.8 105.7 53.1 105.6 53.5 105.6 53.7 105.6 53.9 105.4 54 105.3 54 105.2 54.1 105.2 54.1 105.2 54.2 105.3 54.2 105.3 54.2 105.4 54.1 105.7 54.1 106.2 54 106.5 54 107 54 107.1 54 107.2 54 107.4 53.8 107.4 53.8 107.4 53.7 107.4 53.7 107.3 53.7 107.1 53.7 107 53.7 106.8 53.6 106.6 53.5 106.4 52.9 106.3 52.5 106.3 50.8 106.3 50.6 106.3 50.5 106.3 50.5 106.3 50.5 106.4L50.5 107.6C50.5 108.1 50.4 109.8 50.5 110.1 50.5 111.1 50.8 111.3 52.3 111.3 52.7 111.3 53.4 111.3 53.8 111.2 54.2 111 54.4 110.7 54.5 110.1 54.6 110 54.6 109.9 54.7 109.9 54.8 109.9 54.8 110 54.8 110.1 54.8 110.2 54.7 111.2 54.6 111.6 54.5 111.9 54.3 111.9 53.7 111.9 52.6 111.9 51.7 111.9 51.1 111.9 50.4 111.9 50 111.9 49.8 111.9 49.7 111.9 49.5 111.9 49.1 111.9 48.8 111.9 48.5 111.9 48.2 111.9 48.1 111.9 48 111.9 48 111.8 48 111.7 48 111.7 48.1 111.7 48.3 111.7 48.4 111.6 48.6 111.6 48.9 111.5 48.9 111.2 49 110.8 49.1 110.2 49.1 109 49.1 107.6L49.1 105ZM59.4 106.2C59.4 106.3 59.4 106.4 59.5 106.4 59.7 106.6 60.5 106.7 61.2 106.7 61.6 106.7 62 106.6 62.4 106.4 62.9 106 63.3 105.3 63.3 104.1 63.3 102.3 62.3 101.2 60.6 101.2 60.2 101.2 59.7 101.3 59.5 101.3 59.5 101.3 59.4 101.4 59.4 101.5L59.4 106.2ZM58.1 105C58.1 102.7 58.1 102.3 58 101.8 58 101.3 57.9 101 57.4 101 57.3 101 57 100.9 56.9 100.9 56.8 100.9 56.8 100.9 56.8 100.8 56.8 100.7 56.8 100.7 57 100.7 57.7 100.7 58.7 100.7 58.8 100.7 59 100.7 60.3 100.7 60.8 100.7 61.7 100.7 62.8 100.8 63.6 101.3 64 101.6 64.7 102.3 64.7 103.4 64.7 104.5 64.2 105.5 62.8 106.7 64 108.3 65.1 109.7 66 110.6 66.8 111.4 67.3 111.6 67.7 111.6 68 111.7 68.2 111.7 68.3 111.7 68.3 111.7 68.4 111.7 68.4 111.8 68.4 111.9 68.3 111.9 68 111.9L67.1 111.9C66.2 111.9 65.8 111.8 65.4 111.6 64.8 111.3 64.2 110.5 63.3 109.4 62.7 108.6 62 107.7 61.7 107.3 61.6 107.2 61.6 107.2 61.5 107.2L59.5 107.1C59.4 107.1 59.4 107.2 59.4 107.3L59.4 107.6C59.4 109 59.4 110.2 59.5 110.8 59.5 111.2 59.6 111.5 60.1 111.6 60.3 111.6 60.6 111.7 60.8 111.7 60.9 111.7 60.9 111.7 60.9 111.8 60.9 111.9 60.8 111.9 60.6 111.9 59.8 111.9 58.8 111.9 58.8 111.9 58.7 111.9 57.7 111.9 57.2 111.9 57.1 111.9 57 111.9 57 111.8 57 111.7 57 111.7 57.1 111.7 57.3 111.7 57.5 111.6 57.6 111.6 57.9 111.5 57.9 111.2 58 110.8 58.1 110.2 58.1 109 58.1 107.6L58.1 105ZM68.9 111.7C68.7 111.6 68.7 111.5 68.7 111.1 68.7 110.4 68.8 109.8 68.8 109.6 68.8 109.4 68.8 109.3 68.9 109.3 69 109.3 69.1 109.4 69.1 109.5 69.1 109.6 69.1 109.8 69.1 110 69.4 111.1 70.5 111.5 71.5 111.5 73.1 111.5 73.8 110.6 73.8 109.5 73.8 108.5 73.3 108 71.9 107L71.2 106.4C69.6 105.2 69 104.3 69 103.3 69 101.5 70.4 100.5 72.4 100.5 73 100.5 73.6 100.6 74 100.6 74.3 100.7 74.4 100.7 74.5 100.7 74.7 100.7 74.7 100.7 74.7 100.8 74.7 100.9 74.6 101.4 74.6 102.4 74.6 102.6 74.6 102.7 74.5 102.7 74.4 102.7 74.4 102.6 74.4 102.5 74.4 102.4 74.2 101.9 74.1 101.8 74 101.6 73.5 101.1 72.2 101.1 71 101.1 70.1 101.6 70.1 102.7 70.1 103.6 70.6 104.1 72.1 105.2L72.5 105.5C74.4 106.7 75 107.8 75 109 75 109.9 74.7 110.9 73.6 111.6 73 112 72 112.1 71.2 112.1 70.5 112.1 69.6 112 68.9 111.7ZM79.9 107.6C79.9 109 79.9 110.2 80 110.8 80.1 111.2 80.1 111.5 80.6 111.6 80.8 111.6 81.1 111.7 81.3 111.7 81.4 111.7 81.4 111.7 81.4 111.8 81.4 111.9 81.3 111.9 81.2 111.9 80.3 111.9 79.3 111.9 79.2 111.9 79.1 111.9 78.2 111.9 77.7 111.9 77.6 111.9 77.5 111.9 77.5 111.8 77.5 111.7 77.5 111.7 77.6 111.7 77.7 111.7 77.9 111.6 78.1 111.6 78.4 111.5 78.4 111.2 78.5 110.8 78.5 110.2 78.6 109 78.6 107.6L78.6 105C78.6 102.7 78.6 102.3 78.5 101.8 78.5 101.3 78.4 101.1 78 101 77.9 101 77.7 100.9 77.6 100.9 77.5 100.9 77.4 100.9 77.4 100.8 77.4 100.7 77.5 100.7 77.7 100.7 78.2 100.7 79.1 100.7 79.2 100.7 79.3 100.7 80.3 100.7 80.8 100.7 80.9 100.7 81 100.7 81 100.8 81 100.9 80.9 100.9 80.9 100.9 80.8 100.9 80.7 100.9 80.5 101 80.1 101.1 80 101.3 80 101.8 79.9 102.3 79.9 102.7 79.9 105L79.9 107.6ZM88.8 107.6C88.8 109 88.8 110.2 88.9 110.8 88.9 111.2 89 111.5 89.5 111.6 89.7 111.6 90 111.7 90.2 111.7 90.3 111.7 90.3 111.7 90.3 111.8 90.3 111.9 90.2 111.9 90 111.9 89.2 111.9 88.2 111.9 88.1 111.9 88.1 111.9 87 111.9 86.6 111.9 86.4 111.9 86.3 111.9 86.3 111.8 86.3 111.7 86.3 111.7 86.4 111.7 86.6 111.7 86.8 111.6 86.9 111.6 87.2 111.5 87.3 111.2 87.3 110.8 87.4 110.2 87.4 109 87.4 107.6L87.4 101.4 85.2 101.4C84.2 101.4 83.9 101.5 83.6 101.9 83.5 102.1 83.5 102.2 83.4 102.4 83.4 102.5 83.3 102.5 83.2 102.5 83.2 102.5 83.1 102.5 83.1 102.4 83.1 102.2 83.5 100.9 83.5 100.8 83.5 100.7 83.6 100.5 83.6 100.5 83.7 100.5 83.9 100.6 84.3 100.7 84.7 100.7 85.3 100.7 85.5 100.7L91.3 100.7C91.8 100.7 92.2 100.7 92.4 100.7 92.6 100.6 92.8 100.6 92.8 100.6 92.9 100.6 92.9 100.7 92.9 100.8 92.9 101.2 92.9 102.3 92.9 102.5 92.9 102.6 92.8 102.6 92.7 102.6 92.6 102.6 92.6 102.6 92.6 102.4L92.6 102.2C92.5 101.8 92.2 101.4 90.7 101.4L88.8 101.4 88.8 107.6ZM99.1 108.1C99.1 107.2 99 107 98.8 106.5 98.7 106.3 96.6 103 96.1 102.2 95.7 101.7 95.3 101.3 95.1 101.1 94.8 101 94.5 100.9 94.4 100.9 94.3 100.9 94.3 100.9 94.3 100.8 94.3 100.7 94.3 100.7 94.5 100.7 94.8 100.7 95.9 100.7 96 100.7 96.1 100.7 96.7 100.7 97.3 100.7 97.5 100.7 97.5 100.7 97.5 100.8 97.5 100.8 97.4 100.9 97.3 101 97.1 101 97.1 101.1 97.1 101.2 97.1 101.4 97.2 101.6 97.3 101.8L100.1 106.4C100.4 105.8 102.3 102.6 102.6 102.1 102.8 101.8 102.8 101.5 102.8 101.3 102.8 101.1 102.8 101 102.6 101 102.5 100.9 102.4 100.8 102.4 100.8 102.4 100.7 102.5 100.7 102.6 100.7 103 100.7 103.6 100.7 103.7 100.7 103.8 100.7 104.9 100.7 105.2 100.7 105.3 100.7 105.4 100.7 105.4 100.8 105.4 100.8 105.3 100.9 105.2 100.9 105 100.9 104.7 101 104.5 101.1 104.2 101.3 104 101.5 103.7 101.9 103.2 102.5 101 105.9 100.7 106.6 100.5 107.1 100.5 107.6 100.5 108.1L100.5 109.3C100.5 109.6 100.5 110.2 100.6 110.8 100.6 111.2 100.7 111.5 101.2 111.6 101.4 111.6 101.7 111.7 101.9 111.7 102 111.7 102 111.7 102 111.8 102 111.9 101.9 111.9 101.7 111.9 100.9 111.9 99.9 111.9 99.8 111.9 99.7 111.9 98.8 111.9 98.3 111.9 98.1 111.9 98.1 111.9 98.1 111.8 98.1 111.7 98.1 111.7 98.2 111.7 98.3 111.7 98.5 111.6 98.6 111.6 99 111.5 99.1 111.2 99.1 110.8 99.1 110.2 99.1 109.6 99.1 109.3L99.1 108.1ZM6.5 128C6.5 129.5 7.1 130.6 8.7 130.6 11 130.6 12 127.2 12 125.4 12 124 11.3 122.8 9.8 122.8 7.4 122.8 6.5 126 6.5 128ZM5.1 127.7C5.1 124.5 7.2 122.3 9.7 122.3 12 122.3 13.4 123.7 13.4 125.9 13.4 128.4 11.6 131.2 8.5 131.1 6.3 131.1 5.1 129.6 5.1 127.7ZM20.6 122.8L20.5 123.4 18.2 123.4 17.5 127.6C17.2 128.9 16.9 130 16.4 131.2 15.6 133 14.5 134.3 14.4 134.4 13.9 134.1 14 134 14.2 133.7 15.2 132.6 15.7 131.2 15.9 129.7L17 123.4 15.3 123.4 15.4 122.8 17.1 122.8C17.7 119.3 19.4 117.2 20.6 117.2 20.9 117.2 21.2 117.5 21.2 118 21.2 118.7 20.8 119 20.6 119 20.3 119 20.5 118.5 19.9 118.5 18.9 118.5 18.8 120.4 18.3 122.8L20.6 122.8ZM40.4 125.7C40.4 127.4 40.4 128.8 40.5 129.5 40.5 130 40.6 130.4 41.1 130.5 41.4 130.5 41.8 130.6 41.9 130.6 42 130.6 42.1 130.6 42.1 130.7 42.1 130.8 42 130.8 41.8 130.8 40.8 130.8 39.7 130.8 39.6 130.8 39.5 130.8 38.4 130.8 37.9 130.8 37.7 130.8 37.6 130.8 37.6 130.7 37.6 130.6 37.7 130.6 37.8 130.6 37.9 130.6 38.2 130.5 38.3 130.5 38.7 130.4 38.7 130 38.8 129.5 38.9 128.8 38.9 127.4 38.9 125.7L38.9 123.9C38.9 123.8 38.8 123.8 38.8 123.8L31.4 123.8C31.4 123.8 31.3 123.8 31.3 123.9L31.3 125.7C31.3 127.4 31.3 128.8 31.4 129.5 31.4 130 31.5 130.4 32.1 130.5 32.3 130.5 32.7 130.6 32.9 130.6 33 130.6 33 130.6 33 130.7 33 130.8 32.9 130.8 32.7 130.8 31.8 130.8 30.7 130.8 30.6 130.8 30.5 130.8 29.4 130.8 28.9 130.8 28.7 130.8 28.6 130.8 28.6 130.7 28.6 130.6 28.6 130.6 28.7 130.6 28.9 130.6 29.1 130.5 29.2 130.5 29.6 130.4 29.7 130 29.7 129.5 29.8 128.8 29.8 127.4 29.8 125.7L29.8 122.7C29.8 120 29.8 119.5 29.8 118.9 29.8 118.3 29.6 118 29 117.9 28.9 117.9 28.6 117.9 28.5 117.9 28.4 117.9 28.3 117.8 28.3 117.8 28.3 117.7 28.4 117.6 28.6 117.6 29.4 117.6 30.5 117.7 30.6 117.7 30.7 117.7 31.8 117.6 32.3 117.6 32.5 117.6 32.6 117.7 32.6 117.8 32.6 117.8 32.5 117.9 32.4 117.9 32.3 117.9 32.2 117.9 32 117.9 31.5 118 31.4 118.3 31.3 118.9 31.3 119.5 31.3 120 31.3 122.7L31.3 123C31.3 123.1 31.4 123.1 31.4 123.1L38.8 123.1C38.8 123.1 38.9 123.1 38.9 123L38.9 122.7C38.9 120 38.9 119.5 38.9 118.9 38.8 118.3 38.7 118 38.1 117.9 38 117.9 37.7 117.9 37.5 117.9 37.5 117.9 37.4 117.8 37.4 117.8 37.4 117.7 37.5 117.6 37.7 117.6 38.4 117.6 39.5 117.7 39.6 117.7 39.7 117.7 40.8 117.6 41.3 117.6 41.5 117.6 41.6 117.7 41.6 117.8 41.6 117.8 41.6 117.9 41.5 117.9 41.4 117.9 41.3 117.9 41 117.9 40.6 118 40.4 118.3 40.4 118.9 40.4 119.5 40.4 120 40.4 122.7L40.4 125.7ZM50.4 126.1C50.5 126.1 50.5 126 50.5 126L48.9 121.9C48.9 121.7 48.8 121.7 48.7 121.9L47.3 126C47.2 126 47.3 126.1 47.3 126.1L50.4 126.1ZM48.7 119.9C48.9 119.4 49 119.3 49.1 119.3 49.2 119.3 49.3 119.5 49.4 119.9 49.7 120.5 52.2 126.6 53.1 128.9 53.7 130.2 54.1 130.4 54.4 130.5 54.6 130.5 54.9 130.6 55 130.6 55.1 130.6 55.2 130.6 55.2 130.7 55.2 130.8 55 130.8 54.9 130.8 54.6 130.8 53.5 130.8 52.5 130.8 52.2 130.8 51.9 130.8 51.9 130.7 51.9 130.6 51.9 130.6 52 130.6 52.1 130.5 52.3 130.4 52.2 130.2L50.8 126.8C50.7 126.7 50.7 126.7 50.6 126.7L47.1 126.7C47 126.7 47 126.7 46.9 126.8L46.1 129.2C45.9 129.5 45.8 129.9 45.8 130.2 45.8 130.5 46.1 130.6 46.4 130.6L46.5 130.6C46.6 130.6 46.7 130.6 46.7 130.7 46.7 130.8 46.6 130.8 46.4 130.8 46.1 130.8 45.2 130.8 45.1 130.8 44.9 130.8 44.1 130.8 43.5 130.8 43.3 130.8 43.2 130.8 43.2 130.7 43.2 130.6 43.3 130.6 43.3 130.6 43.5 130.6 43.7 130.5 43.8 130.5 44.5 130.4 44.8 129.9 45.1 129.2L48.7 119.9ZM66.5 128.6L66.6 128.6C67 127.4 68.3 123.1 68.9 121.2 69 120.6 69.1 120.5 69.1 120.3 69.1 120 68.9 119.8 68.2 119.8 68.1 119.8 68.1 119.7 68.1 119.7 68.1 119.6 68.2 119.6 68.4 119.6 69.1 119.6 69.8 119.6 69.9 119.6 70 119.6 70.7 119.6 71.2 119.6 71.3 119.6 71.4 119.6 71.4 119.7 71.4 119.7 71.3 119.8 71.2 119.8 71.2 119.8 70.9 119.9 70.7 119.9 70.3 120.1 70 120.7 69.7 121.5 69 123.4 67.5 128.1 66.9 129.7 66.5 130.8 66.4 131 66.2 131 66.1 131 65.9 130.8 65.7 130.2L62.7 122.1C62.2 123.4 60.1 128.8 59.6 130.2 59.3 130.8 59.2 131 59 131 58.9 131 58.8 130.8 58.4 129.8L55.7 121C55.5 120.3 55.3 120.1 54.9 119.9 54.7 119.9 54.3 119.8 54.2 119.8 54.2 119.8 54.1 119.8 54.1 119.7 54.1 119.6 54.2 119.6 54.3 119.6 55.1 119.6 56 119.6 56.1 119.6 56.3 119.6 57 119.6 57.8 119.6 58 119.6 58 119.6 58 119.7 58 119.8 57.9 119.8 57.9 119.8 57.8 119.8 57.5 119.8 57.3 119.9 57.2 120 57.1 120 57.1 120.2 57.1 120.4 57.2 121 57.4 121.6 57.7 122.6 59.2 128 59.4 128.6L59.5 128.6 62.7 120.3C62.9 119.7 63 119.6 63.1 119.6 63.2 119.6 63.3 119.8 63.5 120.3L66.5 128.6ZM77.3 126.1C77.4 126.1 77.4 126 77.4 126L75.9 121.9C75.8 121.7 75.7 121.7 75.6 121.9L74.2 126C74.1 126 74.2 126.1 74.2 126.1L77.3 126.1ZM75.6 119.9C75.8 119.4 75.9 119.3 76 119.3 76.1 119.3 76.2 119.5 76.3 119.9 76.6 120.5 79.1 126.6 80 128.9 80.6 130.2 81 130.4 81.3 130.5 81.6 130.5 81.8 130.6 81.9 130.6 82 130.6 82.1 130.6 82.1 130.7 82.1 130.8 82 130.8 81.8 130.8 81.6 130.8 80.4 130.8 79.4 130.8 79.1 130.8 78.8 130.8 78.8 130.7 78.8 130.6 78.9 130.6 78.9 130.6 79 130.5 79.2 130.4 79.1 130.2L77.7 126.8C77.6 126.7 77.6 126.7 77.5 126.7L74 126.7C73.9 126.7 73.9 126.7 73.8 126.8L73 129.2C72.8 129.5 72.7 129.9 72.7 130.2 72.7 130.5 73 130.6 73.3 130.6L73.4 130.6C73.5 130.6 73.6 130.6 73.6 130.7 73.6 130.8 73.5 130.8 73.3 130.8 73 130.8 72.1 130.8 72 130.8 71.8 130.8 71 130.8 70.4 130.8 70.2 130.8 70.1 130.8 70.1 130.7 70.1 130.6 70.2 130.6 70.3 130.6 70.4 130.6 70.6 130.5 70.7 130.5 71.4 130.4 71.7 129.9 72 129.2L75.6 119.9ZM86.1 126.5C86.1 127.9 86.1 129.1 86.1 129.7 86.2 130.1 86.2 130.4 86.7 130.5 86.9 130.5 87.2 130.6 87.4 130.6 87.5 130.6 87.5 130.6 87.5 130.7 87.5 130.8 87.4 130.8 87.3 130.8 86.4 130.8 85.4 130.8 85.3 130.8 85.3 130.8 84.3 130.8 83.8 130.8 83.7 130.8 83.6 130.8 83.6 130.7 83.6 130.6 83.6 130.6 83.7 130.6 83.8 130.6 84 130.5 84.2 130.5 84.5 130.4 84.5 130.1 84.6 129.7 84.6 129.1 84.7 127.9 84.7 126.5L84.7 123.9C84.7 121.6 84.7 121.2 84.6 120.7 84.6 120.2 84.5 120 84.1 119.9 84 119.9 83.8 119.8 83.7 119.8 83.6 119.8 83.5 119.8 83.5 119.7 83.5 119.6 83.6 119.6 83.8 119.6 84.3 119.6 85.3 119.6 85.3 119.6 85.4 119.6 86.4 119.6 86.9 119.6 87 119.6 87.1 119.6 87.1 119.7 87.1 119.8 87 119.8 87 119.8 86.9 119.8 86.8 119.8 86.6 119.9 86.2 120 86.1 120.2 86.1 120.7 86.1 121.2 86.1 121.6 86.1 123.9L86.1 126.5ZM91.5 120.4C91.7 120.6 91.7 120.6 91.7 120.7 91.7 120.7 91.6 120.8 91.5 120.8 91.2 120.8 90.6 120.6 90.3 120.5 90.1 120.4 90 120.3 90 120 90 118.8 90.9 117.3 91.5 116.6 91.6 116.5 91.6 116.5 91.7 116.5 91.8 116.5 91.8 116.5 91.8 116.5 91.8 116.6 91.8 116.6 91.7 116.8 91.5 117.3 91.2 118.3 91.2 119.3 91.2 119.8 91.4 120.3 91.5 120.4ZM97.2 126.5C97.2 127.9 97.2 129.1 97.2 129.7 97.3 130.1 97.4 130.4 97.8 130.5 98 130.5 98.4 130.6 98.5 130.6 98.6 130.6 98.6 130.6 98.6 130.7 98.6 130.8 98.6 130.8 98.4 130.8 97.5 130.8 96.5 130.8 96.5 130.8 96.4 130.8 95.4 130.8 94.9 130.8 94.8 130.8 94.7 130.8 94.7 130.7 94.7 130.6 94.7 130.6 94.8 130.6 95 130.6 95.2 130.5 95.3 130.5 95.6 130.4 95.6 130.1 95.7 129.7 95.8 129.1 95.8 127.9 95.8 126.5L95.8 123.9C95.8 121.6 95.8 121.2 95.7 120.7 95.7 120.2 95.6 120 95.3 119.9 95.1 119.9 94.9 119.8 94.8 119.8 94.7 119.8 94.7 119.8 94.7 119.7 94.7 119.6 94.7 119.6 94.9 119.6 95.4 119.6 96.4 119.6 96.5 119.6 96.5 119.6 97.5 119.6 98 119.6 98.2 119.6 98.2 119.6 98.2 119.7 98.2 119.8 98.2 119.8 98.1 119.8 98 119.8 97.9 119.8 97.7 119.9 97.3 120 97.2 120.2 97.2 120.7 97.2 121.2 97.2 121.6 97.2 123.9L97.2 126.5ZM30.7 154.6C30.8 154.6 30.9 154.5 30.9 154.4L30.9 153.7C30.9 148.8 30.9 147.9 30.8 146.9 30.7 145.8 30.5 145.3 29.4 145.1 29.2 145 28.6 145 28.2 145 27.8 145 27.6 144.9 27.6 144.7 27.6 144.5 27.8 144.4 28.3 144.4 30 144.4 32 144.5 32.9 144.5 33.7 144.5 35.7 144.4 36.9 144.4 37.4 144.4 37.6 144.5 37.6 144.7 37.6 144.9 37.4 145 37 145 36.8 145 36.5 145 36.1 145.1 35.2 145.3 35 145.8 34.9 146.9 34.9 147.9 34.9 148.8 34.9 153.7L34.9 159.4C34.9 162.3 34.9 164.8 35 166.2 35.1 167.1 35.3 167.8 36.3 167.9 36.7 168 37.4 168.1 37.9 168.1 38.3 168.1 38.4 168.2 38.4 168.3 38.4 168.6 38.2 168.6 37.8 168.6 35.7 168.6 33.7 168.6 32.8 168.6 32 168.6 30 168.6 28.8 168.6 28.3 168.6 28.1 168.6 28.1 168.3 28.1 168.2 28.2 168.1 28.6 168.1 29.1 168.1 29.5 168 29.8 167.9 30.4 167.8 30.6 167.1 30.7 166.2 30.9 164.8 30.9 162.3 30.9 159.4L30.9 156.5C30.9 156.4 30.8 156.3 30.7 156.3L18.4 156.3C18.3 156.3 18.2 156.4 18.2 156.5L18.2 159.4C18.2 162.3 18.2 164.8 18.4 166.2 18.5 167.1 18.7 167.8 19.6 167.9 20.1 168 20.8 168.1 21.3 168.1 21.6 168.1 21.8 168.2 21.8 168.3 21.8 168.6 21.5 168.6 21.1 168.6 19.1 168.6 17 168.6 16.1 168.6 15.4 168.6 13.4 168.6 12.1 168.6 11.7 168.6 11.5 168.6 11.5 168.3 11.5 168.2 11.6 168.1 12 168.1 12.5 168.1 12.8 168 13.1 167.9 13.8 167.8 13.9 167.1 14.1 166.2 14.2 164.8 14.2 162.3 14.2 159.4L14.2 153.7C14.2 148.8 14.2 147.9 14.2 146.9 14.1 145.8 13.8 145.3 12.8 145.1 12.5 145 12 145 11.5 145 11.2 145 11 144.9 11 144.7 11 144.5 11.2 144.4 11.7 144.4 13.4 144.4 15.4 144.5 16.3 144.5 17 144.5 19.1 144.4 20.3 144.4 20.8 144.4 21 144.5 21 144.7 21 144.9 20.8 145 20.4 145 20.1 145 19.9 145 19.5 145.1 18.6 145.3 18.4 145.8 18.3 146.9 18.2 147.9 18.2 148.8 18.2 153.7L18.2 154.4C18.2 154.5 18.3 154.6 18.4 154.6L30.7 154.6ZM43.7 155.9C43.7 151.8 43.7 151 43.7 150.2 43.6 149.2 43.3 148.9 42.7 148.7 42.4 148.6 42 148.6 41.7 148.6 41.4 148.6 41.2 148.5 41.2 148.3 41.2 148.1 41.5 148 41.9 148 43 148 44.9 148.1 45.7 148.1 46.4 148.1 48.2 148 49.3 148 49.7 148 49.9 148.1 49.9 148.3 49.9 148.5 49.7 148.6 49.4 148.6 49.2 148.6 48.9 148.6 48.6 148.7 47.8 148.8 47.6 149.2 47.6 150.2 47.5 151 47.5 151.8 47.5 155.9L47.5 160.7C47.5 163.4 47.5 165.5 47.6 166.7 47.7 167.4 47.9 167.8 48.7 168 49.1 168 49.8 168.1 50.2 168.1 50.5 168.1 50.6 168.2 50.6 168.4 50.6 168.6 50.4 168.6 50.1 168.6 48.2 168.6 46.3 168.6 45.5 168.6 44.9 168.6 43 168.6 41.8 168.6 41.5 168.6 41.3 168.6 41.3 168.4 41.3 168.2 41.4 168.1 41.8 168.1 42.2 168.1 42.5 168 42.7 168 43.3 167.8 43.5 167.5 43.6 166.7 43.7 165.5 43.7 163.4 43.7 160.7L43.7 155.9ZM60 160.7C60 164.2 60 166 60.6 166.5 61.1 166.9 62.2 167 64.4 167 65.9 167 67 167 67.7 166.3 68 165.9 68.3 165.2 68.4 164.6 68.4 164.4 68.5 164.2 68.7 164.2 68.9 164.2 69 164.5 69 164.8 69 165.2 68.8 167.2 68.6 168 68.4 168.6 68.2 168.7 66.8 168.7 64.7 168.7 63.1 168.7 61.7 168.6 60.3 168.6 59.1 168.6 57.9 168.6 57.6 168.6 57 168.6 56.3 168.6 55.7 168.6 55 168.6 54.4 168.6 54 168.6 53.8 168.6 53.8 168.4 53.8 168.2 53.9 168.1 54.3 168.1 54.7 168.1 55 168 55.3 168 55.9 167.8 56 167.3 56.1 166.5 56.2 165.4 56.2 163.2 56.2 160.7L56.2 155.9C56.2 151.8 56.2 151 56.2 150.2 56.1 149.2 55.9 148.9 55 148.7 54.8 148.6 54.4 148.6 54.1 148.6 53.7 148.6 53.6 148.5 53.6 148.3 53.6 148.1 53.8 148 54.2 148 55.5 148 57.3 148.1 58.1 148.1 58.7 148.1 61.1 148 62.1 148 62.6 148 62.7 148.1 62.7 148.3 62.7 148.5 62.6 148.6 62.2 148.6 61.9 148.6 61.5 148.6 61.1 148.7 60.4 148.8 60.2 149.2 60.1 150.2 60 151 60 151.8 60 155.9L60 160.7ZM89.4 158.8C89.4 152.8 85.8 149.1 81.2 149.1 78.1 149.1 74.4 150.8 74.4 157.5 74.4 163.1 77.6 167.5 82.9 167.5 84.9 167.5 89.4 166.6 89.4 158.8ZM70.2 158.3C70.2 153.7 73.5 147.7 82 147.7 89.2 147.7 93.6 151.6 93.6 157.8 93.6 164.1 89 169 81.8 169 73.6 169 70.2 163.2 70.2 158.3Z"/></svg>